<?xml version="1.0" encoding="utf-8"?>
<!--Designed by Vexels.com - 2017 All Rights Reserved - https://vexels.com/terms-and-conditions/-->
<svg version="1.1" id="Layer_1" xmlns="http://www.w3.org/2000/svg" xmlns:xlink="http://www.w3.org/1999/xlink" x="0px" y="0px"
	 viewBox="0 0 1200 1200" enable-background="new 0 0 1200 1200" xml:space="preserve">
<g>
	<g>
		<path fill="#F79E02" d="M827.562,503.478c0.132,0.311,0.258,0.624,0.389,0.934c3.007-1.366,6.534-2.946,10.537-4.723
			C834.178,501.217,830.497,502.496,827.562,503.478z"/>
		<path fill="#F79E02" d="M838.487,499.689c10.68-3.787,25.084-9.056,40.853-14.903c10.204-3.784,20.072-8.142,29.65-12.954
			c-13.869,4.047-27.554,8.926-40.963,14.834C857.288,491.399,846.96,495.929,838.487,499.689z"/>
		<path fill="#F79E02" d="M688.244,369.188c4.742-9.481,13.619-28.491,23.614-50.269c32.8-71.463,35.113-150.966,6.762-229.545
			l-9.614-26.645c-0.307-2.436-5.057-3.367-6.26-1.227l0,0c-67.623,69.463-103.551,153.852-103.646,243.672
			c-0.021,19.591-0.094,37.99,0.086,47.695c15.957-0.04,32.149,1.442,48.404,4.628C661.697,360.263,675.25,364.241,688.244,369.188z
			"/>
		<path fill="#F79E02" d="M827.562,503.478c2.935-0.982,6.616-2.261,10.926-3.789c8.472-3.761,18.8-8.29,29.541-13.022
			c13.409-5.908,27.093-10.788,40.963-14.834c59.628-29.95,106.843-79.433,137.444-144.578l12.042-25.639
			c1.505-1.939-1.194-5.956-3.559-5.294c-96.934,1.301-182.012,35.568-245.591,99.013c-12.951,12.924-25.179,25.061-32.229,32.305
			C798.425,449.585,815.58,475.309,827.562,503.478z"/>
		<path fill="#F79E02" d="M1138.555,702.687c-69.462-67.624-153.852-103.551-243.673-103.647c-19.59-0.02-37.988-0.094-47.694,0.086
			c0.039,15.958-1.442,32.148-4.628,48.405c-2.765,14.108-6.744,27.661-11.691,40.655c9.481,4.742,28.491,13.619,50.269,23.614
			c71.464,32.799,150.966,35.113,229.545,6.762l26.645-9.614C1139.764,708.641,1140.695,703.891,1138.555,702.687z"/>
		<path fill="#F79E02" d="M475.579,329.92c-34.922-82.752-100.769-146.602-190.04-184.399c-1.94-1.505-5.956,1.196-5.296,3.559
			l1.473,28.287c3.717,71.37,28.448,134.612,71.781,184.689c7.319,8.458,15.107,16.584,23.481,24.265
			c9.512,8.724,18.42,16.841,25.872,23.551c8.913,9.329,15.562,16.446,18.31,19.707c0.662-0.693,1.319-1.39,1.988-2.075
			c20.71-21.198,45.054-38.531,71.817-51.134C491.836,368.272,483.958,349.773,475.579,329.92z"/>
		<path fill="#F79E02" d="M371.542,505.898c-8.919-3.83-25.984-10.707-44.132-18.084c-83.211-33.819-174.919-32.408-264.77,3.99
			c-2.436,0.307-3.367,5.057-1.227,6.26l21.044,18.961c62.062,55.917,136.555,83.787,215.113,80.392
			c23.94-1.034,44.894-2.077,55.464-2.89c0.324-13.9,1.756-27.952,4.521-42.06C360.741,536.212,365.481,520.66,371.542,505.898z"/>
		<path fill="#F79E02" d="M505.957,828.516c-3.831,8.919-10.708,25.984-18.084,44.132c-33.82,83.21-32.408,174.918,3.99,264.77
			c0.307,2.436,5.057,3.367,6.26,1.227l18.961-21.044c55.917-62.062,83.788-136.555,80.393-215.113
			c-1.034-23.938-2.077-44.894-2.889-55.463c-13.901-0.324-27.953-1.756-42.061-4.521
			C536.27,839.317,520.718,834.576,505.957,828.516z"/>
		<path fill="#F79E02" d="M695.556,827.929c2.86,7.558,11.004,26.677,19.709,47.303c34.924,82.753,100.771,146.602,190.042,184.399
			c1.94,1.506,5.956-1.196,5.294-3.56l-1.472-28.287c-4.345-83.424-37.313-155.806-95.262-208.955
			c-19.909-18.26-37.127-33.813-43.936-39.429C748.265,799.88,723.07,816.371,695.556,827.929z"/>
		<path fill="#F79E02" d="M424.747,774.185c-20.351-20.522-36.93-44.493-49.046-70.699c-10.6,3.766-24.69,8.921-40.095,14.635
			c-73.725,27.339-131.576,81.921-167.093,157.531l-12.043,25.638c-1.505,1.939,1.195,5.958,3.559,5.295
			c77.691-1.042,147.733-23.313,205.227-64.759c14.241-10.266,27.743-21.66,40.363-34.255c9.897-9.877,19.345-19.267,26.408-26.39
			C429.559,778.889,427.115,776.571,424.747,774.185z"/>
		<path fill="#F79E02" d="M838.487,499.689c-4.002,1.777-7.53,3.357-10.537,4.723c11.776,28.003,18.43,58.374,19.144,89.737
			c11.01,0.474,31.105,0.885,53.935,1.21c78.623,1.118,152.278-28.898,212.694-86.591l20.486-19.562
			c2.104-1.265,1.035-5.986-1.409-6.222c-76.044-28.269-152.656-31.911-223.811-11.152c-9.579,4.811-19.446,9.169-29.65,12.954
			C863.571,490.634,849.167,495.902,838.487,499.689z"/>
		<path fill="#F79E02" d="M810.789,812.384c54.805,56.385,128.111,87.242,211.628,89.168l28.318,0.653
			c2.382,0.594,4.965-3.5,3.404-5.395l0-0.001c-40.368-88.139-106.097-152.107-189.827-184.62
			c-14.207-5.516-27.693-10.788-37.292-14.434c-12.566,29.252-30.427,55.259-52.236,77.022
			C782.489,783.108,795.764,796.926,810.789,812.384z"/>
		<path fill="#F79E02" d="M602.776,902.388c-1.118,78.622,28.898,152.277,86.591,212.694l19.562,20.485
			c1.265,2.104,5.986,1.036,6.222-1.408c33.78-90.868,32.534-182.579-3.682-264.774c-7.093-16.097-13.75-31.314-17.996-40.633
			c-27.962,11.449-58.208,17.874-89.428,18.348C603.544,857.767,603.113,878.618,602.776,902.388z"/>
		<path fill="#F79E02" d="M803.519,392.728c61.577-65.391,93.365-151.425,91.856-248.357l0,0c0.594-2.382-3.5-4.965-5.395-3.404
			l-25.279,12.78c-74.551,37.692-127.432,97.102-152.625,171.588c-6.441,19.045-12.109,36.107-15.579,47.117
			c29.317,12.391,55.375,30.127,77.249,51.784C780.896,416.81,791.872,405.097,803.519,392.728z"/>
		<path fill="#F79E02" d="M592.474,305.27c-2.696-89.78-41.054-173.093-110.662-240.567c-1.265-2.104-5.986-1.036-6.222,1.408
			l-8.838,26.911c-26.063,79.368-21.446,158.77,13.409,229.253c10.612,21.458,20.029,40.191,25.047,49.539
			c27.671-11.532,57.628-18.078,88.564-18.838C593.671,343.279,593.063,324.871,592.474,305.27z"/>
		<path fill="#F79E02" d="M305.328,607.583c-89.779,2.696-173.092,41.054-240.567,110.662c-2.105,1.265-1.036,5.986,1.407,6.222
			l26.912,8.838c79.368,26.063,158.77,21.447,229.254-13.409c21.458-10.611,40.19-20.028,49.539-25.046
			c-11.531-27.671-18.078-57.628-18.838-88.564C343.337,606.387,324.929,606.995,305.328,607.583z"/>
		<path fill="#F79E02" d="M405.619,807.571c-12.621,12.595-26.122,23.989-40.363,34.255
			c-42.677,59.889-64.468,132.835-63.216,213.344c-0.593,2.383,3.501,4.965,5.395,3.404l25.279-12.78
			c74.55-37.692,127.432-97.102,152.626-171.588c6.571-19.429,12.337-36.793,15.785-47.772
			c-25.825-11.255-49.082-26.651-69.099-45.252C424.964,788.305,415.516,797.694,405.619,807.571z"/>
		<path fill="#F79E02" d="M402.852,409.873c-7.453-6.711-16.361-14.827-25.873-23.551c-8.374-7.68-16.161-15.807-23.481-24.265
			c-51.128-41.307-114.659-63.895-185.606-65.531l-28.318-0.653c-2.382-0.594-4.965,3.501-3.404,5.396
			c40.367,88.139,106.097,152.108,189.826,184.619c19.666,7.637,37.997,14.82,46.44,17.835
			c11.788-27.947,28.46-52.909,48.726-74.142C418.413,426.319,411.765,419.201,402.852,409.873z"/>
		<path fill="#F79E02" d="M709.005,62.729"/>
		<path fill="#F79E02" d="M1077.539,919.733"/>
		<g>
			<path fill="#F79E02" d="M649.709,842.091c-0.112,0.023-0.227,0.038-0.339,0.061l64.029,294.083h0.009
				C704.308,1092.608,662.91,900.763,649.709,842.091z"/>
		</g>
		<g>
			<path opacity="0.2" d="M774.783,774.777c7.706,8.33,20.981,22.15,36.005,37.607c54.805,56.385,128.111,87.242,211.629,89.168
				l28.318,0.653c0.859,0.215,1.742-0.195,2.45-0.88L803.602,740.144C795.024,752.608,785.379,764.203,774.783,774.777z"/>
			<path opacity="0.2" d="M711.858,318.919c32.799-71.464,35.112-150.965,6.76-229.544l-9.613-26.645l-61.416,294.769
				c14.108,2.764,27.66,6.742,40.655,11.69C692.986,359.707,701.864,340.697,711.858,318.919z"/>
			<path opacity="0.2" d="M773.748,424.236c7.147-7.426,18.123-19.139,29.772-31.509c61.576-65.391,93.365-151.424,91.856-248.356
				c0.428-1.715-1.575-3.51-3.435-3.811L734.92,392.956C748.966,402.115,761.98,412.585,773.748,424.236z"/>
			<path opacity="0.2" d="M827.562,503.479c2.934-0.983,6.616-2.262,10.925-3.789c8.473-3.761,18.801-8.29,29.542-13.022
				c13.408-5.908,27.094-10.788,40.962-14.835c59.63-29.95,106.844-79.434,137.445-144.578l12.041-25.639
				c0.653-0.841,0.488-2.065-0.071-3.137L806.382,464.091C814.594,476.536,821.706,489.709,827.562,503.479z"/>
			<path opacity="0.2" d="M847.095,594.15c11.01,0.474,31.106,0.885,53.935,1.21c78.623,1.117,152.277-28.898,212.694-86.591
				l20.486-19.561c0.751-0.452,1.083-1.349,1.108-2.32l-293.499,61.916C844.942,563.572,846.743,578.738,847.095,594.15z"/>
			<path opacity="0.2" d="M842.941,645.297c-0.138,0.745-0.234,1.489-0.38,2.234c-2.766,14.108-6.744,27.662-11.692,40.654
				c9.482,4.743,28.492,13.62,50.269,23.614c71.464,32.799,150.965,35.112,229.544,6.762l26.644-9.615
				c0.779-0.098,1.381-0.671,1.8-1.416L842.941,645.297z"/>
			<path opacity="0.2" d="M695.556,827.928c2.86,7.559,11.005,26.678,19.71,47.303c34.922,82.752,100.769,146.602,190.04,184.4
				c1.092,0.847,2.819,0.343,4.023-0.664l-178.395-249.47C719.667,816.554,707.86,822.76,695.556,827.928z"/>
			<path opacity="0.2" d="M604.045,847.099c-0.501,10.668-0.932,31.519-1.269,55.289c-1.117,78.622,28.899,152.276,86.59,212.695
				l19.563,20.484c0.788,1.312,2.92,1.39,4.47,0.671L649.37,842.153C634.602,845.171,619.443,846.866,604.045,847.099z"/>
			<path opacity="0.2" d="M487.872,872.648c-33.82,83.21-32.407,174.919,3.991,264.77c0.126,1.006,1.023,1.734,2.102,2.116
				l58.268-297.097c-16.149-3.185-31.604-7.898-46.277-13.921C502.125,837.435,495.248,854.5,487.872,872.648z"/>
			<path opacity="0.2" d="M405.619,807.572c-12.62,12.594-26.122,23.989-40.363,34.255
				c-42.676,59.889-64.467,132.834-63.214,213.343c-0.273,1.095,0.462,2.215,1.5,2.974l159.376-252.645
				c-10.973-7.323-21.324-15.427-30.891-24.316C424.963,788.305,415.516,797.694,405.619,807.572z"/>
			<path opacity="0.2" d="M375.701,703.486c-10.6,3.766-24.69,8.921-40.095,14.635c-73.725,27.339-131.576,81.921-167.093,157.531
				l-12.043,25.638c-0.77,0.993-0.431,2.525,0.392,3.701l241.868-161.83C389.874,730.68,382.139,717.411,375.701,703.486z"/>
			<path opacity="0.2" d="M353.035,606.286c-9.698,0.1-28.105,0.707-47.707,1.297c-89.777,2.697-173.092,41.054-240.565,110.662
				c-1.026,0.616-1.289,2.051-1.015,3.389l295.466-66.494C355.58,639.269,353.443,622.927,353.035,606.286z"/>
			<path opacity="0.2" d="M371.541,505.898c-8.919-3.83-25.984-10.707-44.132-18.084c-83.21-33.82-174.919-32.407-264.77,3.991
				c-0.92,0.115-1.623,0.867-2.029,1.821l297.298,57.253C361.087,535.204,365.681,520.174,371.541,505.898z"/>
			<path opacity="0.2" d="M421.161,429.579c-2.748-3.261-9.396-10.378-18.31-19.707c-7.452-6.71-16.361-14.827-25.872-23.551
				c-8.374-7.681-16.162-15.807-23.481-24.265c-51.128-41.307-114.658-63.896-185.606-65.532l-28.318-0.652
				c-1.406-0.35-2.858,0.937-3.511,2.435l259.265,163.361C403.084,450.222,411.713,439.48,421.161,429.579z"/>
			<path opacity="0.2" d="M494.966,376.37c-3.13-8.099-11.008-26.597-19.387-46.451c-34.922-82.752-100.769-146.602-190.04-184.399
				c-0.841-0.652-2.065-0.489-3.135,0.07l174.058,253.367C468.577,390.301,481.462,382.729,494.966,376.37z"/>
			<path opacity="0.2" d="M481.813,64.703c-0.738-1.226-2.638-1.353-4.15-0.779l70.139,294.543
				c14.962-3.234,30.339-5.106,45.97-5.49c-0.101-9.699-0.708-28.106-1.298-47.707C589.779,215.49,551.42,132.178,481.813,64.703z"
				/>
		</g>
	</g>
	<g>
		<path fill="#FDED01" d="M391.723,467.171c0.516-0.808,1.026-1.618,1.55-2.419c-2.721-1.236-11.327-6.225-23.309-13.398
			C380.505,458.794,388.399,464.5,391.723,467.171z"/>
		<path fill="#FDED01" d="M804.748,461.521c0.19,0.28,0.373,0.562,0.561,0.842c2.688-1.919,5.845-4.148,9.431-6.662
			C810.807,458.03,807.439,459.993,804.748,461.521z"/>
		<path fill="#FDED01" d="M470.013,810.119c-2.862-1.775-5.706-3.58-8.489-5.467c-5.547,8.559-14.49,22.852-23.998,37.954
			c-8.107,12.878-15.18,26.204-21.372,39.867c12-12.813,23.057-26.591,33.02-41.379
			C456.987,829.498,464.452,818.467,470.013,810.119z"/>
		<path fill="#FDED01" d="M369.964,451.354c-7.967-5.624-17.414-12.216-27.548-19.24c-9.726-6.741-19.786-12.752-30.082-18.191
			c8.81,6.893,18.015,13.369,27.71,19.296C351.057,439.951,361.36,446.202,369.964,451.354z"/>
		<path fill="#FDED01" d="M814.741,455.702c9.752-5.77,22.874-13.711,37.224-22.483c9.286-5.676,18.131-11.851,26.605-18.415
			c-12.832,6.639-25.322,14.059-37.344,22.436C831.596,443.95,822.332,450.382,814.741,455.702z"/>
		<path fill="#FDED01" d="M642.202,356.536c2.83-10.216,7.885-30.579,13.504-53.872c18.442-76.438,5.42-154.901-37.516-226.56
			l-14.559-24.298c-0.77-2.331-5.61-2.331-6.379,0v0c-53,81.173-72.025,170.897-54.842,259.058
			c3.747,19.229,7.215,37.299,9.258,46.788c15.652-3.108,31.826-4.768,48.391-4.768C614.434,352.883,628.499,354.18,642.202,356.536
			z"/>
		<path fill="#FDED01" d="M804.748,461.521c2.691-1.528,6.058-3.491,9.993-5.819c7.591-5.32,16.855-11.752,26.484-18.461
			c12.022-8.377,24.512-15.798,37.344-22.436c52.754-40.86,89.569-98.5,107.069-168.315l6.886-27.476
			c1.104-2.192-2.318-5.615-4.511-4.511c-94.874,19.921-171.772,69.913-221.961,144.402c-10.224,15.174-19.888,29.436-25.413,37.901
			C765.79,414.238,787.572,436.183,804.748,461.521z"/>
		<path fill="#FDED01" d="M1148.251,597.194c-81.172-53.001-170.896-72.026-259.058-54.843c-19.228,3.748-37.297,7.215-46.786,9.258
			c3.108,15.652,4.768,31.826,4.768,48.391c0,14.376-1.297,28.442-3.653,42.144c10.216,2.83,30.579,7.885,53.872,13.504
			c76.438,18.441,154.901,5.42,226.56-37.516l24.298-14.559C1150.583,602.803,1150.583,597.963,1148.251,597.194z"/>
		<path fill="#FDED01" d="M369.964,451.354c11.982,7.173,20.588,12.162,23.309,13.398c16.245-24.786,36.802-46.477,60.641-63.992
			c-4.629-7.345-15.918-23.984-27.959-41.855c-50.189-74.49-127.087-124.481-221.961-144.402c-2.193-1.104-5.615,2.319-4.511,4.511
			l6.886,27.476c17.376,69.322,53.808,126.627,105.965,167.434c10.296,5.439,20.356,11.45,30.082,18.191
			C352.55,439.138,361.998,445.731,369.964,451.354z"/>
		<path fill="#FDED01" d="M357.709,551.609c-9.489-2.043-27.558-5.51-46.786-9.258c-88.162-17.183-177.886,1.842-259.058,54.843
			c-2.331,0.769-2.331,5.61,0,6.379l24.298,14.559c71.658,42.936,150.121,55.957,226.559,37.516
			c23.294-5.619,43.656-10.674,53.873-13.504c-2.356-13.703-3.653-27.768-3.653-42.144
			C352.94,583.434,354.601,567.261,357.709,551.609z"/>
		<path fill="#FDED01" d="M551.667,842.349c-2.044,9.489-5.51,27.558-9.258,46.786c-17.184,88.161,1.842,177.885,54.842,259.058
			c0.77,2.331,5.61,2.331,6.379,0l14.559-24.298c42.936-71.658,55.958-150.121,37.516-226.56
			c-5.619-23.292-10.674-43.656-13.503-53.872c-13.703,2.356-27.769,3.653-42.145,3.653
			C583.492,847.117,567.319,845.457,551.667,842.349z"/>
		<path fill="#FDED01" d="M737.614,805.304c4.261,6.867,15.93,24.063,28.439,42.628c50.189,74.49,127.087,124.482,221.961,144.403
			c2.193,1.104,5.615-2.319,4.511-4.511l-6.886-27.476c-20.31-81.031-66.585-145.72-133.674-186.73
			c-23.05-14.09-42.938-26.041-50.7-30.242C783.943,767.641,762.391,788.671,737.614,805.304z"/>
		<path fill="#FDED01" d="M461.524,804.652c-23.918-16.223-44.799-36.557-61.728-59.945c-9.679,5.735-22.513,13.504-36.532,22.074
			c-67.09,41.01-113.364,105.699-133.674,186.73l-6.887,27.476c-1.104,2.192,2.319,5.616,4.511,4.511
			c76.041-15.967,140.491-51.293,188.941-103.024c6.193-13.663,13.265-26.989,21.372-39.867
			C447.034,827.504,455.977,813.21,461.524,804.652z"/>
		<path fill="#FDED01" d="M814.741,455.702c-3.586,2.513-6.743,4.742-9.431,6.662c16.943,25.215,29.314,53.739,36.047,84.38
			c10.895-1.652,30.694-5.114,53.161-9.187c77.37-14.025,143.876-57.648,192.067-125.884l16.341-23.137
			c1.821-1.646-0.135-6.074-2.579-5.835c-80.062-13.114-155.944-1.952-221.777,32.104c-8.474,6.564-17.319,12.738-26.605,18.415
			C837.615,441.991,824.493,449.932,814.741,455.702z"/>
		<path fill="#FDED01" d="M847.704,767.886c64.627,44.791,142.5,60.972,224.827,46.798l27.915-4.806
			c2.452,0.125,4.199-4.39,2.302-5.949v-0.001c-56.567-78.728-133.373-128.86-221.793-144.661
			c-15.002-2.68-29.251-5.26-39.372-6.992c-6.705,31.123-19.23,60.08-36.446,85.631
			C814.302,744.599,829.987,755.607,847.704,767.886z"/>
		<path fill="#FDED01" d="M660.887,896.219c14.025,77.369,57.648,143.875,125.884,192.068l23.137,16.34
			c1.646,1.821,6.073-0.135,5.835-2.578c15.671-95.668-3.191-185.427-54.54-259.122c-10.056-14.432-19.517-28.084-25.475-36.413
			c-25.237,16.614-53.683,28.736-84.229,35.206C653.059,852.284,656.647,872.828,660.887,896.219z"/>
		<path fill="#FDED01" d="M759.853,357.463c47.85-76.014,62.496-166.555,42.371-261.387v0c0.125-2.452-4.39-4.199-5.949-2.303
			l-22.348,17.404c-65.909,51.327-106.376,119.799-116.771,197.74c-2.658,19.928-4.938,37.762-6.226,49.233
			c31.153,6.52,60.136,18.914,85.767,35.958C742.284,385.448,750.802,371.842,759.853,357.463z"/>
		<path fill="#FDED01" d="M535.927,312.232c-19.914-87.585-73.581-161.964-154.867-214.79c-1.646-1.821-6.073,0.135-5.835,2.579
			l-3.497,28.109c-10.31,82.899,9.493,159.931,57.254,222.393c14.541,19.016,27.385,35.588,34.107,43.796
			c24.936-16.639,53.075-28.825,83.287-35.521C544.411,349.301,540.275,331.354,535.927,312.232z"/>
		<path fill="#FDED01" d="M312.29,664.131c-87.584,19.914-161.964,73.581-214.79,154.867c-1.822,1.646,0.135,6.073,2.578,5.835
			l28.109,3.496c82.899,10.31,159.931-9.492,222.394-57.254c19.016-14.54,35.587-27.385,43.796-34.107
			c-16.638-24.936-28.825-53.075-35.521-83.286C349.359,655.647,331.411,659.783,312.29,664.131z"/>
		<path fill="#FDED01" d="M449.175,841.094c-9.963,14.787-21.021,28.566-33.02,41.379c-30.361,66.979-37.715,142.754-21,221.52
			c-0.124,2.452,4.391,4.199,5.949,2.303l22.348-17.404c65.909-51.327,106.376-119.799,116.772-197.74
			c2.712-20.331,5.029-38.479,6.301-49.917c-27.508-6.078-53.291-16.713-76.512-31.117
			C464.452,818.467,456.987,829.498,449.175,841.094z"/>
		<path fill="#FDED01" d="M369.964,451.354c-8.604-5.152-18.907-11.403-29.92-18.135c-9.694-5.926-18.899-12.403-27.71-19.296
			c-58.118-30.701-124.807-40.648-194.745-28.608l-27.915,4.806c-2.452-0.124-4.199,4.39-2.302,5.949
			c56.567,78.729,133.373,128.86,221.792,144.66c20.767,3.711,40.138,7.235,49.003,8.569c6.193-29.692,17.752-57.395,33.555-82.13
			C388.399,464.5,380.505,458.794,369.964,451.354z"/>
	</g>
	<g>
		<path opacity="0.2" d="M805.023,737.731c9.17,6.685,24.864,17.681,42.59,29.946c64.662,44.74,142.547,60.86,224.864,46.622
			l27.912-4.828c0.885,0.045,1.671-0.528,2.234-1.337l-276.011-109.95C820.602,712.07,813.378,725.309,805.023,737.731z"/>
		<path opacity="0.2" d="M655.252,302.604c18.381-76.452,5.298-154.904-37.695-226.529l-14.577-24.287l-3.337,301.08
			c14.376-0.012,28.441,1.274,42.147,3.619C644.611,346.27,649.651,325.903,655.252,302.604z"/>
		<path opacity="0.2" d="M736.314,393.988c5.578-8.666,14.086-22.278,23.127-36.665c47.789-76.051,62.366-166.604,42.166-261.42
			c0.089-1.765-2.223-3.139-4.106-3.076L692.177,370.795C707.727,377.069,722.518,384.829,736.314,393.988z"/>
		<path opacity="0.2" d="M804.418,461.347c2.689-1.531,6.055-3.497,9.987-5.828c7.587-5.326,16.847-11.765,26.471-18.482
			c12.015-8.386,24.5-15.817,37.326-22.466C930.926,373.67,967.696,316,985.141,246.172l6.864-27.481
			c0.478-0.952,0.08-2.12-0.675-3.064L776.031,426.79C786.491,437.415,796.013,448.967,804.418,461.347z"/>
		<path opacity="0.2" d="M841.093,546.539c10.894-1.661,30.691-5.139,53.153-9.228c77.359-14.086,143.831-57.761,191.969-126.035
			l16.323-23.149c0.65-0.588,0.802-1.533,0.639-2.49L827.159,503.064C833.075,516.952,837.772,531.485,841.093,546.539z"/>
		<path opacity="0.2" d="M846.894,597.526c0.008,0.757,0.057,1.506,0.059,2.265c0.011,14.376-1.275,28.443-3.621,42.147
			c10.219,2.822,30.586,7.861,53.883,13.462c76.452,18.381,154.904,5.298,226.529-37.693l24.286-14.579
			c0.746-0.246,1.225-0.925,1.493-1.737L846.894,597.526z"/>
		<path opacity="0.2" d="M737.552,805.181c4.266,6.864,15.949,24.051,28.474,42.606c50.245,74.451,127.183,124.383,222.073,144.23
			c1.235,0.62,2.832-0.208,3.819-1.428L768.705,780.265C759.013,789.365,748.626,797.734,737.552,805.181z"/>
		<path opacity="0.2" d="M651.465,841.663c1.569,10.564,5.172,31.106,9.431,54.493c14.087,77.358,57.761,143.829,126.034,191.97
			l23.151,16.321c1.027,1.135,3.134,0.8,4.516-0.205L694.982,828.057C681.075,833.87,666.529,838.461,651.465,841.663z"/>
		<path opacity="0.2" d="M542.413,889.165c-17.115,88.175,1.982,177.884,55.046,259.016c0.318,0.963,1.338,1.504,2.471,1.67
			l-0.201-302.757c-16.46-0.006-32.535-1.646-48.094-4.723C549.598,851.862,546.146,869.934,542.413,889.165z"/>
		<path opacity="0.2" d="M449.141,841.198c-9.95,14.794-20.998,28.582-32.989,41.405c-30.308,67.003-37.602,142.783-20.825,221.535
			c-0.057,1.127,0.881,2.085,2.046,2.628l107.588-278.667c-12.18-5.066-23.902-11.018-35.005-17.893
			C464.401,818.558,456.944,829.595,449.141,841.198z"/>
		<path opacity="0.2" d="M399.686,744.848c-9.673,5.742-22.502,13.521-36.514,22.102c-67.058,41.062-113.28,105.787-133.527,186.833
			l-6.866,27.481c-0.564,1.123,0.064,2.561,1.1,3.556L429.942,779.33C418.844,768.794,408.693,757.268,399.686,744.848z"/>
		<path opacity="0.2" d="M358.676,653.856c-9.496,1.971-27.44,6.122-46.559,10.485c-87.566,19.983-161.906,73.707-214.667,155.034
			c-0.888,0.803-0.868,2.262-0.342,3.521l277.063-122.3C367.543,685.726,362.29,670.105,358.676,653.856z"/>
		<path opacity="0.2" d="M357.449,551.783c-9.49-2.036-27.563-5.488-46.794-9.221c-88.175-17.115-177.884,1.982-259.016,55.046
			c-0.88,0.291-1.425,1.164-1.639,2.179l302.758-1.236C352.85,582.556,354.456,566.922,357.449,551.783z"/>
		<path opacity="0.2" d="M391.396,467.319c-3.326-2.669-11.224-8.368-21.771-15.8c-8.608-5.145-18.916-11.388-29.933-18.112
			c-9.699-5.919-18.91-12.388-27.725-19.274c-58.143-30.656-124.839-40.551-194.767-28.456l-27.911,4.828
			c-1.447-0.072-2.623,1.472-2.975,3.067l285.932,110.219C377.645,491.064,384.038,478.857,391.396,467.319z"/>
		<path opacity="0.2" d="M453.537,400.859c-4.635-7.342-15.937-23.971-27.992-41.832
			c-50.245-74.451-127.183-124.383-222.072-144.229c-0.952-0.478-2.12-0.081-3.063,0.674l219.709,214.985
			C430.335,419.623,441.515,409.706,453.537,400.859z"/>
		<path opacity="0.2" d="M380.445,97.598c-0.961-1.06-2.85-0.818-4.223,0.037L501.921,373.09
			c14.055-6.063,28.782-10.868,44.044-14.264c-1.972-9.497-6.123-27.44-10.486-46.558
			C515.497,224.698,461.772,150.361,380.445,97.598z"/>
	</g>
	<path fill="#7E4B0C" d="M846.55,550.781c-0.33-1.659-0.706-3.301-1.067-4.949c-6.849-31.165-19.431-60.176-36.664-85.822
		c-0.191-0.285-0.378-0.572-0.571-0.857c-17.47-25.772-39.625-48.091-65.205-65.823c-1.33-0.922-2.66-1.845-4.01-2.742
		c-26.07-17.336-55.548-29.941-87.234-36.573c-2.935-0.614-5.905-1.131-8.878-1.642c-13.937-2.396-28.243-3.715-42.865-3.715
		c-16.848,0-33.299,1.689-49.218,4.85c-1.807,0.359-3.591,0.77-5.382,1.167c-30.728,6.81-59.348,19.205-84.711,36.128
		c-3.164,2.112-6.271,4.302-9.331,6.551c-24.247,17.814-45.155,39.877-61.678,65.087c-0.534,0.815-1.053,1.638-1.577,2.46
		c-16.073,25.158-27.83,53.334-34.129,83.534c-0.162,0.78-0.311,1.565-0.467,2.347c-3.161,15.92-4.85,32.37-4.85,49.219
		c0,14.622,1.319,28.928,3.716,42.865c0.678,3.944,1.442,7.856,2.301,11.735c6.811,30.728,19.205,59.348,36.128,84.711
		c1.78,2.667,3.635,5.276,5.511,7.87c17.218,23.788,38.457,44.47,62.784,60.97c2.83,1.919,5.723,3.755,8.634,5.56
		c23.618,14.65,49.843,25.467,77.821,31.649c1.74,0.385,3.475,0.784,5.23,1.133c15.919,3.161,32.369,4.85,49.218,4.85
		c14.622,0,28.928-1.32,42.866-3.716c3.169-0.545,6.327-1.113,9.455-1.775c31.068-6.58,60-18.91,85.669-35.808
		c0.633-0.417,1.288-0.806,1.919-1.229c25.201-16.918,47.121-38.307,64.74-62.986c1.319-1.85,2.668-3.678,3.938-5.564
		c17.511-25.988,30.25-55.44,37.07-87.095c0.734-3.407,1.377-6.847,1.971-10.304c2.396-13.937,3.716-28.243,3.716-42.865
		C851.4,583.151,849.711,566.701,846.55,550.781z"/>
</g>
</svg>
