<?xml version="1.0" encoding="utf-8"?>
<!--Designed by Vexels.com - 2017 All Rights Reserved - https://vexels.com/terms-and-conditions/-->
<svg version="1.1" id="Layer_1" xmlns="http://www.w3.org/2000/svg" xmlns:xlink="http://www.w3.org/1999/xlink" x="0px" y="0px"
	 viewBox="0 0 1200 1200" enable-background="new 0 0 1200 1200" xml:space="preserve">
<g>
	<g>
		<path fill="#D50F33" d="M1129.8,605.239c-4.743-22.01-4.129-46.374-17.301-64.63c-1.809-2.525-3.89-4.948-6.074-7.336
			c-2.901-11.534,10.817-23.272,8.497-35.421c-1.092-5.665-5.562-10.169-6.995-15.765c-1.911-7.371,1.638-15.458-0.853-22.658
			c-3.276-9.452-15.322-13.035-20.099-21.839c-2.354-4.3-2.661-9.35-3.515-14.161c-3.481-20.031-17.198-37.946-35.557-46.579
			c-8.019-3.754-16.857-5.699-25.695-5.835c-0.068,1.331-0.239,2.593-0.512,3.822l-4.88-3.685c1.809-0.137,3.583-0.171,5.391-0.137
			c0.853-13.65-8.77-30.473-17.062-40.88c-9.042-11.397-19.792-22.249-23.613-36.274c-2.423-8.906-1.945-18.836-6.927-26.582
			c-5.119-7.917-14.605-11.568-22.42-16.857c-18.529-12.558-28.186-35.284-46.613-48.046c-14.98-10.374-35.148-12.865-52.21-6.381
			c-11.397,4.334-21.839,12.455-34.021,12.66c-2.764,0.034-13.001-4.709-23.102-9.725l-7.37-5.664
			c-5.903-23.989-16.209-46.92-30.337-67.19c-5.391-7.746-11.568-15.287-19.826-19.826c-6.688-3.685-14.298-5.153-21.805-6.415
			c-28.493-4.777-57.396-7.234-86.299-7.337c-14.878-0.034-30.267,0.478-44.088-5.05c-13.547-5.357-27.709-16.448-40.949-10.305
			c-3.14,1.468-5.801,3.822-8.702,5.767c-5.664,3.788-12.182,6.04-17.915,9.691c-15.629,9.964-22.931,28.493-33.134,43.986
			c-24.911,37.843-68.384,58.522-101.792,89.131c-6.825,6.279-13.342,13.138-17.847,21.259
			c-25.968-14.366-57.669-18.051-86.197-9.896c-9.316,2.662-19.894,6.347-28.084,1.194c-3.583-2.252-6.244-6.074-10.305-7.405
			c-7.849-2.559-15.117,5.562-18.051,13.308c-6.45,17.028-4.402,35.864-5.324,54.052c-0.921,18.188-6.279,38.219-21.908,47.569
			c-8.428,5.05-18.631,6.176-27.64,10.135c-16.653,7.371-27.709,24.091-32.657,41.631s-4.641,36.069-4.334,54.257
			c0.205,9.793,1.058,20.986,8.873,26.89c4.231,3.173,9.793,4.163,14.059,7.268c-14.229,9.248-33.441,25.388-44.224,38.492
			c-10.783,13.07-17.54,30.609-13.786,47.125c1.297,5.699,3.788,11.431,2.491,17.096c-1.194,5.357-5.459,9.35-9.316,13.274
			c-16.072,16.345-28.084,36.717-34.601,58.693c-4.334,14.639-3.856,34.602,10.305,40.232c3.651,1.467,7.678,1.672,11.294,3.208
			c12.182,5.187,13.377,21.6,13.889,34.84c0.887,23.136,9.043,50.23,31.189,57.055c6.177,1.911,12.865,1.979,18.871,4.334
			c14.229,5.596,32.622,33.168,49.24,43.781c-3.037,17.096-6.04,34.226-9.077,51.322c16.959,4.129,35.454-12.148,51.049-4.368
			c4.879,2.423,8.394,6.791,12.66,10.135c13.718,10.681,32.929,9.452,50.23,7.678c5.596-0.58,11.193-1.16,16.789-1.74
			c5.119,23.341,34.704,44.224,54.428,57.737c19.689,13.513,41.426,24.979,56.782,43.235c11.056,13.104,18.188,29.005,27.606,43.303
			c9.418,14.332,22.351,27.708,39.072,31.394c23.887,5.221,52.175-9.828,71.626,4.982c13.308,10.135,19.314,32.588,36.069,32.486
			c10.954-0.068,18.564-10.51,24.603-19.689c11.943-18.086,25.661-35.796,44.361-46.75c14.468-8.463,31.121-12.387,46.033-20.031
			c18.324-9.418,44.054-33.51,53.779-51.663c14.23,1.979,28.493,1.774,42.109-2.525c31.019-9.828,54.018-39.55,86.197-44.327
			c18.12-2.696,38.56,2.593,53.575-7.917c11.705-8.19,16.482-23.921,28.459-31.701c17.574-11.397,44.02-1.638,59.853-15.322
			c6.074-5.255,9.247-13.035,12.216-20.474c6.927-17.437,13.854-34.874,20.781-52.312c6.074-15.253,12.217-30.746,13.889-47.057
			c1.672-16.311,1.228-50.025-9.692-62.31c9.248-6.961,17.404-15.356,27.299-21.396c13.854-8.463,30.78-11.841,46.818-9.316
			C1144.132,646.153,1134.339,626.361,1129.8,605.239z M789.142,194.354c0.989,0.853,1.979,1.672,2.969,2.491
			c-0.921-0.478-1.809-0.921-2.696-1.399C789.312,195.105,789.244,194.73,789.142,194.354z M1085.166,506.143l17.403,23.034
			C1095.471,521.84,1088.169,514.64,1085.166,506.143z"/>
		<path fill="#D50F33" d="M187.029,842.066c5.985-38.376,11.489-77.082,35.782-107.736c20.511-25.881,51.025-40.08,83.263-47.484
			c-0.332-0.113-0.683-0.232-1.011-0.344c-13.467-4.586-26.653-8.689-38.333-17.072c-25.373-18.212-34.011-49.103-56.098-69.61
			c-16.539-15.357-44.366-4.919-59.907-21.424c-24.755-26.29,34.252-70.205-1.899-88.476c-13.308,9.458-29.061,23.149-38.442,34.547
			c-10.782,13.069-17.54,30.609-13.786,47.125c1.298,5.699,3.789,11.431,2.491,17.096c-1.193,5.357-5.458,9.35-9.316,13.274
			c-16.072,16.345-28.084,36.717-34.6,58.693c-4.334,14.639-3.857,34.602,10.305,40.232c3.651,1.467,7.678,1.672,11.294,3.208
			c12.183,5.187,13.378,21.6,13.889,34.84c0.886,23.136,9.042,50.23,31.188,57.055c6.177,1.911,12.865,1.979,18.871,4.334
			C154.119,805.594,171.206,830.332,187.029,842.066z"/>
		<path fill="#EA5B6F" d="M155.867,799.793c-6.721-8.28-16.215-13.679-24.211-20.59c-12.805-11.07-21.316-23.67-22.933-40.727
			c-2.114-22.284,1.21-41.942-11.846-61.8c-9.592-14.59-15.169-28.451-5.077-44.994c4.17-6.835,10.782-11.347,17.022-16.089
			c15.747-11.969,19.908-24.085,14.452-43.44c-5.606-19.887-13.774-37.017-4.043-56.959c0.117-0.239,0.252-0.462,0.372-0.698
			c-3.432,3.408-6.591,6.782-9.217,9.973c-10.782,13.069-17.54,30.609-13.786,47.125c1.298,5.699,3.789,11.431,2.491,17.096
			c-1.193,5.357-5.458,9.35-9.316,13.274c-16.072,16.345-28.084,36.717-34.6,58.693c-4.334,14.639-3.857,34.602,10.305,40.232
			c3.651,1.467,7.678,1.672,11.294,3.208c12.183,5.187,13.378,21.6,13.889,34.84c0.886,23.136,9.042,50.23,31.188,57.055
			c6.177,1.911,12.865,1.979,18.871,4.334c9.857,3.877,21.712,18.284,33.591,30.306C168.212,820.478,163.33,808.989,155.867,799.793
			z"/>
		<path fill="#EA5B6F" d="M447.196,566.031c-1.035,20.052,3.202,40.189,8.793,59.35c11.353,38.912,31.832,73.013,59.479,100.238
			c7.421-1.799,14.947-2.604,22.406-2.044c6.326-5.503,13.47-6.528,22.645-5.572c17.935,1.868,33.722,3.361,51.44-1.642
			c33.512-9.463,64.804-20.929,99.7-21.789c-0.036-0.594-0.13-1.168-0.277-1.753c-0.681-0.43-1.21-1.103-1.244-2.015
			c-1.68-45.581-49.484-65.646-82.234-87.466c-28.5-18.988-60.287-37.626-80.929-65.674c-8.818-11.981-13.782-25.976-20.189-39.291
			c-6.786-14.104-12.812-27.949-14.934-43.582c-2.797-20.608-7.03-37.362-15.285-56.546c-5.482-12.741-9.877-25.073-12.102-38.813
			c-2.073-12.8-5.563-57.832-25.361-53.741c-10.19,2.105-19.09,18.586-21.485,27.096c-2.438,8.664-2.45,17.924-1.435,26.802
			c1.932,16.894,7.825,33.243,13.773,49.07c5.797,15.428,11.613,30.193,12.695,46.833c1.096,16.847-1.663,33.684-4.983,50.138
			C453.634,525.636,448.253,545.557,447.196,566.031z"/>
		<path fill="#F8ACAE" d="M438.517,346.333c-2.238,23.68,16.509,44.552,22.216,66.909c4.531,17.747,1.245,36.391,11.522,52.544
			c11,17.29,28.89,31.115,43.207,45.575c12.654,12.78,20.1,27.015,27.598,43.17c4,8.619,7.745,17.161,15.674,22.922
			c7.005,5.088,15.914,7.21,23.467,11.31c12.15,6.597,46.215,45.416,57.996,26.632c-9.501-5.443-16.85-12.786-24.908-20.361
			c-18.521-12.13-37.495-24.711-53.271-40.21c-13.671-10.28-25.66-22.754-31.621-39.147c-0.832-2.288,0.285-4.261,1.912-5.211
			c-1.805-4.044-3.599-8.098-5.521-12.092c-6.786-14.104-12.812-27.949-14.934-43.582c-2.797-20.608-7.03-37.362-15.285-56.546
			c-5.482-12.741-9.877-25.073-12.102-38.813c-1.877-11.585-4.915-49.571-20.154-53.644
			C455.005,318.956,440.098,329.604,438.517,346.333z"/>
		<path fill="#EA5B6F" d="M449.958,408.658c2.031,5.406,4.053,10.731,5.884,16.083c-0.382-2.489-0.821-5.014-1.377-7.589
			c-2.287-10.604-7.502-20.814-12.42-31.112C444.407,393.694,447.168,401.236,449.958,408.658z"/>
		<path fill="#EA5B6F" d="M711.383,692.818c-0.681-0.43-1.21-1.103-1.244-2.015c-1.35-36.625-32.478-56.774-61.649-74.598
			c-11.554,25.902-38.985,4.815-53.767-7.885c-12.717-10.926-27.596-15.303-40.909-24.832
			c-18.021-12.897-21.287-39.534-34.509-56.65c-13.953-18.061-32.799-32.069-47.53-49.548c-4.102-4.867-6.894-9.755-8.895-14.717
			c0.068,14.477-2.355,28.908-5.209,43.056c-4.036,20.007-9.417,39.928-10.474,60.402c-1.035,20.052,3.202,40.189,8.793,59.35
			c11.353,38.912,31.832,73.013,59.479,100.238c7.421-1.799,14.947-2.604,22.406-2.044c6.326-5.503,13.47-6.528,22.645-5.572
			c17.935,1.868,33.722,3.361,51.44-1.642c33.512-9.463,64.804-20.929,99.7-21.789C711.623,693.978,711.529,693.403,711.383,692.818
			z"/>
		<path fill="#EA5B6F" d="M456.926,306.381c-6.433,2.619-12.16,10.52-15.81,17.762C445.94,317.934,451.774,312.214,456.926,306.381z
			"/>
		<path fill="#940C24" d="M372.828,905.832c19.229,2.407,34.342,14.255,48.518,26.654c17.771,15.544,35.013,31.349,58.044,38.481
			c21.871,6.773,44.159,1.982,66.145,6.501c8.878,1.825,16.713,5.771,25.021,9.19c18.073,7.439,27.322,8.253,45.395,2.249
			c15.411-5.119,29.421,0.277,44.382,4.53c22.086,6.279,45.797,10.672,69.071,10.103c8.465-4.873,16.733-9.973,24.762-16.079
			c-30.394-11.47-62.097-19.582-91.41-33.829c-6.746-3.279-13.982-10.03-21.206-11.811c-8.849-2.182-18.956,4.157-26.713,7.818
			c-9.983,4.712-17.881,5.106-28.716,2.463c-20.758-5.064-39.998-15.095-60.961-19.701c-11.931-2.622-24.35-3.842-36.467-1.711
			c-5.828,1.025-11.651,3.903-17.581,4.33c-11.396,0.82-20.536-7.174-28.452-14.493c-11.657-10.777-21.879-21.593-34.554-30.116
			c-14.043,5.071-28.669,10.278-43.549,14.849C367.314,905.329,370.072,905.487,372.828,905.832z"/>
		<path fill="#EA5B6F" d="M721.21,1017.97c-23.291,11.66-43.791,25.922-67.74,36.135c-17.653,7.528-31.224,22.837-49.403,29.454
			c-17.441,6.348-17.838-7.645-30.442-14.539c-19.04-10.415-44.89-11.929-65.754-19.131c-18.918-6.53-37.906-15.502-50.888-31.254
			c-20.267-24.591-35.73-48.238-62.579-66.769c-13.104-9.045-26.625-14.872-41.579-20.015
			c-10.073-3.464-24.806-11.033-36.847-13.575c10.184,18.773,33.542,35.277,50.063,46.595
			c19.689,13.513,41.426,24.979,56.782,43.235c11.056,13.104,18.188,29.005,27.606,43.303c9.418,14.332,22.351,27.708,39.072,31.394
			c23.887,5.221,52.175-9.828,71.626,4.982c13.308,10.135,19.314,32.588,36.069,32.486c10.954-0.068,18.564-10.51,24.603-19.689
			c11.943-18.086,25.661-35.796,44.361-46.75c14.468-8.463,31.121-12.387,46.033-20.031c13.13-6.748,30.024-21.025,42.14-35.256
			C744.2,1006.28,732.656,1012.24,721.21,1017.97z"/>
		<path fill="#EA5B6F" d="M637.584,932.476c40.794-23.374,89.732-31.505,105.47-82.735c6.037-19.652,6.696-41.123,11.788-61
			c-21.128-1.068-41.513-4.7-60.644,9.743c-9.247,6.981-17.591,14.866-28.795,18.664c-16.722,5.668-33.666,6.868-50.292,13.682
			c-26.293,10.776-51.245,10.212-79.067,9.109c-21.946-0.869-43.715,2.663-65.6,1.772c-5.389-0.22-11.252-0.801-16.717-2.314
			c-0.44,3.243-1.005,6.525-1.809,9.879c-4.495,18.753-17.505,29.612-33.699,37.026c7.98,5.856,15.242,12.703,22.556,19.909
			c6.269,6.177,13.261,14.512,21.535,18.115c6.881,2.997,12.514,0.201,19.418-1.408c38.134-8.887,70.217,11.43,105.906,20.272
			c18.112,4.487,27.855-7.009,44.75-10.235C634.307,932.589,635.995,932.465,637.584,932.476z"/>
		<path fill="#D50F33" d="M1077.154,704.13c-43.393,15.595-81.793,45.585-127.426,55.587c-41.595,9.117-88.243,7.073-126.802-12.208
			c-0.627,1.666-1.285,3.314-1.999,4.929c-8.688,19.633-25.333,33.71-46.984,36.033c-3.481,0.373-6.947,0.518-10.394,0.521
			c-6.956,25.681-7.796,52.677-19.22,77.563c-17.445,38.004-61.363,52.318-98.235,67.826c2.418,1.096,4.859,2.597,7.729,4.357
			c34.17,20.953,74.043,29.802,110.529,46.199c0.569-0.944,1.129-1.885,1.62-2.802c14.23,1.979,28.493,1.775,42.109-2.525
			c31.019-9.828,54.018-39.55,86.197-44.327c18.12-2.696,38.56,2.593,53.575-7.917c11.705-8.19,16.482-23.921,28.459-31.701
			c17.574-11.397,44.02-1.638,59.853-15.322c6.074-5.255,9.247-13.035,12.216-20.474c6.927-17.437,13.854-34.874,20.781-52.312
			c6.074-15.253,12.217-30.746,13.889-47.057C1084.501,746.351,1084.348,719.121,1077.154,704.13z"/>
		<path fill="#EA5B6F" d="M1078.136,757.436c-6.595,23.72-12.093,49.809-24.29,71.376c-11.468,20.279-27.356,28.504-49.93,31.129
			c-21.284,2.475-32.577,7.514-42.63,27.619c-3.516,7.033-7.385,14.27-14.091,18.805c-8.858,5.99-20.668,6.554-30.806,8.453
			c-11.581,2.17-21.559,7.102-32.311,11.605c-22.35,9.361-46.085,8.165-68.774,16.036c-23.738,8.235-43.834,16.242-69.43,12.759
			c-33.507-4.56-65.416-16.608-98.974-21.172c-0.267,0.112-0.542,0.223-0.808,0.336c2.418,1.096,4.859,2.597,7.729,4.357
			c34.17,20.953,74.043,29.802,110.529,46.199c0.569-0.944,1.129-1.885,1.62-2.802c14.23,1.979,28.493,1.775,42.109-2.525
			c31.019-9.828,54.018-39.55,86.197-44.327c18.12-2.696,38.56,2.593,53.575-7.917c11.705-8.19,16.482-23.921,28.459-31.701
			c17.574-11.397,44.02-1.638,59.853-15.322c6.074-5.255,9.247-13.035,12.216-20.474c6.927-17.437,13.854-34.874,20.781-52.312
			c6.074-15.253,12.217-30.746,13.889-47.057c0.695-6.776,1.011-16.554,0.373-26.547
			C1082.019,741.852,1080.289,749.693,1078.136,757.436z"/>
		<path fill="#EA5B6F" d="M448.755,288.902c5.664,1.537,10.772,4.674,15.696,8.219c6.049,0.79,10.607,4.881,14.071,10.385
			c7.887,5.292,16.174,8.786,26.375,5.583c23.373-7.34,47.885-29.14,65.94-44.949c32.389-28.361,64.968-68.582,109.516-77.237
			c16.479-3.202,32.83,0.573,48.713,4.796c12.434,3.307,24.928,7.348,37.834,8.259c5.666,0.401,13.581,1.889,17.323-2.9
			c1.799-2.303,1.71-11.549,1.911-17.73c-6.127-20.374-15.437-39.804-27.6-57.255c-5.391-7.746-11.568-15.287-19.826-19.826
			c-6.688-3.685-14.298-5.153-21.805-6.415c-28.493-4.777-57.396-7.234-86.299-7.337c-14.878-0.034-30.267,0.478-44.088-5.05
			c-13.547-5.357-27.708-16.447-40.949-10.305c-3.14,1.468-5.801,3.822-8.702,5.767c-5.664,3.788-12.182,6.04-17.915,9.691
			c-15.629,9.964-22.931,28.493-33.134,43.986c-24.911,37.843-68.384,58.522-101.792,89.131c-1.108,1.019-2.184,2.082-3.268,3.135
			c0.187,1.092-0.042,2.289-0.942,3.353c-11.009,13.006-17.529,41.274-17.357,58.094c0.096,9.42,4.436,18.093,5.161,27.374
			C387.39,293.682,416.313,280.099,448.755,288.902z"/>
		<path fill="#F8ACAE" d="M376.445,308.283c5.449-33.031,25.34-58.699,53.797-79.391c15.986-11.624,33.131-21.536,49.724-32.244
			c19.627-12.666,33.806-28.428,48.521-46.255c10.62-12.865,22.16-25.956,38.078-32.208c20.59-8.087,45.618-3.055,66.686,0.399
			c26.184,4.293,52.11,9.62,78.777,9.297c17.623-0.214,34.894-0.157,50.959,8.139c1.071,0.553,2.067,1.195,3.094,1.802
			c-2.385-3.999-4.886-7.929-7.548-11.749c-5.391-7.746-11.568-15.287-19.826-19.826c-6.688-3.685-14.298-5.153-21.805-6.415
			c-28.493-4.777-57.396-7.234-86.299-7.337c-14.878-0.034-30.267,0.478-44.088-5.05c-13.547-5.357-27.708-16.447-40.949-10.305
			c-3.14,1.468-5.801,3.822-8.702,5.767c-5.664,3.788-12.182,6.04-17.915,9.691c-15.629,9.964-22.931,28.493-33.134,43.986
			c-24.911,37.843-68.384,58.522-101.792,89.131c-1.108,1.019-2.184,2.082-3.268,3.135c0.187,1.092-0.042,2.289-0.942,3.353
			c-11.009,13.006-17.529,41.274-17.357,58.094c0.096,9.42,4.436,18.093,5.161,27.374
			C370.381,314.318,373.34,311.196,376.445,308.283z"/>
		<path fill="#D50F33" d="M790.82,199.657c18.052,8.726,31.026,24.705,39.882,43.654c7.417,15.869,10.837,33.117,17.674,49.186
			c4.279,10.057,6.907,22.715,12.229,32.092c7.428,13.089,34.354,11.453,48.134,15.55c12.041,3.581,20.944,10.196,30.702,17.887
			c17.301,13.636,36.404,19.493,56.07,24.334c-0.201-0.553-0.426-1.092-0.621-1.649c-0.504-1.441,0.543-3.63,1.889-4.24
			c8.241-3.738,16.8-6.055,25.463-8.144c-0.423-13.113-9.339-28.46-17.096-38.194c-9.042-11.397-19.792-22.249-23.613-36.274
			c-2.423-8.906-1.945-18.836-6.927-26.582c-5.119-7.917-14.605-11.568-22.42-16.857c-18.529-12.558-28.186-35.284-46.613-48.046
			c-14.98-10.374-35.148-12.865-52.21-6.382c-11.397,4.334-21.839,12.456-34.021,12.66c-2.764,0.034-13.001-4.709-23.102-9.725
			l-5.407-4.156c-0.008,0.329-0.008,0.66-0.014,0.99c0.431,0.359,0.861,0.727,1.292,1.084c-0.444-0.23-0.866-0.452-1.298-0.673
			C790.795,197.328,790.824,198.497,790.82,199.657z"/>
		<path fill="#EA5B6F" d="M1005.145,330.133c-9.042-11.397-19.792-22.249-23.613-36.274c-2.423-8.906-1.945-18.836-6.927-26.582
			c-5.119-7.917-14.605-11.568-22.42-16.857c-18.529-12.558-28.186-35.284-46.613-48.046c-14.98-10.374-35.148-12.865-52.21-6.382
			c-11.397,4.334-21.839,12.456-34.021,12.66c-2.764,0.034-13.001-4.709-23.102-9.725l-5.407-4.156
			c-0.008,0.329-0.008,0.66-0.014,0.99c0.431,0.359,0.861,0.727,1.292,1.084c-0.444-0.23-0.866-0.452-1.298-0.673
			c-0.018,1.156,0.011,2.326,0.007,3.485c3.407,1.647,6.577,3.629,9.629,5.764c17.683,7.925,37.031,9.974,56.409,12.614
			c11.507,1.568,23.878,3.668,34.282,9.195c20.554,10.92,26.985,36.789,45.68,50.378c30.357,22.066,57.181,59.986,59.675,99.08
			c0.098-0.064,0.181-0.172,0.284-0.218c8.241-3.738,16.8-6.055,25.463-8.144C1021.818,355.214,1012.901,339.867,1005.145,330.133z"
			/>
		<path fill="#940C24" d="M522.517,425.655c-0.936-17.952-0.803-40.143,9.947-55.489c10.657-15.212,29.266-18.499,46.175-22.396
			c9.581-2.208,19.353-4.398,28.14-8.977c8.86-4.618,14.942-12.455,23.238-17.596c18.854-11.681,48.761-6.077,68.925-1.6
			c12.014,2.668,23.611,6.853,35.542,9.826c16.836,4.196,31.886,3.338,48.977,2.417c22.353-1.204,48.271,3.371,70.551-2.863
			c-2.139-4.285-3.101-9.301-4.757-14.065c-4.415-12.7-10.263-24.714-14.206-37.609c-8.574-28.038-19.412-56.717-44.215-71.153
			c0.002,0.091-0.001,0.179,0,0.27c0.027,1.398-1.397,2.615-2.669,2.823c-21.097,3.452-40.418-1.408-60.798-6.537
			c-29.742-7.485-51.429-6.626-78.133,9.463c-35.99,21.684-62.054,55.959-96.108,80.21c-14.304,10.187-29.613,23.092-46.499,28.633
			c-8.825,2.896-15.822,2.023-22.395-0.953c2.084,6.191,3.456,12.423,4.443,16.994c3.545,16.414,4.787,32.547,11.092,48.358
			c6.067,15.216,13.83,29.801,17.247,45.953c2.401,11.349,1.973,23.013,4.986,34.261c2.747,10.253,7.379,19.72,11.911,29.262
			c0.416,0.876,0.826,1.743,1.236,2.611C528.238,473.598,523.737,449.057,522.517,425.655z"/>
		<path fill="#D50F33" d="M717.059,694.545c0.835,0.006,1.66-0.016,2.5,0.003c0.896,0.02,1.778,0.034,2.669,0.052
			c31.956-13.688,35.268-52.043,36.419-85.946c0.581-17.085,6.809-32.307,15.196-46.963c9.707-16.964,30.377-38.635,23.129-59.249
			c-5.354,5.277-10.223,11.487-17.035,14.706c-9.416,4.448-20.938,2.852-30.668,0.584c-15.159-3.534-28.998-10.779-43.392-16.433
			c-15.698-6.167-32.044-10.703-47.893-16.487c-26.16-9.547-52.968-20.161-73.593-39.434c-2.031-2.105-4.116-4.156-6.255-6.151
			c-7.078-3.379-10.416-1.528-10.013,5.553c-3.685,6.151-4.353,17.598-5.934,24.61c-3.933,17.437-6.854,34.936-8.261,52.749
			c2.586,6.946,5.259,13.866,7.961,20.774c2.059,2.372,4.247,4.702,6.625,6.978c27.645,26.449,61.836,46.06,93.718,66.926
			c26.383,17.266,52.963,39.153,52.805,73.114C715.929,691.356,716.606,692.92,717.059,694.545z"/>
		<path fill="#EA5B6F" d="M611.058,370.137c4.365,2.125,10.045,2.734,14.673,4.275c4.616,1.536,8.974,3.399,13.253,5.611
			c2.453,1.269,1.534,4.168,3.458,5.261c5.912,3.355,14.275-2.347,18.619-5.333c19.82-13.622,44.703-32.519,67.226-11.833
			c8.042,7.385,11.848,17.664,14.558,27.938c3.496,13.257,5.706,43.28,25.685,39.626c17.982-3.288,29.54-22.809,43.64-35.365
			c-1.816-2.994-3.868-5.935-6.19-8.801c-13.144-16.219-41.374-29.796-48.355-50.332c-5.001-0.226-9.957-0.702-14.83-1.577
			c-22.286-4.005-43.172-12.711-65.857-15.069c-13.453-1.398-30.736-3.588-42.792,4.02c-6.967,4.396-12.193,11.092-19.383,15.443
			c-1.712,1.036-3.458,1.946-5.22,2.8C603.19,355.817,598.354,363.951,611.058,370.137z"/>
		<path fill="#940C24" d="M572.141,429.457c5.289-21.494,12.481-42.512,25.983-59.933c-4.584-6.012-1.846-12.953,2.442-19.054
			c-14.241,4.837-29.446,6.248-43.633,11.854c-24.821,9.807-27.214,36.549-26.312,60.14c1.188,31.078,9.292,60.467,19.524,89.272
			c2.26-27.605,8.956-54.506,15.309-81.49c0.402-1.709,2.29-2.028,3.709-1.682C570.173,428.811,571.164,429.112,572.141,429.457z"/>
		<path fill="#EA5B6F" d="M685.614,462.28c24.082-13.414,51.085-11.334,76.175-19.741c-28.324-3.746-21.265-55.665-39.464-70.97
			c-27.202-22.877-47.714,14.68-70.023,22.568c-8.108,2.867-10.285-0.187-15.21-5.515c-8.79-9.507-24.322-8.315-34.332-14.844
			c-12.24,18.523-17.894,38.011-23.779,58.961c11.101,6.59,20.501,18.129,31.403,24.485c14.296,8.335,28.549,22.962,43.435,33.984
			C661.161,478.925,673.026,469.292,685.614,462.28z"/>
		<path fill="#F8ACAE" d="M808.354,403.347c-13.569,12.052-20.716,32.885-35.887,38.147c0.232,1.103-0.059,2.364-1.148,3.036
			c-21.146,13.052-44.513,9.724-67.165,18.442c-17.879,6.881-33.175,17.717-43.125,33.198c4.972,3.162,10.019,5.792,15.177,7.471
			c20.72,6.743,46.739,13.282,67.373,20.121c11.892,3.942,40.421-8.057,52-15.29c4.825-3.014,6.323-8.557,10.541-12.847
			c-0.134-0.989,2.931-6.482,2.958-7.858C809.744,454.278,823.043,433.211,808.354,403.347z"/>
		<path fill="#EA5B6F" d="M828.337,641.583c13.569-17.214,23.159-32.496,25.227-54.895c1.371-14.841,0.939-29.885,0.624-44.766
			c-0.517-24.463-2.687-53.674,6.197-77.725c-5.757,3.449-12.167,6.291-17.119,9.913c-12.996,9.505-25.02,20.266-38.107,29.681
			c3.422,15.795-6.252,31.775-14.876,45.214c-6.856,10.685-13.909,21.429-18.599,33.294c-5.407,13.679-5.215,26.513-5.24,40.98
			c-0.05,28.298-9.486,55.716-30.123,71.426c27.72-0.258,52.458-4.173,74.021-25.558c7.114-7.055,13.381-14.853,19.359-22.89
			C828.056,645.402,826.967,643.32,828.337,641.583z"/>
		<path fill="#F8ACAE" d="M1019.413,432.832c-6.624-13.989-14.239-27.286-20.312-41.439c-20.962-4.793-41.606-9.827-59.822-23.526
			c-11.715-8.81-21.327-17.1-35.734-21.132c-5.986-1.675-13.25-2.372-20.483-3.428c20.337,14.535,34.61,35.831,20.02,59.835
			c-5.557,9.142-12.87,17.05-19.431,25.452c-6.617,8.474-6.798,19.1-13.04,27.188c-0.593,0.769-1.287,1.463-1.974,2.16
			c-20.007,46.844,2.714,105.788-12.818,152.787c22.203-27.252,49.404-46.047,86.881-38.43c12.011,2.441,27.799,6.992,31.919,20.196
			c3.557,11.401-3.595,23.5-10.049,32.367c-17.314,23.79-44.661,47.021-71.863,61.961c19.993-5.521,40.448-8.387,58.562-19.09
			c17.832-10.536,31.821-26.392,41.7-44.47c20.886-38.218,33.852-86.313,37.263-129.53
			C1031.952,471.925,1028.764,452.581,1019.413,432.832z"/>
		<path fill="#D50F33" d="M794.21,371.058c8.254,7.179,16.555,15.72,23.094,25.16c1.893-1.351,3.83-2.584,5.859-3.57
			c3.949-1.917,6.969,3.86,2.904,5.835c-1.8,0.875-3.553,1.946-5.275,3.152c2.119,3.569,3.978,7.239,5.434,11.008
			c11.309,29.262-3.117,61.785-24.118,82.848c0.249,0.459,0.426,0.922,0.649,1.382c17.455-13.442,34.575-27.088,53.399-38.517
			c10.04-6.096,8.995-11.775,13.134-20.913c2.415-5.331,6.856-10.128,10.477-14.626c13.887-17.249,33.019-35.794,17.299-58.487
			c-7.301-10.539-18.305-18.487-29.999-24.717c-2.35-0.883-4.548-1.969-6.554-3.295c-1.379-0.654-2.757-1.285-4.135-1.897
			c-13.714,3.896-28.713,4.022-42.712,4.361c-16.696,0.404-34.166,2.771-51.198,2.542
			C768.323,354.226,784.121,362.283,794.21,371.058z"/>
		<path fill="#D50F33" d="M453.655,482.358c3.114-25.029-1.65-45.615-10.414-68.871c-5.956-15.806-11.711-31.852-14.271-48.615
			c-2.909-19.049,1.22-55.147,22.463-65.289c-13.734-5.621-28.875-6.404-44.046-1.785c-16.917,5.151-27.446,17.462-37.891,30.523
			c2.776,0.469,3.934,4.341,0.726,6.076c-2.908,1.572-4.176,1.764-6.512,1.35c-0.867,1.818-1.808,3.701-2.782,5.793
			c-10.014,21.517,1.834,42.263-5.188,64.124c-2.837,8.833-8.845,16.705-10.884,25.787c-2.865,12.76,1.631,24.612,6.792,36.134
			c12.201,27.239,24.336,50.318,10.202,79.814c-5.412,11.295-13.75,21.034-16.3,33.548c-2.606,12.786,0.923,25.658,5.191,37.711
			c5.563,15.711,12.127,31.029,17.666,46.761c4.245,12.056,5.895,20.601-0.329,25.673c24.732,28.673,57.688,56.82,74.924,90.485
			c0.405-0.693,0.812-1.378,1.219-2.036c13.119-21.222,36.622-42.096,62.409-51.263c-31.338-32.287-53.061-73.26-63.108-119.621
			C433.879,564.145,448.209,526.135,453.655,482.358z"/>
		<path fill="#EA5B6F" d="M1129.8,605.239c-4.743-22.01-4.129-46.374-17.301-64.63c-1.809-2.525-3.89-4.948-6.074-7.336
			c-2.9-11.534,10.817-23.272,8.497-35.421c-1.092-5.665-5.562-10.169-6.995-15.765c-1.911-7.371,1.638-15.458-0.853-22.658
			c-3.276-9.452-15.322-13.035-20.099-21.839c-2.354-4.3-2.661-9.35-3.514-14.161c-3.481-20.031-17.198-37.946-35.557-46.579
			c-5.351-2.505-11.08-4.129-16.917-5.023c-2.853,0.607-6.015,1.288-9.164,2.074c-0.055,0.305-0.058,0.635-0.125,0.936l-0.898-0.678
			c-7.974,2.061-15.525,4.858-16.885,9.071c-1.592,4.931,10.16,22.239,12.651,27.004c8.068,15.432,16.634,30.799,20.203,48.022
			c9.106,43.945-7.473,94.385-22.195,135.359c-11.178,31.108-26.518,60.809-54.917,79.426
			c-20.118,13.188-42.568,16.479-65.297,22.865c-2.302,0.646-55.532,17.19-54.981,18.837c1.003,2.998-2.423,5.931-4.974,5.105
			c-4.446,6.857-6.959,14.773-9.65,22.569c46.417,20.638,103.399,20.468,150.379,1.988c34.344-13.51,66.054-35.536,100.828-48.239
			c8.205-6.516,15.744-13.9,24.699-19.367c13.854-8.463,30.78-11.841,46.818-9.316
			C1144.131,646.153,1134.338,626.361,1129.8,605.239z M1085.166,506.143l17.403,23.034
			C1095.471,521.84,1088.169,514.64,1085.166,506.143z"/>
		<path fill="#F8ACAE" d="M1129.8,605.239c-4.743-22.01-4.129-46.374-17.301-64.63c-1.809-2.525-3.89-4.948-6.074-7.336
			c-2.9-11.534,10.817-23.272,8.497-35.421c-1.092-5.665-5.562-10.169-6.995-15.765c-1.911-7.371,1.638-15.458-0.853-22.658
			c-3.276-9.452-15.322-13.035-20.099-21.839c-2.354-4.3-2.661-9.35-3.514-14.161c-3.481-20.031-17.198-37.946-35.557-46.579
			c-4.944-2.314-10.215-3.847-15.591-4.777c7.828,10.663,14.138,22.281,20.333,34.435c4.943,9.698,9.599,20.21,16.927,28.332
			c6.232,6.907,14.165,12.092,20.632,18.771c10.28,10.615,13.366,21.93,13.598,36.465c0.38,23.818-2.508,45.013,3.761,68.511
			c9.723,36.441,31.144,72.661,8.471,108.251c-0.864,1.357-1.792,2.668-2.714,3.985c10.889-3.891,22.738-5.138,34.156-3.341
			C1144.131,646.153,1134.338,626.361,1129.8,605.239z"/>
		<path fill="#D50F33" d="M869.16,724.19c21.902-3.012,47.133,0.43,67.923-7.698c20.383-7.97,36.808-25.378,51.879-40.617
			c14.02-14.177,29.476-27.773,41.275-43.904c55.057-75.269,27.972-181.841-21.872-253.258c-2.251,1.301-3.893,2.783-4.452,4.515
			c-1.592,4.931,10.16,22.239,12.651,27.004c8.068,15.432,16.634,30.799,20.203,48.022c9.106,43.945-7.473,94.385-22.195,135.359
			c-11.178,31.108-26.518,60.809-54.917,79.426c-20.118,13.188-42.568,16.479-65.297,22.865
			c-2.302,0.646-55.532,17.19-54.981,18.837c1.003,2.998-2.423,5.931-4.974,5.105c-3.683,5.68-6.034,12.088-8.264,18.55
			C839.274,730.933,853.575,726.333,869.16,724.19z"/>
		<path fill="#F8ACAE" d="M551.165,731.063c-1.994-0.531-3.992-0.913-5.991-1.224c-1.475,0.883-2.842,2.004-4.061,3.434
			c-3.179,3.727-8.333-0.16-7.678-4.079c-20.392,0.811-40.2,11.297-55.96,23.858c-6.694,5.335-21.66,20.694-30.664,36.759
			c5.492,13.052,8.473,26.957,7.655,42.043c14.788,5.639,34.348,1.898,49.283,0.88c22.791-1.553,45.463,1.517,68.21,0.453
			c27.302-1.277,51.157-15.499,77.787-20.53c17.259-3.261,27.978-11.328,41.614-21.397c7.355-5.431,14.934-9.123,23.94-10.833
			c18.893-3.588,37.69,1.897,56.608,0.337c30.017-2.474,39.699-26.151,49.054-50.548c6.85-17.865,16.829-28.357,34.552-35.87
			c16.814-7.128,32.405-13.757,47.473-24.137c12.237-8.429,24.071-17.495,35.114-27.444c11.018-9.926,28.295-24.897,29.947-40.841
			c2.323-22.434-35.328-24.819-49.379-23.233c-18.575,2.097-33.501,11.946-46.075,25.332c-21.81,23.219-35.947,52.719-59.309,74.616
			c-13.572,12.721-29.814,21.437-48.393,24.174c-24.638,3.629-49.539-1.082-74.228,2.347c-28.27,3.927-53.642,14.612-81.061,21.285
			c-9.437,2.296-18.85,3.309-28.559,3.065c-7.942-0.2-18.483-3.266-27.497-2.274C554.623,728.762,553.357,731.647,551.165,731.063z"
			/>
		<path fill="#EA5B6F" d="M312.742,911.093c28.482-6.057,56.131-14.713,83.782-24.12c21.954-7.469,43.637-15.858,48.691-41.222
			c12.833-64.409-47.312-107.312-84.709-151.098c-2.111,0.568-4.547,1.017-7.354,1.342c-10.568,1.224-22.134-1.29-33.005-4.559
			c-38.447,7.666-75.504,22.427-97.564,56.662c-28.492,44.216-21.438,99.7-38.452,147.878c16.048,1.61,33.199-12.202,47.803-4.916
			c4.88,2.423,8.394,6.791,12.66,10.135c13.718,10.681,32.929,9.452,50.231,7.678c5.596-0.58,11.193-1.16,16.789-1.74
			C311.905,908.461,312.298,909.78,312.742,911.093z"/>
		<path fill="#F8ACAE" d="M297.227,894.698c-10.843-0.141-20.928-1.436-30.289-7.188c-12.151-7.467-19.165-18.213-34.224-21.04
			c-15.084-2.832-21.27-0.321-25.081-17.897c-4.461-20.571,4.792-42.377,9.751-62.048c5.188-20.583,12.517-39.854,26.234-56.396
			c7.401-8.925,15.936-16.214,25.231-22.137c-18.322,9.065-34.455,21.775-46.266,40.105c-28.492,44.216-21.438,99.7-38.452,147.878
			c16.048,1.61,33.199-12.202,47.803-4.916c4.88,2.423,8.394,6.791,12.66,10.135c13.718,10.681,32.929,9.452,50.231,7.678
			c5.596-0.58,11.193-1.16,16.789-1.74c0.292,1.329,0.684,2.648,1.128,3.961c16.704-3.552,33.117-8.014,49.415-12.981
			C340.489,896.983,319.013,894.983,297.227,894.698z"/>
		<path fill="#EA5B6F" d="M140.552,478.708c4.23,3.173,9.792,4.163,14.058,7.268c-0.197,0.128-0.403,0.27-0.602,0.401
			c9.901,5.77,15.59,14.932,12.99,28.999c-2.845,15.392-20.214,37.874-13.897,53.667c7.681,19.204,42.616,11.333,58.143,21.877
			c9.751,6.622,16.069,17.807,22.45,27.389c10.106,15.176,19.701,30.705,34.224,42.212c9.896,7.842,95.2,45.356,97.579,19.899
			c0.56-5.99-5.784-16.874-7.701-22.47c-2.967-8.66-6.669-17.014-10.048-25.516c-5.337-13.43-10.878-27.773-10.806-42.46
			c0.08-16.349,8.87-28.234,16.258-42.104c10.394-19.512,9.185-39.031,0.212-58.744c-6.126-13.459-4.957-21.383-7.387-36.201
			c-1.975-12.043,3.774-13.411,8.522-24.328c6.412-14.742-3.628-38.189-5.372-53.852c-0.773-6.938-2.308-14.444-1.22-21.464
			c0.924-5.963,4.069-10.231,6.505-15.54c7.269-15.841,3.203-24.324,0.916-39.909c-2.162-14.73,1.231-35.422,8.215-52.206
			c-25.47-13.217-56.016-16.437-83.608-8.549c-9.316,2.662-19.894,6.347-28.084,1.195c-3.584-2.253-6.245-6.074-10.305-7.405
			c-7.849-2.559-15.117,5.562-18.052,13.308c-6.45,17.028-4.402,35.864-5.324,54.052c-0.921,18.188-6.278,38.219-21.907,47.569
			c-8.429,5.05-18.631,6.176-27.641,10.135c-16.652,7.371-27.709,24.091-32.656,41.631c-4.949,17.54-4.642,36.069-4.334,54.257
			C131.884,461.612,132.737,472.804,140.552,478.708z"/>
		<path fill="#F8ACAE" d="M181.074,570.618c-0.862-7.748,2.987-11.833,6.858-17.854c10.61-16.502,1.187-22.641-0.652-38.45
			c-2.038-17.512,0.794-30.674-9.314-46.512c-4.822-7.557-9.232-14.062-11.264-23c-4.585-20.168,1.869-41.638,17.076-55.678
			c7.28-6.722,16.036-10.662,24.335-15.791c12.602-7.789,19.765-21.914,27.802-33.959c13.55-20.307,23.576-42.675,37.276-62.802
			c19.18-28.176,55.466-37.622,88.272-31.984c-25.035-12.318-54.648-15.182-81.482-7.51c-9.316,2.662-19.894,6.347-28.084,1.195
			c-3.584-2.253-6.245-6.074-10.305-7.405c-7.849-2.559-15.117,5.562-18.052,13.308c-6.45,17.028-4.402,35.864-5.324,54.052
			c-0.921,18.188-6.278,38.219-21.907,47.569c-8.429,5.05-18.631,6.176-27.641,10.135c-16.652,7.371-27.709,24.091-32.656,41.631
			c-4.949,17.54-4.642,36.069-4.334,54.257c0.205,9.793,1.058,20.986,8.873,26.89c4.23,3.173,9.792,4.163,14.058,7.268
			c-0.197,0.128-0.403,0.27-0.602,0.401c9.901,5.77,15.59,14.932,12.99,28.999c-2.845,15.392-20.214,37.874-13.897,53.667
			c5.378,13.446,24.104,13.629,40.186,16.143C187.014,582.614,181.952,578.501,181.074,570.618z"/>
		<path fill="#EA5B6F" d="M208.887,589.473c-0.108-0.026-0.222-0.051-0.332-0.077c0.939,0.467,1.854,0.957,2.688,1.523
			c9.751,6.622,16.069,17.807,22.45,27.389c8.438,12.671,16.56,25.555,27.451,36.172
			C252.187,625.029,240.906,597.147,208.887,589.473z"/>
		<g>
			<g>
				<g>
					<path fill="#940C24" d="M659.347,479.452c-3.355,1.314-6.936-1.167-9.498-3.699c-7.387-7.299-13.046-16.542-15.139-26.713
						c-2.094-10.171-0.405-21.267,5.5-29.808c1.473-2.13,3.333-4.186,5.818-4.916c2.485-0.73,5.653,0.397,6.354,2.891
						c0.49,1.742-0.292,3.561-1.057,5.2c-2.042,4.381-4.084,8.762-6.126,13.144c-0.728,1.561-1.243,3.843,0.28,4.648
						c1.179,0.623,2.57-0.28,3.532-1.203c4.12-3.954,6.953-9.183,11.459-12.69c3.025-2.354,8.424-3.223,9.909,0.311
						c1.079,2.565-0.909,5.321-2.817,7.347c-6.446,6.845-14.104,14.684-12.783,23.993c0.897,6.321,6.023,11.406,11.865,13.983
						c1.377,0.607,2.842,1.127,3.936,2.161c1.094,1.034,1.703,2.777,0.935,4.071c-0.441,0.744-1.239,1.197-2.025,1.557
						c-3.977,1.82-8.639,2.09-12.799,0.74"/>
					<g>
						<path fill="#940C24" d="M664.72,490.166c2.032-18.695,21.917-19.171,35.536-23.639c8.368-2.745,14.326-8.143,21.875-12.289
							c17.066-9.373,36.859,0.363,52.421-13.17c5.215-4.535,9.066-10.375,13.183-15.854c3.067-4.081,5.954-8.358,9.651-11.912
							c1.788-1.488,3.576-2.976,5.364-4.463c5.453-3.81,7.681-3.388,6.683,1.265c2.116,3.867-0.003,14.067-0.004,18.611
							c-0.001,6.204-0.003,12.408-0.004,18.611c-0.003,12.766,0.942,26.559-2.638,38.949c-5.263,18.215-16.299,24.467-34.659,26.916
							c-14.334,1.911-26.895,2.533-41.082-1.38c-25.326-6.985-49.474-9.369-73.86-20.448c-19.636-8.92-36.036-21.82-54.596-32.427
							c-10.913-6.237-21.773-18.516-25.136-31.031c-4.915-8.658-0.462-15.74,13.358-21.245c2.359,0.453,4.724,0.55,7.092,0.289
							c3.826-0.444,3.361-0.397,7.572-2.347c2.986-1.383,0.389-5.796-2.583-4.42c-12.909,5.979-31.555-3.881-32.756,17.794
							c-0.89,16.056,14.503,36.168,27.477,43.999c22.832,13.782,43.453,28.472,68.438,38.849
							c11.627,4.829,23.385,8.428,35.815,10.425c13.397,2.152,26.095,6.472,39.319,8.87c11.716,2.125,24.419-0.652,36.045-2.148
							c8.361-1.076,15.282-2.75,21.765-8.569c16.473-14.785,15.529-38.74,15.547-58.974c0.011-12.774,3.423-31.113,0.01-43.427
							c-0.724-2.613-0.469-5.07-3.571-6.29c-10.532-4.143-24.201,17.385-28.866,23.568c-4.138,5.485-8.145,11.441-14.047,15.185
							c-9.09,5.765-19.344,4.828-29.62,5.362c-12.59,0.654-18.386,5.803-28.979,11.98c-17.567,10.243-47.044,7.385-49.867,33.36
							C659.246,493.436,664.367,493.411,664.72,490.166L664.72,490.166z"/>
					</g>
					<path fill="#940C24" d="M589.211,449.617c5.541-0.988,10.411-5.117,12.291-10.422c1.264-3.566,1.227-7.443,1.176-11.226
						c-0.103-7.579-0.206-15.158-0.308-22.737c-0.017-1.233,0.05-2.65,1.018-3.414c0.598-0.471,1.4-0.567,2.157-0.644
						c11.449-1.175,22.897-2.349,34.346-3.524c5.982-0.614,13.044-0.807,16.82,3.872c-7.498-0.126-15.159-0.228-22.289,2.095
						c-7.13,2.323-13.76,7.557-15.695,14.803c-1.765,6.609,0.473,14.142-2.756,20.173c-1.365,2.55-3.635,4.636-4.436,7.416
						c-1.511,5.25,2.718,10.436,2.976,15.892c0.045,0.942-0.093,2.011-0.842,2.584c-0.77,0.589-1.862,0.417-2.797,0.163
						c-8.123-2.209-14.531-8.289-20.571-14.153L589.211,449.617z"/>
					<g>
						<path fill="#940C24" d="M656.939,404.021c7.333-2.343,17.173-3.738,24.266-0.431c4.079,1.902,16.068,7.21,16.731,11.02
							c0.564,3.239,5.497,1.866,4.936-1.361c-0.563-3.236-1.881-5.374-4.681-7.259c-1.639-1.104-3.287-1.382-5.001-2.213
							c-3.032-1.469-5.753-3.559-8.731-5.089c-8.115-4.167-20.451-2.297-28.88,0.396
							C652.453,400.083,653.789,405.027,656.939,404.021L656.939,404.021z"/>
					</g>
					<g>
						<path fill="#940C24" d="M731.847,450.828c2.924-6.688,2.928-12.702,2.944-19.963c0.012-5.445,1.039-12.428-1.3-17.549
							c-5.578-12.208-23.888-12.308-32.955-20.512c-2.437-2.206-6.068,1.403-3.619,3.619c6.253,5.658,15.05,7.725,22.367,11.669
							c6.554,3.533,10.337,8.969,10.386,16.492c0.05,7.691,0.909,16.451-2.243,23.659
							C726.12,451.234,730.529,453.843,731.847,450.828L731.847,450.828z"/>
					</g>
					<g>
						<path fill="#940C24" d="M716.786,404.262c-11.479,6.698-28.592,12.936-37.037,23.622c-6.063,7.672-8.112,18.862,0.485,25.366
							c5.568,4.212,22.072,11.421,28.476,6.733c2.096-1.535,3.435-4.164,2.838-6.802c-0.245-1.084-1.488-1.941-1.71-2.941
							c-0.74-0.61-1.49-1.207-2.252-1.79c-1.048-5.236,0.207-9.303,3.766-12.202c2.29-2.37-1.325-5.994-3.619-3.619
							c-3.516,3.639-8.981,9.341-7.239,14.994c0.236,0.765,2.129,3.338,2.143,3.498c0.486,5.733-4.6,3.785-7.642,2.773
							c-7.113-2.366-17.382-4.038-14.783-16.153c1.318-6.142,6.463-9.734,11.328-12.822c9.044-5.742,18.574-10.838,27.828-16.238
							C722.213,407.022,719.64,402.597,716.786,404.262L716.786,404.262z"/>
					</g>
					<g>
						<path fill="#940C24" d="M720.955,427.031c-5.952,0.926-12.263,2.532-15.516,8.085c-1.669,2.848,2.754,5.427,4.42,2.583
							c2.491-4.253,7.996-5.039,12.457-5.733C725.56,431.461,724.182,426.528,720.955,427.031L720.955,427.031z"/>
					</g>
					<path fill="#940C24" d="M682.77,428.613c2.172-2.162,6.007-0.498,7.872,1.934c3.313,4.32,3.484,10.786,0.405,15.276
						c-0.866,1.264-2.014,2.408-3.466,2.894c-2.965,0.993-6.259-1.164-7.573-4.002c-1.314-2.838-1.128-6.12-0.778-9.228
						c0.349-3.104,1.24-6.729,4.149-7.864c2.875-1.122,6.179,1.089,7.374,3.934c1.195,2.845,0.854,6.071,0.492,9.135L682.77,428.613
						z"/>
					<g>
						<path fill="#940C24" d="M568.732,420.793c-0.645,18.486-2.833,34.739-10.211,51.687c-3.928,9.023-7.452,17.632-8.204,27.578
							c-1.222,16.167,2.833,37.158,18.824,44.684c2.964,1.395,5.565-3.016,2.583-4.42c-26.878-12.65-14.58-50.461-6.409-70.398
							c6.596-16.093,7.932-31.89,8.534-49.132C573.966,417.499,568.847,417.503,568.732,420.793L568.732,420.793z"/>
					</g>
					<g>
						<path fill="#940C24" d="M488.128,483.372c-31.464-19.98-43.032-55.682-45.653-91.201c-0.962-13.04-2.619-28.347,0.942-41.119
							c3.031-10.873,14.761-13.952,17.201-24.478c0.265-2.49,0.304-4.984,0.115-7.481c7.509-3.024,12.298-1.937,14.366,3.262
							c4.499,4.794,5.862,16.955,6.583,23.123c1.517,12.972,0.543,26.091,1.181,39.107c0.477,9.725,1.539,19.564,4.988,28.739
							c4.5,11.971,14.401,19.688,19.993,30.862c6.688,13.366,4.999,28.611,12.168,42.042c6.531,12.235,14.275,24.707,22.32,36.005
							c6.835,9.599,14.69,14.655,24.304,21.183c12.997,8.825,17.044,19.243,23.762,32.593c4.523,8.988,9.505,16.231,17.951,21.857
							c12.367,8.238,22.419,15.745,32.449,26.815c21.89,24.159,56.417,37.798,67.382,70.534c1.041,3.108,5.986,1.775,4.936-1.361
							c-7.125-21.273-23.283-34.81-40.559-48.098c-12.596-9.688-23.157-19.301-33.707-31.101
							c-8.541-9.553-17.443-14.244-27.917-21.208c-19.346-12.863-20.116-39.572-39.497-52.974
							c-13.714-9.483-23.058-17.886-31.956-32.289c-10.209-16.527-18.827-30.235-22.155-49.572
							c-4.247-24.669-25.566-39.051-28.568-64.729c-2.594-22.187,1.948-45.855-6.082-67.23
							c-2.991-7.963-13.575-27.073-24.275-17.199c-1.715,1.583-1.988,3.133-2.596,5.382c-1.987,7.357,0.923,5.847-3.81,13.593
							c-4.656,7.62-11.071,12.214-13.513,21.263c-6.415,23.772-1.807,55.507,4.831,78.867c6.907,24.304,20.737,45.583,42.233,59.234
							C488.334,489.563,490.904,485.135,488.128,483.372L488.128,483.372z"/>
					</g>
					<g>
						<path fill="#940C24" d="M505.493,510.463c5.843,12.955,13.734,23,24.436,32.294c6.505,5.649,11.92,10.819,15.521,18.833
							c2.731,6.077,4.009,12.66,7.261,18.523c4.691,8.457,11.939,15.132,19.896,20.476c7.626,5.122,38.436,14.489,41.374,23.641
							c1.003,3.124,5.946,1.788,4.936-1.361c-2.772-8.638-10.648-10.386-18.431-13.732c-15.623-6.718-32.871-14.622-42.152-29.665
							c-6.621-10.733-7.277-23.034-16.163-32.553c-12.095-12.956-24.682-22.239-32.258-39.039
							C508.561,504.882,504.149,507.481,505.493,510.463L505.493,510.463z"/>
					</g>
					<g>
						<path fill="#940C24" d="M448.109,454.418c10.685,60.025-16.473,120.324,1.902,179.885c7.192,23.311,18.33,47.926,31.53,68.435
							c11.438,17.771,27.106,23.945,47.66,25.911c3.277,0.313,3.256-4.807,0-5.119c-17.397-1.664-31.677-6.463-41.939-21.331
							c-5.946-8.615-10.364-18.479-14.964-27.838c-12.165-24.75-22.124-49.595-23.871-77.403
							c-3.032-48.26,13.189-95.751,4.618-143.901C452.468,449.82,447.534,451.192,448.109,454.418L448.109,454.418z"/>
					</g>
					<path fill="#940C24" d="M486.421,365.372c-0.952,9.624,3.674,18.953,9.366,26.772s12.593,14.8,17.317,23.239
						c10.481,18.724,8.82,41.604,6.859,62.973c-3.75-17.324-10.591-33.975-20.104-48.931c-3.494-5.493-7.367-10.801-9.953-16.775
						c-5.884-13.589-4.542-29.074-3.091-43.811L486.421,365.372z"/>
					<g>
						<path fill="#940C24" d="M489.162,363.664c-0.569-31.198,15.472-50.009,38.248-68.464
							c17.251-13.978,27.097-35.152,44.905-48.186c10.283-7.527,22.923-10.442,33.434-17.658
							c9.398-6.451,16.786-15.464,26.312-21.751c21.976-14.505,55.531-17.666,81.354-16.393
							c23.631,1.165,41.304,17.93,64.205,20.475c10.737,1.193,20.514-2.671,27.511,11.684c1.914,3.927,1.814,9.62,3.386,13.853
							c3.093,8.332,8.125,15.776,13.347,22.898c7.137,9.735,15.257,18.795,20.941,29.518c5.585,10.538,13.584,28.538-1.644,36.93
							c-5.657,3.117-17.781,1.918-24.11,2.246c-21.6,1.12-42.591,2.194-60.464,15.752c-2.591,1.965-0.043,6.412,2.583,4.42
							c22.81-17.304,50.534-12.811,77.198-16.532c15.859-2.213,20.726-9.597,18.014-26.056
							c-3.753-22.77-22.337-38.829-34.081-57.456c-6.287-9.971-6.944-20.436-11.12-30.826c-2.015-5.013-5.047-8.136-10.192-9.966
							c-8.931-3.178-19.25-0.451-28.477-2.984c-11.286-3.098-21.243-9.828-32.101-14.056c-20.592-8.018-43.733-4.94-65.123-2.101
							c-21.482,2.851-39.101,9.224-55.439,23.459c-11.267,9.817-20.922,16.239-34.485,22.47
							c-9.224,4.238-16.763,9.074-23.741,16.485c-8.713,9.252-15.331,20.255-24.035,29.511
							c-8.644,9.192-19.636,15.571-28.617,24.363c-15.808,15.476-23.327,36.489-22.928,58.365
							C484.103,366.954,489.222,366.964,489.162,363.664L489.162,363.664z"/>
					</g>
					<g>
						<path fill="#940C24" d="M805.487,402.422c-1.271-11.114-4.943-21.267-12.856-29.462c-3.613-3.742-7.833-6.504-12.322-9.079
							c-10.285-5.899-15.547-9.446-21.642-20.445c-4.875-8.798-8.888-15.256-19.017-18.705c-14.212-4.839-26.463,4.218-40.461,4.938
							c-15.337,0.788-24.648-11.992-39.162-14.469c-10.987-1.875-21.641,2.522-29.711,9.892c-4.691,4.284-7.977,9.456-11.002,15.005
							c-4.443,8.152-10.53,12.126-17.733,17.575c-6.823,5.161-10.664,9.84-9.247,18.649c0.522,3.244,5.455,1.867,4.936-1.361
							c-1.855-11.526,14.417-15.69,20.285-22.124c8.157-8.944,9.409-19.633,20.336-26.909c25.467-16.959,39.287,12.132,63.767,9.62
							c9.992-1.025,17.845-6.756,28.101-6.566c9.564,0.177,16.749,3.642,22.142,11.956c2.668,4.113,3.656,10.132,6.843,14.177
							c4.12,5.228,9.281,8.003,14.986,11.142c14.967,8.236,24.603,18.371,26.638,36.164
							C800.738,405.657,805.861,405.694,805.487,402.422L805.487,402.422z"/>
					</g>
					<g>
						<path fill="#940C24" d="M584.271,409.131c0.794-7.782-0.487-25.877,8.481-28.793c6.179-2.009,17.883,3.779,23.965,5.701
							c5.514,1.743,11.239,2.454,16.733,4.014c8.212,2.332,6.014,2.989,9.67,7.644c2.033,2.589,5.632-1.056,3.619-3.619
							c-4.12-5.247-1.405-6.93-8.409-8.838c-6.684-1.821-13.51-2.005-20.253-4.137c-6.081-1.922-12.051-4.119-18.372-5.146
							c-4.885-0.794-11.321-1.97-15.068,2.186c-5.655,6.272-4.676,23.064-5.484,30.988
							C578.819,412.405,583.94,412.381,584.271,409.131L584.271,409.131z"/>
					</g>
					<g>
						<path fill="#940C24" d="M640.268,394.625c6.385-11.12,16.027-16.356,28.677-17.191c4.739-0.313,9.182,0.423,13.763-1.136
							c13.514-4.599,18.989-22.849,34.643-21.81c22.208,1.475,14.113,21.865,22.436,34.842c5.139,8.012,11.804,12.23,14.828,22.131
							c3.159,10.345,5.533,22.101,2.705,32.668c-0.852,3.186,4.084,4.545,4.936,1.361c4.837-18.077-1.865-38.41-12.242-53.131
							c-4.682-6.641-6.682-10.624-8.338-18.711c-0.836-4.082-0.196-6.032-1.861-9.923c-2.348-5.486-6.915-9.841-12.241-12.41
							c-17.63-8.507-25.963,5.43-38.317,14.915c-11.774,9.04-23.823,3.602-36.178,9.264c-7.741,3.547-13.062,9.286-17.232,16.548
							C634.206,394.903,638.627,397.484,640.268,394.625L640.268,394.625z"/>
					</g>
					<g>
						<path fill="#940C24" d="M598.846,359.523c-11.469,3.908-20.776,4.232-32.658,2.998c-5.413-0.562-10.578-1.898-16.067-0.773
							c-5.015,1.028-9.744,3.176-12.683,7.614c-4.87,7.356-1.178,15.563-1.468,23.51c-0.454,12.487-11.279,18.24-11.565,29.943
							c-0.112,4.59,1.907,8.504,2.878,12.911c2.036,9.239,1.594,17.721,1.542,27.025c-0.066,11.618,0.904,22.934,4.018,34.191
							c2.296,8.298,9.347,36.615,22.61,30.613c2.997-1.356,0.397-5.768-2.583-4.42c-5.873,2.658-14.352-24.591-15.774-30.298
							c-2.469-9.906-3.234-19.92-3.151-30.087c0.063-7.649,0.688-15.366-0.571-22.964c-1.992-12.021-2.706-19.683,3.249-30.998
							c2.133-4.054,3.916-6.629,4.455-11.314c0.354-3.085-0.238-6.225-0.467-9.289c-0.669-8.949-1.916-8.201,6.497-15.491
							c8.727-7.562,10.068-5.936,20.505-4.834c3.093,0.327,6.12,0.827,9.249,0.857c8.134,0.079,15.695-1.652,23.346-4.258
							C603.307,363.402,601.976,358.456,598.846,359.523L598.846,359.523z"/>
					</g>
					<path fill="#940C24" d="M621.348,604.854c5.443-0.435,10.885-0.87,16.328-1.304c4.159-0.332,8.398-0.683,12.25-2.287
						c2.926-1.218,5.51-3.112,8.126-4.902c8.797-6.021,18.239-11.03,27.657-16.025c4.427-2.348,8.914-4.719,13.787-5.888
						c4.101-0.984,8.427-1.103,12.35-2.652c7.044-2.781,11.519-9.57,17.114-14.673c5.595-5.103,14.672-8.488,20.439-3.58
						c-12.664,12.092-33.05,14.018-44.4,27.352c-5.435,6.385-8.158,14.743-13.674,21.057c-10.022,11.47-26.711,13.77-41.887,15.079
						c-3.409,0.294-6.929,0.564-10.178-0.51s-6.186-3.851-6.354-7.268L621.348,604.854z"/>
					<g>
						<path fill="#940C24" d="M802.8,502.508c21.598-5.063,34.55-17.281,47.272-34.586c6.762-9.197,12.417-13.554,22.708-18.58
							c3.074-1.501,5.909-2.47,8.585-4.712c6.219-5.21,8.269-12.558,9.949-20.205c4.639-21.112,17.478-40.225,7.157-61.512
							c-9.76-20.131-30.556-32.179-52.083-35.216c-3.222-0.455-4.614,4.477-1.361,4.936c21.262,3,48.992,17.878,52.16,41.849
							c1.689,12.779-3.676,22.309-7.357,33.909c-3.274,10.32-3.201,19.155-9.998,28.021c-8.267,10.782-22.528,13.683-31.472,25.195
							c-13.476,17.345-24.357,30.676-46.923,35.965C798.233,498.324,799.59,503.26,802.8,502.508L802.8,502.508z"/>
					</g>
					<g>
						<path fill="#940C24" d="M763.441,548.143c6.05-10.527,14.87-16.146,23.087-24.562c6.75-6.914,11.493-15.301,19.078-21.447
							c2.56-2.074-1.081-5.676-3.619-3.619c-8.302,6.726-13.367,16.23-21.136,23.455c-8.289,7.71-16.083,13.59-21.83,23.59
							C757.377,548.42,761.799,551.001,763.441,548.143L763.441,548.143z"/>
					</g>
					<g>
						<path fill="#940C24" d="M872.634,440.743c-8.994,15.686-9.384,34.258-11.13,51.876c-2.18,21.994-3.745,44.09-2.583,66.194
							c1.368,26.029,3.028,45.298-15.447,66.249c-11.416,12.945-20.627,25.425-27.005,41.669c-1.204,3.067,3.743,4.397,4.936,1.361
							c7.591-19.332,20.865-31.66,33.025-47.832c10.056-13.373,11.612-28.208,10.742-44.548
							c-1.092-20.495-1.883-40.522-0.455-61.044c1.586-22.775,0.747-51.13,12.337-71.342
							C878.695,440.464,874.274,437.883,872.634,440.743L872.634,440.743z"/>
					</g>
					<g>
						<path fill="#940C24" d="M861.146,609.682c19.997-21.3,57.839-37.768,83.808-16.531c0.603-1.456,1.206-2.913,1.81-4.369
							c-31.733-0.767-52.101,6.542-77.78,25.19c-17.012,12.354-45.088,25.816-48.711,48.862c-0.439,2.795,3.002,4.52,4.678,1.972
							c12.199-18.547,24.397-37.095,36.596-55.642c1.815-2.76-2.615-5.327-4.42-2.583c-12.199,18.547-24.397,37.095-36.596,55.642
							c1.559,0.657,3.119,1.315,4.678,1.972c3.47-22.07,34.214-37.122,51.076-49.225c22.444-16.11,42.828-21.737,70.48-21.069
							c2.078,0.05,3.562-2.935,1.81-4.369c-28.119-22.996-68.827-7.138-91.047,16.531
							C855.273,608.463,858.885,612.089,861.146,609.682z"/>
					</g>
					<g>
						<path fill="#940C24" d="M943.937,594.322c3.695,2.458,14.148,7.503,16.691,11.101c4.636,6.562,1.138,15.618-1.792,21.679
							c-4.39,9.084-8.371,18.639-13.654,27.258c-10.471,17.085-33.606,30.386-50.42,41.548
							c-17.523,11.633-39.115,9.265-56.766,19.802c-13.913,8.305-22.727,22.878-30.867,36.377c-1.705,2.828,2.719,5.404,4.42,2.583
							c7.691-12.754,15.856-26.665,29.031-34.541c13.085-7.822,28.707-6.867,42.616-12.227c8.331-3.21,15.432-8.382,22.501-13.705
							c9.747-7.34,20.992-13.401,30.407-21.069c14.983-12.202,24.172-34.283,31.173-51.764c7.216-18.018-6.377-21.9-20.756-31.463
							C943.77,588.073,941.204,592.504,943.937,594.322L943.937,594.322z"/>
					</g>
					<g>
						<path fill="#940C24" d="M819.5,659.01c-6.362,11.75-12.669,20.108-27.054,22.934c-8.048,1.581-16.413,1.805-24.554,2.781
							c-15.509,1.859-30.933,4.415-46.189,7.779c-34.545,7.618-65.592,23.088-99.233,32.962
							c-32.448,9.524-62.368-8.794-94.326-2.152c-26.618,5.532-46.824,26.349-64.791,45.302c-2.266,2.39,1.348,6.016,3.619,3.619
							c26.622-28.083,52.989-50.178,93.976-43.081c15.369,2.661,29.981,6.677,45.722,4.865c15.352-1.768,29.668-7.776,43.851-13.573
							c33.136-13.543,67.385-23.249,102.798-28.632c15.297-2.326,32.425-1.486,47.182-6.394
							c11.701-3.892,17.777-13.406,23.418-23.826C825.489,658.696,821.071,656.109,819.5,659.01L819.5,659.01z"/>
					</g>
					<g>
						<path fill="#940C24" d="M450.156,775.588c-3.35,12.875-6.7,25.751-10.05,38.626c-1.79,6.881-5.583,15.899-3.038,23.214
							c4.558,13.1,20.299,11.039,30.903,10.062c14.95-1.379,28.771-1.06,43.644,1.454c9.707,1.64,19.03,3.849,28.917,2.817
							c19.968-2.086,36.885-14.315,55.142-21.478c13.492-5.293,23.552-4.866,37.805-3.936c8.247,0.538,14.273,0.208,21.034-4.769
							c8.315-6.121,13.842-15.46,22.492-21.56c11.466-8.086,24.446-12.731,38.291-14.611c33.622-4.566,83.464,5.301,97.961-35.899
							c1.095-3.113-3.848-4.452-4.936-1.361c-14.982,42.579-72.079,25.572-105.409,34.25c-13.687,3.564-26.56,10.55-37.068,20.003
							c-9.962,8.961-17.375,18.633-32.053,18.717c-7.154,0.041-13.703-1.771-20.971-0.899c-13.351,1.603-25.537,7.969-37.446,13.784
							c-21.98,10.734-37.822,14.291-62.399,10.005c-7.127-1.243-14.239-2.251-21.479-2.568c-9.495-0.416-19.618,2.375-28.865,1.613
							c-23.945-1.972-19.175-21.391-15.272-36.392c2.577-9.904,5.154-19.808,7.731-29.712
							C455.922,773.758,450.986,772.397,450.156,775.588L450.156,775.588z"/>
					</g>
					<g>
						<path fill="#940C24" d="M444.917,782.809c-24.665-6.288-55.013-35.823-65.911-58.814
							c-13.601-28.693-15.632-64.664-16.935-95.652c-0.521-12.398-3.792-22.588-7.062-34.426
							c-5.467-19.793,0.303-30.908,7.623-48.716c8.689-21.141,3.97-40.326-5.723-60.357c-8.621-17.816-17.048-30.583-4.028-49.008
							c5.19-7.345,6.919-13.613,5.793-22.706c-1.901-15.36-9.493-27.22-8.182-43.391c1.361-16.785,8.811-32.488,16.197-47.399
							c7.773-15.69,18.882-22.448,32.742-31.667c3.43-2.281,6.195-6.018,9.554-8.059c11.927-7.244,23.367-3.308,34.468,1.217
							c11.439,4.663,19.744,13.599,30.616,18.773c1.816,0.864,3.737,0.236,5.365,0.752c9.86,3.121,10.753,10.608,14.845,19.509
							c1.374,2.989,5.787,0.392,4.42-2.583c-3.193-6.946-5.34-17.542-12.003-21.986c-1.482-0.988-3.145-0.03-4.698-0.603
							c-6.351-2.341-10.754-3.96-16.558-7.568c-13.075-8.13-36.262-22.915-52.737-16.591c-8.913,3.421-16.407,13.082-24.822,17.878
							c-8.615,4.91-15.042,10.122-20.356,18.567c-12.015,19.096-23.657,45.312-22.521,68.276
							c0.534,10.791,5.122,20.301,7.554,30.671c2.351,10.025-0.195,17.769-5.549,26.214c-2.899,4.572-5.911,7.822-6.98,13.242
							c-4.219,21.382,17.399,43.276,21.358,63.323c5.348,27.082-18.304,46.719-13.945,73.246
							c2.275,13.844,8.481,25.831,9.381,40.125c0.819,13.021,0.38,25.85,2.267,38.834c3.74,25.724,8.055,55.37,24.15,76.624
							c14.308,18.895,36.747,41.202,60.317,47.211C446.749,788.559,448.112,783.624,444.917,782.809L444.917,782.809z"/>
					</g>
					<g>
						<path fill="#940C24" d="M368.172,318.132c-9.364-30.679-10.609-60.348,13.483-84.493
							c16.685-16.721,36.811-29.725,55.627-43.852c16.074-12.068,31.826-24.892,44.269-40.815
							c14.413-18.442,21.766-42.499,43.103-54.55c14.434-8.153,28.333-17.077,45.142-9.868c10.075,4.321,18.422,9.178,29.399,11.067
							c23.268,4.004,47.843,1.362,71.382,3.21c16.2,1.272,32.487,3.056,48.452,6.111c19.477,3.727,30.112,13.47,40.621,29.48
							c15.232,23.204,24.893,49.209,29.89,76.429c0.594,3.235,5.528,1.865,4.936-1.361c-5.413-29.49-16.312-58.021-33.736-82.584
							c-16.55-23.331-36.297-26.919-63.635-30.439c-17.635-2.271-35.384-3.685-53.159-4.174c-15.24-0.419-31.121,1.096-46.127-2.058
							c-14.231-2.991-26.831-14.31-41.496-15.167c-10.543-0.616-16.461,5.365-25.138,10.362
							c-11.18,6.439-20.235,10.771-28.342,21.206c-7.449,9.587-12.529,20.724-19.245,30.793
							c-16.325,24.475-40.356,41.723-63.753,58.875c-19.898,14.586-44.393,29.947-56.32,52.256
							c-11.826,22.12-7.256,48.104-0.288,70.934C364.196,322.634,369.138,321.295,368.172,318.132L368.172,318.132z"/>
					</g>
					<path fill="#940C24" d="M529.832,290.877c-11.122,7.419-26.443,7.981-38.079,1.397c-5.448-3.083-10.011-7.517-15.295-10.874
						c-5.284-3.357-11.836-5.625-17.79-3.692c4.654,3.699,9.309,7.398,13.963,11.096c6.091,4.841,12.356,9.887,15.967,16.779
						c1.639,3.127,2.705,6.595,4.894,9.365c2.189,2.77,6.035,4.711,9.269,3.294c1.296-0.568,2.33-1.6,3.234-2.689
						c3.065-3.691,4.953-8.194,7.455-12.288s5.94-7.997,10.575-9.236L529.832,290.877z"/>
					<path fill="#940C24" d="M403.027,547.55c7.843,20.236,4.406,42.805,2.662,64.437c-1.158,14.369-1.515,28.803-1.068,43.212
						c0.696,22.422,3.502,45.339,13.696,65.322c10.194,19.983,28.942,36.7,51.203,39.471c-33.633-23.102-55.657-62.3-57.893-103.042
						c-0.948-17.27,1.453-34.547,1.479-51.843C413.132,587.812,412.856,561.781,403.027,547.55L403.027,547.55z"/>
					<g>
						<path fill="#940C24" d="M369.703,248.113c-24.258-13.308-51.837-18.812-79.268-13.929c-6.797,1.21-13.906,4.71-20.739,5.2
							c-7.974,0.572-15.986-3.779-22.621-6.177c-1.797-0.649,0.099-1.122-4.189-2.404c-6.302-1.884-11.648,0.67-16,5.195
							c-19.684,20.468-7.113,59.316-14.395,84.244c-5.87,20.094-18.976,26.652-37.562,32.833
							c-10.881,3.619-19.895,9.295-27.264,18.221c-17.63,21.355-18.985,50.16-18.639,76.588c0.118,8.997-0.408,19.888,4.164,28.054
							c7.899,14.109,28.474,12.982,25.483,33.652c-3.008,20.796-30.739,43.303-16.784,65.423
							c10.514,16.666,34.364,10.701,50.588,12.392c20.426,2.128,29.096,20.845,42.238,34.232
							c10.637,10.835,22.541,20.417,35.335,28.59c25.811,16.487,54.855,26.393,85.176,30.166c3.261,0.406,3.231-4.717,0-5.119
							c-27.653-3.441-54.174-12.31-78.1-26.686c-24.334-14.621-40.105-33.797-58.89-54.24c-12.36-13.451-27.991-11.92-44.929-12.429
							c-5.56-0.167-11.674-0.063-16.98-2.032c-14.528-5.391-13.805-22.229-8.407-34.143c4.743-10.467,12.053-19.59,15.015-30.857
							c1.686-6.413,2.4-13.388-0.019-19.691c-3.313-8.635-9.757-8.947-16.511-13.958c-14.749-10.943-12.608-29.148-12.285-45.542
							c0.326-16.566,1.949-33.679,9.501-48.708c7.555-15.037,19.186-24.304,35.02-29.72c9.034-3.09,17.548-4.984,24.815-11.551
							c13.381-12.093,16.716-31.217,17.415-48.391c0.331-8.132,0.054-16.284,0.511-24.412c0.325-5.784,0.645-11.624,2.114-17.251
							c2.677-10.246,2.662-12.32,13.863-14.362c11.876-2.166,9.238,0.731,17.835,3.342c3.535,1.074,7.046,0.974,10.663,0.617
							c15.458-1.523,29.151-7.749,45.181-7.719c19.977,0.037,38.648,5.428,56.08,14.992
							C370.009,254.118,372.595,249.699,369.703,248.113L369.703,248.113z"/>
					</g>
					<g>
						<path fill="#940C24" d="M363.271,680.191c-23.515-0.918-48.568-1.771-70.67,7.751c-24.196,10.424-39.323,33.993-55.513,53.635
							c-15.374,18.652-32.973,36.318-40.524,59.801c-9.785,30.43-12.605,64.106-18.15,95.493c-0.216,1.222,0.32,2.941,1.788,3.148
							c10.777,1.518,19.325-1.741,29.756-4.229c14.423-3.439,20.434,1.424,32.827,9.349c3.148,2.013,5.913,4.002,9.342,5.474
							c23.072,9.904,53.522,1.823,77.38-0.629c24.793-2.548,51.261-3.281,72.347-18.191c19.706-13.934,32.017-35.559,43.586-56.164
							c1.615-2.876-2.805-5.459-4.42-2.583c-11.92,21.231-24.67,44.048-46.013,57.152c-23.458,14.402-54.658,13.555-81.271,16.289
							c-11.553,1.187-23.179,2.886-34.807,3.095c-6.653,0.119-13.61-0.131-20.034-2.013c-9.245-2.708-13.177-8.199-20.657-13.225
							c-15.198-10.21-25.106-1.796-41.533-0.116c-13.261,1.356-12.106-3.077-10.391-12.788c1.186-6.716,2.373-13.432,3.559-20.149
							c2.451-13.876,4.607-27.855,7.447-41.657c5.677-27.586,19.813-45.842,37.365-67.135c15.318-18.584,30.181-42.591,51.08-55.339
							c22.984-14.02,51.616-12.862,77.504-11.852C366.565,685.438,366.559,680.32,363.271,680.191L363.271,680.191z"/>
					</g>
					<g>
						<path fill="#940C24" d="M153.311,485.9c-16.393,11.014-32.765,23.895-45.13,39.408c-12.436,15.602-15.04,30.042-14.05,49.119
							c0.592,11.399,0.035,21.196-8.129,29.948c-3.416,3.662-6.679,7.424-9.714,11.412c-7.024,9.231-12.935,19.243-17.572,29.88
							c-6.117,14.034-12.559,32.625-5.897,47.764c2.796,6.352,6.295,8.686,11.982,12.077c8.853,5.278,18.277,6.049,21.389,17.973
							c1.514,5.801,1.488,11.686,1.9,17.59c1.15,16.486,4.069,34.203,15.078,47.277c13.253,15.739,34.335,11.967,49.19,25.147
							c11.256,9.987,20.029,24.372,36.909,22.451c3.235-0.368,3.273-5.491,0-5.119c-17.767,2.023-27.346-17.889-40.222-26.685
							c-16.287-11.126-35.099-5.924-46.582-25.868c-9.377-16.286-7.383-33.955-10.467-51.65
							c-2.56-14.688-8.028-18.595-20.183-24.492c-9.214-4.47-14.484-7.982-16.01-18.357c-0.795-5.409-0.361-10.837,0.763-16.184
							c2.581-12.27,8.206-24.213,14.522-34.963c5.746-9.779,12.857-18.395,20.501-26.72c3.962-4.315,8.599-8.409,9.972-14.402
							c1.494-6.525-1.457-12.174-2.495-18.441c-2.313-13.969,1.275-27.258,9.011-38.977c11.658-17.66,30.46-32.107,47.816-43.769
							C158.615,488.492,156.056,484.056,153.311,485.9L153.311,485.9z"/>
					</g>
					<g>
						<path fill="#940C24" d="M319.615,913.267c6.098,22.901,22.12,39.368,40.906,52.985c27.459,19.904,54.852,34.052,73.044,64.034
							c12.134,19.998,23.142,43.535,45.674,53.813c25.298,11.541,56.934-8.473,79.803,7.804c12.926,9.201,19.315,33.21,38.14,33.072
							c21.326-0.156,34.277-33.509,46.067-46.499c21.88-24.107,51.252-27.888,77.401-44.518
							c18.861-11.995,36.309-28.989,47.536-48.38c1.654-2.856-2.768-5.436-4.42-2.583c-11.915,20.578-31.775,39.689-52.872,50.718
							c-20.119,10.518-41.972,14.818-59.697,29.825c-8.456,7.159-15.658,15.641-22.27,24.495
							c-9.88,13.23-22.016,41.666-42.87,27.275c-14.147-9.762-16.316-27.645-34.679-32.943c-21.717-6.266-44.47,6.236-66.1-1.289
							c-28.653-9.969-38.93-42.832-55.041-65.334c-29.115-40.666-91.832-51.808-105.687-103.836
							C323.704,908.726,318.765,910.075,319.615,913.267L319.615,913.267z"/>
					</g>
					<g>
						<path fill="#940C24" d="M638.632,938.036c39.556,22.557,85.826,44.608,131.674,49.315c21.206,2.177,40.603-1.91,58.972-12.559
							c19.23-11.147,36.587-27.848,58.605-33.378c18.446-4.633,39.592,1.63,57.037-7.2c6.967-3.527,11.907-9.327,16.467-15.496
							c10.174-13.763,18.591-22.623,36.249-24.499c15.434-1.639,32.543-0.404,43.64-13.359
							c12.504-14.597,17.628-38.465,24.587-55.961c9.446-23.75,19.667-47.102,20.395-73.018
							c0.481-17.135,0.128-38.541-10.688-52.833c-1.963-2.594-6.41-0.046-4.42,2.583c12.746,16.842,11.858,46.332,8.59,66.41
							c-4.576,28.113-18.755,55.351-29.214,81.65c-6.515,16.381-11.517,33.171-30.771,37.357
							c-10.439,2.27-21.367,1.058-31.805,3.437c-24.055,5.483-27.649,32.686-49.457,40.866c-20.518,7.695-43.004,0.101-63.849,9.37
							c-22.244,9.891-39.8,28.241-62.652,36.935c-29.507,11.227-61.542,2.301-90.139-7.414
							c-28.069-9.536-54.903-21.951-80.637-36.626C638.35,931.982,635.768,936.402,638.632,938.036L638.632,938.036z"/>
					</g>
					<g>
						<path fill="#940C24" d="M404.649,889.931c20.495,2.063,29.193,13.174,39.131,29.477c3.841,6.301,7.875,11.851,14.71,15.12
							c17.445,8.342,40.08,2.696,58.734,4.632c13.291,1.379,26.448,4.26,39.118,8.493c14.694,4.909,26.484,13.289,40.435,19.189
							c12.508,5.289,19.807,0.443,26.839-10.512c22.313-34.759,61.322-38.16,91.839-62.364
							c34.653-27.485,21.372-74.519,43.833-108.466c1.823-2.755-2.608-5.321-4.42-2.583c-22.911,34.626-8.773,82.845-45.865,109.53
							c-26.469,19.042-63.168,24.023-83.485,51.368c-8.153,10.974-12.465,21.958-30.244,16.223
							c-9.02-2.909-17.655-9.651-26.638-13.288c-20.003-8.098-41.471-12.695-63.036-13.531c-10.549-0.409-21.288,1.014-31.8-0.116
							c-19.131-2.056-22.651-14.302-32.11-27.788c-8.788-12.531-22.083-18.995-37.041-20.5
							C401.374,884.483,401.397,889.604,404.649,889.931L404.649,889.931z"/>
					</g>
					<g>
						<path fill="#940C24" d="M807.929,755.621c26.304-21.393,63.72,9.247,92.157,12.004c28.904,2.802,54.688-7.688,80.583-19.108
							c27.228-12.007,56.141-22.51,81.728-37.808c12.657-7.567,22.707-17.977,34.732-26.363
							c15.142-10.56,32.176-14.269,50.359-12.158c1.794,0.208,2.734-1.793,2.468-3.24c-3.044-16.529-9.067-32.007-13.914-48.032
							c-4.774-15.779-6.198-31.83-9.282-47.94c-2.186-11.418-5.553-22.52-12.439-32.053c-9.954-13.782-27.702-23.875-27.96-42.571
							c-0.045-3.291-5.164-3.3-5.119,0c0.238,17.317,12.867,26.985,23.548,39.047c17.964,20.287,17.064,45.678,22.525,70.655
							c2.524,11.545,6.59,22.624,10.231,33.843c1.629,5.019,6.578,14.477,5.742,19.769c-1.119,7.085-4.557,4.234-11.999,4.813
							c-19.19,1.491-34.136,10.838-48.549,22.869c-20.841,17.397-43.867,27.911-68.5,38.786
							c-25.291,11.166-50.972,25.428-77.982,31.777c-15.693,3.689-31.968,4.179-47.769,0.748
							c-14.324-3.11-26.89-10.394-40.817-14.581c-15.338-4.611-30.588-4.467-43.363,5.923
							C801.753,754.08,805.393,757.683,807.929,755.621L807.929,755.621z"/>
					</g>
					<path fill="#940C24" d="M818.222,742.453c26.457-5.965,54.852-2.964,79.477,8.399c6.66,3.073,13.432,6.827,20.763,6.589
						c3.978-10.55-4.282-21.778-13.374-28.445c-16.473-12.08-37.661-17.541-57.921-14.928c-4.702,0.606-9.58,1.741-13.123,4.892
						c-5.873,5.224-6.826,14.839-13.455,19.062L818.222,742.453z"/>
					<g>
						<path fill="#940C24" d="M846.172,325.486c2.11,4.452,3.955,4.89,9.011,5.549c13.439,1.751,24.819,1.049,37.663,6.785
							c20.645,9.22,30.941,28.989,53.846,33.463c24.514,4.788,44.016,7.753,61.322,28.212
							c18.389,21.738,25.188,50.304,31.747,77.314c0.777,3.2,5.714,1.845,4.936-1.361c-9.615-39.598-23.26-88.329-66.358-103.409
							c-10.601-3.709-21.896-3.797-32.776-6.221c-15.722-3.503-23.739-15.388-35.859-24.284
							c-7.543-5.536-16.227-9.799-25.225-12.398c-6.866-1.983-31.416-1.021-33.887-6.233
							C849.181,319.928,844.767,322.522,846.172,325.486L846.172,325.486z"/>
					</g>
					<g>
						<path fill="#940C24" d="M874.983,712.027c26.683-13.371,58.269-5.616,84.779-19.734c21.129-11.252,37.736-31.77,50.401-51.619
							c15.7-24.606,21.209-52.616,26.751-80.828c5.564-28.319,12.705-56.691,6.909-85.538c-0.648-3.227-5.583-1.861-4.936,1.361
							c5.976,29.741-2.328,59.694-8.093,88.851c-5.485,27.744-11.877,54.638-28.19,78.287
							c-16.036,23.247-36.516,45.966-65.257,52.034c-22.131,4.672-44.205,2.372-64.947,12.767
							C869.455,709.083,872.044,713.5,874.983,712.027L874.983,712.027z"/>
					</g>
					<g>
						<path fill="#940C24" d="M781.417,192.867c16.174,15.002,32.008,25.374,54.135,16.416c16.847-6.82,30.445-15.005,49.401-10.901
							c17.921,3.88,29.425,16.422,40.447,29.997c7.759,9.557,15.234,19.351,25.492,26.399c3.935,2.703,8.285,4.74,12.22,7.433
							c10.857,7.431,12.187,17.325,14.782,29.014c6.648,29.954,42.797,48.483,38.535,80.877c-0.428,3.256,4.694,3.224,5.119,0
							c4.317-32.808-29.331-48.335-37.551-76.804c-3.477-12.042-2.409-23.72-12.207-32.869
							c-10.331-9.647-23.231-14.634-32.903-25.572c-17.124-19.367-30.419-40.864-58.304-44.372
							c-11.678-1.469-22.714,0.791-33.346,5.488c-10.661,4.709-20.363,11.525-32.628,9.478
							c-11.891-1.985-20.981-10.235-29.573-18.204C782.623,187.01,778.995,190.621,781.417,192.867L781.417,192.867z"/>
					</g>
					<g>
						<path fill="#940C24" d="M990.627,383.596c25.466-13.082,55.96-9.335,75.588,12.306c7.735,8.529,12.435,19.171,14.776,30.329
							c1.437,6.85,1.962,12.888,6.414,18.538c6.577,8.348,12.421,8.54,15.51,19.868c2.302,8.441,2.013,16.517,4.334,24.893
							c2.075,7.489,5.454,13.933,3.077,22.064c-0.881,3.014-2.596,5.667-3.721,8.576c-2.503,6.47-3.702,10.786-2.161,17.593
							c0.727,3.211,5.663,1.852,4.936-1.361c-2.81-12.411,7.892-20.551,8.3-32.177c0.372-10.608-6.3-20.937-7.413-31.401
							c-0.874-8.215-0.079-13.456-5.964-19.993c-6.137-6.816-12.887-8.542-16.63-18.294c-2.033-5.298-1.891-11.56-3.571-17.042
							c-12.631-41.199-58.872-57.421-96.058-38.319C985.113,380.682,987.699,385.1,990.627,383.596L990.627,383.596z"/>
					</g>
				</g>
				<g>
					<path fill="#940C24" d="M363.271,683c-0.833-25-0.833-24.56,0-39.938c0.87-16.076-7.425-40.408-13.762-55.208
						c-3.91-9.133-11.456-16.128-18.23-23.395c-17.656-18.94-31.054-41.437-43.125-64.344c-5.954-11.299-11.017-26.794-1.626-35.449
						c-16.555,21.63-11.674,53.055,0.326,77.508c12,24.453,30.135,45.788,39.691,71.295c4.378,11.687,14.608,47.942,19.551,59.401
						C351.04,684.33,344.115,678,355.73,683H363.271z"/>
				</g>
				<g>
					<path fill="#940C24" d="M223.385,477.892c16.817-35.72-5.974-80.486,9.881-116.643c4.053-9.243,10.406-17.256,16.688-25.155
						c13.452-16.914,27.2-34.104,45.129-46.17c17.929-12.066,41.031-18.418,61.495-11.474
						c-15.557,18.603-39.988,26.912-59.386,41.466c-16.235,12.181-28.971,28.974-36.32,47.893
						c-14.39,37.044-9.356,82.921-36.39,112.05L223.385,477.892z"/>
				</g>
				<g>
					<path fill="#940C24" d="M359.107,679.189c-21.782-6.485-60.554-12.853-82.335-19.338c-11.097-3.304-22.345-6.675-32.181-12.784
						c-14.308-8.887-24.783-23.047-39.223-31.719c-15.986-9.6-36.351-11.542-53.864-5.138c-10.096,3.692-19.889,10.86-21.542,21.938
						c-0.971,6.506,1.673,13.289,7.362,16.591c13.33,7.736,26.497-11.808,38.092-5.311c4.36,2.443,6.428,7.621,5.699,12.565
						c-2.222,15.069-19.468,21.364-19.572,37.23c-0.041,6.346,5.067,11.865,11.357,11.031c7.62-1.011,9.54-10.527,14.943-15.614
						c11.422-10.752,31.115,2.318,45.529-3.871c7.799-3.349,15.016-12.301,22.755-8.815l0.535,3.787
						c0.84,5.945,7.15,9.491,12.609,6.991c24.16-11.06,57.406-8.41,86.459-5.052L359.107,679.189z"/>
				</g>
				<g>
					<path fill="#D50F33" d="M632.649,291.397c10.779-8.06,23.526-16.573,36.623-13.472c10.371,2.455,17.985,11.723,28.229,14.665
						c16.894,4.851,35.01-8.784,51.919-3.983c9.637,2.736,16.942,11.376,19.601,21.034c2.66,9.658,1.12,20.119-2.669,29.393
						c-0.922,2.256-2.286,4.721-4.668,5.235c-3.603,0.778-6.324-3.494-6.558-7.173c-0.234-3.679,0.747-7.582-0.777-10.938
						c-2.538-5.589-10.156-6.27-16.243-5.483c-6.087,0.787-13.09,1.956-17.675-2.125c-2.302-2.049-3.523-5.113-5.871-7.109
						c-6.175-5.253-15.725-0.578-23.656-2.255c-6.417-1.357-11.063-6.702-16.176-10.81c-11.424-9.179-27.162-12.733-41.422-9.354
						L632.649,291.397z"/>
				</g>
				<g>
					<path fill="#940C24" d="M706.29,695.719c17.93-5.75,33.217-19.272,41.113-36.366c2.758-5.971,4.765-12.517,9.302-17.279
						c9.493-9.963,25.938-8.401,37.839-15.311c11.426-6.634,16.926-19.896,21.661-32.231c7.215-18.794,14.557-38.752,11.055-58.576
						c5.406,2.505,9.674,7.067,12.65,12.229c9.119,15.82,6.167,36.424-3.06,52.181c-9.227,15.757-23.8,27.581-38.467,38.458
						c-7.337,5.441-14.943,10.904-20.014,18.501c-5.894,8.829-8.289,20.381-16.799,26.726c-13.152,9.805-34.348,2.264-46.525,13.256
						L706.29,695.719z"/>
				</g>
				<g>
					<path fill="#940C24" d="M857.893,610.225c6.232-21.055,7.427-33.918,3.391-55.502c-1.892-10.12,1.856-45.843,2.279-56.129
						c0.457-11.105,5.119-21.987,12.843-29.979c0.877-0.908,1.828-1.802,3.012-2.24c6.75-2.497,9.265,10.014,16.066,12.369
						c5.496,1.903,10.48-3.581,14.109-8.126c10.66-13.356,24.834-23.881,40.701-30.226c2.366,13.83-1.454,28.601-10.23,39.549
						c9.461,5.44,21.044,5.908,30.863,10.672c9.818,4.765,17.612,17.72,10.945,26.36c-8.203,10.631-27.777,2.7-37.126,12.338
						c-2.058,2.123-3.293,5.671-1.439,7.974c0.935,1.161,2.418,1.702,3.827,2.188c10.49,3.62,21.303,7.195,29.898,14.214
						c2.487,2.031,4.847,4.481,5.686,7.581c1.801,6.655-4.396,13.241-11.109,14.813c-6.713,1.572-13.679-0.278-20.477-1.425
						c-32.322-5.455-67.04,6.212-89.509,30.08L857.893,610.225z"/>
				</g>
				<g>
					<path fill="#940C24" d="M558.794,727.185c-44.435-41.503-67.527-104.751-60.285-165.12
						c10.547,13.583,14.36,31.01,19.921,47.282s14.318,33.09,30.003,40.141c-2.251-9.5-4.501-19-6.752-28.5
						c16.179,2.51,19.97,28.202,36.067,31.194c-3.846-4.185,1.374-11.466,7.057-11.5c5.683-0.034,10.394,4.179,14.428,8.183
						c14.55,14.444,30.274,30.569,50.688,32.465c-0.319-9.292-2.003-18.537-4.982-27.345c17.73,16.359,34.524,33.732,50.272,52.007
						c-12.388-0.576-23.551,6.687-34.693,12.132c-32.942,16.1-72.882,17.158-106.63,2.826"/>
				</g>
				<g>
					<path fill="#940C24" d="M517.261,299.192c-20.519-23.765-30.321-56.449-26.265-87.584
						c6.466,10.018,12.932,20.036,19.398,30.054c3.761-0.939,4.756-5.752,4.874-9.627c0.583-19.121-2.306-38.218-1.788-57.341
						s4.97-39.132,17.916-53.215c1.546,25.406,9.543,50.394,23.035,71.977c1.805,2.887,4.435,6.073,7.813,5.651
						c2.479-0.31,4.243-2.492,5.678-4.536c5.484-7.812,10.235-16.137,14.172-24.831c1.806,7.055,3.756,14.392,8.547,19.877
						c4.791,5.485,13.34,8.428,19.551,4.625c5.572-3.411,7.239-10.547,10.288-16.325c3.049-5.778,10.55-10.889,15.706-6.876
						c4.021,3.13,4.218,10.363,9.104,11.808c9.074,2.683,12.676-18.602,21.299-14.705c2.195,0.992,3.346,3.464,3.738,5.841
						c1.639,9.942-6.873,18.851-15.999,23.123c-9.125,4.272-19.466,5.815-28.075,11.05c-9.758,5.933-16.38,16.063-26.062,22.119
						c-7.943,4.968-17.499,6.908-25.381,11.972c-9.3,5.975-15.392,15.677-22.213,24.375c-9.323,11.889-20.482,22.335-32.96,30.855"
						/>
				</g>
				<g>
					<path fill="#940C24" d="M368.227,697.026c-28.447-5.746-66.122,9.328-80.74,34.399c13.805-1.789,27.609-3.578,41.414-5.368
						c2.781-0.36,6.676,0.124,6.859,2.922c0.079,1.208-0.681,2.295-1.436,3.242c-6.355,7.977-14.748,14.054-21.879,21.346
						c-13.159,13.456-21.878,31.184-24.501,49.821c-0.207,1.467-0.34,3.094,0.518,4.302c1.58,2.225,5.017,1.406,7.535,0.355
						c11.388-4.751,22.776-9.503,34.164-14.254c-3.586,11.035-7.172,22.07-10.758,33.104c-1.099,3.382-2.167,7.214-0.496,10.353
						c3.156,5.927,12.067,3.908,18.076,0.909c13.077-6.526,25.771-13.818,37.996-21.827c4.339,2.991,1.551,9.797,2.655,14.95
						c1.846,8.612,14.711,9.871,21.658,4.457c6.948-5.413,9.933-14.312,14.272-21.976c6.517-11.511,16.765-20.87,28.818-26.318
						c-6.977-9.568-18.915-13.775-29.299-19.467C386.761,753.546,372.482,726.74,368.227,697.026"/>
				</g>
				<g>
					<path fill="#940C24" d="M470.352,845.836c-5.889,13.033-4.154,29.195,4.367,40.681c10.523-1.472,10.793-22.268,21.35-21.065
						c3.329,0.379,5.834,3.154,7.737,5.911c8.729,12.65,11.774,28.673,21.182,40.826c9.408,12.153,30.524,17.879,39.141,5.152
						c4.423-6.533,3.614-15.099,4.213-22.967c0.599-7.867,4.225-17.004,11.996-18.364c6.177-1.081,11.835,3.326,16.559,7.451
						c2.145-8.862,4.29-17.723,6.434-26.585c7.718-0.121,10.077,11.471,17.251,14.32c6.925,2.751,13.949-3.982,17.264-10.656
						c3.315-6.674,5.879-14.694,12.629-17.85c4.202,10.915,21.464,8.075,29.085-0.797c7.621-8.872,10.834-21.197,19.635-28.9
						c7.024-6.147,18.296-11.272,16.876-20.498c-0.815-5.298-6.254-8.984-11.607-9.282c-5.352-0.298-10.505,2.086-14.981,5.036
						c-17.01,11.209-29.391,31.796-49.648,33.956c-7.703,0.821-15.534-1.3-23.196-0.161c-7.612,1.131-23.364,5.943-30.223,9.431
						c-37.73,19.189-73.273,16.574-115.53,14.1"/>
				</g>
				<g>
					<path fill="#940C24" d="M464.078,991.057c16.59-4.486,32.814,7.406,45.464,19.038c12.65,11.633,27.219,24.682,44.321,22.993
						c7.716-0.762,14.753-4.528,22.018-7.24c23.384-8.728,50.694-6.188,72.067,6.702c-9.752-26.817-43.264-42.159-69.937-32.019
						c-6.053,2.301-11.685,5.688-17.896,7.522c-9.868,2.914-20.912,1.586-29.808-3.583c-5.602-3.255-10.273-7.883-15.613-11.551
						c-14.794-10.162-34.824-12.197-51.359-5.217L464.078,991.057z"/>
				</g>
				<g>
					<path fill="#940C24" d="M757.054,785.462c-1.015,15.257-2.011,30.772,1.395,45.679s11.908,29.39,25.518,36.358
						c0.972,0.497,2.029,0.966,3.114,0.845c2.647-0.295,3.626-3.578,3.986-6.218c1.012-7.424,2.024-14.849,3.036-22.273
						c0.323-2.367,0.921-5.122,3.099-6.103c2.626-1.183,5.466,1.071,7.337,3.261c5.414,6.335,9.581,13.665,15.076,19.93
						c18.735,21.362,53.241,26.734,77.582,12.076c2.788-1.679,5.683-3.959,6.091-7.189c1.022-8.091-13.673-12.344-11.47-20.197
						c6.166-3.531,13.835-1.301,20.829-0.045c6.994,1.256,15.849,0.485,18.845-5.959c2.062-4.435,0.208-9.9-3.169-13.439
						c-3.377-3.539-7.992-5.575-12.478-7.523c-17.641-7.661-35.282-15.322-52.923-22.983c-10.535-4.575-21.196-9.224-30.253-16.286
						c-8.527-6.649-15.334-15.206-22.055-23.676c-2.747,12.663-14.103,22.973-26.972,24.487c-4.892,0.576-9.888-0.005-14.741,0.838
						c-4.854,0.843-9.866,3.612-11.282,8.331"/>
				</g>
				<g>
					<path fill="#940C24" d="M394.368,371.507c22.912,44.262-9.952,101.867,11.408,146.899c1.727,3.642,4.729,7.635,8.731,7.157
						c4.729-0.565,6.286-6.601,6.436-11.361c0.555-17.62-2.465-35.361-0.042-52.822c1.355-9.767,4.404-19.354,4.362-29.215
						c-0.036-8.594-2.423-16.993-5.051-25.175c-2.634-8.201-5.632-16.504-11.108-23.153c-5.476-6.648-13.94-11.431-22.486-10.355
						L394.368,371.507z"/>
				</g>
				<g>
					<path fill="#940C24" d="M851.821,254.641c-1.667,11.784,7.177,24.078,18.88,26.244c3.187,0.59,6.473,0.513,9.646,1.174
						c3.743,0.78,7.2,2.559,10.499,4.491c23.835,13.954,42.034,37.245,49.81,63.746c-6.695-5.507-11.755-12.708-17.75-18.97
						c-5.995-6.262-13.503-11.818-22.147-12.476c-3.687-0.28-7.465,0.344-11.05-0.558c-4.297-1.081-7.756-4.207-10.811-7.415
						c-15.577-16.359-25.61-37.906-28.104-60.357"/>
				</g>
				<g>
					<path fill="#940C24" d="M836.571,445.448c8.328-9.233,10.582-22.273,12.491-34.559c0.665-4.282,1.316-8.763-0.076-12.868
						c-0.966-2.849-2.845-5.286-4.757-7.608c-13.394-16.27-30.033-29.858-48.651-39.731c4.58,8.605,9.94,16.796,15.991,24.439
						c4.892,6.179,10.273,12.057,14.047,18.976c7.382,13.536,7.779,30.652,1.031,44.515c-3.257,6.692-8.184,13.134-7.954,20.573
						c10.171-4.982,21.725-11.9,22.586-23.192"/>
				</g>
			</g>
			<g>
				<path fill="#940C24" d="M672.894,597.803c-6.948-2.397-13.896-4.794-20.845-7.191c-4.009-1.383-8.138-2.836-11.273-5.692
					s-5.036-7.514-3.43-11.439c-6.425,3.945-14.821,1.956-21.641-1.259c-18.528-8.736-32.811-26.015-37.905-45.856
					c10.797,4.8,21.593,9.6,32.39,14.4c17.194,7.644,34.957,15.422,53.768,15.863c-11.434-16.189-38.484-17.747-45.792-36.17
					c5.919-1.193,11.763,1.931,16.985,4.962c28.386,16.476,58.269,34.015,91.09,34.077c2.762,4.663-2.411,9.949-7.049,12.752
					c-17.167,10.376-35.771,18.372-55.113,23.686"/>
			</g>
			<g>
				<path fill="#940C24" d="M814.365,422.632c-6.213,13.636-13.366,29.233-28.937,37.792c-15.571,8.559-39.459,10.206-58.32,13.469
					c1.996,3.106,7.636,3.482,12.265,3.421c9.432-0.124,18.864-0.249,28.296-0.373c7.221-0.095,14.542-0.201,21.478-1.697
					c6.936-1.496,13.561-4.575,16.989-9.301c2.566-3.537,3.145-7.659,3.608-11.663c0.736-6.361,1.299-12.733,1.691-19.111
					L814.365,422.632z"/>
			</g>
		</g>
	</g>
</g>
</svg>
