<?xml version="1.0" encoding="utf-8"?>
<!-- Generator: Adobe Illustrator 16.0.0, SVG Export Plug-In . SVG Version: 6.00 Build 0)  -->
<!DOCTYPE svg PUBLIC "-//W3C//DTD SVG 1.1//EN" "http://www.w3.org/Graphics/SVG/1.1/DTD/svg11.dtd">
<svg version="1.1" id="Capa_1" xmlns="http://www.w3.org/2000/svg" xmlns:xlink="http://www.w3.org/1999/xlink" x="0px" y="0px"
	 width="1200px" height="1200px" viewBox="0 0 1200 1200" enable-background="new 0 0 1200 1200" xml:space="preserve">
<g>
	<g>
		<path fill="#004A3F" d="M222.148,247.107c0.814-3.938,1.889-7.865,3.277-11.764c4.924-13.83,12.981-25.634,23.069-34.939
			c-5.823-13.917-6.682-29.962-1.219-45.296c11.637-32.677,47.559-49.729,80.235-38.089c15.751,5.607,27.86,16.877,34.886,30.689
			c31.418-48.703,93.227-71.281,150.188-50.993c66.467,23.675,101.162,96.747,77.486,163.22c-3.28,9.212-7.514,17.808-12.543,25.727
			c15.68,13.217,24.564,33.064,23.867,53.665c7.439,0.994,14.888,2.768,22.24,5.383c56.636,20.176,86.198,82.439,66.025,139.077
			c-20.172,56.638-82.438,86.197-139.074,66.027c-20.416-7.275-37.313-20.019-49.631-35.996
			c-36.406,39.596-94.278,55.852-148.138,36.667c-31.509-11.221-56.415-32.714-72.3-59.365
			c-36.868,30.91-88.684,42.032-137.281,24.722C70.267,489.852,32.179,409.62,58.168,336.648
			C82.365,268.718,153.558,231.03,222.148,247.107z"/>
	</g>
	<g>
		<g>
			<g>
				<rect x="486.856" y="456.191" fill="#7F2E22" width="188.179" height="660.686"/>
			</g>
			<g>
				<rect x="486.856" y="456.191" fill="#57291D" width="95.548" height="658.863"/>
			</g>
			<g>
				<path fill="#7F2E22" d="M798.438,1116.877V761.862c0-21.797-17.737-39.466-39.619-39.466h-11.82
					c-21.882,0-39.621,17.669-39.621,39.466v355.015H798.438z"/>
			</g>
			<g>
				<rect x="748.896" y="456.191" fill="#57291D" width="106.131" height="660.686"/>
			</g>
			<g>
				<path fill="#7F2E22" d="M745.833,676.862h-89.514c-14.655,0-26.536-11.88-26.536-26.535c0-14.656,11.881-26.536,26.536-26.536
					h89.514c32.191,0,58.379-26.188,58.379-58.379V349.304c0-14.656,11.881-26.536,26.536-26.536
					c14.657,0,26.536,11.88,26.536,26.536v216.108C857.284,626.866,807.288,676.862,745.833,676.862z"/>
			</g>
			<g>
				<path fill="#57291D" d="M943.426,695.321H824.155c-10.26,0-18.574-8.315-18.574-18.574s8.314-18.575,18.574-18.575h119.271
					c36.58,0,66.339-29.761,66.339-66.34V324.375c0-10.259,8.317-18.575,18.575-18.575c10.26,0,18.575,8.316,18.575,18.575v267.457
					C1046.915,648.896,1000.49,695.321,943.426,695.321z"/>
			</g>
			<g>
				<path fill="#57291D" d="M1054.345,474.708h-28.7c-6.741,0-12.206-5.466-12.206-12.206c0-6.741,5.465-12.207,12.206-12.207h28.7
					c8.941,0,16.496-9.379,16.496-20.48v-32.687c0-6.74,5.465-12.206,12.206-12.206c6.742,0,12.207,5.466,12.207,12.206v32.687
					C1095.254,454.568,1076.902,474.708,1054.345,474.708z"/>
			</g>
			<g>
				<path fill="#7F2E22" d="M599.259,715.56h-86.104c-57.649,0-104.551-46.901-104.551-104.551v-88.609
					c0-10.845,8.792-19.636,19.636-19.636c10.846,0,19.637,8.791,19.637,19.636v88.609c0,35.994,29.285,65.277,65.278,65.277h86.104
					c10.844,0,19.637,8.791,19.637,19.637S610.103,715.56,599.259,715.56z"/>
			</g>
			<g>
				<path fill="#57291D" d="M565.149,797.981h-57.769c-20.497,0-40.167-11.63-53.963-31.909
					c-12.721-18.697-19.728-43.177-19.728-68.926V476.754c0-8.793,7.129-15.921,15.922-15.921s15.921,7.128,15.921,15.921v220.393
					c0,36.753,19.556,68.992,41.848,68.992h57.769c8.795,0,15.922,7.13,15.922,15.922
					C581.071,790.854,573.944,797.981,565.149,797.981z"/>
			</g>
			<g>
				<path fill="#57291D" d="M641.007,1116.877V914.588c0-25.645-20.867-46.43-46.609-46.43h-13.904
					c-25.742,0-46.609,20.785-46.609,46.43v202.289H641.007z"/>
			</g>
			<g>
				<path fill="#57291D" d="M916.149,1116.877V887.241c0-29.108-23.813-52.704-53.189-52.704h-15.865
					c-29.376,0-53.189,23.596-53.189,52.704v229.636H916.149z"/>
			</g>
			<g>
				<path fill="#57291D" d="M543.739,1116.877V852.322c0-33.537-31.486-60.72-70.328-60.72h-20.98
					c-38.842,0-70.328,27.183-70.328,60.72v264.555H543.739z"/>
			</g>
			<g>
				<path fill="#7F2E22" d="M965.858,1116.877v-89.282c0-29.376-23.813-53.188-53.189-53.188h-15.865
					c-29.376,0-53.189,23.812-53.189,53.188v89.282H965.858z"/>
			</g>
		</g>
		<g>
			<g>
				<g>
					<path fill="#004A3F" d="M626.682,246.832c-6.509,0-12.854,0.69-18.976,1.994c-5.213-16.375-17.745-29.479-33.756-35.473
						c1.733-7.627,2.654-15.563,2.654-23.717c0-58.826-47.69-106.514-106.517-106.514c-36.56,0-68.802,18.428-87.985,46.493v349.51
						c6.123-6.456,11.519-13.604,16.053-21.322c19.929,16.489,45.5,26.399,73.386,26.399c47.669,0,88.575-28.955,106.091-70.235
						c14.143,9.102,30.979,14.386,49.05,14.386c50.126,0,90.759-40.635,90.759-90.761S676.808,246.832,626.682,246.832z"/>
				</g>
				<g>
					<path fill="#2A912D" d="M860.147,311.642c1.983-0.77,3.979-1.449,5.984-2.051c-1.586-2.823-2.994-5.788-4.198-8.894
						c-13.757-35.497,3.866-75.428,39.364-89.185c35.243-13.66,74.85,3.617,88.88,38.604c7.621-6.081,16.28-11.129,25.853-14.838
						c50.664-19.636,107.658,5.521,127.294,56.186c19.638,50.667-5.517,107.658-56.183,127.295
						c-17.992,6.974-36.779,8.293-54.409,4.835c-3.547,15.629-14.551,29.27-30.619,35.497c-21.494,8.33-45.225,0.749-58.229-17.001
						c-7.399,7.206-16.341,13.07-26.575,17.039c-40.729,15.784-86.54-4.437-102.324-45.163
						C799.2,373.237,819.419,327.426,860.147,311.642z"/>
				</g>
				<g>
					<path fill="#004A3F" d="M645.353,290.552c0.56-2.703,1.295-5.398,2.249-8.074c3.38-9.493,8.91-17.595,15.835-23.982
						c-3.998-9.553-4.586-20.564-0.836-31.09c7.988-22.429,32.643-34.134,55.072-26.145c10.811,3.851,19.122,11.585,23.943,21.065
						c21.567-33.429,63.989-48.926,103.086-35.001c45.623,16.249,69.437,66.406,53.186,112.031
						c-2.251,6.323-5.156,12.223-8.607,17.658c10.762,9.072,16.86,22.694,16.382,36.835c5.105,0.683,10.218,1.899,15.266,3.694
						c38.873,13.849,59.165,56.586,45.318,95.461c-13.846,38.875-56.585,59.164-95.458,45.32
						c-14.014-4.994-25.611-13.741-34.067-24.708c-24.987,27.179-64.71,38.336-101.678,25.168
						c-21.628-7.702-38.724-22.454-49.626-40.747c-25.307,21.216-60.871,28.85-94.227,16.969
						c-50.086-17.84-76.23-72.909-58.391-122.996C549.407,305.385,598.272,279.517,645.353,290.552z"/>
				</g>
				<g>
					<path fill="#2A912D" d="M494.525,249.098c2.55,0,5.075,0.106,7.573,0.301c-0.549-3.839-0.838-7.762-0.838-11.752
						c0-45.612,36.977-82.587,82.589-82.587c45.282,0,82.047,36.447,82.573,81.606c11.146-3.493,23.004-5.382,35.301-5.382
						c65.102,0,117.877,52.776,117.877,117.876c0,65.103-52.775,117.877-117.877,117.877c-23.115,0-44.673-6.658-62.871-18.154
						c-10.73,15.922-28.928,26.397-49.574,26.397c-27.617,0-50.847-18.745-57.688-44.203c-11.386,4.845-23.914,7.527-37.065,7.527
						c-52.331,0-94.753-42.424-94.753-94.755C399.772,291.52,442.194,249.098,494.525,249.098z"/>
				</g>
				<g>
					<path fill="#68BD37" d="M694.275,364.412c-10.958-2.611-21.927-2.042-31.95,1.097c-15.324-32.439-48.337-54.89-86.598-54.89
						c-46.586,0-85.395,33.28-93.96,77.362c-10.347-10.985-23.903-19.181-39.679-22.94c-21.293-5.075-42.621-1.122-59.986,9.368
						v137.123c6.912,4.172,14.57,7.372,22.842,9.344c30.973,7.38,62.029-4.314,80.83-27.493
						c6.951,20.756,24.125,37.564,46.983,43.013c27.705,6.604,55.482-5.446,70.171-28.024c4.455,12.069,14.666,21.759,28.119,24.967
						c21.382,5.098,42.85-8.104,47.945-29.488c1.672-7.021,1.361-14.048-0.553-20.503c28.025,0.892,53.756-17.962,60.51-46.299
						C746.671,404.651,726.67,372.133,694.275,364.412z"/>
				</g>
				<g>
					<path fill="#68BD37" d="M327.676,407.107c8.124-1.937,16.257-1.514,23.687,0.813c11.361-24.051,35.836-40.693,64.201-40.693
						c34.537,0,63.309,24.672,69.658,57.354c7.67-8.145,17.721-14.221,29.417-17.008c15.784-3.763,31.599-0.832,44.47,6.945v101.659
						c-5.124,3.092-10.801,5.464-16.933,6.926c-22.962,5.472-45.987-3.199-59.925-20.383c-5.154,15.389-17.885,27.851-34.832,31.889
						c-20.539,4.896-41.133-4.037-52.021-20.776c-3.305,8.948-10.875,16.133-20.847,18.51c-15.853,3.779-31.767-6.008-35.546-21.862
						c-1.239-5.206-1.01-10.413,0.408-15.2c-20.776,0.661-39.851-13.315-44.857-34.324
						C288.829,436.939,303.659,412.831,327.676,407.107z"/>
				</g>
			</g>
			<g>
				<path fill="#2A912D" d="M422.821,399.526c9.138,0,16.545-7.409,16.545-16.547h-33.093
					C406.273,392.117,413.681,399.526,422.821,399.526z"/>
			</g>
			<g>
				<path fill="#2A912D" d="M697.311,416.072c9.138,0,16.548-7.407,16.548-16.546h-33.096
					C680.763,408.665,688.173,416.072,697.311,416.072z"/>
			</g>
			<g>
				<path fill="#2A912D" d="M527.193,454.118c9.138,0,16.546-7.409,16.546-16.548h-33.094
					C510.646,446.709,518.054,454.118,527.193,454.118z"/>
			</g>
			<g>
				<path fill="#2A912D" d="M639.771,491.828c9.138,0,16.548-7.41,16.548-16.548h-33.096
					C623.224,484.418,630.634,491.828,639.771,491.828z"/>
			</g>
			<g>
				<path fill="#2A912D" d="M422.821,491.828c9.138,0,16.545-7.41,16.545-16.548h-33.093
					C406.273,484.418,413.681,491.828,422.821,491.828z"/>
			</g>
			<g>
				<path fill="#2A912D" d="M361.647,454.118c9.141,0,16.548-7.409,16.548-16.548h-33.093
					C345.103,446.709,352.509,454.118,361.647,454.118z"/>
			</g>
			<g>
				<path fill="#68BD37" d="M666.202,305.235c9.138,0,16.547-7.407,16.547-16.545h-33.096
					C649.653,297.828,657.063,305.235,666.202,305.235z"/>
			</g>
			<g>
				<path fill="#68BD37" d="M539.278,288.688c9.138,0,16.547-7.407,16.547-16.546h-33.096
					C522.729,281.281,530.14,288.688,539.278,288.688z"/>
			</g>
			<g>
				<path fill="#68BD37" d="M757.155,305.235c9.138,0,16.547-7.407,16.547-16.545h-33.095
					C740.607,297.828,748.017,305.235,757.155,305.235z"/>
			</g>
			<g>
				<path fill="#68BD37" d="M464.581,340.754c9.139,0,16.548-7.409,16.548-16.547h-33.095
					C448.034,333.345,455.443,340.754,464.581,340.754z"/>
			</g>
			<g>
				<path fill="#68BD37" d="M600.156,236.796c9.139,0,16.548-7.409,16.548-16.547h-33.096
					C583.608,229.387,591.019,236.796,600.156,236.796z"/>
			</g>
			<g>
				<path fill="#68BD37" d="M706.212,351.538c9.139,0,16.548-7.409,16.548-16.547h-33.095
					C689.665,344.129,697.074,351.538,706.212,351.538z"/>
			</g>
			<g>
				<path fill="#2A912D" d="M583.608,375.499c9.139,0,16.548-7.407,16.548-16.545h-33.095
					C567.062,368.092,574.471,375.499,583.608,375.499z"/>
			</g>
			<g>
				<g>
					<path fill="#68BD37" d="M1095.627,332.178c9.138,0,16.547-7.409,16.547-16.548h-33.095
						C1079.079,324.769,1086.488,332.178,1095.627,332.178z"/>
				</g>
				<g>
					<path fill="#68BD37" d="M952.155,332.178c9.139,0,16.548-7.409,16.548-16.548h-33.096
						C935.607,324.769,943.018,332.178,952.155,332.178z"/>
				</g>
				<g>
					<path fill="#68BD37" d="M1013.034,288.558c9.139,0,16.548-7.407,16.548-16.548h-33.096
						C996.486,281.15,1003.896,288.558,1013.034,288.558z"/>
				</g>
				<g>
					<path fill="#68BD37" d="M1023.992,395.026c9.139,0,16.546-7.407,16.546-16.548h-33.093
						C1007.445,387.619,1014.853,395.026,1023.992,395.026z"/>
				</g>
			</g>
		</g>
	</g>
</g>
</svg>
