<?xml version="1.0" encoding="utf-8"?>
<!-- Generator: Adobe Illustrator 16.0.0, SVG Export Plug-In . SVG Version: 6.00 Build 0)  -->
<!DOCTYPE svg PUBLIC "-//W3C//DTD SVG 1.1//EN" "http://www.w3.org/Graphics/SVG/1.1/DTD/svg11.dtd">
<svg version="1.1" id="Capa_1" xmlns="http://www.w3.org/2000/svg" xmlns:xlink="http://www.w3.org/1999/xlink" x="0px" y="0px"
	 width="1200px" height="1200px" viewBox="0 0 1200 1200" enable-background="new 0 0 1200 1200" xml:space="preserve">
<g>
	<g opacity="0.3">
		<path fill="#111D25" d="M670.271,1038.264c-26.797,0-51.086,3.982-70.171,10.674c-18.95-6.75-42.903-10.674-69.097-10.674
			c-58.934,0-113.695,20.697-123.918,48.783c-11.38,31.325,35.862,60.164,107.72,60.979c32.01,0.371,61.771-5.092,84.683-14.301
			c22.903,9.713,53.05,15.871,85.949,16.257c75.593,0.858,126.964-28.101,115.013-60.938
			C789.834,1059.76,731.673,1038.264,670.271,1038.264z"/>
	</g>
	<polygon fill="#724143" points="566.58,238.229 566.58,550.106 500.815,478.154 477.66,501.324 566.58,590.242 566.58,719.118 
		491.281,636.729 468.117,659.883 566.58,758.364 566.58,1108.973 600.059,1108.973 600.059,238.229 	"/>
	<path fill="#6D9B4E" d="M549.232,660.477c0,50.854-41.216,92.084-92.101,92.084c-50.859,0-92.085-41.23-92.085-92.084
		c0-50.87,41.226-92.102,92.085-92.102C508.017,568.375,549.232,609.606,549.232,660.477z"/>
	<path fill="#7FAF61" d="M545.397,434.879c0,66.504-53.923,120.408-120.41,120.408c-66.503,0-120.409-53.904-120.409-120.408
		c0-66.501,53.906-120.405,120.409-120.405C491.475,314.474,545.397,368.378,545.397,434.879z"/>
	<polygon fill="#411F25" points="731.908,659.883 708.719,636.729 633.428,719.118 633.428,590.242 722.34,501.324 699.185,478.154 
		633.428,550.106 633.428,238.229 599.949,238.229 599.949,1108.973 633.428,1108.973 633.428,758.364 	"/>
	<path fill="#5A7545" d="M650.775,660.477c0,50.854,41.217,92.084,92.102,92.084c50.852,0,92.102-41.23,92.102-92.084
		c0-50.87-41.25-92.102-92.102-92.102C691.992,568.375,650.775,609.606,650.775,660.477z"/>
	<path fill="#5A7545" d="M654.611,434.879c0,66.504,53.906,120.408,120.418,120.408c66.495,0,120.393-53.904,120.393-120.408
		c0-66.501-53.897-120.405-120.393-120.405C708.518,314.474,654.611,368.378,654.611,434.879z"/>
	<path fill="#5A7545" d="M600.57,50c-0.101,0-0.192,0-0.293,0v300.953c0.101,0,0.192,0,0.293,0
		c83.104,0,150.48-67.377,150.48-150.477C751.051,117.376,683.675,50,600.57,50z"/>
	<path fill="#9ACC7A" d="M450.099,200.477c0,82.995,67.208,150.313,150.179,150.477V50
		C517.307,50.164,450.099,117.467,450.099,200.477z"/>
	<g>
		<g>
			<path fill="#5A7545" d="M513.463,141.627c-0.755,13.575,9.77,22.4,19.841,29.506c5.899,4.19,11.531-5.537,5.665-9.668
				c-6.823-4.84-14.805-10.526-14.284-19.838C525.096,134.402,513.857,134.432,513.463,141.627L513.463,141.627z"/>
		</g>
		<g>
			<path fill="#5A7545" d="M555.007,129.191c4.07-4.545,7.033-9.815,8.511-15.768c1.762-6.987-9.064-9.978-10.827-2.99
				c-1.016,4.056-2.819,7.697-5.64,10.822C542.242,126.6,550.164,134.564,555.007,129.191L555.007,129.191z"/>
		</g>
		<g>
			<path fill="#5A7545" d="M526.908,105.326c1.184-3.036,4.348-6.084,7.368-7.256c2.846-1.095,4.784-3.773,3.92-6.913
				c-0.738-2.708-4.037-5.019-6.898-3.909c-7.209,2.756-12.388,7.936-15.241,15.102c-1.083,2.828,1.242,6.16,3.919,6.9
				C523.173,110.123,525.775,108.152,526.908,105.326L526.908,105.326z"/>
		</g>
		<g>
			<path fill="#5A7545" d="M567.008,73.791c3.819,1.955,7.201,4.62,9.686,8.158c1.729,2.502,4.901,3.642,7.671,2.043
				c2.451-1.467,3.76-5.197,2.015-7.669c-3.584-5.138-8.116-9.372-13.714-12.214c-2.694-1.378-6.085-0.726-7.679,1.998
				C563.534,68.625,564.289,72.43,567.008,73.791L567.008,73.791z"/>
		</g>
		<g>
			<path fill="#5A7545" d="M587.89,150.865c6.168-3.347,9.71-9.432,10.432-16.286c0.327-3.02-2.812-5.61-5.598-5.61
				c-3.315,0-5.313,2.576-5.623,5.61c-0.101,0.992-0.755,2.636-1.611,3.864c-0.789,1.125-1.821,1.939-3.273,2.709
				C575.846,144.602,581.52,154.3,587.89,150.865L587.89,150.865z"/>
		</g>
		<g>
			<path fill="#5A7545" d="M493.194,178.995c-1.527,11.502,4.574,22.887,14.57,28.603c6.244,3.581,11.926-6.1,5.656-9.698
				c-6.915-3.938-10.029-11.162-8.988-18.904c0.395-3.036-2.87-5.598-5.615-5.627C495.461,173.338,493.598,175.988,493.194,178.995
				L493.194,178.995z"/>
		</g>
		<g>
			<path fill="#5A7545" d="M550.105,238.155c7.662-2.636,14.478-7.048,19.706-13.281c4.616-5.493-3.273-13.487-7.923-7.936
				c-3.994,4.753-8.888,8.38-14.763,10.38C540.345,229.67,543.249,240.492,550.105,238.155L550.105,238.155z"/>
		</g>
		<g>
			<path fill="#5A7545" d="M558.439,184.916c3.609,2.428,10.6,4.885,10.037,10.172c-0.311,3.034,2.829,5.625,5.623,5.625
				c3.291,0,5.288-2.576,5.615-5.625c1.066-10.172-8.502-15.073-15.636-19.84C558.07,171.207,552.455,180.904,558.439,184.916
				L558.439,184.916z"/>
		</g>
		<g>
			<path fill="#5A7545" d="M491.147,126.022c-5.473,3.643-9.963,8.542-12.74,14.523c-1.293,2.738-0.789,6.056,2.014,7.669
				c2.426,1.421,6.379,0.74,7.663-2.014c1.989-4.249,4.783-7.875,8.736-10.48c2.519-1.689,3.601-4.975,1.997-7.684
				C497.357,125.52,493.682,124.321,491.147,126.022L491.147,126.022z"/>
		</g>
		<g>
			<path fill="#5A7545" d="M471.298,204.502c-0.738,7.21,0.252,14.422,2.913,21.142c1.142,2.829,3.751,4.767,6.915,3.924
				c2.669-0.712,5.036-4.085,3.928-6.913c-2.375-5.938-3.189-11.801-2.551-18.152C483.258,197.338,472.021,197.381,471.298,204.502
				L471.298,204.502z"/>
		</g>
		<g>
			<path fill="#5A7545" d="M510.231,269.451c0.848-6.025,3.198-11.311,7.479-15.692c5.061-5.138-2.87-13.088-7.932-7.92
				c-5.521,5.64-9.273,12.79-10.364,20.652c-0.42,2.989,0.705,6.025,3.919,6.869C505.952,274.115,509.804,272.471,510.231,269.451
				L510.231,269.451z"/>
		</g>
		<g>
			<path fill="#5A7545" d="M524.374,290.83c10.424,3.879,25.253,10.081,35.987,4.708c6.454-3.242,0.797-12.925-5.665-9.698
				c-3.944,1.985-10.34-0.606-14.335-1.643c-4.414-1.154-8.736-2.591-13.025-4.205C520.555,277.475,517.651,288.328,524.374,290.83
				L524.374,290.83z"/>
		</g>
		<g>
			<path fill="#5A7545" d="M555.242,267.911c9.979,4.975,21.292,3.525,29.693-3.789c5.463-4.737-2.526-12.658-7.948-7.921
				c-4.397,3.805-10.868,4.633-16.089,2.029C554.453,255.016,548.771,264.699,555.242,267.911L555.242,267.911z"/>
		</g>
		<g>
			<path fill="#5A7545" d="M565.75,322.318c4.338,4.782,10.398,1.186,13.932-2.5c3.407-3.555,5.832-7.73,7.494-12.334
				c1.066-2.828-1.158-6.143-3.911-6.913c-3.122-0.858-5.85,1.081-6.898,3.909c-0.722,1.997-1.788,3.924-3.047,5.61
				c-0.638,0.829-1.376,1.613-2.132,2.339c-0.268,0.268-0.99,0.727-1.124,1.081c0,0,0.755-0.149,0.512-0.149
				c0.948,0.237,1.896,0.504,2.828,0.756c0.109,0.105,0.193,0.179,0.286,0.267C568.847,309.025,560.907,316.975,565.75,322.318
				L565.75,322.318z"/>
		</g>
		<g>
			<path fill="#5A7545" d="M587.646,187.848c1.568,7.697,1.93,15.41,1.242,23.272c-0.588,7.18,10.633,7.136,11.237,0
				c0.755-8.866,0.117-17.572-1.67-26.263C597.021,177.78,586.211,180.771,587.646,187.848L587.646,187.848z"/>
		</g>
		<g>
			<path fill="#5A7545" d="M415.915,337.36c-6.681,1.555-12.539,4.679-17.784,8.972c-2.366,1.91-1.997,5.938,0,7.936
				c2.308,2.325,5.564,1.941,7.906,0c3.76-3.063,8.132-4.989,12.849-6.084C425.919,346.555,422.932,335.718,415.915,337.36
				L415.915,337.36z"/>
		</g>
		<g>
			<path fill="#5A7545" d="M368.253,385.892c-3.86,7.979-6.144,16.225-6.957,25.05c-0.646,7.165,10.574,7.136,11.237,0
				c0.604-6.752,2.459-13.311,5.405-19.396C381.077,385.077,371.392,379.377,368.253,385.892L368.253,385.892z"/>
		</g>
		<g>
			<path fill="#5A7545" d="M372.475,478.643c5.136,6.869,12.262,11.742,20.864,13.027c2.971,0.46,6.025-0.738,6.898-3.906
				c0.723-2.65-0.906-6.456-3.928-6.916c-5.522-0.813-10.751-3.3-14.166-7.859c-1.805-2.43-4.843-3.672-7.672-2.029
				C372.105,472.38,370.637,476.201,372.475,478.643L372.475,478.643z"/>
		</g>
		<g>
			<path fill="#5A7545" d="M435.68,455.133c8.778,0.267,13.202-11.666,16.047-18.269c1.2-2.77,0.839-6.026-2.015-7.684
				c-2.357-1.392-6.471-0.784-7.67,1.997c-1.142,2.665-2.367,5.271-3.785,7.804c-0.655,1.153-1.318,2.325-2.031,3.464
				c-0.285,0.445-0.546,0.873-0.814,1.317c-0.914,0.844-0.848,0.902,0.269,0.164C428.471,443.704,428.471,454.926,435.68,455.133
				L435.68,455.133z"/>
		</g>
		<g>
			<path fill="#5A7545" d="M408.849,418.921c0.075-0.533,0.21-1.022,0.327-1.555c0.235-0.932-0.117,0.119,0.134-0.384
				c0.193-0.387,0.429-0.756,0.655-1.127c0.646-1.081-0.495,0.313,0.453-0.533c0.075-0.088,1.065-1.021,0.612-0.65
				c-0.461,0.398,0.621-0.386,0.723-0.445c0.134-0.088,1.552-0.68,0.578-0.34c0.487-0.178,1.008-0.295,1.527-0.43
				c2.972-0.636,4.691-4.085,3.92-6.913c-0.831-3.049-3.937-4.545-6.898-3.895c-6.337,1.378-11.783,6.854-12.866,13.281
				c-0.462,2.888,0.755,6.188,3.919,6.913C404.661,423.451,408.319,422.016,408.849,418.921L408.849,418.921z"/>
		</g>
		<g>
			<path fill="#5A7545" d="M446.675,386.527c3.793-0.695,7.268,0.682,10.247,2.945c2.425,1.836,6.294,0.387,7.671-2.026
				c1.687-2.858,0.428-5.818-1.998-7.669c-5.463-4.146-12.262-5.256-18.908-4.088c-2.979,0.548-4.649,4.176-3.92,6.914
				C440.623,385.742,443.687,387.061,446.675,386.527L446.675,386.527z"/>
		</g>
		<g>
			<path fill="#5A7545" d="M467.715,355.808c5.229,2.029,9.887,5.687,13.118,10.245c1.729,2.486,4.9,3.643,7.67,2.027
				c2.442-1.436,3.777-5.195,2.023-7.684c-5.078-7.15-11.666-12.258-19.824-15.411c-2.836-1.081-6.168,1.2-6.906,3.924
				C462.914,352.077,464.886,354.697,467.715,355.808L467.715,355.808z"/>
		</g>
		<g>
			<path fill="#5A7545" d="M490.35,413.501c12.203,0.504,19.144-9.947,23.08-20.044c1.116-2.843-1.2-6.175-3.903-6.915
				c-3.188-0.873-5.807,1.097-6.915,3.909c-2.106,5.434-5.556,12.11-12.262,11.829C483.124,402.014,483.124,413.22,490.35,413.501
				L490.35,413.501z"/>
		</g>
		<g>
			<path fill="#5A7545" d="M485.675,462.98c10.524,9.268,20.025-10.275,22.988-17.871c1.115-2.828-1.201-6.172-3.903-6.913
				c-3.188-0.858-5.791,1.081-6.915,3.924c-0.982,2.56-2.309,5.019-3.794,7.329c-0.646,1.02-1.343,2.041-2.099,2.99
				c-0.369,0.488-0.99,0.963-1.258,1.464c-0.58,1.083-1.368-0.636,0.99,0.179c0.83,0.488,1.661,0.948,2.484,1.451
				c-0.177-0.178-0.354-0.342-0.563-0.488C488.218,450.293,480.271,458.198,485.675,462.98L485.675,462.98z"/>
		</g>
		<g>
			<path fill="#5A7545" d="M444.71,487.451c0.529,10.837,7.479,19.957,17.776,23.393c6.873,2.266,9.819-8.542,2.996-10.822
				c-5.388-1.807-9.274-6.914-9.551-12.57C455.562,480.256,444.35,480.213,444.71,487.451L444.71,487.451z"/>
		</g>
		<g>
			<path fill="#5A7545" d="M500.077,497.875c4.633-4.635,7.998-10.082,10.306-16.211c1.066-2.857-1.183-6.175-3.911-6.915
				c-3.155-0.858-5.832,1.095-6.915,3.923c-1.611,4.278-4.205,8.041-7.411,11.268C487.018,495.061,494.94,502.981,500.077,497.875
				L500.077,497.875z"/>
		</g>
		<g>
			<path fill="#5A7545" d="M405.298,464.09c-0.176,11.443,3.005,24.931,16.668,25.85c7.227,0.459,7.201-10.749,0-11.223
				c-6.16-0.414-5.505-10.63-5.43-14.627C416.653,456.866,405.433,456.866,405.298,464.09L405.298,464.09z"/>
		</g>
		<g>
			<path fill="#5A7545" d="M400.615,526.447c3.265,5.76,9.979,8.381,16.391,7.048c6.622-1.394,11.297-6.5,14.839-11.964
				c3.936-6.084-5.774-11.695-9.686-5.654c-1.846,2.857-8.586,10.705-11.842,4.901C406.75,514.5,397.048,520.155,400.615,526.447
				L400.615,526.447z"/>
		</g>
		<g>
			<path fill="#5A7545" d="M352.845,453.815c-3.492,9.297-3.375,19.571,0.461,28.751c2.719,6.574,13.588,3.687,10.818-2.975
				c-3.164-7.61-3.357-15.072-0.453-22.801C366.214,450.041,355.362,447.109,352.845,453.815L352.845,453.815z"/>
		</g>
		<g>
			<path fill="#5A7545" d="M322.244,438.329c9.148,7.329,21.284,8.705,31.607,2.769c6.261-3.598,0.596-13.293-5.674-9.683
				c-5.606,3.213-12.832,3.124-18.011-1.021C324.586,425.907,316.604,433.813,322.244,438.329L322.244,438.329z"/>
		</g>
		<g>
			<path fill="#5A7545" d="M344.468,383.508c4.214-7.329,10.164-13.059,17.658-17.056c6.371-3.391,0.697-13.087-5.682-9.667
				c-9.08,4.841-16.542,12.141-21.678,21.083C331.175,384.144,340.868,389.8,344.468,383.508L344.468,383.508z"/>
		</g>
		<g>
			<path fill="#5A7545" d="M364.988,521.177c5.833-0.843,11.481-2.28,17.004-4.366c2.845-1.036,4.783-3.776,3.928-6.9
				c-0.756-2.724-4.063-4.973-6.899-3.922c-5.505,2.07-11.162,3.523-17.028,4.366c-3.005,0.444-4.649,4.249-3.919,6.899
				C358.962,520.48,361.95,521.622,364.988,521.177L364.988,521.177z"/>
		</g>
		<g>
			<path fill="#5A7545" d="M420.321,597.48c-3.013,7.02-2.896,14.834,1.511,21.32c4.062,5.921,13.789,0.311,9.685-5.687
				c-1.955-2.901-2.945-6.573-1.493-9.964c1.183-2.782,0.831-6.01-2.031-7.684C425.643,594.09,421.521,594.697,420.321,597.48
				L420.321,597.48z"/>
		</g>
		<g>
			<path fill="#5A7545" d="M398.357,646.885c3.761,8.038,10.349,14.641,18.338,18.477c6.471,3.109,12.17-6.574,5.674-9.698
				c-6.487-3.124-11.255-7.95-14.302-14.433c-1.275-2.756-5.245-3.465-7.688-2.029C397.569,640.858,397.082,644.132,398.357,646.885
				L398.357,646.885z"/>
		</g>
		<g>
			<path fill="#5A7545" d="M397.183,686.725c-2.736-5.818-4.012-12.037-4.054-18.462c-0.059-7.209-11.279-7.224-11.221,0
				c0.059,8.468,1.997,16.478,5.581,24.146C390.553,698.953,400.237,693.239,397.183,686.725L397.183,686.725z"/>
		</g>
		<g>
			<path fill="#5A7545" d="M394.329,627.949c2.039-4.221,4.381-8.262,7.017-12.141c1.703-2.516,0.47-6.217-2.015-7.669
				c-2.786-1.628-5.967-0.503-7.68,2.029c-2.627,3.85-4.959,7.892-6.99,12.125c-1.318,2.724-0.756,6.07,2.014,7.669
				C389.117,631.412,393.012,630.688,394.329,627.949L394.329,627.949z"/>
		</g>
		<g>
			<path fill="#5A7545" d="M453.195,597.288c3.995,0.222,7.638,1.525,11.028,3.628c6.16,3.818,11.8-5.893,5.656-9.698
				c-5.086-3.153-10.734-4.796-16.685-5.165C445.97,585.622,445.994,596.859,453.195,597.288L453.195,597.288z"/>
		</g>
		<g>
			<path fill="#5A7545" d="M446.842,623.064c-0.134,9.016,6.22,17.337,15.023,19.408c7.05,1.659,10.021-9.163,2.996-10.809
				c-4.104-0.976-6.874-4.366-6.781-8.6C458.197,615.854,446.96,615.854,446.842,623.064L446.842,623.064z"/>
		</g>
		<g>
			<path fill="#5A7545" d="M441.647,677.664c11.725,4.115,22.71-4.248,24.087-15.989c0.335-3.005-2.846-5.597-5.615-5.597
				c-3.332,0-5.271,2.563-5.623,5.597c-0.563,4.975-5.716,6.603-9.878,5.153C437.795,664.428,434.866,675.281,441.647,677.664
				L441.647,677.664z"/>
		</g>
		<g>
			<path fill="#5A7545" d="M503.987,654.154c5.606-6.723,8.611-14.968,7.932-23.791c-0.604-7.138-11.825-7.211-11.238,0
				c0.462,5.787-0.855,11.324-4.641,15.871C491.458,651.74,499.354,659.707,503.987,654.154L503.987,654.154z"/>
		</g>
		<g>
			<path fill="#5A7545" d="M486.044,590.938c-5.521,8.81-8.309,18.801-8.199,29.195c0.084,7.209,11.305,7.225,11.229,0
				c-0.101-8.544,2.132-16.301,6.663-23.539C499.573,590.448,489.88,584.838,486.044,590.938L486.044,590.938z"/>
		</g>
		<g>
			<path fill="#5A7545" d="M529.837,669.832c5.741-3.153,8.796-10.556,6.513-16.805c-1.04-2.84-3.802-4.767-6.898-3.906
				c-2.736,0.754-4.977,4.026-3.928,6.885c0.151,0.354,0.252,0.693,0.344,1.08c-0.15-0.594-0.092-0.237,0.017,0.146
				c0.084,0.296-0.017,0.814,0.084,0.149c-0.066,0.46-0.201,0.917-0.352,1.361c-0.294,0.8,0.327-0.562-0.135,0.164
				c-0.042,0.088-0.604,0.961-0.336,0.577c0.336-0.489-0.671,0.533-0.15,0.161c0.386-0.281-0.831,0.489-0.831,0.489
				c-2.652,1.451-3.509,5.109-2.015,7.684C523.735,670.482,527.16,671.282,529.837,669.832L529.837,669.832z"/>
		</g>
		<g>
			<path fill="#5A7545" d="M490.576,688.663c7.848-2.946,6.882,6.854,5.842,11.534c-1.536,7.047,9.282,10.052,10.81,2.975
				c1.511-6.811,2.534-14.404-2.09-20.313c-4.037-5.195-11.381-7.326-17.566-5.019C480.874,680.329,483.778,691.182,490.576,688.663
				L490.576,688.663z"/>
		</g>
		<g>
			<path fill="#5A7545" d="M455.764,718.141c4.918,7.49,12.572,11.889,21.485,12.539c7.209,0.488,7.184-10.718,0-11.236
				c-4.801-0.342-9.165-2.961-11.801-6.975C461.495,706.46,451.769,712.056,455.764,718.141L455.764,718.141z"/>
		</g>
		<g>
			<path fill="#5A7545" d="M425.643,697.635c-6.161,7.654-6.144,19.114,1.493,25.908c5.371,4.782,13.336-3.124,7.932-7.949
				c-2.694-2.414-3.995-6.929-1.511-10.038c1.947-2.369,2.3-5.581,0-7.921C431.635,695.652,427.548,695.266,425.643,697.635
				L425.643,697.635z"/>
		</g>
	</g>
	<g>
		<g>
			<path fill="#48573A" d="M693.209,141.627c0.756,13.575-9.777,22.4-19.84,29.506c-5.926,4.19-11.549-5.537-5.683-9.668
				c6.841-4.84,14.813-10.526,14.302-19.838C681.568,134.402,692.789,134.432,693.209,141.627L693.209,141.627z"/>
		</g>
		<g>
			<path fill="#48573A" d="M651.665,129.191c-4.07-4.545-7.032-9.815-8.51-15.768c-1.763-6.987,9.039-9.978,10.817-2.99
				c1.008,4.056,2.813,7.697,5.624,10.822C664.414,126.6,656.491,134.564,651.665,129.191L651.665,129.191z"/>
		</g>
		<g>
			<path fill="#48573A" d="M679.781,105.326c-1.201-3.036-4.373-6.084-7.402-7.256c-2.846-1.095-4.784-3.773-3.912-6.913
				c0.739-2.708,4.046-5.019,6.883-3.909c7.226,2.756,12.412,7.936,15.249,15.102c1.1,2.828-1.226,6.16-3.919,6.9
				C683.49,110.123,680.889,108.152,679.781,105.326L679.781,105.326z"/>
		</g>
		<g>
			<path fill="#48573A" d="M639.655,73.791c-3.844,1.955-7.192,4.62-9.677,8.158c-1.721,2.502-4.918,3.642-7.688,2.043
				c-2.442-1.467-3.743-5.197-2.015-7.669c3.584-5.138,8.133-9.372,13.723-12.214c2.686-1.378,6.085-0.726,7.671,1.998
				C643.139,68.625,642.366,72.43,639.655,73.791L639.655,73.791z"/>
		</g>
		<g>
			<path fill="#48573A" d="M618.783,150.865c-6.178-3.347-9.693-9.432-10.441-16.286c-0.335-3.02,2.804-5.61,5.615-5.61
				c3.29,0,5.287,2.576,5.598,5.61c0.101,0.992,0.764,2.636,1.611,3.864c0.798,1.125,1.838,1.939,3.273,2.709
				C630.801,144.602,625.152,154.3,618.783,150.865L618.783,150.865z"/>
		</g>
		<g>
			<path fill="#48573A" d="M713.478,178.995c1.511,11.502-4.574,22.887-14.569,28.603c-6.262,3.581-11.936-6.1-5.657-9.698
				c6.898-3.938,10.004-11.162,8.988-18.904c-0.419-3.036,2.87-5.598,5.606-5.627C711.211,173.338,713.074,175.988,713.478,178.995
				L713.478,178.995z"/>
		</g>
		<g>
			<path fill="#48573A" d="M656.533,238.155c-7.638-2.636-14.444-7.048-19.706-13.281c-4.591-5.493,3.307-13.487,7.939-7.936
				c4.012,4.753,8.88,8.38,14.771,10.38C666.318,229.67,663.406,240.492,656.533,238.155L656.533,238.155z"/>
		</g>
		<g>
			<path fill="#48573A" d="M648.232,184.916c-3.617,2.428-10.6,4.885-10.055,10.172c0.311,3.034-2.811,5.625-5.598,5.625
				c-3.314,0-5.313-2.576-5.64-5.625c-1.049-10.172,8.527-15.073,15.619-19.84C648.568,171.207,654.2,180.904,648.232,184.916
				L648.232,184.916z"/>
		</g>
		<g>
			<path fill="#48573A" d="M715.517,126.022c5.48,3.643,9.962,8.542,12.749,14.523c1.275,2.738,0.78,6.056-1.998,7.669
				c-2.442,1.421-6.412,0.74-7.688-2.014c-1.98-4.249-4.792-7.875-8.736-10.48c-2.526-1.689-3.593-4.975-2.006-7.684
				C709.298,125.52,712.974,124.321,715.517,126.022L715.517,126.022z"/>
		</g>
		<g>
			<path fill="#48573A" d="M735.374,204.502c0.738,7.21-0.269,14.422-2.938,21.142c-1.125,2.829-3.743,4.767-6.907,3.924
				c-2.686-0.712-5.053-4.085-3.911-6.913c2.35-5.938,3.181-11.801,2.526-18.152C723.423,197.338,734.644,197.381,735.374,204.502
				L735.374,204.502z"/>
		</g>
		<g>
			<path fill="#48573A" d="M696.415,269.451c-0.822-6.025-3.164-11.311-7.47-15.692c-5.068-5.138,2.887-13.088,7.932-7.92
				c5.521,5.64,9.266,12.79,10.364,20.652c0.411,2.989-0.713,6.025-3.911,6.869C700.695,274.115,696.852,272.471,696.415,269.451
				L696.415,269.451z"/>
		</g>
		<g>
			<path fill="#48573A" d="M682.307,290.83c-10.432,3.879-25.27,10.081-36.013,4.708c-6.462-3.242-0.789-12.925,5.682-9.698
				c3.937,1.985,10.314-0.606,14.318-1.643c4.406-1.154,8.745-2.591,13.042-4.205C686.117,277.475,689.029,288.328,682.307,290.83
				L682.307,290.83z"/>
		</g>
		<g>
			<path fill="#48573A" d="M651.43,267.911c-9.979,4.975-21.275,3.525-29.685-3.789c-5.48-4.737,2.484-12.658,7.932-7.921
				c4.397,3.805,10.852,4.633,16.097,2.029C652.194,255.016,657.901,264.699,651.43,267.911L651.43,267.911z"/>
		</g>
		<g>
			<path fill="#48573A" d="M640.914,322.318c-4.348,4.782-10.39,1.186-13.932-2.5c-3.398-3.555-5.816-7.73-7.503-12.334
				c-1.05-2.828,1.149-6.143,3.911-6.913c3.139-0.858,5.857,1.081,6.907,3.909c0.729,1.997,1.763,3.924,3.038,5.61
				c0.654,0.829,1.393,1.613,2.148,2.339c0.252,0.268,0.99,0.727,1.125,1.081c0,0-0.756-0.149-0.521-0.149
				c-0.947,0.237-1.896,0.504-2.828,0.756c-0.117,0.105-0.201,0.179-0.276,0.267C637.826,309.025,645.757,316.975,640.914,322.318
				L640.914,322.318z"/>
		</g>
		<g>
			<path fill="#48573A" d="M619.001,187.848c-1.569,7.697-1.905,15.41-1.242,23.272c0.612,7.18-10.616,7.136-11.221,0
				c-0.739-8.866-0.135-17.572,1.661-26.263C609.651,177.78,620.453,180.771,619.001,187.848L619.001,187.848z"/>
		</g>
		<g>
			<path fill="#48573A" d="M790.757,337.36c6.647,1.555,12.539,4.679,17.793,8.972c2.358,1.91,1.98,5.938,0,7.936
				c-2.325,2.325-5.581,1.941-7.948,0c-3.734-3.063-8.133-4.989-12.824-6.084C780.736,346.555,783.74,335.718,790.757,337.36
				L790.757,337.36z"/>
		</g>
		<g>
			<path fill="#48573A" d="M838.41,385.892c3.869,7.979,6.144,16.225,6.958,25.05c0.654,7.165-10.566,7.136-11.237,0
				c-0.621-6.752-2.451-13.311-5.405-19.396C825.587,385.077,835.255,379.377,838.41,385.892L838.41,385.892z"/>
		</g>
		<g>
			<path fill="#48573A" d="M834.189,478.643c-5.137,6.869-12.271,11.742-20.856,13.027c-2.987,0.46-6.025-0.738-6.898-3.906
				c-0.73-2.65,0.897-6.456,3.919-6.916c5.522-0.813,10.734-3.3,14.167-7.859c1.813-2.43,4.835-3.672,7.671-2.029
				C834.575,472.38,836.027,476.201,834.189,478.643L834.189,478.643z"/>
		</g>
		<g>
			<path fill="#48573A" d="M770.976,455.133c-8.762,0.267-13.193-11.666-16.047-18.269c-1.184-2.77-0.848-6.026,2.015-7.684
				c2.366-1.392,6.479-0.784,7.67,1.997c1.15,2.665,2.384,5.271,3.785,7.804c0.664,1.153,1.335,2.325,2.049,3.464
				c0.276,0.445,0.545,0.873,0.822,1.317c0.906,0.844,0.806,0.902-0.294,0.164C778.219,443.704,778.201,454.926,770.976,455.133
				L770.976,455.133z"/>
		</g>
		<g>
			<path fill="#48573A" d="M797.815,418.921c-0.084-0.533-0.202-1.022-0.336-1.555c-0.243-0.932,0.134,0.119-0.117-0.384
				c-0.227-0.387-0.437-0.756-0.672-1.127c-0.646-1.081,0.504,0.313-0.462-0.533c-0.066-0.088-1.065-1.021-0.587-0.65
				c0.444,0.398-0.604-0.386-0.738-0.445c-0.135-0.088-1.562-0.68-0.563-0.34c-0.504-0.178-1.024-0.295-1.527-0.43
				c-2.979-0.636-4.708-4.085-3.937-6.913c0.84-3.049,3.953-4.545,6.916-3.895c6.336,1.378,11.766,6.854,12.849,13.281
				c0.47,2.888-0.755,6.188-3.928,6.913C802.003,423.451,798.353,422.016,797.815,418.921L797.815,418.921z"/>
		</g>
		<g>
			<path fill="#48573A" d="M759.973,386.527c-3.769-0.695-7.251,0.682-10.239,2.945c-2.417,1.836-6.277,0.387-7.671-2.026
				c-1.687-2.858-0.402-5.818,2.015-7.669c5.446-4.146,12.253-5.256,18.875-4.088c2.987,0.548,4.691,4.176,3.919,6.914
				C766.032,385.742,762.952,387.061,759.973,386.527L759.973,386.527z"/>
		</g>
		<g>
			<path fill="#48573A" d="M738.924,355.808c-5.212,2.029-9.861,5.687-13.084,10.245c-1.737,2.486-4.901,3.643-7.671,2.027
				c-2.459-1.436-3.794-5.195-2.031-7.684c5.061-7.15,11.666-12.258,19.807-15.411c2.828-1.081,6.144,1.2,6.916,3.924
				C743.732,352.077,741.77,354.697,738.924,355.808L738.924,355.808z"/>
		</g>
		<g>
			<path fill="#48573A" d="M716.314,413.501c-12.195,0.504-19.169-9.947-23.098-20.044c-1.091-2.843,1.218-6.175,3.929-6.915
				c3.181-0.873,5.799,1.097,6.882,3.909c2.132,5.434,5.581,12.11,12.287,11.829C723.54,402.014,723.54,413.22,716.314,413.501
				L716.314,413.501z"/>
		</g>
		<g>
			<path fill="#48573A" d="M720.964,462.98c-10.508,9.268-20.017-10.275-22.979-17.871c-1.107-2.828,1.2-6.172,3.928-6.913
				c3.164-0.858,5.791,1.081,6.882,3.924c1.007,2.56,2.325,5.019,3.811,7.329c0.663,1.02,1.359,2.041,2.115,2.99
				c0.353,0.488,0.99,0.963,1.259,1.464c0.579,1.083,1.359-0.636-1.008,0.179c-0.83,0.488-1.645,0.948-2.476,1.451
				c0.177-0.178,0.361-0.342,0.537-0.488C718.438,450.293,726.41,458.198,720.964,462.98L720.964,462.98z"/>
		</g>
		<g>
			<path fill="#48573A" d="M761.945,487.451c-0.537,10.837-7.479,19.957-17.768,23.393c-6.882,2.266-9.811-8.542-2.988-10.822
				c5.389-1.807,9.266-6.914,9.551-12.57C751.076,480.256,762.331,480.213,761.945,487.451L761.945,487.451z"/>
		</g>
		<g>
			<path fill="#48573A" d="M706.587,497.875c-4.649-4.635-7.989-10.082-10.298-16.211c-1.066-2.857,1.184-6.175,3.902-6.915
				c3.156-0.858,5.824,1.095,6.916,3.923c1.603,4.278,4.205,8.041,7.419,11.268C719.646,495.061,711.698,502.981,706.587,497.875
				L706.587,497.875z"/>
		</g>
		<g>
			<path fill="#48573A" d="M801.374,464.09c0.176,11.443-3.013,24.931-16.702,25.85c-7.2,0.459-7.167-10.749,0-11.223
				c6.169-0.414,5.539-10.63,5.464-14.627C790.002,456.866,801.239,456.866,801.374,464.09L801.374,464.09z"/>
		</g>
		<g>
			<path fill="#48573A" d="M806.031,526.447c-3.239,5.76-9.962,8.381-16.357,7.048c-6.63-1.394-11.321-6.5-14.863-11.964
				c-3.928-6.084,5.791-11.695,9.693-5.654c1.855,2.857,8.578,10.705,11.852,4.901C799.922,514.5,809.615,520.155,806.031,526.447
				L806.031,526.447z"/>
		</g>
		<g>
			<path fill="#48573A" d="M853.819,453.815c3.5,9.297,3.366,19.571-0.453,28.751c-2.744,6.574-13.596,3.687-10.826-2.975
				c3.188-7.61,3.365-15.072,0.444-22.801C840.459,450.041,851.276,447.109,853.819,453.815L853.819,453.815z"/>
		</g>
		<g>
			<path fill="#48573A" d="M884.428,438.329c-9.165,7.329-21.309,8.705-31.607,2.769c-6.269-3.598-0.629-13.293,5.648-9.683
				c5.615,3.213,12.857,3.124,18.02-1.021C882.069,425.907,890.051,433.813,884.428,438.329L884.428,438.329z"/>
		</g>
		<g>
			<path fill="#48573A" d="M862.188,383.508c-4.205-7.329-10.155-13.059-17.65-17.056c-6.361-3.391-0.705-13.087,5.674-9.667
				c9.089,4.841,16.55,12.141,21.687,21.083C875.498,384.144,865.805,389.8,862.188,383.508L862.188,383.508z"/>
		</g>
		<g>
			<path fill="#48573A" d="M841.684,521.177c-5.833-0.843-11.489-2.28-17.037-4.366c-2.828-1.036-4.759-3.776-3.911-6.9
				c0.756-2.724,4.054-4.973,6.899-3.922c5.521,2.07,11.195,3.523,17.028,4.366c3.013,0.444,4.658,4.249,3.919,6.899
				C847.71,520.48,844.688,521.622,841.684,521.177L841.684,521.177z"/>
		</g>
		<g>
			<path fill="#48573A" d="M786.343,597.48c3.021,7.02,2.903,14.834-1.536,21.32c-4.045,5.921-13.772,0.311-9.668-5.687
				c1.963-2.901,2.962-6.573,1.493-9.964c-1.183-2.782-0.813-6.01,2.031-7.684C781.014,594.09,785.117,594.697,786.343,597.48
				L786.343,597.48z"/>
		</g>
		<g>
			<path fill="#48573A" d="M808.298,646.885c-3.76,8.038-10.349,14.641-18.33,18.477c-6.471,3.109-12.169-6.574-5.656-9.698
				c6.471-3.124,11.255-7.95,14.301-14.433c1.259-2.756,5.212-3.465,7.671-2.029C809.087,640.858,809.573,644.132,808.298,646.885
				L808.298,646.885z"/>
		</g>
		<g>
			<path fill="#48573A" d="M809.498,686.725c2.728-5.818,3.986-12.037,4.045-18.462c0.042-7.209,11.246-7.224,11.204,0
				c-0.042,8.468-1.997,16.478-5.563,24.146C816.119,698.953,806.435,693.239,809.498,686.725L809.498,686.725z"/>
		</g>
		<g>
			<path fill="#48573A" d="M812.326,627.949c-2.039-4.221-4.364-8.262-7-12.141c-1.703-2.516-0.494-6.217,2.006-7.669
				c2.77-1.628,5.968-0.503,7.688,2.029c2.618,3.85,4.943,7.892,6.991,12.125c1.301,2.724,0.738,6.07-2.015,7.669
				C817.538,631.412,813.66,630.688,812.326,627.949L812.326,627.949z"/>
		</g>
		<g>
			<path fill="#48573A" d="M753.477,597.288c-3.994,0.222-7.637,1.525-11.027,3.628c-6.16,3.818-11.801-5.893-5.657-9.698
				c5.077-3.153,10.718-4.796,16.685-5.165C760.686,585.622,760.669,596.859,753.477,597.288L753.477,597.288z"/>
		</g>
		<g>
			<path fill="#48573A" d="M759.813,623.064c0.159,9.016-6.202,17.337-15.023,19.408c-7.032,1.659-10.013-9.163-2.996-10.809
				c4.121-0.976,6.882-4.366,6.798-8.6C748.475,615.854,759.713,615.854,759.813,623.064L759.813,623.064z"/>
		</g>
		<g>
			<path fill="#48573A" d="M765.008,677.664c-11.707,4.115-22.693-4.248-24.069-15.989c-0.345-3.005,2.845-5.597,5.606-5.597
				c3.331,0,5.262,2.563,5.614,5.597c0.579,4.975,5.732,6.603,9.878,5.153C768.86,664.428,771.789,675.281,765.008,677.664
				L765.008,677.664z"/>
		</g>
		<g>
			<path fill="#48573A" d="M702.668,654.154c-5.599-6.723-8.637-14.968-7.923-23.791c0.596-7.138,11.816-7.211,11.237,0
				c-0.47,5.787,0.873,11.324,4.633,15.871C715.206,651.74,707.301,659.707,702.668,654.154L702.668,654.154z"/>
		</g>
		<g>
			<path fill="#48573A" d="M720.628,590.938c5.522,8.81,8.283,18.801,8.199,29.195c-0.101,7.209-11.313,7.225-11.237,0
				c0.101-8.544-2.132-16.301-6.681-23.539C707.065,590.448,716.775,584.838,720.628,590.938L720.628,590.938z"/>
		</g>
		<g>
			<path fill="#48573A" d="M676.844,669.832c-5.774-3.153-8.821-10.556-6.521-16.805c1.032-2.84,3.785-4.767,6.882-3.906
				c2.753,0.754,4.985,4.026,3.919,6.885c-0.134,0.354-0.234,0.693-0.335,1.08c0.143-0.594,0.101-0.237,0,0.146
				c-0.109,0.296,0,0.814-0.093,0.149c0.076,0.46,0.21,0.917,0.353,1.361c0.302,0.8-0.353-0.562,0.109,0.164
				c0.059,0.088,0.638,0.961,0.369,0.577c-0.344-0.489,0.638,0.533,0.151,0.161c-0.387-0.281,0.822,0.489,0.822,0.489
				c2.652,1.451,3.5,5.109,2.014,7.684C682.945,670.482,679.495,671.282,676.844,669.832L676.844,669.832z"/>
		</g>
		<g>
			<path fill="#48573A" d="M716.096,688.663c-7.847-2.946-6.873,6.854-5.866,11.534c1.561,7.047-9.266,10.052-10.802,2.975
				c-1.502-6.811-2.518-14.404,2.082-20.313c4.062-5.195,11.389-7.326,17.557-5.019
				C725.789,680.329,722.894,691.182,716.096,688.663L716.096,688.663z"/>
		</g>
		<g>
			<path fill="#48573A" d="M750.9,718.141c-4.918,7.49-12.581,11.889-21.485,12.539c-7.21,0.488-7.192-10.718,0-11.236
				c4.784-0.342,9.165-2.961,11.792-6.975C745.143,706.46,754.887,712.056,750.9,718.141L750.9,718.141z"/>
		</g>
		<g>
			<path fill="#48573A" d="M781.014,697.635c6.185,7.654,6.143,19.114-1.478,25.908c-5.38,4.782-13.353-3.124-7.939-7.949
				c2.694-2.414,3.995-6.929,1.485-10.038c-1.914-2.369-2.3-5.581,0-7.921C775.029,695.652,779.116,695.266,781.014,697.635
				L781.014,697.635z"/>
		</g>
	</g>
</g>
</svg>
