<?xml version="1.0" encoding="utf-8"?>
<!--Designed by Vexels.com - 2017 All Rights Reserved - https://vexels.com/terms-and-conditions/-->
<svg version="1.1" id="Layer_1" xmlns="http://www.w3.org/2000/svg" xmlns:xlink="http://www.w3.org/1999/xlink" x="0px" y="0px"
	 viewBox="0 0 1200 1200" width="1200px" height="1200px" enable-background="new 0 0 1200 1200" xml:space="preserve">
<g>
	<path fill="#61340A" d="M100.904,331.286c-0.041,0.023,0.044-0.002,0.047-0.016c0.004-0.004,0.003-0.011,0.006-0.016
		C100.939,331.265,100.923,331.277,100.904,331.286z"/>
	<path fill="#61340A" d="M101.583,329.517c0.011-0.009-0.017-0.08-0.007-0.034C101.578,329.495,101.58,329.507,101.583,329.517
		L101.583,329.517z"/>
	<path fill="#61340A" d="M824.882,463.783c-0.425-0.234-0.854-0.482-1.3-0.699c-0.888-0.453-1.804-0.86-2.733-1.213
		c-1.858-0.733-3.779-1.119-5.659-1.31c-1.896-0.255-3.734,0.028-5.55,0.32c-1.784,0.482-3.541,1.1-5.225,2.054
		c-0.813,0.547-1.712,0.895-2.473,1.593l-1.191,0.934l-0.601,0.462l-0.048,0.036l-0.242,0.252l-1.275,1.328
		c-0.365,0.412-1.011,0.968-1.042,1.211c-0.161,0.304-0.335,0.592-0.527,0.871c-0.201,0.268-0.42,0.538-0.525,0.94
		c-0.269,0.726-0.689,1.429-0.729,2.167c-0.055,0.363-0.208,0.722-0.229,1.091c0.02,0.371,0.024,0.739,0.012,1.113
		c-0.059,0.375,0.033,0.75,0.128,1.125c0.089,0.375,0.124,0.761,0.221,1.143c0.383,0.721,0.486,1.544,1.031,2.235l0.659,1.098
		l0.863,0.996c0.495,0.743,1.323,1.181,1.933,1.844c1.466,0.995,3.037,2.014,4.745,2.368c0.84,0.339,1.683,0.288,2.533,0.431
		c0.429,0.073,0.827-0.062,1.246-0.065c0.406-0.063,0.857,0.028,1.237-0.154c0.394-0.126,0.797-0.225,1.207-0.322l0.31-0.07
		l0.039-0.008l0.019-0.004c0.276-0.136-0.354,0.181-0.279,0.143l0.103-0.05l0.207-0.101l0.828-0.404
		c0.52-0.266,1.176-0.547,1.584-0.802c0.333-0.245,0.673-0.48,1.026-0.707c0.349-0.185,0.726-0.501,1.105-0.853l1.146-0.993
		c0.665-0.8,1.456-1.471,2.073-2.362c1.379-1.629,2.462-3.596,3.527-5.574c0.985-2.036,1.909-4.153,2.658-6.358
		c0.292-0.867,0.565-1.765,0.83-2.66l-0.601-0.398C825.779,464.335,825.263,464.004,824.882,463.783z"/>
	<path fill="#61340A" d="M159.642,824.608c-0.076-0.05,0.009-0.032-0.024-0.02C159.622,824.592,159.638,824.603,159.642,824.608
		C159.643,824.609,159.643,824.608,159.642,824.608z"/>
	<path fill="#FFE56E" d="M497.102,404.043c-0.449-2.577-0.875-5.158-1.229-7.768c-0.015-0.099-0.025-0.201-0.04-0.3
		c-0.066-0.041-0.114-0.069-0.182-0.111c-2.4-1.433-5.804-3.501-9.98-5.821c-2.047-1.216-4.387-2.344-6.744-3.701
		c-2.425-1.239-4.983-2.546-7.628-3.897c-2.66-1.317-5.41-2.662-8.259-3.914c-1.412-0.649-2.818-1.344-4.26-1.97
		c-1.452-0.602-2.91-1.206-4.368-1.811c-2.885-1.286-5.847-2.369-8.742-3.502c-2.886-1.161-5.808-2.058-8.587-3.1
		c-1.389-0.528-2.777-0.969-4.148-1.365c-1.361-0.438-2.693-0.867-3.989-1.284c-2.588-0.877-5.079-1.535-7.377-2.193
		c-2.307-0.606-4.403-1.332-6.295-1.797c-1.896-0.44-3.548-0.884-4.913-1.246c-0.757-0.203-1.415-0.385-1.985-0.546
		c0.291,1.321,0.591,2.657,0.879,3.972c3.378,15.492,6.55,30.589,9.508,45.267c0.476-0.091,0.997-0.189,1.596-0.296
		c1.319-0.235,2.928-0.525,4.784-0.788c1.855-0.248,3.955-0.359,6.257-0.497c1.153-0.069,2.354-0.141,3.597-0.215
		c1.24,0.028,2.522,0.058,3.84,0.088c2.639,0.063,5.443,0.078,8.295,0.476c2.861,0.323,5.848,0.545,8.808,1.168
		c2.984,0.507,6.001,1.109,8.966,1.907c1.485,0.39,2.981,0.744,4.45,1.163c1.457,0.461,2.907,0.921,4.347,1.376
		c2.891,0.874,5.623,2.061,8.315,3.05c2.667,1.062,5.179,2.251,7.552,3.378c2.368,1.143,4.565,2.306,6.552,3.46
		c1.909,1.029,3.579,2.122,5.089,3.083l-1.306-6.897C498.944,414.316,497.98,409.202,497.102,404.043z"/>
	<path fill="#FFE56E" d="M502.176,435.112c-2.377-0.919-5.765-2.24-9.858-3.718c-2.026-0.781-4.281-1.48-6.606-2.342
		c-2.337-0.833-4.857-1.559-7.403-2.447c-2.588-0.772-5.228-1.667-7.968-2.372c-2.717-0.785-5.476-1.57-8.266-2.233
		c-1.395-0.326-2.768-0.757-4.163-1.055c-1.393-0.308-2.78-0.615-4.157-0.919c-2.745-0.671-5.473-1.154-8.114-1.678
		c-2.638-0.557-5.211-0.891-7.65-1.317c-2.441-0.431-4.759-0.759-6.91-1.006c-2.159-0.288-4.138-0.552-5.893-0.787
		c-1.76-0.133-3.304-0.309-4.581-0.45c-0.244-0.027-0.47-0.053-0.694-0.079c2.852,14.325,5.496,28.24,7.891,41.653
		c0.229,1.282,0.442,2.535,0.666,3.808c0.181-0.741,0.683-1.354,1.365-1.656c0,0,1.263-0.556,3.542-1.398
		c1.139-0.421,2.529-0.939,4.147-1.466c1.625-0.464,3.48-0.909,5.52-1.363c1.02-0.218,2.082-0.509,3.19-0.693
		c1.113-0.148,2.265-0.301,3.448-0.459c1.189-0.156,2.41-0.316,3.658-0.479c1.251-0.115,2.529-0.126,3.832-0.195
		c1.304-0.054,2.63-0.11,3.973-0.166c1.342-0.033,2.694,0.059,4.062,0.092c2.741,0.035,5.505,0.287,8.259,0.612
		c2.767,0.246,5.487,0.765,8.171,1.229c2.68,0.484,5.267,1.193,7.786,1.773c2.496,0.682,4.894,1.393,7.13,2.176
		c2.252,0.727,4.337,1.554,6.244,2.352c1.687,0.644,3.175,1.378,4.548,2.025c-1.15-9.045-2.693-18.083-4.416-27.146
		C502.692,435.316,502.443,435.218,502.176,435.112z"/>
	<path fill="#FFE56E" d="M492.846,359.39c0,0-1.899-1.314-5.223-3.613c-3.299-2.329-8.003-5.669-13.556-9.781
		c-2.773-2.058-5.777-4.288-8.955-6.646c-3.154-2.385-6.518-4.853-9.927-7.49c-3.424-2.617-6.962-5.321-10.558-8.069
		c-3.577-2.767-7.21-5.578-10.843-8.389c-7.222-5.678-14.509-11.254-21.237-16.62c-3.407-2.622-6.672-5.193-9.744-7.67
		c-3.118-2.405-6.049-4.705-8.727-6.874c-2.578-2.025-4.942-3.884-7.062-5.549c1.043,2.894,2.095,5.786,3.092,8.686
		c1.471,4.29,2.852,8.6,4.141,12.953c0.643,2.159,1.281,4.474,1.817,6.559c0.536,2.168,1.07,4.331,1.603,6.488
		c3.394,13.862,6.522,27.489,9.498,40.865c0.736-0.023,2.081-0.057,3.941-0.065c1.463-0.002,3.245-0.009,5.288,0.053
		c2.048,0.032,4.324,0.326,6.827,0.582c1.253,0.134,2.558,0.273,3.909,0.417c1.35,0.159,2.711,0.484,4.132,0.731
		c2.821,0.572,5.865,0.984,8.874,1.907c3.019,0.876,6.235,1.533,9.32,2.731c3.105,1.134,6.333,2.113,9.395,3.504
		c1.541,0.668,3.083,1.336,4.618,2.002c1.524,0.69,3.009,1.449,4.499,2.163c2.988,1.417,5.786,3.088,8.524,4.631
		c2.749,1.526,5.239,3.296,7.658,4.852c2.368,1.648,4.582,3.228,6.543,4.812c1.431,1.081,2.685,2.146,3.867,3.172
		c-0.475-4.352-0.839-8.728-1.033-13.24c-0.129-2.71-0.041-5.211-0.071-7.827c0.037-1.714,0.104-3.314,0.192-4.902
		C493.366,359.68,493.093,359.562,492.846,359.39z"/>
	<path fill="#FFE56E" d="M485.77,311.55c-3.23-3.573-6.873-7.605-10.848-12.003c-4.071-4.319-8.439-9.029-13.023-14.038
		c-4.713-4.903-9.644-10.103-14.71-15.514c-5.15-5.339-10.471-10.855-15.879-16.461c-5.448-5.57-10.983-11.229-16.518-16.888
		c-5.547-5.65-11.061-11.332-16.599-16.822c-5.492-5.537-10.897-10.986-16.127-16.259c-10.485-10.536-20.271-20.369-28.659-28.798
		c-4.908-4.949-9.319-9.397-13.129-13.239c13.806,34,27.823,67.342,40.438,100.17c0.831,2.171,1.629,4.339,2.444,6.508
		c0.369,0.189,0.751,0.385,1.159,0.596c3.658,1.842,8.714,4.715,14.694,8.324c2.971,1.822,6.177,3.822,9.518,6.009
		c3.329,2.195,6.837,4.52,10.395,7.021c3.541,2.516,7.252,5.056,10.891,7.804c3.635,2.75,7.402,5.453,11.035,8.321
		c3.629,2.872,7.259,5.744,10.831,8.571c3.553,2.851,6.974,5.749,10.302,8.528c3.353,2.75,6.463,5.568,9.471,8.167
		c3.009,2.598,5.766,5.159,8.337,7.491c6.703,6.129,11.737,11.135,14.427,13.874c0.479-4.156,1.205-8.301,2.283-12.388
		c1.059-4.08,2.455-8.106,4.286-11.961c-0.918-1.04-3.262-3.697-6.762-7.664C491.749,318.296,489.046,315.095,485.77,311.55z"/>
	<path fill="#FFE56E" d="M492.817,531.931c-2.533,0.274-5.149,0.557-7.809,0.845c-2.651,0.297-5.342,0.588-8.014,0.929
		c-2.664,0.354-5.328,0.709-7.951,1.057c-2.607,0.395-5.165,0.757-7.624,1.184c-2.44,0.475-4.801,0.906-7.013,1.379
		c-2.2,0.51-4.266,1.014-6.15,1.525c-1.877,0.538-3.555,1.093-5.054,1.596c-1.442,0.576-2.742,1.043-3.737,1.532
		c-0.279,0.118-0.484,0.225-0.722,0.338c1.823,10.896,4.147,20.993,6.739,30.21c1.027-0.638,2.234-1.441,3.685-2.217
		c1.517-0.824,3.245-1.732,5.158-2.669c1.896-0.99,4.018-1.846,6.262-2.793c2.23-0.996,4.637-1.844,7.138-2.712
		c2.491-0.91,5.095-1.711,7.758-2.492c2.652-0.826,5.393-1.435,8.119-2.131c2.735-0.646,5.487-1.202,8.197-1.736
		c2.721-0.468,5.403-0.916,8.003-1.286c2.595-0.408,5.128-0.648,7.522-0.892c2.39-0.28,4.671-0.387,6.769-0.518
		c3.258-0.188,6.088-0.228,8.354-0.205c-1.209-3.555-2.264-7.056-3.284-10.64c-1.174-4.234-2.255-8.489-3.218-12.77
		c-2.348,0.286-5.472,0.652-9.19,1.035c-2.044,0.211-4.259,0.441-6.601,0.683C497.816,531.391,495.36,531.727,492.817,531.931z"/>
	<path fill="#FFE56E" d="M314.924,376.801c-3.66-1.678-7.388-3.376-11.202-5.098c-16.992-7.616-35.597-15.464-55.599-22.461
		c-5.006-1.674-10.127-3.312-15.255-4.91c-5.329-1.554-10.513-3-15.932-4.359c-10.776-2.736-21.889-5.124-33.25-7.154
		c-11.366-1.987-22.996-3.592-34.781-4.536c-11.745-0.917-23.802-1.344-35.353-0.193c-2.867,0.295-5.702,0.736-8.234,1.405
		c-1.273,0.326-2.411,0.739-3.357,1.152c-0.017,0.011-0.039,0.022-0.057,0.034c0.036,0.105,0.063,0.201,0.104,0.31
		c0.407,1.088,0.963,2.316,1.612,3.557c1.279,2.487,2.838,5.032,4.447,7.544c4.306,6.627,9.088,13.128,14.038,19.547
		c0.33-0.145,0.683-0.239,1.059-0.245c0,0,4.449-0.062,12.129,0.218c7.691,0.301,18.673,0.905,31.792,2.285
		c6.56,0.677,13.663,1.491,21.146,2.572c7.482,1.08,15.375,2.252,23.486,3.791c8.114,1.51,16.489,3.159,24.941,5.121
		c8.454,1.949,16.991,4.162,25.498,6.499c8.485,2.424,16.912,5.059,25.136,7.884c4.108,1.424,8.2,2.79,12.163,4.372
		c3.99,1.503,7.914,3.036,11.732,4.657c1.827,0.756,3.638,1.505,5.435,2.248C315.486,392.938,314.773,384.831,314.924,376.801z"/>
	<path fill="#FABF1B" d="M322.404,403.625c1.815,0.83,3.61,1.65,5.384,2.461c1.75,0.864,3.479,1.718,5.185,2.56
		c3.419,1.665,6.726,3.318,9.863,5.05c3.135,1.731,6.201,3.321,9.036,5.063c2.851,1.707,5.611,3.285,8.178,4.887
		c2.53,1.662,4.93,3.238,7.186,4.719c4.507,2.959,8.226,5.864,11.37,8.105c1.845,1.437,3.391,2.696,4.708,3.775
		c-0.047-1.69-0.078-3.258-0.099-4.672c-0.075-2.97-0.001-5.305,0.005-6.911c0.032-1.597,0.049-2.449,0.049-2.449
		c0.031-1.526,1.292-2.739,2.819-2.708c0.866,0.017,1.629,0.432,2.123,1.065c1.066-3.73,1.358-7.547,1.454-11.36
		c-1.511-0.781-3.059-1.582-4.689-2.425c-9.689-4.976-21.515-10.899-35.14-17.553c-10.582-5.121-22.28-10.637-34.911-16.428
		c-0.151,8.029,0.562,16.137,1.699,24.241c0.086,0.035,0.174,0.072,0.26,0.107C318.741,401.983,320.583,402.809,322.404,403.625z"/>
	<path fill="#3DA79D" d="M446.321,596.691c-6.369-16.088-12.491-36.156-16.34-59.984c-0.462-2.985-0.879-6.032-1.196-9.159
		c-0.187-1.554-0.281-3.15-0.423-4.743l-0.132-2.426l-0.147-2.269c-0.222-3.147-0.419-6.363-0.845-9.444
		c-0.349-3.113-0.737-6.29-1.248-9.575c-1.915-13.053-4.254-26.809-6.987-41.115c-2.018-10.66-4.196-21.642-6.518-32.906
		c-1.277-0.676-2.953-1.563-5.049-2.672c-4.31-2.229-10.315-5.334-17.771-9.19c-0.096,3.814-0.388,7.63-1.454,11.36
		c0.304,0.39,0.507,0.862,0.567,1.377l0.005,0.044c0,0,0.097,0.828,0.278,2.38c0.2,1.552,0.494,3.827,0.868,6.723
		c0.397,2.896,0.879,6.413,1.433,10.446c0.613,4.021,1.304,8.557,2.058,13.505c0.813,4.935,1.748,10.267,2.784,15.888
		c1.041,5.619,2.259,11.52,3.616,17.581c0.655,3.038,1.349,6.118,2.167,9.2c0.776,3.094,1.561,6.228,2.462,9.34
		c1.679,6.271,3.653,12.547,5.864,18.699c1.218,3.022,2.153,6.184,3.481,9.124c1.314,2.937,2.483,5.981,3.889,8.795
		c2.939,6.025,5.729,11.648,8.687,17.058c2.995,5.42,5.962,10.628,8.935,15.471c1.477,2.429,2.943,4.775,4.425,7.001
		c1.419,2.272,2.856,4.421,4.256,6.472c0.923,1.355,1.823,2.65,2.71,3.916C446.571,597.283,446.444,597,446.321,596.691z"/>
	<path fill="#FFE56E" d="M510.77,498.909c-0.511,0.024-1.089,0.052-1.806,0.086c-2.257,0.085-5.484,0.212-9.331,0.286
		c-1.921,0.044-4.002,0.091-6.203,0.142c-2.196,0.003-4.511,0.14-6.898,0.141c-2.389-0.014-4.85,0.148-7.351,0.173
		c-2.495,0.07-5.029,0.142-7.564,0.214c-2.526,0.102-5.052,0.205-7.538,0.306c-2.47,0.191-4.94,0.143-7.285,0.357
		c-1.179,0.08-2.338,0.158-3.473,0.235c-1.145,0.028-2.254,0.102-3.328,0.209c-2.144,0.226-4.216,0.295-6.096,0.478
		c-1.872,0.221-3.609,0.372-5.163,0.484c-1.501,0.138-2.782,0.337-3.88,0.444c0.207,1.836,0.445,3.664,0.617,5.501
		c0.39,3.354,0.526,6.526,0.694,9.672l0.113,2.435l0.083,2.247c0.11,1.503,0.168,2.99,0.322,4.478
		c0.246,2.936,0.592,5.838,0.982,8.693c0.634-0.503,1.334-1.022,2.103-1.561c1.516-1.023,3.275-2.12,5.267-3.113
		c1.975-1.035,4.168-2.01,6.527-2.889c2.348-0.91,4.855-1.732,7.477-2.441c2.617-0.699,5.325-1.395,8.101-1.909
		c2.769-0.543,5.596-0.982,8.421-1.336c5.65-0.747,11.318-1.047,16.615-1.16c2.647-0.088,5.21,0.004,7.633,0.054
		c2.423,0.035,4.713,0.209,6.823,0.357c3.014,0.214,5.641,0.515,7.802,0.81c-0.719-3.64-1.397-7.289-1.98-10.954
		C511.801,507.211,511.239,503.08,510.77,498.909z"/>
	<path fill="#FFE56E" d="M508.325,470.908c-2.146-0.479-4.925-1.089-8.209-1.774c-1.909-0.384-3.977-0.8-6.164-1.24
		c-2.167-0.498-4.512-0.749-6.869-1.275c-2.387-0.379-4.846-0.81-7.352-1.147c-2.508-0.32-5.039-0.762-7.589-0.992l-3.81-0.451
		c-1.269-0.104-2.532-0.208-3.786-0.311c-1.255-0.112-2.499-0.224-3.729-0.333c-1.231-0.065-2.447-0.13-3.643-0.193
		c-2.399-0.158-4.713-0.22-6.916-0.251c-2.205-0.046-4.301-0.123-6.226-0.051c-1.927,0.059-3.717,0.032-5.308,0.032
		c-1.569,0.117-2.956,0.162-4.104,0.203c-2.296,0.084-3.647,0.056-3.647,0.056l-0.204-0.004c-0.85-0.017-1.552-0.494-1.974-1.163
		c2.05,11.726,3.881,23.089,5.303,34.082c0.856-0.405,1.785-0.841,2.879-1.231c1.537-0.573,3.287-1.195,5.218-1.816
		c1.925-0.654,4.043-1.141,6.294-1.694c2.245-0.618,4.635-0.975,7.117-1.403c2.481-0.461,5.047-0.723,7.667-1.014
		c2.617-0.294,5.278-0.376,7.941-0.534c2.66-0.07,5.321-0.11,7.936-0.068c2.612,0.09,5.185,0.178,7.663,0.362
		c2.482,0.123,4.872,0.422,7.133,0.681c2.264,0.218,4.391,0.607,6.353,0.915c3.923,0.657,7.161,1.409,9.42,2.012
		c0.135,0.033,0.234,0.065,0.362,0.099c-0.376-4.183-0.615-8.237-0.945-12.387C508.938,476.98,508.646,473.944,508.325,470.908z"/>
	<path fill="#FABF1B" d="M357.064,478.548c4.458,1.068,8.664,2.074,12.512,3.148c3.834,1.175,7.326,2.304,10.407,3.326
		c3.107,0.913,5.69,2.206,7.864,3.039c0.05,0.021,0.092,0.039,0.142,0.06c-0.146-0.9-0.304-1.805-0.428-2.697
		c-0.461-3.04-0.944-6.008-1.29-8.911c-0.201-1.426-0.383-2.834-0.55-4.224c-1.369-0.516-3.074-1.157-5.106-1.922
		c-2.802-1.099-6.204-2.433-10.107-3.963c-3.99-1.317-8.475-2.819-13.336-4.513c-4.831-1.772-10.216-3.272-15.862-4.974
		c-2.823-0.844-5.723-1.711-8.688-2.597c-1.844-0.478-3.719-0.965-5.609-1.455c1.803,7.236,3.735,14.373,5.795,21.418
		c3.439,0.464,6.842,0.946,10.144,1.506C347.86,476.69,352.607,477.493,357.064,478.548z"/>
	<path fill="#FFE56E" d="M323.448,451.941c-3.111-0.81-6.273-1.633-9.475-2.467c-3.231-0.725-6.501-1.458-9.797-2.197
		c-3.299-0.726-6.599-1.56-9.955-2.211c-3.358-0.643-6.73-1.288-10.102-1.934c-6.711-1.452-13.523-2.394-20.188-3.536
		c-6.676-1.079-13.279-1.967-19.662-2.869c-6.412-0.655-12.579-1.661-18.474-2.156c-2.943-0.304-5.807-0.599-8.576-0.885
		c-2.774-0.245-5.454-0.483-8.027-0.71c-10.298-0.899-18.904-1.436-24.927-1.764c-0.756-0.038-1.471-0.074-2.143-0.108
		c14.625,15.502,29.356,30.459,44.134,44.517c0.38-0.325,0.823-0.578,1.338-0.659c0,0,0.652-0.104,1.876-0.298
		c1.236-0.18,3.047-0.493,5.339-0.763c4.592-0.606,11.16-1.304,19.065-1.865c3.953-0.219,8.237-0.584,12.776-0.672
		c4.537-0.146,9.327-0.35,14.283-0.29c4.955-0.035,10.081,0.055,15.287,0.212c5.206,0.14,10.492,0.553,15.781,0.82
		c5.285,0.4,10.56,0.98,15.753,1.502c1.702,0.219,3.375,0.448,5.054,0.674c-2.059-7.045-3.992-14.182-5.795-21.418
		C325.83,452.558,324.646,452.251,323.448,451.941z"/>
	<path fill="#FFE56E" d="M383.918,591.627c-3.301,1.571-6.382,3.036-9.023,4.293c-1.974,0.935-3.715,1.745-5.13,2.392
		c8.933,9.147,16.173,17.888,21.834,25.566c0.48,0.692,0.941,1.347,1.408,2.013c0.375-0.774,0.827-1.687,1.435-2.668
		c0.627-1.021,1.333-2.185,2.227-3.338c0.872-1.175,1.829-2.442,2.967-3.649c1.097-1.263,2.323-2.491,3.623-3.756
		c0.06-0.054,0.125-0.11,0.185-0.164c-5.934-7.138-11.529-14.465-16.779-21.99C385.737,590.767,384.818,591.202,383.918,591.627z"/>
	<path fill="#FABF1B" d="M412.078,605.545c1.595-1.033,3.176-2.098,4.83-2.957c1.634-0.894,3.236-1.794,4.858-2.5
		c1.61-0.732,3.183-1.406,4.694-1.986c1.513-0.57,2.965-1.056,4.319-1.465c1.321-0.455,2.567-0.779,3.693-1.011
		c-2.437-3.111-4.918-6.462-7.381-10.042c-2.342-3.309-4.668-6.825-6.96-10.491c-0.017,0.008-0.029,0.014-0.046,0.022
		c-0.794,0.365-1.751,0.811-2.858,1.255c-1.092,0.511-2.315,1.1-3.662,1.661c-2.676,1.18-5.78,2.548-9.068,4.061
		c-1.652,0.738-3.36,1.481-5.077,2.294c-1.725,0.788-3.487,1.564-5.225,2.404c-1.748,0.819-3.496,1.638-5.217,2.444
		c-0.778,0.368-1.548,0.732-2.313,1.094c5.25,7.525,10.844,14.851,16.779,21.99c1.279-1.149,2.606-2.339,4.024-3.438
		C408.964,607.747,410.471,606.555,412.078,605.545z"/>
	<path fill="#FFE56E" d="M518.507,614.912c0,0,0.584-0.747,1.713-1.991c1.101-1.301,2.863-2.873,5.094-4.657
		c0.99-0.742,2.085-1.53,3.25-2.313c-0.486-0.35-0.967-0.711-1.424-1.11c-1.057-0.806-1.996-1.77-2.947-2.725
		c-0.876-1.023-1.813-2.019-2.551-3.171c-0.815-1.102-1.47-2.308-2.133-3.516c-0.576-1.246-1.165-2.5-1.573-3.815
		c-0.463-1.299-0.767-2.644-1.032-3.984c-0.268-1.347-0.408-2.698-0.528-4.055c-0.169-2.708-0.048-5.402,0.29-8.041
		c0.331-2.642,0.921-5.22,1.648-7.737c0.711-2.439,1.578-4.815,2.564-7.138c-1.634,0.411-3.479,0.864-5.495,1.341
		c-1.994,0.472-4.154,0.983-6.439,1.524c-2.291,0.489-4.678,1.143-7.174,1.657c-4.958,1.143-10.248,2.363-15.537,3.583
		c-2.633,0.621-5.267,1.242-7.86,1.853c-2.573,0.665-5.161,1.151-7.602,1.806c-2.442,0.655-4.857,1.146-7.095,1.746
		c-2.257,0.566-4.391,1.101-6.36,1.595c-1.951,0.545-3.765,0.996-5.388,1.376c-1.604,0.429-3.002,0.802-4.153,1.11
		c-0.214,0.056-0.376,0.095-0.573,0.145c1.727,5.658,3.53,10.985,5.366,15.859c5.952,15.67,12.456,27.235,18.253,33.578
		c2.81,3.156,5.517,5.226,7.098,6.052c0.703,0.53,1.755,0.85,2.239,1.099c0.549,0.239,0.829,0.36,0.829,0.36
		c0.103,0.044,0.193,0.105,0.288,0.16c10.417-10.76,23.879-15.43,37.158-20.464C518.46,614.997,518.477,614.951,518.507,614.912z"/>
	<path fill="#FFE56E" d="M519.187,305.993c-8.803-11.523-17.974-23.176-27.447-34.985c-10.953-13.696-22.235-27.624-33.852-41.671
		c-23.23-28.096-47.653-56.8-73.059-85.4c-12.714-14.286-25.672-28.555-38.99-42.521c-6.661-6.977-13.417-13.878-20.325-20.555
		c-3.453-3.335-6.959-6.604-10.507-9.732c-3.064-2.677-6.245-5.351-9.323-7.46c0.535,3.962,1.619,8.291,2.813,12.536
		c2.59,9.098,5.781,18.209,9.06,27.251c5.291,14.465,10.936,28.806,16.653,43.046c5.248,4.308,14.278,11.86,25.38,21.709
		c4.443,3.986,9.308,8.252,14.32,12.906c5.014,4.652,10.381,9.478,15.746,14.666c5.41,5.141,10.996,10.461,16.573,15.97
		c5.601,5.483,11.185,11.164,16.802,16.813c5.62,5.644,11.024,11.509,16.459,17.162c5.403,5.689,10.538,11.466,15.577,16.984
		c4.973,5.587,9.695,11.065,14.163,16.262c4.402,5.266,8.509,10.29,12.271,14.945c3.736,4.684,7.03,9.091,9.973,12.966
		c2.997,3.829,5.376,7.368,7.384,10.234c1.953,2.848,3.488,5.087,4.546,6.63c1.137-1.886,2.38-3.748,3.756-5.413
		c1.727-2.124,3.902-4.208,5.826-5.797l0.133-0.11c0.15-0.124,0.31-0.229,0.476-0.316
		C515.099,309.789,517.014,307.771,519.187,305.993z"/>
	<path fill="#3DA79D" d="M510.829,847.569c-22.871-18.056-34.441-47.409-39.1-77.544l-1.513,27.536
		c0.133,1.793,0.306,4.127,0.619,6.985c0.316,3.478,0.866,7.679,1.593,12.454c0.411,2.38,0.787,4.921,1.392,7.55
		c0.497,2.653,1.164,5.398,1.889,8.249c1.54,5.669,3.483,11.71,6.159,17.745c2.704,6.014,6.185,12.001,10.582,17.367
		c4.463,5.297,10.002,9.773,16.303,12.596c6.338,2.727,13.422,3.546,20.338,2.324c3.437-0.608,6.901-1.738,10.073-3.169l2.305-1.104
		l2.616-1.495c0.617-0.302,1.282-0.902,1.928-1.324l0.982-0.686l0.858-0.819c1.218-1.016,2.162-2.29,3.188-3.493
		c0.845-1.36,1.759-2.667,2.393-4.189c1.366-2.958,2.346-6.198,2.828-9.583c0.238-1.44,0.401-2.896,0.521-4.356
		C540.082,857.778,521.88,856.611,510.829,847.569z"/>
	<path fill="#3DA79D" d="M416.288,820.759c-7.176-15.547-6.244-35.148-5.793-54.509c-0.981,2.184-2.007,4.466-3.078,6.85
		c-4.409,10.011-9.577,21.7-13.833,34.34c-2.074,6.304-3.865,12.927-4.521,19.365c-0.301,3.203-0.302,6.367,0.261,9.183
		c0.562,2.826,1.699,5.176,3.368,7.1c1.664,1.934,4.055,3.442,6.864,4.543c0.658,0.326,1.42,0.531,2.161,0.762
		c0.742,0.218,1.479,0.507,2.221,0.63l2.214,0.497c0.784,0.159,1.762,0.264,2.631,0.398c3.205,0.475,6.33,0.594,9.398,0.404
		c3.047-0.274,6.003-0.878,8.793-1.867c4.781-1.777,9.144-4.481,12.835-7.828C429.233,837.036,420.625,829.434,416.288,820.759z"/>
	<path fill="#3DA79D" d="M534.817,476.461c-19.792-39.584-14.595-94.434,14.609-128.05c-7.988-12.267-16.568-24.662-26.06-36.942
		c-1.375-1.819-2.784-3.65-4.179-5.476c-2.173,1.778-4.088,3.796-5.591,6.122c1.131-0.594,2.56-0.338,3.405,0.686
		c0.907,1.099,0.811,2.701-0.167,3.695c-1.889,1.908-3.303,3.584-4.674,5.612c-1.353,2.047-2.498,4.062-3.511,6.28
		c-2.003,4.394-3.382,9.102-4.321,13.919c-0.939,4.821-1.359,9.771-1.541,14.736c-0.084,2.442-0.062,5.078,0,7.38
		c0.159,2.556,0.208,5.237,0.458,7.69c0.409,4.884,0.977,9.933,1.786,14.942c0.732,5.014,1.734,10.023,2.685,15.055
		c1.931,10.061,4.211,20.148,6.249,30.362c2.008,10.219,3.851,20.554,5.154,31.024c0.638,5.236,1.11,10.505,1.415,15.796
		c0.352,5.109,0.579,10.4,1.075,15.335c0.453,5.007,1.002,10.101,1.666,15.129c0.664,5.041,1.47,10.063,2.394,15.061
		c0.944,4.995,1.946,9.978,3.112,14.918c1.158,4.9,2.505,9.92,3.989,14.506l0.098,0.303c0.436,1.349,0.172,2.774-0.572,3.86
		c-0.519,0.747-1.161,1.793-1.704,2.742c-0.554,0.981-1.101,1.974-1.599,2.992c-1.013,2.028-1.913,4.113-2.667,6.233
		c-1.491,4.241-2.466,8.621-2.523,12.947c0.021,1.074,0.047,2.151,0.18,3.209c0.13,1.055,0.281,2.117,0.567,3.133
		c0.223,1.041,0.593,2.029,0.943,3.034c0.435,0.965,0.846,1.95,1.41,2.862c0.486,0.957,1.172,1.8,1.792,2.689
		c0.71,0.825,1.369,1.704,2.184,2.463c0.748,0.819,1.623,1.526,2.482,2.258c0.017,0.014,0.036,0.026,0.053,0.04
		c1.535-0.789,3.117-1.64,4.766-2.381c1.661-0.738,3.355-1.508,5.08-2.146c3.435-1.347,6.938-2.473,10.258-3.363
		c0.474-0.139,0.941-0.244,1.411-0.36c-1.577-3.734-2.38-7.848-3.182-11.053C546.105,547.014,551.749,510.327,534.817,476.461z"/>
	<path fill="#3DA79D" d="M416.288,696.586c9.877-8.466,21.166-15.522,32.454-23.988c11.276-10.023,21.434-20.058,30.485-32.057
		c-0.124-0.031-0.248-0.059-0.369-0.107c0,0-0.282-0.115-0.837-0.34c-0.588-0.283-1.3-0.421-2.582-1.186
		c-0.606-0.342-1.315-0.724-2.035-1.172c-0.65-0.471-1.362-0.987-2.136-1.548c-1.478-1.181-3.11-2.627-4.756-4.401
		c-0.447-0.473-0.901-1.024-1.351-1.541c-0.631,0.296-1.355,0.636-2.28,1.07c-2.77,1.336-6.833,3.295-12.003,5.788
		c-10.322,5.009-25.001,12.374-42.066,21.969c-4.258,2.41-8.644,4.985-13.122,7.723c-2.186,1.386-4.408,2.796-6.665,4.227
		c-2.254,1.549-4.634,3.093-6.88,4.71c-8.93,6.334-18.344,13.804-27.986,21.371c-11.68,9.252-23.767,19.012-36.146,28.846
		C352.735,730.608,387.892,719.521,416.288,696.586z"/>
	<path fill="#3DA79D" d="M164.745,912.05c-4.703,5.646-10.072,12.183-15.977,19.471c-5.146,6.365-10.617,13.337-16.246,20.775
		c-5.592,7.439-11.332,15.472-16.356,23.927c-1.232,2.113-2.397,4.265-3.36,6.391c-0.774,1.698-1.441,3.523-1.717,4.878
		c1.361-0.06,3.284-0.393,5.146-0.909c4.656-1.266,9.538-3.266,14.329-5.45c4.807-2.197,9.586-4.646,14.314-7.215
		c9.462-5.137,18.776-10.692,27.753-16.469c8.964-5.8,17.696-11.682,25.978-17.616c8.263-5.959,16.152-11.867,23.5-17.639
		c7.328-5.796,14.145-11.419,20.327-16.736c8.273-7.169,15.411-13.719,21.218-19.347l13.335-17.187
		c-22.337,18.533-49.856,32.28-78.005,37.91C187.52,909.531,176.056,911.566,164.745,912.05z"/>
	<path fill="#3DA79D" d="M243.362,998.63c-7.776,12.244-17.314,27.261-28.173,44.359c-7.515,11.864-15.604,24.748-24.015,38.446
		c-8.344,13.596-17.021,28.044-25.489,43.072c1.076-1.161,2.152-2.321,3.225-3.496c12.266-13.538,24.287-27.873,36.167-42.291
		c11.877-14.432,23.662-28.96,35.078-43.405c11.398-14.459,22.588-28.713,33.192-42.661c5.307-6.97,10.454-13.872,15.444-20.647
		c5.002-6.763,9.831-13.428,14.293-19.994c7.114-10.433,13.918-20.412,20.344-29.837c-7.22,9.176-14.007,19.005-21.437,29.812
		C288.331,973.845,264.1,985.129,243.362,998.63z"/>
	<path fill="#3DA79D" d="M208.863,999.963c-6.79,3.772-15.197,4.309-23.921,3.999c-5.994,7.757-11.917,15.847-17.805,24.084
		c-8.597,12.04-17.063,24.486-24.966,37.188c-3.916,6.361-7.788,12.752-11.177,19.208c-0.895,1.721-1.764,3.454-2.563,5.171
		c0.001-0.001,0.003-0.002,0.004-0.003c2.766-2.225,5.517-4.558,8.226-6.919c5.418-4.732,10.687-9.59,15.828-14.418
		c20.533-19.384,39.273-38.089,55.372-54.058c18.927-18.918,34.129-34.112,43.424-43.401l53.606-70.874
		c-10.08,3.427-18.289,9.586-25.475,16.771C251.194,942.11,242.728,983.03,208.863,999.963z"/>
	<path fill="#3DA79D" d="M171.513,857.965c-1.838,1.495-3.716,3.022-5.628,4.577c-3.75,3.034-7.562,6.236-11.43,9.469
		c-3.877,3.219-7.75,6.545-11.474,9.952c-3.682,3.385-7.479,6.837-10.279,10.278c-0.388,0.453-0.724,0.896-1.026,1.32
		c1.719,0.154,3.731,0.077,5.697-0.054c2.152-0.119,4.335-0.403,6.451-0.675c4.247-0.623,8.315-1.356,12.077-2.065
		c7.513-1.49,13.814-2.872,18.222-3.841c1.146-0.253,2.156-0.476,3.035-0.669l27.05-15.888c-8.649-0.209-17.501-2.916-24.978-7.278
		C176.555,861.485,173.881,859.878,171.513,857.965z"/>
	<path fill="#3DA79D" d="M198.985,803.826c-0.963-0.77-1.867-1.597-2.713-2.469c-0.353,0.193-0.721,0.389-1.072,0.581
		c-9.795,5.452-19.048,10.731-26.873,16.16c-1.951,1.358-3.762,2.748-5.394,4.135c-0.758,0.698-1.531,1.394-2.084,2.045
		c-0.297,0.287-0.421,0.503-0.582,0.721c0.232,0.116,0.5,0.234,0.809,0.328c1.523,0.523,3.426,0.833,5.26,1.044
		c7.522,0.714,14.532,0.293,20.177-0.036c5.679-0.395,10.161-0.783,13.206-1.097c1.483-0.164,2.623-0.29,3.405-0.377
		c0.019-0.011,0.055-0.031,0.055-0.031c0.508-0.286,1.061-0.344,1.6-0.295c0.589-0.17,1.141-0.32,1.775-0.513
		c2.382-0.709,5.085-1.427,7.995-2.465c2.913-1.008,6.098-1.989,9.408-3.278c3.319-1.251,6.841-2.503,10.43-3.987
		c2.401-0.959,4.865-1.957,7.346-2.983C226.781,813.23,212.247,813.299,198.985,803.826z"/>
	<path fill="#96D2B8" d="M559.647,729.035l0.028,0.013c0,0,1.345,0.627,3.793,1.843c1.66-0.834,3.39-1.486,5.214-1.851
		c55.031-9.877,97.363-52.209,111.473-101.596c3.48-13.05,6.412-32.533,1.874-48.535l0,0.001
		c-1.405-6.754-4.265-13.063-7.834-18.925c-0.057,0.036-0.109,0.078-0.17,0.11c-1.158,0.593-2.573,0.154-3.196-0.978l-0.013-0.024
		c0,0-2.043-3.72-5.888-10.72c-4.393-7.997-11.137-20.276-19.882-36.196c-8.246-14.902-18.294-32.98-30.015-53.598
		c-11.753-20.598-25.086-43.795-40.008-68.84c-8.049-13.352-16.433-27.255-25.597-41.328
		c-29.205,33.616-34.402,88.466-14.609,128.05c16.933,33.865,11.288,70.553,16.933,107.24c0.801,3.205,1.605,7.32,3.182,11.053
		c1.165-0.288,2.316-0.543,3.406-0.805c1.531-0.364,3.007-0.597,4.359-0.842c2.715-0.456,5.002-0.703,6.618-0.82
		c1.616-0.126,2.558-0.12,2.558-0.12c1.253,0.008,2.262,1.029,2.254,2.282c-0.005,0.887-0.522,1.653-1.267,2.021
		c0,0-0.811,0.399-2.242,1.041c-1.435,0.635-3.488,1.543-5.963,2.533c-1.408,0.593-2.969,1.21-4.613,1.854
		c0.06,0.047,0.113,0.099,0.174,0.145c-0.061-0.045-0.114-0.098-0.174-0.145c-1.231,0.483-2.503,0.98-3.819,1.504
		c-3.072,1.179-6.349,2.437-9.626,3.695c-1.627,0.629-3.254,1.257-4.856,1.876c-1.591,0.627-3.157,1.245-4.672,1.842
		c-1.497,0.62-2.945,1.214-4.345,1.745c-1.346,0.606-2.63,1.163-3.849,1.64c-1.178,0.531-2.234,1.044-3.219,1.455
		c-0.988,0.415-1.784,0.838-2.469,1.171c-1.363,0.671-2.203,1.018-2.203,1.018l-0.189,0.078c-0.999,0.412-2.143-0.063-2.555-1.061
		c-0.258-0.625-0.155-1.301,0.193-1.825c-13.28,5.034-26.742,9.703-37.158,20.464c0.401,0.232,0.718,0.558,0.952,0.931
		c0.125-0.177,0.256-0.344,0.381-0.522c-0.125,0.178-0.256,0.345-0.381,0.522c0.462,0.737,0.577,1.673,0.207,2.534
		c-0.54,1.259-1.916,1.893-3.206,1.575c-9.051,11.999-19.209,22.034-30.485,32.057c-11.288,8.466-22.577,15.522-32.454,23.988
		c-28.396,22.935-63.553,34.022-98.276,29.363c-8.069,6.41-16.26,12.849-24.553,19.202c-5.246,4.04-10.613,7.955-16.013,11.823
		c-5.502,3.802-10.875,7.608-16.936,10.978c-3.06,1.799-5.847,3.098-8.736,4.604c-2.863,1.449-5.713,2.89-8.545,4.323
		c-5.649,2.873-11.229,5.711-16.718,8.503c-10.539,5.451-20.696,10.757-30.239,15.975c0.847,0.872,1.751,1.699,2.713,2.469
		c13.262,9.473,27.796,9.404,42.747,7.483c1.241-0.514,2.48-1.021,3.73-1.562c3.766-1.573,7.572-3.223,11.359-4.927
		c3.804-1.661,7.574-3.409,11.29-5.119c3.726-1.687,7.346-3.456,10.875-5.111c7.032-3.368,13.564-6.585,19.138-9.392
		c11.157-5.614,18.483-9.535,18.483-9.535c0.971-0.52,2.18-0.154,2.699,0.817c0.507,0.947,0.165,2.123-0.752,2.663
		c0,0-28.841,16.913-58.928,31.67c-3.748,1.867-7.525,3.685-11.269,5.426c-3.719,1.789-7.438,3.442-11.036,5.046
		c-3.576,1.646-7.124,3.069-10.459,4.478c-3.317,1.443-6.569,2.591-9.524,3.745c-2.941,1.18-5.75,2.053-8.208,2.89
		c-2.451,0.849-4.616,1.542-6.461,2c-1.389,0.378-2.547,0.694-3.454,0.941c-3.333,2.773-7.695,6.37-12.819,10.521
		c-4.474,3.639-9.506,7.731-14.885,12.105c2.368,1.913,5.042,3.52,7.717,5.126c7.477,4.362,16.329,7.068,24.978,7.278l68.608-40.298
		c0.95-0.558,2.172-0.24,2.73,0.71c0.542,0.922,0.254,2.104-0.633,2.682l-97.04,63.083c-1.13,1.325-2.39,2.803-3.808,4.467
		c-2.666,3.1-5.814,6.829-9.32,11.039c11.311-0.484,22.775-2.519,34.24-5.216c28.149-5.63,55.667-19.377,78.005-37.91l49.582-63.901
		c0.675-0.87,1.928-1.028,2.798-0.353c0.846,0.656,1.016,1.861,0.406,2.727l-43.835,61.987c-0.033,0.483-0.146,0.963-0.437,1.384
		c0,0-1.082,1.555-3.111,4.472c-2.046,2.903-4.983,7.207-8.853,12.588c-7.735,10.766-18.67,26.231-32.235,44.48
		c-6.779,9.127-14.146,19.003-22.166,29.301c-3.994,5.161-8.135,10.438-12.465,15.79c-4.211,5.368-9.074,10.813-13.396,16.069
		c-2.797,3.409-5.573,6.92-8.335,10.494c8.723,0.31,17.13-0.227,23.921-3.999c33.865-16.933,42.332-57.853,70.553-83.252
		c7.185-7.185,15.394-13.343,25.475-16.771l50.305-66.51c0.665-0.878,1.915-1.052,2.794-0.387c0.863,0.653,1.044,1.874,0.419,2.75
		l-104.36,146.012c-3.03,4.77-6.622,10.426-10.686,16.826c20.738-13.501,44.969-24.785,58.63-46.643
		c7.43-10.807,14.217-20.636,21.437-29.812c1.773-2.6,3.522-5.166,5.235-7.678c7.898-11.631,15.227-22.234,21.761-31.606
		c6.514-9.386,12.194-17.568,16.87-24.306c5.236-7.464,9.219-13.143,11.73-16.723c-0.402-1.228-0.722-2.462-0.943-3.675
		c-0.806-4.387-0.685-8.58-0.265-12.551c0.873-7.959,3.214-15.062,5.641-21.74c2.445-6.677,5.238-12.858,8.014-18.623
		c2.743-5.78,5.528-11.116,8.174-15.987c5.241-9.769,9.92-17.695,13.211-23.234c3.301-5.532,5.256-8.652,5.256-8.652l0.014-0.023
		c0.706-1.126,2.19-1.467,3.316-0.761c1.025,0.642,1.399,1.931,0.925,3.007c0,0-1.479,3.365-4.067,9.254
		c-2.002,4.456-4.662,10.375-7.806,17.372c-0.451,19.361-1.383,38.962,5.793,54.509c4.338,8.675,12.945,16.277,23.521,19.868
		c0.583-0.529,1.153-1.071,1.702-1.631c4.062-4.049,7.378-8.604,10.048-13.091c4.636-7.781,7.597-15.158,9.601-20.839l8.469-69.483
		c0.133-1.094,1.128-1.872,2.222-1.739c1.047,0.128,1.805,1.057,1.75,2.095l-1.873,34.085c4.66,30.135,16.229,59.488,39.1,77.544
		c11.051,9.042,29.253,10.209,45.952,5.043c0.441-5.357,0.166-10.8-0.384-15.977c-0.752-6.612-1.981-12.901-3.361-18.661
		c-2.793-11.53-6.007-21.016-8.358-27.596c-0.59-1.638-1.127-3.093-1.602-4.357c-0.043-0.074-0.082-0.14-0.125-0.214
		c-2.233-3.783-4.985-8.309-7.974-13.101c-1.013-0.931-2.009-1.848-2.982-2.743c0.973,0.895,1.97,1.812,2.982,2.743
		c-1.962-3.145-4.023-6.402-6.115-9.65c-10.538-16.414-21.707-32.446-21.707-32.446c-0.632-0.902-0.413-2.146,0.489-2.779
		c0.864-0.605,2.048-0.421,2.701,0.386c0,0,12.264,15.298,23.958,31.073c5.859,7.878,11.574,15.884,15.755,21.991
		c4.175,6.11,6.841,10.304,6.841,10.304l0.016,0.025c0.186,0.292,0.322,0.599,0.431,0.911
		c29.919,24.984,67.535,48.568,98.693,29.575c-0.277-0.756-0.564-1.509-0.87-2.258c-2.006-4.207-4.162-8.394-6.942-12.243
		l-2.01-2.91l-2.16-2.714l-2.154-2.707c-0.821-0.914-1.64-1.825-2.454-2.732c-6.297-6.936-13.005-13.258-19.743-18.883
		c-6.766-5.591-13.33-10.743-19.577-15.276c-12.488-9.077-23.327-16.138-30.96-20.989c-5.741-3.636-9.664-6.014-11.268-6.976
		c-0.535-0.321-0.813-0.485-0.813-0.485c-1.314-0.775-1.75-2.469-0.975-3.783C556.841,728.909,558.375,728.448,559.647,729.035z"/>
	<path fill="#3DA79D" d="M557.347,792.52c0.157,0.45,0.249,0.913,0.268,1.377c5.177,6.609,11.842,14.861,19.889,24.039
		c5.118,5.773,10.784,11.902,17.039,18.031c6.279,6.083,13.183,12.21,20.797,17.436c3.809,2.583,7.83,4.904,11.955,6.536
		c4.114,1.635,8.333,2.531,12.026,2.034c0.926-0.111,1.816-0.32,2.671-0.617c0.844-0.269,1.753-0.706,2.326-1.037
		c0.244-0.078,0.87-0.535,1.385-0.89l0.398-0.276l0.036-0.025c0.026-0.02,0.05-0.039,0.026-0.022l0.081-0.069l0.645-0.555
		l2.584-2.212c3.241-3.12,5.741-6.756,7.342-10.695c1.591-3.949,2.185-8.255,1.853-12.648c-0.364-3.634-1.321-7.268-2.627-10.833
		C624.882,841.089,587.266,817.504,557.347,792.52z"/>
	<path fill="#EDE0B0" d="M572.553,735.565c8.085,4.324,19.529,10.725,32.713,19.403c4.614,3.039,9.446,6.385,14.387,10.032
		c1.133-0.7,2.506-1.549,4.137-2.557c2.389-1.532,5.267-3.417,8.519-5.645c3.251-2.229,6.844-4.852,10.727-7.749
		c1.152-0.876,2.334-1.79,3.53-2.723c-26.526-10.171-54.221-10.398-81.992-14.883C566.651,732.486,569.333,733.858,572.553,735.565z
		"/>
	<path fill="#F7F2DE" d="M890.403,445.418c-7.661-1.094-11.058-8.134-10.23-15.845c-1.392,1.662-2.81,3.302-4.274,4.908
		c-2.027,2.201-4.067,4.403-6.21,6.511c-1.046,1.077-2.166,2.091-3.253,3.134c-1.091,1.041-2.186,2.08-3.336,3.071
		c-1.145,0.995-2.252,2.032-3.435,2.992l-3.594,2.851c-1.184,0.965-2.496,1.814-3.742,2.727l-1.895,1.346l-2.008,1.243
		c-1.365,0.807-2.623,1.715-4.121,2.383c-1.466,0.701-2.871,1.466-4.399,2.101l-4.763,1.704c-1.013,0.216-2.036,0.406-3.057,0.605
		c-0.132,1.284-0.313,2.551-0.55,3.838c-0.49,2.546-1.124,5.093-2.001,7.601c-0.963,2.481-1.982,4.989-3.5,7.339
		c-0.65,1.222-1.619,2.299-2.446,3.445l-1.484,1.584c-0.482,0.527-0.998,1.051-1.669,1.558l-1.919,1.504
		c-0.606,0.431-1.071,0.672-1.614,1.017l-0.786,0.481l-0.196,0.12l-0.098,0.06l-0.332,0.166l-0.035,0.014l-0.07,0.028l-0.562,0.225
		c-0.752,0.296-1.512,0.589-2.281,0.857c-0.757,0.326-1.575,0.351-2.371,0.51c-0.8,0.097-1.613,0.304-2.41,0.276
		c-1.593-0.048-3.236-0.003-4.759-0.409c-3.159-0.507-5.977-1.924-8.627-3.546l-0.398-0.31c-4.475,3.266-9.49,5.504-15.045,6.121
		c-42.513,2.657-78.77,21.578-109.953,47.335c3.971,7.76,6.092,11.902,6.092,11.902c0.573,1.119,0.174,2.468-0.873,3.121
		c3.569,5.862,6.43,12.17,7.834,18.925c4.538,16.002,1.606,35.484-1.874,48.534c-14.111,49.387-56.442,91.719-111.473,101.596
		c-1.825,0.365-3.554,1.017-5.214,1.851c0.344,0.171,0.718,0.358,1.106,0.552c27.771,4.485,55.466,4.712,81.992,14.883
		c2.808-2.191,5.722-4.527,8.721-7.009c4.26-3.565,8.654-7.43,13.133-11.494l1.709-1.568l1.586-1.553
		c1.069-1.051,2.146-2.109,3.229-3.173c2.039-2.249,4.228-4.411,6.203-6.795c4.087-4.656,7.7-9.812,11.167-15.044
		c3.295-5.338,6.478-10.777,8.914-16.467c1.361-2.78,2.379-5.678,3.574-8.468c0.937-2.881,2.08-5.666,2.82-8.522
		c0.83-2.832,1.602-5.628,2.207-8.407c0.722-2.755,1.146-5.506,1.625-8.177c0.521-2.667,0.666-5.307,1.056-7.839
		c0.274-2.523,0.383-4.926,0.581-7.265c0.049-2.456,0.096-4.811,0.141-7.049c0.042-1.991-0.025-4.239-0.072-6.159
		c-0.135-3.933-0.28-7.37-0.473-10.195c-0.202-2.823-0.351-5.044-0.5-6.546c-0.153-1.484-0.234-2.275-0.234-2.275l-0.011-0.109
		c-0.156-1.517,0.947-2.874,2.464-3.03c1.387-0.143,2.64,0.768,2.964,2.084c0,0,0.204,0.826,0.587,2.374
		c0.35,1.536,0.895,3.779,1.408,6.659c0.523,2.878,1.13,6.382,1.62,10.43c0.244,2.072,0.507,4.073,0.696,6.569
		c0.159,2.253,0.316,4.577,0.419,7.085c0,0.109,0.001,0.225,0.001,0.334c59.141-28.773,92.736-91.177,138.669-138.501
		c5.027-5.865,12.05-9.234,19.875-11.6c0.883-1.586,1.765-3.168,2.651-4.765c2.847-5.01,5.884-9.927,9.321-14.565
		c4.619-6.324,9.743-12.288,15.31-17.792C902.085,447.293,896.244,446.67,890.403,445.418z"/>
	<path fill="#EDE0B0" d="M860.77,496.216c-45.933,47.325-79.527,109.728-138.669,138.501c-0.005,2.486,0.053,5.099-0.039,7.756
		c-0.182,2.747-0.249,5.609-0.643,8.516c-0.363,2.911-0.677,5.916-1.296,8.94c-0.289,1.515-0.524,3.061-0.871,4.598
		c-0.384,1.528-0.771,3.071-1.162,4.627c-0.72,3.132-1.854,6.199-2.794,9.37c-0.578,1.549-1.16,3.107-1.745,4.672l-0.884,2.355
		l-1.036,2.303c-0.364,0.866-0.777,1.716-1.17,2.572c6.556-5.34,13.044-10.806,19.398-16.396
		c8.329-7.295,16.478-14.789,24.465-22.44c7.928-7.712,15.724-15.551,23.213-23.659c3.735-4.054,7.427-8.175,11.017-12.323
		c3.54-4.181,7.085-8.317,10.532-12.724c6.881-8.555,13.57-17.524,20.252-26.338c6.673-8.857,13.24-17.784,19.67-26.794
		c12.867-18.015,25.109-36.408,36.16-55.474c1.854-3.18,3.667-6.412,5.476-9.662C872.82,486.982,865.797,490.351,860.77,496.216z"/>
	<path fill="#FFE56E" d="M1043.078,379.68c-9.992,1.516-20.056,3.503-29.155,6.554l-3.648,1.321l-1.63,0.593l-1.832,0.726
		c-2.442,0.972-4.884,1.945-7.338,2.848c-4.899,1.861-9.818,3.612-14.75,5.305c-19.728,6.773-39.628,12.737-59.642,18.321
		c-5.006,1.395-10.014,2.754-15.061,4.049l-7.555,1.917c-2.593,0.591-5.418,1.259-8.071,1.607c-3.282,0.504-6.531,0.856-9.761,1.127
		c-1.457,1.87-2.944,3.711-4.463,5.525c-0.828,7.711,2.569,14.751,10.23,15.845c5.841,1.252,11.683,1.875,17.524,2.075
		c2.634-2.605,5.358-5.116,8.19-7.497c8.802-7.433,18.396-13.858,28.451-19.33c2.5-1.398,5.086-2.617,7.626-3.932l7.786-3.581
		c2.651-1.085,5.356-2.271,7.968-3.266c2.651-0.967,5.094-1.975,7.914-2.909l63.184-21.53c8.028-2.747,16.078-5.431,24.114-8.158
		C1056.429,377.916,1049.724,378.684,1043.078,379.68z"/>
	<path fill="#3DA79D" d="M722.487,484.928c3.812-10.483,5.037-22.252,3.265-33.572c-2.307,2.004-4.53,4.118-6.636,6.368
		c-7.023,7.176-12.659,15.558-19.182,23.91c-6.5,8.236-13.379,16.056-20.436,23.697c-6.595,7.102-13.328,14.033-20.218,20.854
		c3.787,7.29,6.935,13.427,9.404,18.208c0.1,0.196,0.194,0.379,0.292,0.57c7.531-6.22,15.36-12.037,23.499-17.327
		c-0.806,0.384-1.62,0.736-2.443,1.035c0.823-0.299,1.637-0.651,2.443-1.035c2.131-1.385,4.283-2.733,6.456-4.043
		C710.279,514.747,719.098,498.484,722.487,484.928z"/>
	<path fill="#96D2B8" d="M862.756,424.995l-31.023,0.472c-10.287,0.218-20.585,0.603-30.782,1.266
		c-5.027,0.305-10.369,0.729-15.323,1.232l-7.498,0.895l-7.41,1.291c-9.801,1.999-19.353,5.048-28.086,9.657
		c-6.05,3.17-11.702,7.05-16.882,11.549c1.772,11.319,0.547,23.088-3.265,33.572c-3.389,13.557-12.208,29.819-23.555,38.665
		c23.907-14.403,50.438-24.118,79.997-25.965c5.555-0.617,10.57-2.854,15.045-6.121l-1.446-1.127
		c-0.629-0.465-1.201-0.997-1.723-1.592l-1.605-1.737c-0.472-0.641-0.918-1.311-1.367-1.975c-0.972-1.272-1.517-2.877-2.211-4.355
		c-0.264-0.786-0.449-1.615-0.656-2.43c-0.214-0.816-0.398-1.637-0.405-2.501l-0.108-2.568c0.02-0.852,0.204-1.693,0.323-2.542
		c0.174-1.74,0.872-3.258,1.489-4.818c0.267-0.781,0.727-1.535,1.22-2.282c0.478-0.749,0.974-1.489,1.484-2.213
		c0.558-0.849,0.897-1.073,1.336-1.585l1.253-1.35l0.313-0.337l0.157-0.169l0.383-0.377l0.052-0.043l0.105-0.086l0.837-0.688
		l1.685-1.366c1.07-0.958,2.438-1.644,3.67-2.448c1.22-0.83,2.697-1.33,4.053-1.972c1.403-0.563,2.911-0.922,4.377-1.326
		c3.007-0.535,6.102-0.854,9.098-0.468c2.99,0.318,5.915,0.988,8.625,2.069c1.36,0.532,2.688,1.128,3.974,1.816
		c0.61,0.326,1.204,0.69,1.803,1.055c0.526-0.085,1.047-0.185,1.578-0.26l3.581-1.155c1.201-0.45,2.403-1.067,3.611-1.585
		c1.216-0.482,2.389-1.266,3.601-1.871l1.806-0.971l1.768-1.111c1.171-0.762,2.381-1.436,3.527-2.268
		c2.321-1.601,4.618-3.255,6.891-4.991c1.154-0.837,2.27-1.736,3.386-2.639c1.113-0.906,2.254-1.777,3.339-2.726
		c2.206-1.851,4.419-3.711,6.584-5.636c1.564-1.4,3.122-2.825,4.679-4.249C870.929,424.797,866.84,424.888,862.756,424.995z"/>
	<path fill="#FFE56E" d="M363.842,557.246c-2.344,0.718-4.692,1.295-6.918,2.025c-4.506,1.346-8.712,2.602-12.317,3.679
		c-3.612,1.099-6.663,1.963-8.794,2.575c-0.8,0.221-1.423,0.393-1.949,0.539c11.455,9.368,21.873,18.41,30.826,27.186
		c1.264-1.309,3.045-3.049,5.341-4.916c2.81-2.35,6.385-4.908,10.386-7.317c-5.146-7.929-9.958-16.055-14.444-24.379
		C365.265,556.841,364.545,557.046,363.842,557.246z"/>
	<path fill="#FABF1B" d="M395.068,573.906c1.898-0.766,3.833-1.362,5.703-1.928c1.857-0.599,3.712-1.012,5.47-1.382
		c0.875-0.191,1.726-0.378,2.549-0.558c0.84-0.118,1.652-0.232,2.431-0.341c1.553-0.223,2.979-0.392,4.252-0.483
		c0.379-0.023,0.714-0.031,1.065-0.044c-1.491-2.474-2.901-5.083-4.389-7.668c-1.68-2.906-3.034-5.816-4.579-8.771
		c-0.861-1.772-1.697-3.558-2.518-5.354c-0.817,0.126-1.692,0.257-2.688,0.451c-1.492,0.322-3.166,0.657-4.984,0.961
		c-1.816,0.345-3.779,0.867-5.852,1.251c-1.037,0.195-2.097,0.442-3.178,0.743c-1.085,0.25-2.193,0.505-3.32,0.765
		c-2.257,0.463-4.554,1.229-6.92,1.758c-2.355,0.629-4.747,1.268-7.139,1.908c-1.676,0.477-3.338,0.951-5,1.424
		c4.486,8.324,9.297,16.45,14.444,24.379c2.801-1.687,5.805-3.303,8.928-4.714C391.224,575.421,393.14,574.607,395.068,573.906z"/>
	<path fill="#FFE56E" d="M410.574,620.62c-0.117,0.082-0.243,0.171-0.36,0.252c-1.243,0.991-2.602,1.803-3.728,2.728
		c-1.17,0.889-2.276,1.73-3.296,2.506c-1.006,0.797-1.927,1.527-2.744,2.174c-0.802,0.662-1.5,1.239-2.076,1.714
		c-0.552,0.464-0.986,0.828-1.282,1.076c-0.134,0.101-0.245,0.196-0.325,0.268c1.116,1.664,2.158,3.281,3.031,4.844
		c2.213,3.689,4.157,6.784,5.437,9.464c0.825,1.596,1.518,2.937,2.105,4.071c7.685-3.92,14.915-7.293,21.413-10.242
		C422.366,633.363,416.318,627.075,410.574,620.62z"/>
	<path fill="#FABF1B" d="M448.11,630.995c5.323-2.267,9.569-3.898,12.45-5.047c0.338-0.131,0.593-0.229,0.894-0.346
		c-0.841-1.165-1.684-2.405-2.527-3.711c-0.016-0.013-0.026-0.022-0.041-0.035c-1.232-1.054-3.013-2.604-5.167-4.69
		c-2.167-2.073-4.733-4.65-7.555-7.719c-2.228-2.432-4.651-5.159-7.145-8.177c-1.201,0.883-2.745,1.923-4.501,3.175
		c-1.091,0.786-2.286,1.594-3.572,2.393c-1.251,0.863-2.552,1.787-3.935,2.666c-1.402,0.854-2.754,1.863-4.2,2.775
		c-1.417,0.943-2.856,1.902-4.295,2.86c-1.463,0.924-2.827,1.957-4.243,2.889c-1.259,0.883-2.491,1.746-3.697,2.591
		c5.744,6.455,11.793,12.743,18.174,18.855c0.076-0.035,0.158-0.073,0.234-0.107C436.333,636.04,442.782,633.251,448.11,630.995z"/>
	<path fill="#FFE56E" d="M318.599,413.255c-0.096-0.039-0.189-0.076-0.285-0.114c-1.8-0.738-3.619-1.485-5.456-2.238
		c-1.858-0.705-3.733-1.417-5.624-2.135c-3.766-1.472-7.64-2.857-11.58-4.211c-3.921-1.399-7.92-2.739-11.956-4.073
		c-8.063-2.697-16.37-5.095-24.675-7.498c-8.326-2.338-16.689-4.559-24.982-6.521c-8.28-2.012-16.461-3.894-24.418-5.538
		c-7.958-1.633-15.659-3.21-22.997-4.529c-7.34-1.304-14.284-2.548-20.716-3.565c-12.859-2.076-23.625-3.537-31.166-4.511
		c-3.47-0.427-6.218-0.765-8.214-1.011c1.133,1.432,2.262,2.869,3.403,4.293c14.886,18.433,30.589,36.304,46.538,53.473
		c0.207-0.02,0.395-0.038,0.635-0.061c1.66-0.148,4.073-0.374,7.133-0.535c3.067-0.19,6.783-0.343,11.055-0.458
		c4.264-0.034,9.09-0.207,14.338-0.048c2.627,0.049,5.364,0.101,8.197,0.154c2.829,0.135,5.755,0.274,8.762,0.418
		c3.01,0.126,6.097,0.323,9.249,0.589c3.152,0.259,6.373,0.523,9.649,0.791c6.528,0.755,13.298,1.395,20.13,2.407
		c6.818,1.114,13.779,2.03,20.658,3.462c3.443,0.689,6.886,1.377,10.316,2.063c3.423,0.716,6.796,1.617,10.161,2.409
		c3.359,0.824,6.7,1.603,9.978,2.463c2.517,0.754,4.985,1.493,7.448,2.231c-0.836-3.669-1.654-7.352-2.433-11.066
		C320.698,424.389,319.601,418.833,318.599,413.255z"/>
	<path fill="#FABF1B" d="M335.641,444.412c2.983,1.085,5.902,2.146,8.744,3.178c2.837,1.033,5.597,2.038,8.267,3.01
		c2.678,0.939,5.15,2.183,7.583,3.193c4.841,2.094,9.252,4.059,13.144,5.825c3.788,2,7.091,3.744,9.811,5.181
		c0.645,0.352,1.252,0.683,1.829,0.999c-0.192-1.929-0.373-3.827-0.543-5.651c-0.428-4.816-0.696-9.244-0.894-13.215
		c-1.641-1.05-4.524-2.895-8.454-5.41c-3.288-1.886-7.162-4.337-11.763-6.889c-2.306-1.262-4.76-2.606-7.347-4.022
		c-2.624-1.346-5.382-2.76-8.261-4.237c-2.853-1.515-5.947-2.874-9.097-4.362c-3.128-1.535-6.423-2.999-9.828-4.463
		c-1.697-0.742-3.417-1.494-5.158-2.256c-1.671-0.672-3.365-1.352-5.074-2.038c1.002,5.578,2.099,11.134,3.148,16.641
		c0.779,3.715,1.597,7.398,2.433,11.066c0.718,0.215,1.458,0.437,2.17,0.65C329.504,442.563,332.605,443.497,335.641,444.412z"/>
	<path fill="#FFE56E" d="M326.572,484.853c-5.081-0.408-10.242-0.823-15.404-1.238c-5.176-0.31-10.339-0.766-15.447-0.952
		c-5.103-0.241-10.122-0.595-14.993-0.721c-4.867-0.18-9.576-0.409-14.046-0.522c-4.473-0.133-8.702-0.259-12.605-0.375
		c-10.305-0.23-18.322-0.408-22.609-0.504c7.641,7.156,15.291,14.092,22.919,20.692c4.267,3.642,8.487,7.246,12.656,10.805
		c2.445,2.032,4.834,4.017,7.243,6.019c0.356-0.578,0.895-1.033,1.564-1.229l0.017-0.004c0,0,7.704-2.248,19.433-4.222
		c2.939-0.454,6.119-1.033,9.506-1.43c3.385-0.408,6.95-0.944,10.664-1.221c3.707-0.35,7.545-0.682,11.456-0.884
		c3.906-0.243,7.892-0.298,11.873-0.426c1.81-0.05,3.623-0.034,5.431-0.003c-2.815-7.469-5.446-15.063-7.903-22.779
		C333.12,485.546,329.857,485.256,326.572,484.853z"/>
	<path fill="#FABF1B" d="M362.242,509.433c3.745,0.372,7.356,0.783,10.769,1.255c3.418,0.556,6.635,1.138,9.59,1.716
		c2.955,0.667,5.642,1.393,8.012,2.026c1.161,0.267,2.234,0.605,3.224,0.947c-0.122-0.458-0.27-0.917-0.389-1.374
		c-0.946-3.248-1.589-6.528-2.321-9.746c-0.751-3.217-1.374-6.411-1.956-9.556c-0.005-0.025-0.009-0.049-0.014-0.073
		c-0.918-0.206-1.976-0.446-3.188-0.728c-1.1-0.259-2.317-0.545-3.643-0.857c-0.659-0.161-1.346-0.329-2.058-0.503
		c-0.725-0.134-1.477-0.274-2.253-0.418c-3.107-0.56-6.596-1.216-10.377-1.989c-3.829-0.605-7.991-1.19-12.356-1.928
		c-2.175-0.399-4.465-0.575-6.775-0.871c-2.31-0.302-4.671-0.61-7.071-0.924c-1.679-0.206-3.388-0.38-5.109-0.549
		c2.457,7.716,5.088,15.31,7.903,22.779c2.17,0.037,4.333,0.099,6.473,0.113C354.636,508.863,358.505,509.186,362.242,509.433z"/>
	<path fill="#FFE56E" d="M338.971,520.18c-3.873,0.076-7.744,0.077-11.561,0.266c-3.816,0.109-7.578,0.169-11.218,0.352
		c-7.297,0.281-14.107,0.542-19.944,0.767c-5.843,0.277-10.736,0.424-14.156,0.556c-1.103,0.032-2.035,0.06-2.817,0.083
		c0.075,0.062,0.153,0.127,0.228,0.189c16.497,13.552,32.461,26.007,47.07,37.765c0.916,0.734,1.809,1.459,2.714,2.189
		c0.189-0.322,0.417-0.621,0.721-0.848c0,0,0.264-0.196,0.76-0.564c0.519-0.357,1.262-0.911,2.227-1.522
		c1.923-1.268,4.718-2.975,8.188-4.798c1.743-0.888,3.614-1.91,5.671-2.801c2.04-0.933,4.189-1.941,6.482-2.803
		c2.269-0.923,4.66-1.776,7.087-2.642c0.066-0.022,0.133-0.042,0.199-0.064c-4.264-8.551-8.215-17.296-11.88-26.23
		C345.507,520.11,342.243,520.145,338.971,520.18z"/>
	<path fill="#FABF1B" d="M375.546,542.254c2.558-0.481,5.053-0.983,7.531-1.253c2.47-0.297,4.828-0.655,7.13-0.69
		c2.288-0.102,4.429-0.239,6.436-0.146c1.996,0.062,3.818,0.175,5.427,0.3c-0.923-2.256-1.813-4.525-2.621-6.823
		c-1.307-3.723-2.496-7.467-3.616-11.211c-0.194-0.024-0.377-0.046-0.581-0.072c-1.681-0.191-3.669-0.553-6.031-0.693
		c-2.35-0.17-4.977-0.42-7.837-0.69c-2.897-0.112-6.019-0.277-9.306-0.511c-3.314-0.082-6.809-0.141-10.408-0.318
		c-3.622-0.014-7.359-0.013-11.156-0.089c-0.586,0.006-1.182,0.013-1.771,0.019c3.665,8.934,7.616,17.679,11.88,26.23
		c2.382-0.798,4.831-1.523,7.285-2.231C370.462,543.445,372.992,542.738,375.546,542.254z"/>
	<path fill="#61340A" d="M130.539,895.321l-0.002,0.057l-0.009,0.234c0.013-0.057,0.024-0.178,0.028-0.291
		C130.552,895.322,130.546,895.321,130.539,895.321z"/>
	<path fill="#61340A" d="M129.482,893.126c-0.084-0.052-0.213-0.049-0.081-0.025c0.053,0.016,0.099,0.05,0.147,0.087
		C129.525,893.167,129.499,893.142,129.482,893.126z"/>
	<path fill="#61340A" d="M1104.071,363.766c-10.583,0.12-20.946,0.596-31.404,1.369c-10.434,0.781-20.864,1.862-31.283,3.463
		c-10.436,1.647-20.766,3.645-31.283,7.22l-3.642,1.335l-2.01,0.748l-1.772,0.71c-2.361,0.949-4.72,1.9-7.118,2.792
		c-4.765,1.831-9.587,3.568-14.432,5.251c-19.386,6.736-39.12,12.734-58.94,18.342l-14.88,4.118l-7.461,1.993
		c-2.441,0.58-4.65,1.15-7.123,1.509c-9.673,1.627-19.98,1.948-30.225,2.333l-31.032,0.863c-10.395,0.353-20.772,0.869-31.213,1.68
		c-5.293,0.393-10.263,0.848-15.592,1.452l-7.897,1.045l-7.859,1.472c-10.421,2.263-20.768,5.661-30.232,10.951
		c-9.481,5.211-18.076,12.078-25.214,20.036c-7.313,7.807-13.091,16.805-19.136,24.866c-6.141,8.147-12.798,15.996-19.581,23.73
		c-5.919,6.751-12.01,13.386-18.192,19.9c-1.907-3.651-3.942-7.527-6.134-11.666c-7.962-15.077-17.665-33.368-28.999-54.246
		c-11.327-20.883-24.271-44.358-39.01-69.651c-14.769-25.198-30.973-52.831-51.248-79.724
		c-19.942-27.052-41.878-54.784-65.067-83.07c-23.181-28.29-47.543-57.18-72.938-86.022c-12.712-14.411-25.675-28.814-39.07-42.986
		c-6.704-7.083-13.516-14.106-20.568-20.982c-3.534-3.433-7.117-6.838-10.878-10.141c-3.823-3.292-7.558-6.535-12.308-9.532
		c-1.236-0.744-2.506-1.484-4.29-2.158c-0.486-0.166-0.962-0.323-1.466-0.467c-0.681-0.138-1.381-0.238-2.074-0.295
		c-0.529-0.025-1.471,0.064-2.193,0.253c-0.63,0.122-1.808,0.671-1.808,0.671l-0.395,0.229c0.179-0.213-2.439,1.926-1.796,1.572
		c-0.304,0.371-0.587,0.763-0.842,1.162c-0.242,0.389-0.326,0.653-0.483,0.994c-0.271,0.637-0.544,1.371-0.613,1.829
		c-0.11,0.515-0.222,1.062-0.291,1.557l-0.096,1.315c-0.083,1.716,0.042,3.15,0.185,4.567c0.682,5.511,1.982,10.335,3.341,15.175
		c2.77,9.608,6.046,18.844,9.405,28.025c6.767,18.325,14.02,36.279,21.272,54.055c14.51,35.533,29.288,70.255,42.438,104.169
		c3.274,8.478,6.43,16.91,9.337,25.289c1.443,4.191,2.856,8.358,4.123,12.509c0.644,2.09,1.207,4.038,1.794,6.225
		c0.546,2.114,1.089,4.222,1.632,6.325c4.34,16.957,8.303,33.659,12.051,49.937c4.077,17.804,7.875,35.094,11.376,51.807
		c-0.234-0.135-0.446-0.258-0.691-0.399c-5.089-2.903-12.538-7.178-22.134-12.413c-9.584-5.256-21.287-11.522-34.788-18.576
		c-13.53-6.999-28.862-14.787-45.886-22.718c-17.011-7.957-35.652-16.189-55.996-23.681c-5.126-1.808-10.325-3.567-15.666-5.323
		c-5.201-1.611-10.714-3.246-16.186-4.712c-10.979-3.015-22.338-5.569-33.977-7.725c-11.645-2.131-23.574-3.876-35.768-4.95
		c-12.211-1.01-24.605-1.683-37.505-0.405c-3.234,0.334-6.501,0.807-9.931,1.699c-1.71,0.44-3.494,1.034-5.365,1.879
		c-1.004,0.554-1.92,0.951-3.025,1.852l-0.78,0.618c-0.26,0.217-0.562,0.572-0.829,0.866c-0.273,0.311-0.536,0.631-0.788,0.956
		c-0.063,0.024-1.025,1.743-0.664,1.131l-0.119,0.264c-0.017,0.032-0.085,0.168-0.242,0.648c-0.121,0.378-0.222,0.769-0.298,1.164
		c-0.073,0.375-0.133,0.835-0.148,1.138l0.002,0.613c0.01,0.394,0.021,0.855,0.066,1.19l0.153,0.961
		c0.234,1.236,0.55,2.206,0.88,3.129c0.67,1.812,1.412,3.402,2.191,4.91c1.554,3.026,3.243,5.777,4.974,8.497
		c6.975,10.771,14.671,20.708,22.522,30.552c15.779,19.583,32.489,38.264,49.371,56.247c16.89,17.975,34.132,35.078,51.397,51.048
		c8.641,7.976,17.273,15.687,25.963,22.979c4.36,3.581,8.672,7.124,12.933,10.624c4.318,3.452,8.583,6.861,12.79,10.225
		c16.883,13.339,33.109,25.509,47.861,36.928c14.733,11.438,28.008,22.105,39.052,32.292c11.066,10.167,19.773,19.924,26.411,28.369
		c3.186,4.32,6.155,8.1,8.351,11.654c2.29,3.49,4.31,6.423,5.655,8.976c0.852,1.495,1.57,2.754,2.18,3.824
		c-3.928,2.056-7.952,4.223-12.095,6.552c-2.371,1.381-4.652,2.683-7.184,4.242c-2.317,1.505-4.66,2.938-7.051,4.563
		c-9.686,6.542-19.228,13.591-29.086,21.162c-9.829,7.536-19.918,15.374-30.098,23.383c-10.174,8.016-20.504,16.144-30.926,24.071
		c-10.399,7.844-20.916,15.951-31.479,22.114c-11.4,6.063-22.619,12.03-33.476,17.804c-10.912,5.856-21.377,11.706-31.184,17.523
		c-9.816,5.825-18.989,11.5-27.131,17.714c-2.038,1.552-4.006,3.186-5.9,4.945c-0.944,0.941-1.874,1.847-2.778,2.991
		c-0.446,0.482-0.909,1.253-1.334,1.909c-0.211,0.285-0.434,0.803-0.627,1.28l-0.275,0.724l-0.126,0.363
		c-0.004-0.054-0.227,1.19-0.135,0.71l-0.01,0.105l-0.077,0.875c-0.001,0.852,0.143,1.774,0.406,2.585
		c0.273,0.662,0.616,1.192,0.989,1.742c0.374,0.511,0.766,0.808,1.175,1.19c1.602,1.261,3.041,1.745,4.309,2.104
		c2.567,0.695,4.802,0.87,6.96,1.005c8.512,0.3,15.502-0.581,21.317-1.243c1.423-0.171,2.763-0.351,4.027-0.531
		c0.005,0.062,0.023,0.125,0.031,0.187c-2.968,1.864-6.364,4.047-10.094,6.536c-3.245,2.175-6.776,4.514-10.422,7.115
		c-3.649,2.597-7.539,5.288-11.434,8.254c-7.86,5.854-16.066,12.33-23.97,19.443c-3.948,3.615-7.764,7.263-11.368,11.779
		c-0.901,1.111-1.784,2.377-2.645,3.837l-0.633,1.232l-0.304,0.62c-0.101,0.237-0.199,0.574-0.29,0.86
		c-0.182,0.597-0.34,1.202-0.471,1.804c-0.034,0.405,0.043-0.747-0.083,0.937l0.001,0.059l0.002,0.118l0.003,0.235l0.006,0.469
		l0.003,0.234c0.018,0.224,0.061,0.555,0.11,0.833c0.101,0.582,0.258,1.172,0.463,1.732c0.43,1.244,0.948,1.774,1.528,2.493
		c0.608,0.745,1.177,1.139,1.762,1.517c0.597,0.4,1.229,0.761,1.698,0.91c0.511,0.2,1.031,0.389,1.544,0.554l1.325,0.278
		c0.927,0.21,1.641,0.215,2.443,0.299c5.981,0.267,10.67-0.781,15.251-1.721c4.516-0.985,8.658-2.152,12.438-3.332
		c4.896-1.497,9.171-3.01,12.741-4.357c-0.537,0.549-1.068,1.09-1.644,1.69c-6.667,6.946-16.261,16.812-27.219,29.206
		c-5.472,6.204-11.36,12.975-17.304,20.422c-5.932,7.469-12.154,15.374-17.757,24.54c-1.397,2.304-2.756,4.691-3.999,7.299
		c-1.201,2.674-2.462,5.304-2.975,9.235c-0.104,1.009-0.14,2.136,0.057,3.453c0.292,1.421,0.523,2.669,2.03,4.58l0.324,0.38
		c0.207,0.228,0.759,0.734,1.174,1.045c1.045,0.803,1.593,0.968,2.28,1.281c1.308,0.514,2.459,0.709,3.491,0.814
		c4.051,0.294,7.001-0.428,9.938-1.16c5.776-1.554,10.996-3.711,16.156-6.021c5.142-2.321,10.142-4.858,15.064-7.503
		c9.834-5.307,19.275-11.168,28.419-17.135c9.15-5.959,17.871-12.222,26.172-18.452c8.307-6.224,16.128-12.514,23.368-18.686
		c3.955-3.344,7.717-6.649,11.308-9.901c-1.783,2.256-3.607,4.563-5.476,6.926c-7.041,8.887-14.738,18.458-22.894,28.536
		c-4.081,5.036-8.31,10.179-12.688,15.348c-4.363,5.268-8.887,10.159-13.648,15.807c-9.261,11.032-18.24,22.74-27.041,34.897
		c-8.76,12.182-17.374,24.75-25.509,37.727c-4.069,6.496-7.954,13.118-11.546,20.028c-1.777,3.486-3.496,6.989-4.953,10.918
		c-0.711,1.999-1.411,4.012-1.742,6.849l-0.062,1.187c0.001,0.444,0.034,0.945,0.074,1.412c0.083,0.568,0.188,1.142,0.387,1.777
		c0.29,0.751,0.503,1.374,1.124,2.198l0.442,0.559c-0.408-0.304,1.11,1.053,0.973,0.912l0.157,0.115
		c0.467,0.327,1.003,0.612,1.557,0.817c1.956,0.606,2.508,0.39,3.386,0.353c1.381-0.203,2.091-0.524,2.821-0.81
		c2.579-1.168,4.139-2.324,5.833-3.506c1.641-1.179,3.161-2.378,4.655-3.585c2.981-2.41,5.787-4.887,8.541-7.371
		c5.5-4.97,10.755-9.984,15.876-14.956c10.247-9.932,19.871-19.758,28.919-29.146c9.068-9.366,17.521-18.324,25.263-26.65
		c8.199-8.753,15.545-16.803,21.988-23.926c-8.028,11.63-17.707,25.723-28.388,41.81c-7.786,11.724-16.171,24.459-24.915,38.03
		c-8.7,13.608-17.93,27.902-26.732,43.342c-2.2,3.871-4.376,7.807-6.456,11.956c-1.032,2.106-2.048,4.199-2.978,6.671
		c-0.231,0.61-0.461,1.266-0.672,2.039l-0.158,0.553l-0.145,0.724c-0.082,0.509-0.195,0.852-0.196,1.818
		c0.001,0.424,0.009,0.799,0.059,1.258c0.151,0.862,0.482,1.775,0.937,2.547c0.113,0.236,0.66,0.873,0.92,1.165
		c0,0,0.002,0.003,0.006,0.006c0.129,0.145,0.172,0.187,0.052,0.05c0.207,0.19,0.89,0.772,1.552,1.073
		c1.06,0.492,1.41,0.489,1.917,0.583c0.554,0.079,0.962,0.075,1.255,0.053c1.474-0.109,2.015-0.399,2.677-0.631
		c0.545-0.232,1-0.466,1.379-0.684c1.5-0.874,2.504-1.671,3.526-2.483c0.998-0.807,1.918-1.613,2.816-2.425
		c1.792-1.623,3.483-3.264,5.144-4.924c3.323-3.315,6.509-6.709,9.655-10.153c12.549-13.778,24.66-28.147,36.657-42.625
		c11.966-14.496,23.65-29.203,35.06-43.753c11.421-14.541,22.406-29.051,32.89-43.218c10.49-14.175,20.422-28.005,29.27-41.723
		c8.734-13.533,16.992-26.328,24.615-38.138c7.661-11.787,14.595-22.651,20.703-32.306c6.127-9.642,11.469-18.047,15.868-24.97
		c3.8-6.045,6.889-10.959,9.168-14.585c0.725,1.185,1.545,2.321,2.489,3.361c3.191,3.622,7.285,6.013,11.262,7.549
		c1.001,0.455,2.003,0.736,3.005,1.041c1.008,0.294,1.985,0.643,3.04,0.833l3.113,0.65c0.995,0.183,1.822,0.26,2.739,0.395
		c3.947,0.591,8.03,0.581,12.018,0.229c3.998-0.458,7.916-1.378,11.579-2.796c7.335-2.862,13.392-7.599,17.981-12.682
		c4.687-5.066,8.03-10.536,10.667-15.681c1.952-3.784,3.474-7.439,4.72-10.856c0.072,0.007,0.139,0.029,0.212,0.033
		c0.292,0.016,0.577-0.002,0.857-0.039c0.368,4.639,0.953,9.765,2.028,15.301c1.187,6.153,2.872,12.801,5.539,19.616
		c2.632,6.815,6.237,13.833,11.311,20.344c2.618,3.189,5.441,6.364,8.823,9.109c3.346,2.769,7.119,5.18,11.229,7.067
		c8.253,3.691,17.88,5.009,26.923,3.354c4.531-0.838,8.808-2.251,12.965-4.166l3.12-1.55l2.606-1.511
		c1.165-0.631,2.014-1.373,3.025-2.066l1.45-1.064l1.317-1.233c1.83-1.581,3.278-3.487,4.711-5.372
		c1.235-1.997,2.47-3.986,3.315-6.095c1.804-4.165,2.914-8.44,3.414-12.576c0.365-2.08,0.383-4.11,0.559-6.134
		c-0.014-1.997,0.085-4.001-0.064-5.929c-0.137-3.892-0.61-7.615-1.143-11.207c-1.078-7.184-2.836-13.737-4.633-19.688
		c-0.83-2.708-1.687-5.269-2.549-7.715c3.408,4.804,7.277,10.037,11.678,15.596c4.885,6.201,10.399,12.773,16.695,19.382
		c6.285,6.615,13.29,13.35,21.653,19.341c4.188,2.983,8.721,5.798,13.882,7.997c5.109,2.185,11.122,3.74,17.646,2.989
		c1.613-0.185,3.243-0.542,4.821-1.066c1.597-0.521,3.052-1.144,4.708-2.103c0.914-0.497,1.322-0.818,1.876-1.186l0.401-0.272
		l0.2-0.136c0.477-0.34,0.192-0.144,0.326-0.242l0.105-0.087l0.838-0.693c1.112-0.933,2.242-1.844,3.332-2.813
		c4.259-4.026,7.956-9.028,10.195-14.753c2.277-5.704,3.057-11.966,2.551-17.905c-0.605-5.934-2.316-11.481-4.483-16.658
		c-2.362-5.045-5.085-9.819-8.239-14.076l-2.323-3.217c-0.849-1.028-1.694-2.053-2.537-3.074c-0.846-1.013-1.688-2.021-2.527-3.026
		c-0.839-0.898-1.674-1.794-2.506-2.685c-6.909-7.419-14.276-13.726-21.425-19.355c-0.472-0.369-0.936-0.71-1.406-1.073
		c0.655-0.29,1.343-0.6,2.084-0.942c2.643-1.246,5.85-2.783,9.422-4.742c3.6-1.913,7.57-4.235,11.809-6.915
		c4.255-2.657,8.76-5.701,13.377-9.117c4.64-3.382,9.416-7.118,14.185-11.189l1.768-1.501l1.823-1.644
		c1.205-1.096,2.418-2.2,3.639-3.311c2.34-2.325,4.713-4.691,6.916-7.241c1.1-1.278,2.204-2.561,3.311-3.848
		c1.094-1.299,2.092-2.681,3.145-4.024c2.141-2.663,4.002-5.549,5.917-8.392c1.263-2.074,2.49-4.171,3.686-6.281
		c0.548,0.037,1.11-0.084,1.586-0.436c17.999-13.328,35.068-27.673,51.564-42.766c8.192-7.599,16.264-15.341,24.055-23.385
		c3.893-4.029,7.719-8.103,11.503-12.27c3.738-4.221,7.552-8.42,11-12.737c7.18-8.667,13.913-17.43,20.792-26.231
		c6.836-8.8,13.577-17.686,20.195-26.677c13.239-17.972,25.941-36.45,37.477-55.694c2.912-4.83,5.694-9.696,8.455-14.505
		c2.705-4.616,5.515-9.176,8.732-13.447c6.351-8.592,13.673-16.479,21.914-23.33c8.224-6.868,17.223-12.833,26.718-17.936
		c2.357-1.304,4.812-2.44,7.212-3.671l7.379-3.347c2.5-1.001,4.889-2.049,7.476-3.02c2.575-0.924,5.284-2.013,7.75-2.802
		l63.197-21.157c21.074-7.024,42.126-14.114,63.147-21.295l0.115-0.038c2.267-0.778,3.884-2.94,3.856-5.467
		C1109.811,366.258,1107.225,363.731,1104.071,363.766z M340.277,161.529c3.81,3.842,8.221,8.289,13.129,13.239
		c8.388,8.429,18.174,18.262,28.659,28.798c5.231,5.273,10.635,10.722,16.127,16.259c5.538,5.49,11.052,11.172,16.599,16.822
		c5.535,5.659,11.07,11.318,16.518,16.888c5.407,5.606,10.729,11.122,15.879,16.461c5.066,5.411,9.997,10.611,14.71,15.514
		c4.583,5.009,8.951,9.718,13.023,14.038c3.975,4.398,7.618,8.429,10.848,12.003c3.276,3.545,5.979,6.746,8.257,9.35
		c3.501,3.967,5.844,6.623,6.762,7.664c-1.831,3.855-3.227,7.881-4.286,11.961c-1.078,4.087-1.804,8.232-2.283,12.388
		c-2.69-2.739-7.724-7.745-14.427-13.874c-2.571-2.332-5.328-4.893-8.337-7.491c-3.008-2.599-6.117-5.417-9.471-8.167
		c-3.328-2.78-6.749-5.677-10.303-8.528c-3.573-2.827-7.202-5.699-10.831-8.571c-3.633-2.867-7.4-5.571-11.035-8.321
		c-3.639-2.748-7.349-5.288-10.891-7.804c-3.558-2.5-7.067-4.825-10.395-7.021c-3.341-2.187-6.547-4.187-9.518-6.009
		c-5.98-3.609-11.036-6.481-14.694-8.324c-0.408-0.211-0.79-0.407-1.159-0.596c-0.815-2.169-1.613-4.337-2.444-6.508
		C368.1,228.871,354.083,195.528,340.277,161.529z M397.666,313.374c-0.533-2.157-1.067-4.319-1.603-6.488
		c-0.535-2.085-1.174-4.4-1.817-6.559c-1.289-4.353-2.671-8.663-4.141-12.952c-0.996-2.9-2.049-5.792-3.092-8.686
		c2.12,1.666,4.484,3.524,7.062,5.55c2.678,2.169,5.608,4.469,8.727,6.874c3.073,2.477,6.338,5.048,9.744,7.67
		c6.728,5.367,14.015,10.943,21.237,16.62c3.633,2.811,7.267,5.622,10.843,8.389c3.595,2.748,7.134,5.452,10.558,8.069
		c3.409,2.638,6.772,5.105,9.927,7.49c3.178,2.358,6.182,4.588,8.955,6.646c5.552,4.111,10.256,7.451,13.556,9.781
		c3.324,2.299,5.223,3.613,5.223,3.613c0.248,0.172,0.521,0.29,0.802,0.372c-0.087,1.588-0.155,3.188-0.192,4.902
		c0.031,2.616-0.057,5.117,0.071,7.827c0.193,4.512,0.557,8.889,1.033,13.24c-1.182-1.026-2.437-2.091-3.867-3.172
		c-1.961-1.584-4.175-3.164-6.543-4.812c-2.418-1.556-4.909-3.325-7.658-4.852c-2.738-1.544-5.536-3.215-8.524-4.631
		c-1.49-0.715-2.975-1.473-4.499-2.163c-1.535-0.665-3.077-1.334-4.618-2.002c-3.062-1.391-6.29-2.37-9.395-3.504
		c-3.085-1.198-6.301-1.855-9.32-2.731c-3.009-0.923-6.053-1.335-8.874-1.907c-1.421-0.247-2.782-0.571-4.132-0.731
		c-1.351-0.144-2.656-0.284-3.909-0.417c-2.503-0.256-4.779-0.549-6.827-0.582c-2.043-0.062-3.826-0.055-5.288-0.053
		c-1.861,0.008-3.205,0.042-3.941,0.065C404.188,340.863,401.06,327.236,397.666,313.374z M408.376,359.717
		c0.57,0.16,1.228,0.342,1.985,0.546c1.366,0.362,3.017,0.806,4.913,1.246c1.892,0.465,3.988,1.192,6.295,1.797
		c2.298,0.658,4.788,1.316,7.377,2.193c1.296,0.417,2.628,0.846,3.989,1.284c1.37,0.395,2.759,0.837,4.148,1.365
		c2.779,1.042,5.701,1.939,8.587,3.1c2.895,1.133,5.857,2.216,8.742,3.502c1.458,0.604,2.916,1.209,4.368,1.811
		c1.442,0.626,2.848,1.32,4.26,1.97c2.849,1.252,5.599,2.597,8.259,3.914c2.646,1.352,5.203,2.658,7.628,3.897
		c2.357,1.357,4.697,2.485,6.744,3.701c4.176,2.32,7.581,4.388,9.98,5.821c0.068,0.042,0.115,0.07,0.182,0.111
		c0.015,0.099,0.025,0.201,0.04,0.3c0.354,2.61,0.78,5.191,1.229,7.768c0.877,5.159,1.842,10.273,2.804,15.369l1.306,6.897
		c-1.51-0.96-3.18-2.053-5.089-3.083c-1.987-1.153-4.183-2.317-6.552-3.46c-2.373-1.127-4.885-2.316-7.552-3.378
		c-2.692-0.989-5.423-2.176-8.315-3.05c-1.44-0.456-2.89-0.915-4.347-1.376c-1.469-0.42-2.965-0.773-4.45-1.163
		c-2.965-0.798-5.982-1.4-8.966-1.907c-2.96-0.623-5.947-0.845-8.808-1.168c-2.852-0.398-5.656-0.413-8.295-0.476
		c-1.318-0.03-2.6-0.059-3.84-0.088c-1.243,0.074-2.444,0.146-3.597,0.215c-2.301,0.137-4.401,0.249-6.256,0.497
		c-1.856,0.264-3.465,0.554-4.784,0.788c-0.599,0.107-1.12,0.204-1.596,0.296c-2.958-14.678-6.13-29.775-9.508-45.267
		C408.967,362.373,408.668,361.038,408.376,359.717z M445.482,572.527c-2.591-9.217-4.915-19.315-6.739-30.21
		c0.238-0.113,0.443-0.22,0.722-0.338c0.995-0.489,2.295-0.957,3.737-1.532c1.498-0.503,3.176-1.058,5.054-1.596
		c1.885-0.511,3.951-1.015,6.15-1.525c2.212-0.474,4.573-0.904,7.013-1.379c2.458-0.427,5.017-0.789,7.624-1.184
		c2.623-0.349,5.287-0.703,7.951-1.057c2.672-0.342,5.363-0.633,8.014-0.93c2.659-0.288,5.276-0.571,7.809-0.845
		c2.543-0.203,4.999-0.54,7.339-0.746c2.342-0.243,4.557-0.472,6.601-0.683c3.718-0.383,6.842-0.749,9.19-1.035
		c0.963,4.28,2.044,8.536,3.218,12.77c1.02,3.583,2.076,7.085,3.284,10.64c-2.266-0.023-5.096,0.017-8.354,0.205
		c-2.098,0.131-4.38,0.237-6.769,0.518c-2.395,0.244-4.928,0.484-7.522,0.892c-2.6,0.37-5.282,0.819-8.003,1.286
		c-2.711,0.534-5.462,1.09-8.197,1.736c-2.726,0.696-5.467,1.305-8.119,2.131c-2.663,0.781-5.266,1.582-7.758,2.492
		c-2.501,0.868-4.908,1.716-7.138,2.712c-2.244,0.947-4.366,1.803-6.262,2.793c-1.913,0.937-3.641,1.844-5.159,2.669
		C447.716,571.086,446.509,571.889,445.482,572.527z M506.632,521.491c-2.11-0.148-4.4-0.321-6.823-0.357
		c-2.423-0.05-4.986-0.141-7.633-0.054c-5.296,0.112-10.964,0.413-16.615,1.16c-2.825,0.354-5.652,0.793-8.421,1.336
		c-2.776,0.514-5.484,1.21-8.101,1.909c-2.622,0.709-5.128,1.531-7.477,2.441c-2.359,0.879-4.552,1.853-6.527,2.889
		c-1.991,0.993-3.751,2.09-5.267,3.113c-0.769,0.539-1.469,1.058-2.103,1.561c-0.39-2.855-0.736-5.757-0.982-8.693
		c-0.154-1.488-0.213-2.975-0.322-4.478l-0.083-2.247l-0.114-2.435c-0.168-3.146-0.304-6.318-0.694-9.672
		c-0.172-1.837-0.41-3.665-0.617-5.501c1.098-0.108,2.379-0.307,3.88-0.444c1.554-0.112,3.291-0.262,5.163-0.484
		c1.88-0.183,3.952-0.252,6.096-0.478c1.073-0.107,2.183-0.181,3.327-0.209c1.135-0.077,2.294-0.155,3.473-0.235
		c2.345-0.214,4.814-0.167,7.285-0.357c2.486-0.101,5.012-0.203,7.538-0.306c2.535-0.072,5.069-0.143,7.564-0.214
		c2.5-0.026,4.962-0.188,7.351-0.173c2.387-0.001,4.702-0.139,6.898-0.141c2.201-0.05,4.282-0.098,6.203-0.142
		c3.847-0.074,7.074-0.201,9.331-0.286c0.717-0.034,1.296-0.061,1.806-0.086c0.468,4.171,1.03,8.302,1.684,12.439
		c0.582,3.665,1.261,7.313,1.98,10.954C512.273,522.006,509.646,521.705,506.632,521.491z M509.718,492.306
		c-2.259-0.603-5.496-1.355-9.42-2.012c-1.962-0.308-4.089-0.697-6.353-0.915c-2.261-0.259-4.651-0.558-7.133-0.681
		c-2.478-0.184-5.051-0.272-7.663-0.362c-2.615-0.042-5.276-0.002-7.936,0.068c-2.663,0.159-5.324,0.24-7.941,0.534
		c-2.62,0.291-5.186,0.553-7.667,1.014c-2.482,0.428-4.872,0.784-7.117,1.403c-2.25,0.553-4.369,1.04-6.294,1.694
		c-1.932,0.621-3.681,1.243-5.218,1.816c-1.094,0.39-2.023,0.826-2.879,1.231c-1.421-10.993-3.253-22.355-5.303-34.082
		c0.422,0.669,1.124,1.146,1.974,1.163l0.204,0.004c0,0,1.351,0.027,3.647-0.056c1.148-0.041,2.536-0.086,4.104-0.203
		c1.591,0,3.381,0.027,5.308-0.032c1.926-0.072,4.021,0.005,6.226,0.051c2.203,0.031,4.517,0.094,6.916,0.251
		c1.196,0.063,2.412,0.128,3.643,0.193c1.23,0.11,2.474,0.221,3.729,0.333c1.254,0.103,2.517,0.207,3.786,0.311l3.811,0.451
		c2.55,0.23,5.081,0.672,7.589,0.992c2.506,0.337,4.965,0.768,7.352,1.147c2.356,0.526,4.702,0.778,6.869,1.275
		c2.187,0.44,4.255,0.856,6.164,1.24c3.285,0.685,6.064,1.295,8.209,1.774c0.322,3.036,0.613,6.072,0.811,9.11
		c0.33,4.15,0.569,8.204,0.945,12.387C509.952,492.371,509.854,492.339,509.718,492.306z M502.801,460.532
		c-1.908-0.798-3.992-1.625-6.244-2.352c-2.236-0.784-4.634-1.494-7.13-2.176c-2.519-0.58-5.106-1.289-7.786-1.773
		c-2.684-0.464-5.404-0.983-8.171-1.229c-2.753-0.325-5.518-0.577-8.259-0.612c-1.368-0.033-2.72-0.125-4.062-0.092
		c-1.342,0.056-2.669,0.111-3.973,0.166c-1.303,0.069-2.582,0.08-3.832,0.195c-1.248,0.163-2.47,0.323-3.658,0.479
		c-1.184,0.157-2.335,0.31-3.449,0.459c-1.109,0.184-2.17,0.475-3.19,0.693c-2.04,0.454-3.895,0.899-5.52,1.363
		c-1.618,0.527-3.008,1.045-4.147,1.466c-2.279,0.842-3.542,1.398-3.542,1.398c-0.682,0.301-1.184,0.914-1.365,1.656
		c-0.224-1.273-0.437-2.526-0.666-3.808c-2.395-13.413-5.039-27.328-7.891-41.653c0.224,0.026,0.45,0.052,0.694,0.079
		c1.276,0.141,2.82,0.317,4.581,0.45c1.754,0.234,3.733,0.498,5.892,0.787c2.151,0.247,4.468,0.575,6.91,1.006
		c2.439,0.425,5.012,0.759,7.65,1.317c2.641,0.524,5.369,1.007,8.114,1.678c1.377,0.304,2.764,0.611,4.157,0.919
		c1.395,0.298,2.767,0.729,4.163,1.055c2.79,0.663,5.549,1.447,8.266,2.232c2.74,0.705,5.38,1.6,7.968,2.372
		c2.545,0.888,5.066,1.615,7.403,2.448c2.325,0.861,4.58,1.561,6.606,2.342c4.093,1.478,7.482,2.799,9.858,3.718
		c0.267,0.105,0.516,0.204,0.756,0.299c1.723,9.063,3.266,18.101,4.416,27.146C505.976,461.91,504.488,461.177,502.801,460.532z
		 M101.583,329.517L101.583,329.517c-0.003-0.011-0.004-0.022-0.007-0.034C101.565,329.437,101.594,329.509,101.583,329.517z
		 M100.904,331.286c0.019-0.009,0.035-0.021,0.053-0.031c-0.003,0.004-0.002,0.012-0.006,0.016
		C100.948,331.284,100.863,331.309,100.904,331.286z M103.621,334.549c-0.65-1.241-1.205-2.469-1.612-3.557
		c-0.04-0.109-0.068-0.205-0.104-0.31c0.018-0.011,0.04-0.022,0.057-0.033c0.946-0.414,2.083-0.826,3.357-1.152
		c2.532-0.67,5.367-1.11,8.234-1.405c11.55-1.151,23.607-0.724,35.353,0.193c11.785,0.943,23.415,2.548,34.781,4.536
		c11.36,2.03,22.473,4.419,33.25,7.154c5.419,1.359,10.602,2.804,15.932,4.359c5.129,1.598,10.25,3.236,15.255,4.91
		c20.002,6.997,38.607,14.845,55.599,22.461c16.979,7.664,32.465,14.92,46.113,21.526c13.625,6.654,25.451,12.577,35.14,17.553
		c9.675,5.003,17.277,8.934,22.46,11.614c2.096,1.11,3.772,1.996,5.049,2.672c2.323,11.265,4.501,22.246,6.518,32.906
		c2.734,14.306,5.072,28.062,6.987,41.115c0.511,3.286,0.899,6.462,1.248,9.575c0.425,3.082,0.623,6.297,0.845,9.444l0.147,2.269
		l0.132,2.426c0.142,1.593,0.236,3.189,0.423,4.743c0.317,3.126,0.734,6.173,1.196,9.159c3.848,23.829,9.971,43.896,16.34,59.984
		c0.123,0.31,0.251,0.592,0.375,0.899c-0.887-1.266-1.787-2.561-2.71-3.916c-1.399-2.052-2.837-4.201-4.256-6.473
		c-1.483-2.226-2.948-4.572-4.425-7.001c-2.973-4.844-5.941-10.051-8.935-15.471c-2.958-5.41-5.748-11.034-8.687-17.058
		c-1.406-2.814-2.575-5.857-3.889-8.795c-1.328-2.941-2.264-6.102-3.481-9.124c-2.211-6.153-4.185-12.428-5.864-18.699
		c-0.901-3.113-1.686-6.247-2.462-9.34c-0.818-3.082-1.512-6.162-2.166-9.2c-1.357-6.061-2.576-11.962-3.616-17.581
		c-1.036-5.621-1.97-10.953-2.784-15.888c-0.754-4.948-1.445-9.484-2.058-13.505c-0.553-4.034-1.035-7.55-1.433-10.446
		c-0.374-2.896-0.668-5.172-0.868-6.723c-0.181-1.552-0.278-2.38-0.278-2.38l-0.005-0.044c-0.157-1.352-1.292-2.414-2.69-2.442
		c-1.527-0.03-2.788,1.182-2.819,2.708c0,0-0.017,0.852-0.049,2.449c-0.007,1.607-0.08,3.941-0.005,6.911
		c0.021,1.415,0.051,2.982,0.098,4.672c-1.316-1.078-2.863-2.338-4.708-3.775c-3.144-2.241-6.863-5.146-11.37-8.105
		c-2.255-1.481-4.655-3.057-7.186-4.719c-2.567-1.602-5.327-3.18-8.178-4.887c-2.834-1.742-5.901-3.331-9.036-5.063
		c-3.137-1.733-6.444-3.385-9.863-5.05c-1.706-0.842-3.435-1.696-5.185-2.56c-1.774-0.811-3.569-1.631-5.384-2.461
		c-1.822-0.817-3.663-1.642-5.522-2.476c-1.881-0.778-3.78-1.563-5.695-2.355c-3.818-1.621-7.741-3.154-11.732-4.657
		c-3.963-1.583-8.055-2.949-12.163-4.372c-8.224-2.825-16.652-5.46-25.137-7.884c-8.507-2.337-17.045-4.55-25.498-6.499
		c-8.452-1.961-16.827-3.611-24.941-5.121c-8.11-1.538-16.004-2.71-23.486-3.791c-7.483-1.08-14.585-1.895-21.146-2.572
		c-13.119-1.381-24.101-1.984-31.792-2.285c-7.68-0.279-12.129-0.218-12.129-0.218c-0.376,0.006-0.729,0.1-1.059,0.244
		c-4.951-6.419-9.732-12.92-14.038-19.547C106.459,339.581,104.9,337.036,103.621,334.549z M126.531,367.312
		c1.996,0.246,4.744,0.584,8.214,1.011c7.54,0.974,18.306,2.435,31.166,4.511c6.432,1.017,13.376,2.261,20.716,3.565
		c7.338,1.319,15.039,2.896,22.997,4.529c7.957,1.644,16.137,3.526,24.418,5.538c8.293,1.962,16.657,4.183,24.983,6.521
		c8.305,2.403,16.611,4.8,24.675,7.498c4.036,1.334,8.035,2.673,11.956,4.073c3.94,1.354,7.814,2.739,11.58,4.211
		c1.891,0.718,3.766,1.43,5.624,2.135c1.837,0.753,3.656,1.5,5.456,2.238c1.806,0.726,3.593,1.443,5.358,2.153
		c1.741,0.762,3.462,1.514,5.158,2.256c3.406,1.464,6.701,2.928,9.828,4.463c3.151,1.488,6.244,2.847,9.097,4.362
		c2.878,1.476,5.637,2.891,8.26,4.237c2.587,1.416,5.041,2.759,7.347,4.022c4.601,2.552,8.476,5.003,11.763,6.889
		c3.93,2.515,6.812,4.359,8.454,5.41c0.198,3.972,0.466,8.4,0.894,13.215c0.17,1.824,0.351,3.722,0.543,5.651
		c-0.577-0.315-1.185-0.647-1.829-0.999c-2.72-1.436-6.023-3.18-9.811-5.181c-3.891-1.766-8.302-3.731-13.144-5.825
		c-2.433-1.011-4.905-2.254-7.583-3.193c-2.67-0.972-5.43-1.977-8.267-3.01c-2.842-1.033-5.761-2.094-8.744-3.178
		c-3.036-0.915-6.137-1.849-9.291-2.799c-3.158-0.946-6.368-1.908-9.618-2.881c-3.278-0.86-6.619-1.639-9.978-2.463
		c-3.366-0.792-6.738-1.693-10.161-2.409c-3.43-0.686-6.872-1.375-10.316-2.063c-6.879-1.432-13.841-2.348-20.658-3.462
		c-6.832-1.012-13.603-1.652-20.13-2.407c-3.276-0.269-6.496-0.533-9.649-0.791c-3.151-0.266-6.239-0.462-9.249-0.589
		c-3.007-0.143-5.932-0.283-8.762-0.418c-2.833-0.053-5.57-0.104-8.197-0.154c-5.249-0.16-10.074,0.014-14.338,0.047
		c-4.272,0.116-7.988,0.269-11.055,0.458c-3.059,0.161-5.473,0.387-7.133,0.535c-0.24,0.023-0.428,0.041-0.635,0.061
		c-15.948-17.169-31.652-35.04-46.538-53.473C128.793,370.181,127.664,368.744,126.531,367.312z M182.122,431.104
		c0.673,0.034,1.387,0.07,2.143,0.108c6.023,0.328,14.629,0.865,24.927,1.764c2.573,0.228,5.253,0.465,8.027,0.71
		c2.77,0.286,5.633,0.582,8.576,0.885c5.895,0.495,12.062,1.501,18.474,2.156c6.383,0.902,12.986,1.79,19.662,2.869
		c6.664,1.141,13.477,2.084,20.188,3.536c3.372,0.645,6.743,1.291,10.101,1.934c3.356,0.651,6.656,1.486,9.955,2.211
		c3.296,0.739,6.566,1.473,9.797,2.197c3.202,0.833,6.364,1.657,9.475,2.467c3.114,0.808,6.176,1.602,9.174,2.379
		c2.965,0.886,5.865,1.753,8.688,2.597c5.646,1.702,11.031,3.202,15.862,4.974c4.861,1.694,9.346,3.196,13.336,4.513
		c3.903,1.53,7.305,2.864,10.107,3.963c2.032,0.765,3.737,1.407,5.106,1.922c0.168,1.389,0.349,2.797,0.55,4.224
		c0.347,2.903,0.83,5.871,1.29,8.911c0.124,0.892,0.282,1.797,0.428,2.697c-0.05-0.021-0.092-0.039-0.142-0.06
		c-2.173-0.833-4.756-2.126-7.864-3.039c-3.08-1.022-6.573-2.151-10.407-3.326c-3.848-1.074-8.054-2.08-12.512-3.148
		c-4.458-1.055-9.204-1.858-14.114-2.759c-4.914-0.834-10.01-1.513-15.198-2.18c-5.193-0.523-10.468-1.102-15.753-1.502
		c-5.289-0.267-10.575-0.68-15.781-0.82c-5.207-0.157-10.332-0.246-15.287-0.212c-4.956-0.06-9.746,0.144-14.283,0.29
		c-4.538,0.088-8.823,0.454-12.776,0.672c-7.905,0.56-14.473,1.258-19.065,1.865c-2.292,0.27-4.103,0.582-5.339,0.763
		c-1.223,0.194-1.875,0.298-1.875,0.298c-0.514,0.081-0.958,0.334-1.338,0.659C211.478,461.563,196.747,446.606,182.122,431.104z
		 M254.388,501.234c-7.629-6.6-15.279-13.536-22.92-20.692c4.287,0.095,12.304,0.274,22.609,0.504
		c3.904,0.116,8.132,0.242,12.605,0.375c4.47,0.113,9.179,0.341,14.046,0.522c4.871,0.125,9.89,0.48,14.993,0.721
		c5.107,0.185,10.271,0.642,15.447,0.952c5.161,0.415,10.323,0.83,15.404,1.238c5.048,0.619,10.059,0.967,14.865,1.557
		c2.4,0.314,4.761,0.622,7.071,0.924c2.31,0.296,4.6,0.473,6.775,0.871c4.365,0.739,8.527,1.324,12.356,1.928
		c3.781,0.773,7.27,1.429,10.377,1.989c0.776,0.144,1.527,0.283,2.253,0.418c0.712,0.174,1.398,0.342,2.058,0.503
		c1.326,0.312,2.543,0.598,3.643,0.857c1.212,0.282,2.27,0.522,3.188,0.728c0.005,0.025,0.009,0.049,0.014,0.073
		c0.582,3.145,1.205,6.339,1.956,9.556c0.732,3.218,1.375,6.498,2.321,9.746c0.119,0.457,0.267,0.917,0.389,1.374
		c-0.991-0.342-2.063-0.68-3.224-0.947c-2.369-0.634-5.056-1.359-8.012-2.026c-2.955-0.578-6.172-1.16-9.59-1.716
		c-3.414-0.472-7.024-0.883-10.769-1.255c-3.737-0.247-7.606-0.571-11.539-0.68c-3.924-0.027-7.922-0.22-11.904-0.111
		c-3.98,0.128-7.967,0.184-11.873,0.426c-3.911,0.202-7.749,0.535-11.456,0.884c-3.714,0.277-7.279,0.813-10.664,1.221
		c-3.387,0.397-6.567,0.976-9.506,1.43c-11.729,1.974-19.433,4.222-19.433,4.222l-0.017,0.004c-0.67,0.196-1.208,0.65-1.564,1.229
		c-2.409-2.002-4.798-3.988-7.243-6.02C262.875,508.48,258.654,504.877,254.388,501.234z M279.503,522.393
		c-0.075-0.062-0.153-0.127-0.228-0.189c0.782-0.023,1.714-0.051,2.817-0.083c3.42-0.132,8.313-0.279,14.156-0.556
		c5.837-0.224,12.648-0.486,19.944-0.767c3.64-0.183,7.402-0.243,11.218-0.352c3.817-0.189,7.688-0.19,11.561-0.266
		c3.867-0.041,7.734-0.082,11.541-0.123c3.798,0.075,7.534,0.075,11.156,0.089c3.599,0.176,7.094,0.235,10.408,0.318
		c3.287,0.234,6.409,0.399,9.306,0.511c2.86,0.27,5.487,0.52,7.837,0.69c2.362,0.141,4.351,0.502,6.031,0.693
		c0.205,0.026,0.387,0.048,0.581,0.073c1.12,3.744,2.309,7.487,3.616,11.211c0.808,2.298,1.698,4.567,2.621,6.823
		c-1.609-0.125-3.431-0.238-5.427-0.3c-2.006-0.093-4.148,0.043-6.436,0.146c-2.302,0.035-4.659,0.393-7.13,0.69
		c-2.477,0.271-4.973,0.772-7.531,1.253c-2.554,0.485-5.084,1.191-7.64,1.821c-2.521,0.727-5.04,1.47-7.484,2.295
		c-2.427,0.867-4.818,1.719-7.087,2.642c-2.293,0.862-4.443,1.87-6.482,2.803c-2.057,0.891-3.928,1.913-5.671,2.801
		c-3.47,1.823-6.265,3.529-8.188,4.798c-0.965,0.61-1.708,1.165-2.227,1.521c-0.495,0.368-0.76,0.564-0.76,0.564
		c-0.304,0.227-0.532,0.525-0.721,0.848c-0.905-0.73-1.798-1.455-2.714-2.189C311.964,548.4,296,535.945,279.503,522.393z
		 M333.863,566.065c0.526-0.145,1.149-0.318,1.949-0.539c2.131-0.612,5.182-1.476,8.794-2.575c3.605-1.077,7.811-2.333,12.317-3.679
		c2.226-0.731,4.575-1.307,6.918-2.026c2.352-0.67,4.742-1.351,7.131-2.032c2.392-0.639,4.784-1.278,7.139-1.907
		c2.367-0.529,4.663-1.295,6.921-1.758c1.127-0.26,2.235-0.515,3.32-0.765c1.081-0.301,2.141-0.548,3.178-0.743
		c2.073-0.384,4.036-0.906,5.852-1.251c1.819-0.304,3.492-0.639,4.984-0.961c0.996-0.194,1.871-0.325,2.688-0.451
		c0.82,1.796,1.657,3.583,2.518,5.354c1.545,2.955,2.899,5.865,4.579,8.771c1.488,2.585,2.898,5.194,4.389,7.668
		c-0.35,0.013-0.685,0.02-1.065,0.044c-1.273,0.091-2.699,0.26-4.252,0.483c-0.779,0.109-1.591,0.223-2.431,0.341
		c-0.823,0.18-1.674,0.367-2.549,0.558c-1.758,0.37-3.613,0.783-5.47,1.382c-1.87,0.566-3.806,1.162-5.703,1.928
		c-1.928,0.7-3.843,1.514-5.723,2.397c-7.584,3.428-14.536,8.036-19.314,12.031c-2.297,1.867-4.078,3.607-5.341,4.916
		C355.736,584.475,345.318,575.432,333.863,566.065z M369.766,598.312c1.415-0.646,3.156-1.456,5.13-2.392
		c2.641-1.257,5.722-2.722,9.023-4.293c1.641-0.776,3.337-1.579,5.06-2.394c1.721-0.806,3.469-1.625,5.217-2.444
		c1.738-0.841,3.499-1.617,5.225-2.404c1.717-0.813,3.425-1.556,5.077-2.294c3.288-1.513,6.392-2.881,9.068-4.061
		c1.347-0.56,2.57-1.149,3.662-1.661c1.106-0.444,2.064-0.89,2.858-1.255c0.017-0.008,0.029-0.014,0.046-0.022
		c2.292,3.667,4.619,7.182,6.96,10.491c2.463,3.58,4.944,6.93,7.381,10.042c-1.126,0.232-2.372,0.556-3.693,1.011
		c-1.353,0.409-2.805,0.895-4.319,1.465c-1.511,0.58-3.084,1.253-4.694,1.985c-1.622,0.706-3.224,1.606-4.858,2.5
		c-1.654,0.859-3.235,1.924-4.83,2.957c-1.608,1.01-3.114,2.202-4.61,3.335c-1.485,1.151-2.875,2.403-4.209,3.602
		c-1.3,1.265-2.526,2.493-3.623,3.756c-1.138,1.207-2.095,2.475-2.967,3.649c-0.893,1.152-1.6,2.317-2.227,3.338
		c-0.608,0.98-1.06,1.894-1.435,2.668c-0.467-0.667-0.928-1.322-1.408-2.013C385.939,616.2,378.699,607.459,369.766,598.312z
		 M399.793,636.182c-0.874-1.563-1.915-3.18-3.031-4.844c0.08-0.072,0.191-0.167,0.325-0.268c0.296-0.248,0.73-0.613,1.282-1.077
		c0.576-0.475,1.274-1.052,2.076-1.714c0.817-0.647,1.739-1.377,2.744-2.174c1.021-0.776,2.127-1.617,3.296-2.506
		c1.126-0.925,2.486-1.736,3.728-2.728c1.316-0.922,2.676-1.875,4.057-2.844c1.416-0.932,2.78-1.964,4.243-2.889
		c1.439-0.959,2.878-1.917,4.295-2.86c1.445-0.912,2.798-1.921,4.2-2.775c1.384-0.879,2.685-1.803,3.935-2.666
		c1.286-0.799,2.482-1.608,3.572-2.393c1.755-1.252,3.3-2.291,4.501-3.175c2.494,3.017,4.917,5.745,7.145,8.177
		c2.822,3.069,5.387,5.647,7.555,7.719c2.154,2.086,3.935,3.635,5.167,4.69c0.016,0.013,0.026,0.022,0.041,0.035
		c0.843,1.306,1.687,2.546,2.527,3.711c-0.301,0.116-0.556,0.215-0.894,0.346c-2.88,1.149-7.127,2.781-12.45,5.047
		c-5.327,2.257-11.777,5.045-19.127,8.372c-6.556,2.973-13.872,6.383-21.647,10.349c-0.587-1.134-1.28-2.475-2.105-4.071
		C403.95,642.966,402.006,639.871,399.793,636.182z M159.642,824.608C159.643,824.608,159.642,824.608,159.642,824.608
		c-0.005-0.005-0.021-0.015-0.024-0.02C159.651,824.576,159.566,824.558,159.642,824.608z M129.482,893.126
		c0.017,0.016,0.044,0.04,0.066,0.062c-0.048-0.037-0.094-0.07-0.147-0.087C129.269,893.078,129.397,893.075,129.482,893.126z
		 M130.537,895.378l0.002-0.057c0.007,0,0.013,0,0.017,0c-0.004,0.113-0.015,0.235-0.028,0.291L130.537,895.378z M1039.046,385.448
		l-63.184,21.53c-2.82,0.934-5.264,1.942-7.914,2.909c-2.611,0.995-5.316,2.181-7.967,3.266l-7.786,3.581
		c-2.54,1.315-5.126,2.534-7.626,3.932c-10.055,5.472-19.649,11.897-28.451,19.33c-8.818,7.413-16.695,15.973-23.5,25.289
		c-3.437,4.638-6.474,9.555-9.321,14.565c-2.701,4.871-5.368,9.696-8.127,14.427c-11.051,19.066-23.294,37.458-36.16,55.474
		c-6.43,9.009-12.996,17.936-19.669,26.794c-6.682,8.815-13.371,17.783-20.252,26.338c-3.447,4.407-6.991,8.543-10.532,12.724
		c-3.591,4.148-7.282,8.269-11.017,12.323c-7.49,8.108-15.286,15.948-23.213,23.659c-7.988,7.651-16.137,15.145-24.465,22.44
		c-6.355,5.59-12.842,11.056-19.398,16.396c0.393-0.856,0.806-1.706,1.17-2.572l1.036-2.303l0.884-2.355
		c0.585-1.566,1.167-3.124,1.745-4.672c0.94-3.17,2.074-6.238,2.794-9.37c0.391-1.556,0.778-3.099,1.162-4.627
		c0.347-1.536,0.581-3.083,0.871-4.598c0.619-3.024,0.932-6.03,1.296-8.94c0.394-2.907,0.461-5.769,0.643-8.516
		c0.096-2.773,0.026-5.507,0.038-8.09c-0.103-2.508-0.26-4.832-0.419-7.085c-0.19-2.496-0.452-4.498-0.696-6.569
		c-0.49-4.048-1.097-7.552-1.62-10.43c-0.513-2.88-1.058-5.122-1.408-6.659c-0.383-1.548-0.587-2.374-0.587-2.374
		c-0.324-1.316-1.577-2.227-2.964-2.084c-1.517,0.156-2.621,1.513-2.464,3.03l0.012,0.109c0,0,0.081,0.791,0.234,2.275
		c0.149,1.502,0.299,3.723,0.5,6.546c0.194,2.824,0.339,6.261,0.473,10.195c0.047,1.92,0.114,4.167,0.072,6.159
		c-0.045,2.239-0.092,4.593-0.141,7.049c-0.198,2.339-0.307,4.742-0.581,7.265c-0.391,2.532-0.535,5.172-1.056,7.839
		c-0.479,2.671-0.903,5.422-1.625,8.177c-0.604,2.779-1.377,5.576-2.207,8.407c-0.739,2.856-1.882,5.641-2.82,8.522
		c-1.195,2.79-2.213,5.688-3.574,8.468c-2.436,5.689-5.619,11.129-8.914,16.467c-3.467,5.231-7.08,10.388-11.167,15.044
		c-1.975,2.383-4.164,4.546-6.203,6.795c-1.083,1.065-2.16,2.123-3.229,3.173l-1.586,1.553l-1.709,1.568
		c-4.478,4.064-8.872,7.93-13.133,11.494c-4.276,3.54-8.393,6.799-12.251,9.733c-3.883,2.897-7.476,5.52-10.727,7.749
		c-3.253,2.228-6.131,4.112-8.519,5.645c-1.632,1.009-3.005,1.857-4.137,2.557c-4.941-3.647-9.773-6.993-14.387-10.032
		c-13.184-8.678-24.627-15.078-32.712-19.403c-8.089-4.289-12.879-6.518-12.879-6.518l-0.028-0.013
		c-1.272-0.586-2.806-0.126-3.533,1.106c-0.775,1.314-0.339,3.007,0.975,3.783c0,0,4.423,2.61,12.081,7.461
		c7.633,4.85,18.472,11.911,30.96,20.989c6.247,4.534,12.812,9.686,19.577,15.276c6.738,5.624,13.446,11.946,19.743,18.883
		c0.815,0.907,1.633,1.818,2.454,2.732l2.154,2.707l2.16,2.714l2.01,2.91c2.78,3.849,4.935,8.036,6.941,12.243
		c1.752,4.28,3.056,8.687,3.497,13.091c0.332,4.393-0.262,8.699-1.853,12.648c-1.601,3.939-4.101,7.575-7.342,10.695l-2.584,2.212
		l-0.645,0.555l-0.081,0.069c0.024-0.017,0,0.002-0.026,0.022l-0.036,0.025l-0.398,0.276c-0.515,0.354-1.141,0.811-1.385,0.89
		c-0.573,0.331-1.482,0.768-2.326,1.037c-0.855,0.297-1.744,0.506-2.671,0.617c-3.694,0.496-7.912-0.399-12.026-2.034
		c-4.126-1.632-8.146-3.953-11.955-6.536c-7.614-5.226-14.517-11.352-20.797-17.436c-6.255-6.129-11.922-12.258-17.039-18.031
		c-8.048-9.178-14.712-17.43-19.889-24.039c-0.032-0.787-0.246-1.576-0.699-2.289l-0.016-0.025c0,0-2.666-4.194-6.841-10.304
		c-4.181-6.107-9.895-14.113-15.755-21.991c-11.695-15.774-23.958-31.073-23.958-31.073c-0.654-0.807-1.838-0.991-2.701-0.386
		c-0.902,0.632-1.121,1.876-0.489,2.779c0,0,11.168,16.032,21.707,32.446c5.281,8.198,10.392,16.485,14.089,22.751
		c0.044,0.075,0.082,0.14,0.125,0.214c0.475,1.264,1.012,2.719,1.602,4.357c2.351,6.58,5.565,16.067,8.358,27.596
		c1.38,5.76,2.608,12.049,3.361,18.661c0.699,6.588,0.973,13.61-0.138,20.333c-0.482,3.385-1.461,6.625-2.828,9.583
		c-0.635,1.521-1.548,2.829-2.393,4.189c-1.026,1.202-1.971,2.477-3.188,3.493l-0.858,0.819l-0.982,0.686
		c-0.646,0.422-1.311,1.022-1.928,1.324l-2.616,1.495l-2.305,1.104c-3.172,1.431-6.636,2.561-10.073,3.169
		c-6.916,1.222-14,0.403-20.338-2.324c-6.302-2.822-11.84-7.299-16.303-12.596c-4.397-5.366-7.878-11.353-10.582-17.367
		c-2.677-6.035-4.619-12.076-6.159-17.745c-0.725-2.85-1.391-5.596-1.889-8.249c-0.605-2.629-0.981-5.17-1.392-7.55
		c-0.727-4.775-1.277-8.975-1.593-12.454c-0.313-2.858-0.486-5.192-0.619-6.985l3.387-61.621c0.055-1.038-0.703-1.967-1.75-2.095
		c-1.094-0.133-2.088,0.645-2.222,1.739l-8.469,69.483c-2.004,5.681-4.965,13.057-9.601,20.838
		c-2.671,4.487-5.986,9.042-10.048,13.091c-4.021,4.105-9,7.401-14.538,9.459c-2.79,0.989-5.746,1.593-8.793,1.867
		c-3.068,0.19-6.193,0.071-9.398-0.404c-0.869-0.134-1.847-0.239-2.631-0.398l-2.214-0.497c-0.742-0.123-1.48-0.412-2.221-0.63
		c-0.741-0.231-1.504-0.436-2.161-0.762c-2.809-1.101-5.2-2.608-6.864-4.543c-1.67-1.924-2.806-4.274-3.368-7.1
		c-0.563-2.815-0.562-5.98-0.261-9.183c0.657-6.439,2.447-13.062,4.521-19.365c4.257-12.641,9.424-24.329,13.834-34.34
		c4.504-10.023,8.257-18.375,10.884-24.222c2.588-5.889,4.067-9.254,4.067-9.254c0.474-1.075,0.1-2.364-0.925-3.007
		c-1.126-0.706-2.611-0.365-3.316,0.761l-0.014,0.023c0,0-1.955,3.12-5.256,8.652c-3.29,5.539-7.97,13.465-13.211,23.234
		c-2.647,4.871-5.431,10.206-8.174,15.987c-2.776,5.764-5.568,11.946-8.014,18.623c-2.427,6.678-4.768,13.781-5.641,21.74
		c-0.42,3.971-0.541,8.164,0.265,12.551c0.222,1.214,0.541,2.448,0.943,3.675c-2.511,3.58-6.494,9.258-11.73,16.723
		c-4.677,6.738-10.356,14.921-16.871,24.306c-6.534,9.373-13.863,19.975-21.761,31.606c-7.921,11.618-16.503,24.203-25.579,37.515
		c-4.462,6.566-9.291,13.231-14.294,19.994c-4.991,6.775-10.137,13.678-15.444,20.647c-10.604,13.948-21.794,28.202-33.192,42.661
		c-11.416,14.446-23.202,28.973-35.078,43.405c-11.88,14.418-23.901,28.753-36.167,42.291c-1.073,1.175-2.149,2.335-3.225,3.496
		c8.468-15.028,17.145-29.476,25.489-43.072c8.412-13.698,16.501-26.582,24.015-38.446c16.534-26.034,30.033-47.288,38.859-61.185
		l104.36-146.012c0.625-0.876,0.444-2.097-0.419-2.75c-0.878-0.664-2.129-0.491-2.794,0.388L251.284,970.814
		c-9.294,9.29-24.496,24.484-43.424,43.401c-16.099,15.969-34.839,34.674-55.372,54.058c-5.142,4.828-10.411,9.686-15.828,14.418
		c-2.708,2.361-5.459,4.694-8.226,6.919c-0.001,0.001-0.002,0.002-0.004,0.003c0.8-1.717,1.669-3.451,2.563-5.171
		c3.389-6.456,7.261-12.847,11.177-19.208c7.903-12.701,16.369-25.148,24.966-37.188c8.601-12.032,17.272-23.769,26.14-34.578
		c4.322-5.257,9.185-10.701,13.396-16.069c4.33-5.353,8.472-10.629,12.465-15.79c8.02-10.298,15.387-20.174,22.166-29.301
		c13.565-18.249,24.5-33.715,32.235-44.48c3.87-5.381,6.807-9.685,8.853-12.588c2.029-2.916,3.112-4.472,3.112-4.472
		c0.29-0.421,0.403-0.901,0.437-1.384l43.835-61.987c0.61-0.866,0.44-2.071-0.406-2.727c-0.87-0.675-2.123-0.517-2.798,0.353
		l-62.917,81.087c-5.808,5.628-12.946,12.178-21.218,19.347c-6.182,5.317-12.999,10.94-20.327,16.736
		c-7.348,5.772-15.236,11.681-23.5,17.639c-8.283,5.934-17.014,11.815-25.978,17.616c-8.977,5.777-18.291,11.332-27.753,16.469
		c-4.728,2.569-9.506,5.018-14.314,7.215c-4.791,2.184-9.674,4.184-14.329,5.45c-1.861,0.516-3.784,0.85-5.146,0.909
		c0.276-1.355,0.943-3.18,1.717-4.878c0.964-2.126,2.128-4.277,3.36-6.391c5.024-8.455,10.764-16.487,16.356-23.927
		c5.629-7.438,11.1-14.409,16.246-20.775c10.307-12.722,19.055-23.251,25.298-30.51c1.418-1.663,2.678-3.141,3.808-4.467
		l97.04-63.083c0.887-0.578,1.175-1.76,0.633-2.682c-0.558-0.95-1.78-1.268-2.73-0.71l-95.658,56.186
		c-0.879,0.194-1.89,0.417-3.035,0.669c-4.408,0.97-10.709,2.352-18.222,3.841c-3.761,0.709-7.829,1.442-12.077,2.065
		c-2.116,0.271-4.299,0.556-6.451,0.675c-1.966,0.131-3.977,0.207-5.697,0.054c0.302-0.425,0.638-0.868,1.026-1.32
		c2.8-3.441,6.597-6.893,10.279-10.278c3.724-3.406,7.597-6.733,11.474-9.952c3.868-3.232,7.679-6.435,11.43-9.468
		c7.505-6.103,14.509-11.8,20.513-16.682c5.124-4.151,9.486-7.748,12.819-10.521c0.907-0.247,2.066-0.563,3.454-0.941
		c1.845-0.458,4.01-1.15,6.461-2c2.458-0.837,5.267-1.71,8.208-2.89c2.955-1.154,6.207-2.302,9.524-3.745
		c3.335-1.409,6.883-2.832,10.459-4.478c3.598-1.605,7.317-3.257,11.036-5.046c3.745-1.741,7.521-3.558,11.269-5.426
		c30.086-14.757,58.928-31.67,58.928-31.67c0.917-0.54,1.259-1.716,0.752-2.663c-0.52-0.971-1.728-1.337-2.699-0.817
		c0,0-7.325,3.921-18.483,9.535c-5.574,2.808-12.106,6.024-19.138,9.392c-3.53,1.654-7.149,3.424-10.875,5.111
		c-3.716,1.709-7.486,3.457-11.29,5.119c-3.787,1.704-7.594,3.355-11.359,4.927c-3.747,1.624-7.473,3.106-11.076,4.546
		c-3.589,1.484-7.111,2.737-10.43,3.987c-3.311,1.288-6.496,2.269-9.408,3.278c-2.91,1.038-5.613,1.756-7.995,2.465
		c-0.633,0.192-1.186,0.343-1.775,0.513c-0.539-0.049-1.092,0.009-1.6,0.295c0,0-0.036,0.02-0.055,0.031
		c-0.782,0.087-1.922,0.213-3.405,0.377c-3.045,0.315-7.527,0.703-13.206,1.097c-5.645,0.328-12.656,0.75-20.177,0.036
		c-1.834-0.211-3.737-0.52-5.26-1.044c-0.309-0.094-0.577-0.212-0.809-0.328c0.161-0.219,0.285-0.435,0.582-0.721
		c0.553-0.65,1.326-1.347,2.084-2.045c1.632-1.386,3.443-2.777,5.394-4.135c7.824-5.43,17.078-10.708,26.873-16.16
		c9.848-5.405,20.382-10.904,31.311-16.557c5.489-2.792,11.069-5.63,16.718-8.503c2.832-1.433,5.682-2.874,8.545-4.323
		c2.89-1.507,5.677-2.806,8.736-4.604c6.061-3.37,11.434-7.176,16.936-10.978c5.4-3.868,10.767-7.783,16.013-11.823
		c21.015-16.099,41.406-32.766,60.699-48.048c9.642-7.567,19.056-15.037,27.986-21.371c2.246-1.617,4.626-3.161,6.88-4.71
		c2.257-1.431,4.479-2.841,6.665-4.227c4.479-2.738,8.865-5.313,13.122-7.723c17.065-9.595,31.745-16.96,42.066-21.969
		c5.171-2.493,9.234-4.452,12.003-5.788c0.925-0.434,1.65-0.774,2.28-1.07c0.451,0.517,0.904,1.068,1.351,1.541
		c1.647,1.774,3.278,3.22,4.756,4.401c0.774,0.561,1.486,1.077,2.136,1.548c0.72,0.448,1.429,0.83,2.035,1.172
		c1.281,0.765,1.994,0.903,2.582,1.186c0.555,0.226,0.837,0.34,0.837,0.34c1.386,0.555,2.983-0.088,3.575-1.467
		c0.601-1.4-0.047-3.023-1.447-3.624c0,0-0.279-0.121-0.829-0.36c-0.483-0.249-1.535-0.569-2.239-1.099
		c-1.581-0.826-4.288-2.895-7.098-6.051c-5.797-6.343-12.301-17.908-18.253-33.578c-1.835-4.874-3.638-10.201-5.366-15.859
		c0.197-0.05,0.359-0.089,0.573-0.145c1.151-0.308,2.55-0.681,4.153-1.11c1.623-0.38,3.437-0.831,5.388-1.376
		c1.97-0.494,4.103-1.029,6.36-1.595c2.237-0.6,4.653-1.092,7.095-1.746c2.441-0.655,5.029-1.141,7.602-1.806
		c2.593-0.611,5.226-1.232,7.86-1.853c5.289-1.22,10.578-2.439,15.537-3.583c2.496-0.513,4.884-1.168,7.174-1.657
		c2.285-0.541,4.445-1.052,6.439-1.524c2.016-0.476,3.86-0.93,5.495-1.341c-0.986,2.323-1.854,4.698-2.564,7.138
		c-0.726,2.517-1.317,5.095-1.648,7.737c-0.338,2.639-0.459,5.333-0.29,8.041c0.12,1.357,0.26,2.708,0.528,4.055
		c0.265,1.34,0.568,2.685,1.032,3.984c0.408,1.315,0.998,2.569,1.573,3.815c0.664,1.208,1.319,2.414,2.133,3.516
		c0.739,1.152,1.676,2.148,2.551,3.171c0.95,0.955,1.889,1.919,2.947,2.725c0.457,0.399,0.938,0.76,1.424,1.11
		c-1.165,0.783-2.26,1.571-3.25,2.313c-2.231,1.784-3.993,3.356-5.094,4.657c-1.13,1.244-1.713,1.991-1.713,1.991
		c-0.418,0.537-0.545,1.278-0.267,1.952c0.412,0.999,1.557,1.474,2.555,1.061l0.189-0.078c0,0,0.84-0.347,2.203-1.018
		c0.685-0.332,1.481-0.756,2.469-1.171c0.984-0.412,2.041-0.925,3.219-1.455c1.219-0.478,2.503-1.034,3.849-1.64
		c1.401-0.531,2.848-1.125,4.345-1.745c1.515-0.597,3.081-1.215,4.672-1.842c1.601-0.619,3.229-1.247,4.855-1.876
		c3.277-1.258,6.554-2.516,9.626-3.695c3.072-1.224,5.969-2.321,8.432-3.358c2.476-0.99,4.528-1.898,5.963-2.533
		c1.431-0.642,2.242-1.041,2.242-1.041c0.744-0.368,1.261-1.135,1.267-2.021c0.007-1.253-1.002-2.274-2.255-2.282
		c0,0-0.942-0.006-2.558,0.12c-1.617,0.117-3.904,0.363-6.618,0.82c-1.352,0.245-2.829,0.478-4.359,0.842
		c-1.53,0.367-3.167,0.68-4.817,1.165c-3.321,0.891-6.824,2.017-10.258,3.364c-1.725,0.638-3.419,1.409-5.08,2.146
		c-1.649,0.741-3.231,1.592-4.766,2.381c-0.017-0.014-0.036-0.026-0.053-0.04c-0.859-0.732-1.734-1.438-2.482-2.258
		c-0.815-0.759-1.474-1.638-2.184-2.463c-0.62-0.889-1.306-1.732-1.792-2.69c-0.565-0.911-0.976-1.897-1.41-2.862
		c-0.349-1.005-0.719-1.993-0.943-3.034c-0.287-1.016-0.437-2.077-0.567-3.133c-0.133-1.058-0.159-2.135-0.18-3.209
		c0.057-4.326,1.033-8.706,2.523-12.947c0.754-2.12,1.654-4.205,2.667-6.233c0.498-1.018,1.046-2.011,1.599-2.992
		c0.544-0.949,1.185-1.995,1.704-2.742c0.744-1.085,1.008-2.511,0.572-3.86l-0.098-0.303c-1.484-4.586-2.831-9.605-3.989-14.506
		c-1.166-4.94-2.168-9.923-3.112-14.918c-0.924-4.999-1.73-10.021-2.394-15.061c-0.664-5.029-1.213-10.122-1.666-15.129
		c-0.497-4.935-0.723-10.227-1.075-15.335c-0.305-5.291-0.778-10.56-1.415-15.796c-1.303-10.47-3.146-20.805-5.154-31.024
		c-2.039-10.214-4.318-20.301-6.249-30.362c-0.951-5.032-1.953-10.04-2.685-15.055c-0.81-5.009-1.377-10.057-1.786-14.942
		c-0.251-2.453-0.299-5.134-0.458-7.69c-0.062-2.303-0.084-4.938,0-7.38c0.182-4.965,0.602-9.916,1.541-14.736
		c0.939-4.817,2.319-9.525,4.321-13.919c1.013-2.218,2.157-4.234,3.511-6.28c1.372-2.027,2.785-3.703,4.674-5.612
		c0.978-0.994,1.074-2.596,0.167-3.695c-0.969-1.174-2.707-1.34-3.881-0.37l-0.133,0.11c-1.925,1.589-4.099,3.673-5.826,5.797
		c-1.376,1.665-2.619,3.526-3.756,5.413c-1.058-1.544-2.594-3.782-4.546-6.63c-2.007-2.865-4.387-6.404-7.384-10.234
		c-2.944-3.875-6.237-8.282-9.973-12.966c-3.762-4.655-7.869-9.679-12.271-14.945c-4.468-5.197-9.19-10.676-14.163-16.262
		c-5.039-5.518-10.174-11.294-15.577-16.984c-5.436-5.653-10.84-11.518-16.459-17.162c-5.617-5.648-11.201-11.33-16.802-16.813
		c-5.577-5.509-11.163-10.829-16.573-15.97c-5.365-5.189-10.731-10.015-15.746-14.666c-5.012-4.655-9.877-8.92-14.32-12.906
		c-11.102-9.85-20.132-17.401-25.38-21.709c-5.717-14.239-11.362-28.581-16.653-43.046c-3.279-9.042-6.47-18.153-9.06-27.251
		c-1.194-4.245-2.278-8.574-2.813-12.536c3.079,2.109,6.26,4.783,9.323,7.46c3.548,3.128,7.054,6.397,10.507,9.732
		c6.908,6.677,13.664,13.578,20.325,20.555c13.318,13.966,26.276,28.235,38.99,42.521c25.406,28.599,49.829,57.303,73.059,85.4
		c11.617,14.048,22.899,27.976,33.852,41.671c10.974,13.68,21.576,27.162,31.626,40.461c20.382,26.367,36.593,53.279,51.657,78.27
		c14.922,25.045,28.254,48.242,40.008,68.84c11.721,20.618,21.769,38.696,30.015,53.598c16.399,29.856,25.77,46.916,25.77,46.916
		l0.013,0.024c0.623,1.132,2.038,1.571,3.196,0.978c1.18-0.604,1.647-2.05,1.043-3.231c0,0-2.22-4.338-6.383-12.472
		c-2.469-4.781-5.618-10.918-9.405-18.208c6.89-6.82,13.623-13.751,20.218-20.854c7.056-7.641,13.936-15.461,20.436-23.697
		c6.523-8.351,12.158-16.734,19.182-23.91c6.838-7.303,14.773-13.336,23.518-17.917c8.734-4.609,18.285-7.658,28.086-9.657
		l7.41-1.291l7.498-0.895c4.954-0.503,10.296-0.926,15.323-1.232c10.197-0.662,20.495-1.048,30.781-1.266l31.023-0.472
		c4.083-0.107,8.173-0.197,12.285-0.364c-1.557,1.424-3.114,2.849-4.679,4.249c-2.164,1.925-4.378,3.785-6.584,5.636
		c-1.085,0.95-2.226,1.82-3.339,2.726c-1.116,0.903-2.233,1.802-3.386,2.639c-2.274,1.737-4.57,3.39-6.891,4.991
		c-1.146,0.831-2.356,1.506-3.527,2.268l-1.768,1.111l-1.806,0.971c-1.212,0.605-2.384,1.389-3.601,1.871
		c-1.208,0.518-2.41,1.135-3.611,1.585l-3.581,1.155c-0.531,0.075-1.052,0.174-1.578,0.26c-0.599-0.365-1.193-0.729-1.803-1.055
		c-1.286-0.689-2.614-1.284-3.974-1.816c-2.71-1.081-5.635-1.751-8.625-2.069c-2.996-0.386-6.091-0.067-9.098,0.468
		c-1.466,0.404-2.974,0.763-4.377,1.326c-1.356,0.642-2.833,1.142-4.053,1.972c-1.232,0.804-2.6,1.49-3.67,2.448l-1.685,1.366
		l-0.837,0.688l-0.105,0.086l-0.052,0.043l-0.383,0.377l-0.157,0.169l-0.313,0.337l-1.253,1.35
		c-0.439,0.512-0.778,0.736-1.336,1.585c-0.51,0.725-1.007,1.465-1.484,2.213c-0.493,0.748-0.953,1.502-1.22,2.282
		c-0.617,1.56-1.315,3.078-1.489,4.818c-0.119,0.848-0.302,1.69-0.323,2.542l0.108,2.568c0.006,0.864,0.191,1.685,0.405,2.501
		c0.208,0.814,0.392,1.644,0.656,2.43c0.693,1.478,1.239,3.084,2.211,4.355c0.449,0.665,0.895,1.334,1.367,1.975l1.605,1.737
		c0.522,0.595,1.094,1.127,1.723,1.592l1.844,1.438c2.651,1.623,5.468,3.039,8.627,3.547c1.523,0.406,3.166,0.361,4.76,0.409
		c0.797,0.027,1.61-0.179,2.41-0.276c0.796-0.158,1.614-0.184,2.371-0.51c0.769-0.268,1.529-0.561,2.281-0.857l0.562-0.225
		l0.07-0.028l0.035-0.014l0.332-0.166l0.098-0.06l0.197-0.12l0.786-0.481c0.543-0.345,1.007-0.586,1.614-1.017l1.919-1.504
		c0.671-0.507,1.187-1.032,1.669-1.558l1.484-1.584c0.827-1.146,1.796-2.224,2.446-3.445c1.517-2.35,2.536-4.858,3.5-7.339
		c0.877-2.508,1.512-5.055,2.002-7.601c0.238-1.287,0.418-2.554,0.55-3.837c1.02-0.2,2.044-0.389,3.057-0.605l4.763-1.704
		c1.528-0.634,2.933-1.4,4.399-2.101c1.498-0.668,2.756-1.576,4.121-2.383l2.008-1.243l1.895-1.346
		c1.246-0.912,2.558-1.762,3.742-2.727l3.594-2.851c1.183-0.96,2.291-1.996,3.435-2.992c1.15-0.991,2.245-2.03,3.336-3.071
		c1.088-1.044,2.207-2.057,3.253-3.134c2.144-2.108,4.183-4.31,6.21-6.511c3.062-3.359,5.944-6.849,8.736-10.433
		c3.23-0.27,6.479-0.623,9.761-1.127c2.653-0.348,5.478-1.016,8.071-1.607l7.555-1.916c5.047-1.295,10.055-2.654,15.061-4.049
		c20.014-5.584,39.913-11.548,59.642-18.321c4.932-1.693,9.852-3.444,14.75-5.305c2.454-0.903,4.896-1.875,7.338-2.848l1.832-0.726
		l1.63-0.593l3.647-1.321c9.099-3.051,19.163-5.038,29.155-6.554c6.645-0.996,13.351-1.764,20.082-2.39
		C1055.125,380.017,1047.075,382.701,1039.046,385.448z M825.693,467.488c-0.749,2.206-1.673,4.322-2.658,6.358
		c-1.065,1.979-2.148,3.945-3.527,5.574c-0.617,0.891-1.408,1.562-2.073,2.362l-1.146,0.993c-0.379,0.351-0.756,0.668-1.105,0.853
		c-0.353,0.227-0.693,0.462-1.026,0.707c-0.408,0.255-1.064,0.535-1.584,0.802l-0.828,0.404l-0.207,0.101l-0.103,0.05
		c-0.075,0.038,0.555-0.278,0.279-0.143l-0.019,0.004l-0.039,0.008l-0.31,0.07c-0.41,0.097-0.814,0.197-1.207,0.322
		c-0.379,0.182-0.83,0.092-1.237,0.154c-0.419,0.002-0.817,0.138-1.246,0.065c-0.85-0.143-1.693-0.093-2.533-0.431
		c-1.707-0.354-3.279-1.372-4.745-2.368c-0.61-0.663-1.438-1.101-1.933-1.844l-0.863-0.996l-0.659-1.098
		c-0.544-0.69-0.648-1.514-1.031-2.235c-0.097-0.382-0.131-0.768-0.221-1.143c-0.095-0.375-0.187-0.751-0.128-1.125
		c0.012-0.373,0.008-0.742-0.012-1.113c0.021-0.369,0.173-0.728,0.229-1.091c0.04-0.737,0.46-1.44,0.729-2.167
		c0.106-0.403,0.325-0.672,0.525-0.94c0.193-0.279,0.367-0.567,0.527-0.871c0.031-0.243,0.677-0.799,1.042-1.211l1.275-1.328
		l0.242-0.252l0.048-0.036l0.601-0.462l1.191-0.934c0.761-0.699,1.661-1.046,2.473-1.593c1.684-0.954,3.441-1.572,5.225-2.054
		c1.816-0.293,3.654-0.576,5.55-0.32c1.881,0.191,3.801,0.577,5.659,1.31c0.929,0.353,1.845,0.76,2.733,1.213
		c0.447,0.217,0.875,0.465,1.3,0.699c0.381,0.221,0.898,0.552,1.041,0.647l0.601,0.398
		C826.258,465.723,825.986,466.621,825.693,467.488z"/>
	<path fill="#FFFFFF" d="M801.401,473.161c7.247,0.604,9.172-13.758,3.528-13.758C799.284,459.402,788.702,472.102,801.401,473.161z
		"/>
</g>
</svg>
