<?xml version="1.0" encoding="utf-8"?>
<!--Designed by Vexels.com - 2017 All Rights Reserved - https://vexels.com/terms-and-conditions/-->
<!DOCTYPE svg PUBLIC "-//W3C//DTD SVG 1.1//EN" "http://www.w3.org/Graphics/SVG/1.1/DTD/svg11.dtd">
<svg version="1.1" id="Layer_1" xmlns="http://www.w3.org/2000/svg" xmlns:xlink="http://www.w3.org/1999/xlink" x="0px" y="0px"
	 width="1200px" height="1200px" viewBox="0 0 1200 1200" enable-background="new 0 0 1200 1200" xml:space="preserve">
<g>
	<g>
		<g>
			<path fill="#A5EAF1" d="M935.154,610.25c0,0,2.89-91.648-113.678-121.722c-116.566-30.073-141.496,0-141.496,0l18.866,25.853
				c0,0,39.101-29.447,104.572,0.674C893.574,556.532,935.154,610.25,935.154,610.25z"/>
			<path fill="#22243A" d="M711.806,541.926c1.848,14.881,3.737,28.348,5.108,41.866c0.646,6.39,0.388,12.882,0.372,19.327
				c-0.02,7.211-0.13,14.424-0.393,21.627c-0.138,3.781-0.084,7.729-1.162,11.285c-2.755,9.088-5.687,18.172-9.388,26.902
				c-1.7,4.008-5.177,7.359-8.204,10.684c-3.054,3.354-7.253,5.836-9.726,9.521c-8.811,13.148-21.571,21.203-35.005,28.535
				c-2.002,1.092-4.019,2.178-6.097,3.111c-5.956,2.674-8.131,7.219-7.995,13.693c0.266,12.527-0.288,25.076,0.035,37.6
				c0.264,10.27,1.721,20.32,5.869,30.021c3.265,7.639,5.047,15.902,7.547,23.873c1.289,4.109,0.058,7.523-2.814,10.414
				c-7.005,7.057-5.869,10.41-0.083,16.482c4.823,5.061,6.11,9.738,3.288,16.365c-1.519,3.572-1.684,8.273-0.926,12.162
				c3.488,17.896,7.829,35.625,11.278,53.525c5.161,26.785,15.796,51.541,27.007,76.148c2.347,5.15,4.479,10.533,5.697,16.031
				c1.792,8.088-5.012,14.594-12.863,12.119c-6.471-2.039-12.73-5.076-18.666-8.414c-13.928-7.828-27.066-16.83-39.717-26.67
				c-18.3-14.232-37.07-27.871-55.876-41.439c-12.079-8.715-23.192-18.426-33.465-29.186c-4.192-4.393-8.88-8.309-13.286-12.5
				c-3.856-3.67-8.337-6.936-11.302-11.236c-6.777-9.824-15.656-17.541-23.898-25.934c-3.703-3.77-6.717-8.215-10.019-12.375
				c-3.066-3.865-5.725-8.143-9.223-11.564c-8.544-8.352-14.908-18.238-20.978-28.348c-6.457-10.76-13.498-21.283-18.751-32.623
				c-7.323-15.812-13.319-32.246-19.674-48.498c-1.932-4.941-3.4-10.098-4.68-15.254c-2.638-10.629-5.008-21.322-9.219-32.041
				c-0.392,1.852-1.321,3.775-1.093,5.547c2.242,17.33,3.693,34.844,7.345,51.883c3.416,15.934,8.8,31.496,14.076,46.963
				c7.116,20.863,14.65,41.6,22.619,62.152c3.973,10.252,9.31,19.979,14.034,29.938c6.027,12.709,11.88,25.504,18.146,38.094
				c4.907,9.867,10.353,19.465,15.509,29.211c1.423,2.684,2.979,5.359,3.921,8.223c1.396,4.248-2.051,8.064-6.232,6.502
				c-3.37-1.262-6.901-3.52-9.065-6.334c-9.262-12.041-18.521-24.137-26.89-36.801c-13-19.672-25.611-39.662-33.481-62.119
				c-7.034-20.076-13.906-40.211-20.652-60.383c-3.859-11.537-7.313-23.205-10.976-34.807c-1.372-4.348-3.053-8.615-4.185-13.021
				c-6.42-25.012-15.326-49.361-19.94-74.854c-0.811-4.477-1.62-8.955-2.557-14.137c-3.693-1.867-7.648-4.123-11.8-5.924
				c-20.972-9.078-41.434-19.119-60.598-31.645c-7.267-4.748-14.93-6.68-23.781-5.781c-12.735,1.289-24.899-1.639-36.399-7.359
				c-5.223-2.598-8.278-6.904-9.219-12.299c-1.023-5.875-1.057-11.923-1.595-18.795c-10.034-5.875-17.941-14.826-22.696-26.468
				c-2.917-7.144-2.618-10.428,3.534-14.886c10.174-7.373,21.787-11.164,34.311-8.402c6.294,1.387,11.536,0.064,17.572-1.044
				c17.504-3.217,28.965-14.176,39.581-26.955c3.878-4.671,8.193-8.983,12.014-13.698c2.541-3.135,4.559-6.694,6.998-10.347
				c-3.543-3.777-6.458-6.713-9.179-9.817c-9.841-11.223-9.079-23.604,2.868-32.649c10.286-7.788,21.335-14.566,32.023-21.827
				c2.778-1.887,5.461-3.913,8.497-6.098c-1.044-8.015-2.251-15.508-2.949-23.048c-1.294-13.986-2.872-27.984-3.242-42.006
				c-0.362-13.663,0.097-27.407,1.217-41.03c0.834-10.17,2.396-20.465,5.202-30.255c8.34-29.084,21.02-56.319,38.402-81.117
				c8.934-12.744,19.164-24.571,28.648-36.934c17.863-23.283,40.725-40.732,65.253-56.254c23.864-15.1,49.458-26.661,75.64-37.06
				c10.596-4.207,20.807-9.399,31.477-13.386c8.154-3.048,16.682-5.216,25.183-7.174c5.058-1.164,10.461-1.817,15.746,1.604
				c0.025,8.154-2.134,15.677-5.47,22.919c-8.633,18.724-15.121,38.083-18.688,58.467c-2.161,12.348-5.356,24.514-8.031,36.773
				c-5.377,24.634-7.377,49.481-6.604,74.749c0.721,23.528-0.681,47.114-0.303,70.661c0.187,11.713,1.518,23.538,3.659,35.065
				c4.325,23.268,12.981,45.291,21.011,67.465c1.508,4.165,4.04,7.017,8.17,8.905c22.783,10.414,42.177,25.74,59.683,43.288
				c8.229,8.251,14.656,18.315,21.763,27.663c2.242,2.949,4.033,6.238,6.25,9.717c4.829-2.133,8.934-3.959,13.048-5.76
				c13.833-6.056,28.112-5.605,42.537-2.883c7.369,1.389,14.653,3.542,22.939,3.006c-1.017-3.039-1.794-5.369-3.108-9.302
				c3.105,0.956,5.324,1.032,6.637,2.161c3.452,2.96,6.377,6.529,9.777,9.557c1.853,1.652,4.246,2.693,6.864,4.297
				c2.931-6.76-7.593-9.011-4.306-15.015c1.225-0.067,2.179-0.431,2.622-0.102c12.146,9.021,23.913,18.595,36.447,27.032
				c9.417,6.343,19.506,11.9,29.834,16.639c17.979,8.249,32.427,21.188,46.907,34.023c4.672,4.145,7.676,10.246,11.16,15.635
				c2.843,4.396,5.263,9.066,8.838,13.268c-0.186-8.276-2.22-16.047-5.346-23.508c-6.217-14.827-14.62-28.348-24.58-40.971
				c-5.061-6.412-11.551-10.956-18.18-15.398c-14.86-9.955-30.312-18.83-46.982-25.459c-21.429-8.521-43.932-12.093-66.706-14.077
				c-24.322-2.12-48.619-1.907-72.73,2.663c-1.825,0.346-3.702,0.414-5.51,0.607c-1.455-6.658-0.922-8.295,4.242-9.154
				c8.236-1.369,16.552-2.683,24.877-3.059c24.348-1.101,48.682-0.638,72.845,3.004c24.987,3.766,49.075,10.25,70.809,23.799
				c7.74,4.826,15.718,9.268,23.555,13.936c10.922,6.506,20.124,14.887,27.666,25.154c8.098,11.022,16.446,21.863,24.564,32.873
				c17.731,24.043,31.086,50.539,42.042,78.158c8.136,20.518,12.64,42.195,17.457,63.725c3.17,14.154,4.815,28.439,5.498,42.912
				c0.321,6.811,1.707,13.566,2.403,20.371c0.813,7.924,1.414,15.871,2.078,23.811c0.159,1.895-0.123,3.887,0.365,5.678
				c3.742,13.727,3.548,27.896,3.974,41.861c0.622,20.453,2.014,40.986-1.247,61.426c-1.915,11.996-2.392,24.252-4.758,36.141
				c-4.211,21.158-7.567,42.73-20.306,61.105c-4.979,15.664-16.826,27.049-25.965,39.945c-9.841,13.893-22.662,25.525-37.367,34.775
				c-12.214,7.682-24.031,15.99-36.13,23.857c-4.769,3.104-9.778,5.846-14.761,8.6c-7.643,4.223-15.354,8.32-23.042,12.457
				c-19.923,10.711-40.641,18.791-63.545,20.387c-10.186,0.711-20.278,2.809-30.464,3.492c-15.605,1.045-29.037-4.904-40.985-14.498
				c-7.467-5.996-7.409-11.912,1.054-15.705c11.953-5.357,19.001-14.639,24.513-25.818c3.36-6.82,7.452-13.289,10.631-20.186
				c8.193-17.764,20.883-30.613,39.394-37.438c1.416-0.523,2.781-1.186,4.141-1.844c0.314-0.15,0.51-0.557,1.2-1.355
				c-0.252-2.113-0.813-4.68-0.811-7.244c0.003-4.547,0.299-8.918,3.221-12.98c5.735-7.977,7.337-17.266,7.884-26.951
				c1.315-23.252-1.43-46.328-2.924-69.432c-0.624-9.643-0.452-18.92,1.823-28.232c0.351-1.438,0.443-2.936,0.68-4.566
				c-1.178-1.184-2.05-2.586-3.312-3.246c-7.384-3.854-9.898-11.086-10.127-18.146c-0.477-14.725-8.035-25.994-16.162-36.947
				c-4.706-6.344-11.11-11.412-16.591-17.209c-4.422-4.676-9.337-9.111-12.728-14.48c-5.979-9.473-2.789-18.84,8.03-21.406
				c10.606-2.516,20.534-8.295,31.954-7.324c1.473,0.127,3.087-0.166,4.491-0.676c11.775-4.273,23.453-8.832,35.292-12.924
				c8.895-3.072,13.678-9.252,15.198-18.227c0.825-4.863,2.01-9.797,1.897-14.674c-0.812-35.238-4.892-69.859-21.584-101.719
				c-13.678-26.106-31.854-48.207-58.484-61.977c-8.022-4.147-16.881-6.819-25.56-9.518c-6.103-1.9-12.525-2.826-18.853-3.911
				C715.829,540.948,713.922,541.646,711.806,541.926z M590.622,112.655c-0.768,0.78-1.839,1.424-2.264,2.361
				c-9.591,21.214-16.93,43.343-21.365,66.046c-6.833,34.98-14.391,69.934-15.935,105.77c-0.838,19.454,0.385,38.584,4.105,57.788
				c3.775,19.475,8.756,38.533,15.073,57.272c1.033,3.064,2.752,6.711,5.278,8.277c4.34,2.692,9.564,3.957,15.717,6.32
				c-0.471-3.583-0.444-5.763-1.066-7.743c-4.324-13.773-8.978-27.444-13.141-41.265c-4.735-15.729-7.404-31.832-7.18-48.316
				c0.301-22.021,1.26-44.052,0.907-66.063c-0.397-24.783,0.354-49.352,5.662-73.679c4.856-22.271,9.283-44.636,13.897-66.96
				c5.854-10.327,8.231-21.79,11.358-33.006C592.829,90.849,590.04,99.692,590.622,112.655z M462.372,498.189
				c-2.276,6.632-4.641,12.626-6.373,18.798c-2.014,7.165-5.779,13.132-10.656,18.62c-9.225,10.384-20.207,18.725-32.456,24.814
				c-23.545,11.709-47.891,21.512-74.293,24.947c-1.878,0.244-3.74,0.716-5.567,1.23c-16.879,4.756-33.958,8.516-51.508,9.484
				c-18.885,1.043-37.811,4.748-56.681-0.342c-0.566-0.15-1.364,0.537-2.053,0.832c-3.996,9.342-2.693,14.922,5.211,18.84
				c4.008,1.986,8.549,3.107,12.975,4c11.434,2.303,22.619,0.221,33.862-2.098c14.934-3.08,29.962-5.127,45.266-1.891
				c6.538,1.383,12.333,4.039,17.28,8.256c1.577,1.342,1.764,4.316,2.532,6.398c-4.623,2.529-7.493,0.363-10.607-0.98
				c-11.103-4.795-22.733-5.957-34.639-4.43c-1.902,0.244-3.681,1.443-6.982,2.805c5.689,3.416,9.803,5.969,13.999,8.383
				c9.213,5.299,18.099,11.369,27.774,15.635c32.409,14.283,63.868,30.293,94.352,48.344c10.42,6.172,21.688,10.975,32.783,15.924
				c6.565,2.934,13.381,5.756,20.377,7.178c16.753,3.404,33.603,6.576,50.558,8.674c17.834,2.207,35.644-1.053,53.158-3.836
				c13.395-2.127,26.493-6.709,39.409-11.121c23.924-8.172,46.015-19.092,62.896-39.25c8.078-9.645,16.116-18.334,19.955-30.957
				c2.701-8.879,4.786-17.475,4.895-26.641c0.043-3.797-0.229-7.605-0.014-11.393c0.852-15.144,0.115-29.967-2.654-45.102
				c-2.187-11.953-5.116-23.443-8.61-35.008c-7.42-24.557-22.185-44.043-41.112-60.479c-25.799-22.404-54.607-39.733-87.924-48.756
				c-0.719-0.196-1.409-0.592-2.041-1.002c-8.233-5.364-17.842-6.96-27.105-8.125c-32.039-4.028-64.134-7.947-96.326-10.239
				c-14.18-1.009-28.704,1.53-42.957,3.362c-7.856,1.01-15.127,4.455-22.241,8.408c-7.9,4.39-17.243,6.252-24.972,10.868
				c-17.28,10.317-34.08,21.461-50.794,32.688c-6.521,4.381-6.801,10.561-1.614,16.676c2.451,2.889,5.479,5.285,8.004,8.119
				c6.728,7.547,6.891,13.331,0.384,21.258c-4.343,5.287-8.897,10.418-13.634,15.354c-8.408,8.764-17.015,17.335-25.568,25.957
				c-1.416,1.426-2.986,2.697-5.579,5.018c13.907,2.397,25.728,3.416,36.543-4.659c3.441-2.567,7.233-5.528,11.924-3.296
				c0.232,1.486,0.514,2.234,0.409,2.926c-0.105,0.716-0.427,1.529-0.923,2.04c-8.213,8.464-17.607,14.675-29.97,14.114
				c-18.629-0.846-37.083-3.17-55.168-7.84c-9.038-2.334-19.696,0.131-28.716,7.3c1.327,9.461,6.419,16.635,14.58,21.646
				c12.441,7.64,26.178,9.771,40.516,8.802c4.926-0.332,9.837-0.938,14.743-1.518c12.83-1.512,25.738-2.577,38.45-4.77
				c11.943-2.058,23.555-6.282,35.535-7.857c20.287-2.667,39.087-9.65,57.588-17.652c13.308-5.756,25.299-13.76,36.248-23.406
				c11.028-9.715,14.573-22.528,17.075-36.59c-3.081-1.493-5.833-2.654-8.417-4.111c-7.393-4.17-13.94-9.331-17.935-17.038
				c-2.399-4.634-2.116-5.065,3.38-9.884c0.358,0.086,0.847,0.053,1.054,0.277c1.008,1.094,2.197,2.125,2.86,3.416
				c5.558,10.81,14.741,15.602,26.46,17.379c12.802,1.941,23.436,0.062,30.243-12.296c1.414-2.567,3.278-5.322,7.688-3.874
				c3.441,5.126-0.64,9.068-2.967,13.016C487.454,495.104,475.81,497.168,462.372,498.189z M937.675,592.664
				c0.546,5.52,1.438,11.033,1.562,16.561c0.234,10.436,1.983,20.365,7.215,29.584c1.473,2.596,2.311,5.633,3.031,8.568
				c5.345,21.746,5.78,43.807,1.463,65.59c-4.136,20.857-10.672,41.184-19.474,60.631c-3.116,6.887-7.719,13.121-10.612,20.08
				c-10.414,25.053-29.691,43.301-48.893,60.83c-14.966,13.66-31.919,25.834-51.329,33.402c-6.312,2.459-9.778,6.99-10.59,13.568
				c-0.37,2.996-0.598,6.064-0.399,9.068c0.606,9.088,1.415,18.162,2.227,27.234c0.27,3.021,0.695,6.041,1.246,9.025
				c0.19,1.045,0.969,1.98,1.383,2.775c3.021,1.309,7.599-1.033,8.222,3.617c-0.098,6.092-10.754,4.688-7.799,12.352
				c3.673,0.314,7.203,0.617,11.11,0.951c-0.187,8.645-7.527,5.346-11.624,8.771c-0.29,3.643-1.184,8.15-0.887,12.578
				c0.634,9.486-2.243,17.99-6.134,26.332c-1.268,2.719-2.642,5.389-4.078,8.307c1.671,3.072,3.24,5.959,5.245,9.646
				c6.619-2.045,12.745-3.854,18.814-5.846c3.959-1.303,7.765-3.092,11.753-4.273c16.067-4.762,31.402-10.746,45.227-20.721
				c15.723-11.344,32.014-21.982,45.717-35.77c27.907-28.076,44.077-62.27,51.585-100.928c5.154-26.525,8.105-53.326,10.859-80.152
				c2.506-24.408-0.411-48.566-4.864-72.523c-2.152-11.568-5.31-22.949-8.038-34.41c-0.438-1.838-0.847-3.711-1.551-5.451
				c-4.85-11.943-10.115-23.729-14.588-35.807C957.617,620.441,948.641,606.436,937.675,592.664z M720.07,1128.893
				c9.587,8.91,20.303,12.42,31.899,11.846c11.331-0.566,22.547-3.264,33.882-4.088c19.741-1.438,37.897-8.016,55.394-16.467
				c25.701-12.414,48.846-29.211,73.189-43.961c4.506-2.73,8.529-6.318,12.569-9.758c20.46-17.416,36.062-38.598,49.57-61.752
				c9.352-16.029,14.943-33.246,19.426-50.844c2.973-11.678,3.874-23.926,5.184-35.977c1.354-12.445,2.171-24.951,3.012-37.445
				c0.165-2.449-0.631-4.963-1.06-7.988c-2.691,0.941-4.582,1.604-6.761,2.365c0.412-1.156,0.461-2.252,0.941-2.498
				c6.644-3.391,6.863-9.104,6.302-15.551c-1.185-13.635-1.919-27.307-2.911-40.959c-0.172-2.346-0.705-4.664-1.071-6.998
				c-2.325,7.184-2.644,14.346-3.795,21.369c-1.72,10.502-4.654,20.824-5.946,31.363c-2.527,20.627-8.614,40.121-17.294,58.842
				c-6.074,13.1-13.077,25.551-22.28,36.986c-21.141,26.271-48.325,44.871-76.227,62.734c-2.521,1.613-5.403,2.781-8.26,3.74
				c-8.999,3.02-18.057,5.875-27.107,8.736c-13.357,4.225-26.535,9.258-40.146,12.391c-18.436,4.244-31.312,14.59-39.688,31.158
				c-1.543,3.053-2.769,6.316-4.658,9.135C744.022,1100.486,738.594,1119.322,720.07,1128.893z M801.068,859.41
				c-1.289,5.906,1.065,9.516,5.111,12.352c11.906,8.342,8.362,9.91,21.951,2.521c12.623-6.865,24.99-14.773,35.941-24.029
				c31.424-26.555,54.251-59.289,66.588-98.865c6.679-21.438,12.938-42.98,13.511-65.684c0.262-10.5-1.414-20.697-4.581-33.564
				c-1.875,5.365-2.695,8.156-3.813,10.822c-2.495,5.945-4.762,12.029-7.794,17.693c-9.077,16.949-21.296,31.094-36.51,43.135
				c-12.007,9.504-24.811,17.467-37.964,25.066c-13.468,7.779-27.795,13.459-42.694,17.801c-3.272,0.957-6.399,2.422-9.675,3.369
				c-6.188,1.785-12.425,3.395-18.654,5.025c-9.137,2.393-18.307,4.664-27.401,7.203c-1.209,0.34-2.063,1.955-2.957,2.855
				c4.386,9.102,5.599,10.855,14.046,18.062c13.241,11.293,23.954,24.373,29.874,40.982c0.382,1.07,0.777,2.18,1.409,3.105
				c0.604,0.887,1.527,1.553,2.176,2.188c3.351-0.25,5.39-5.396,9.422-1.83C809.802,853.986,804.147,856.285,801.068,859.41z
				 M565.564,74.743c-12.434,4.765-22.56,8.066-32.19,12.456c-21.076,9.606-42.394,18.742-61.96,31.408
				c-22.771,14.74-44.244,30.915-61.237,52.365c-3.303,4.169-6.244,8.646-9.73,12.65c-19.129,21.971-34.318,46.427-45.998,73.042
				c-10.348,23.576-17.09,47.973-15.369,74.107c0.273,4.163,0.354,8.383,0.008,12.534c-1.723,20.678,1.337,40.949,5.042,61.161
				c0.454,2.486,1.73,4.824,2.84,7.808c13.519-2.558,23.671-10.654,35.37-16.06c-0.63-11.531-0.405-22.239-1.942-32.69
				c-4.105-27.892,1.476-54.618,9.331-80.919c11.337-37.951,34.374-69.305,59.263-99.195c18.245-21.91,38.591-41.942,60.203-60.608
				c7.765-6.705,15.521-13.419,23.328-20.072C542.886,93.902,553.296,85.129,565.564,74.743z M473.066,391.355
				c0.311-2.335,0.816-4.17,0.75-5.983c-0.317-8.341-1.075-16.673-1.168-25.013c-0.388-34.86,6.122-68.852,14.104-102.525
				c6.689-28.221,20.81-53.756,31.139-80.675c2.436-6.347,6.172-12.189,9.229-18.306c4.396-8.799,8.649-17.669,13.099-26.441
				c1.973-3.891,4.271-7.618,6.855-12.185c-2.203,0.317-3.135,0.16-3.542,0.55c-17.855,17.057-35.992,33.837-53.333,51.404
				c-8.228,8.335-14.669,18.401-22.363,27.3c-21.088,24.384-37.412,51.701-50.563,81c-9.54,21.25-13.375,43.467-11.032,66.729
				c1.029,10.208,1.609,20.462,2.531,30.684c0.327,3.651,1.053,7.267,1.562,10.664C431.857,389.517,452.214,390.426,473.066,391.355
				z M589.406,79.51c-3.657,2.546-5.802,3.442-7.083,5.034c-5.697,7.071-11.688,13.997-16.575,21.613
				c-10.253,15.976-21.04,31.775-29.466,48.712c-11.145,22.397-20.744,45.612-30.025,68.867
				c-5.893,14.762-10.786,30.038-14.676,45.45c-3.522,13.944-4.648,28.475-7.59,42.588c-5.59,26.824-3.144,53.414,0.864,80.866
				c4.205,0.48,8.135,0.929,12.517,1.429c-0.068-5.218-0.12-9.211-0.169-13.049c4.666-1.084,8.496-1.976,12.623-2.935
				c2.644,5.254,5.155,10.247,7.777,15.459c5.949-6.05-3.248-15.482,6.118-20.836c1.017,2.656,2.139,4.644,2.492,6.761
				c0.436,2.599,0.114,5.312,0.319,7.96c0.711,9.171,2.676,11.216,11.654,12.075c1.437,0.137,2.925-0.229,5.392-0.456
				c-0.51-5.953-0.811-11.563-1.504-17.125c-1.547-12.434-3.488-24.824-4.909-37.272c-2.837-24.866,1.173-49.213,5.849-73.517
				c4.805-24.975,9.25-50.016,14.011-74.998c5.049-26.508,11.488-52.576,21.6-77.762C583.317,106.683,585.489,93.979,589.406,79.51z
				 M889.519,711.383c1.928-0.689,3.091-0.867,3.959-1.469c1.547-1.076,3.093-2.256,4.329-3.666
				c10.274-11.707,20.239-23.463,26.681-38.061c8.174-18.521,8.975-35.916-0.225-54.641c-12.101-24.627-28.692-44.597-52.317-58.517
				c-9.141-5.385-18.6-10.235-27.962-15.233c-17.462-9.318-35.659-16.708-54.855-21.754c-18.437-4.846-37.138-7.74-56.115-8.914
				c-2.551-0.159-5.194,1.17-10.118,2.383c8.571,3.949,14.717,6.797,20.877,9.613c7.567,3.458,15.865,5.852,22.586,10.52
				c22.743,15.789,45.608,31.467,65.879,50.551c14.294,13.457,26.285,28.877,34.52,46.381
				C878.861,654.305,888.862,681.018,889.519,711.383z M406.737,702.264c0.589,4.387,0.56,6.34,1.133,8.096
				c6.118,18.742,9.825,38.268,18.385,56.229c3.579,7.514,6.146,15.543,10.087,22.844c6.492,12.025,13.664,23.689,20.682,35.424
				c2.331,3.896,4.741,7.828,7.672,11.271c14.276,16.768,28.252,33.779,42.829,50.314c14.393,16.324,30.429,30.67,45.967,45.676
				c11.292,10.906,24.226,19.396,37.106,28.213c17.203,11.773,33.292,25.164,49.94,37.758c6.454,4.883,13.124,9.479,20.861,12.344
				c-3.85-7.385-10.49-11.727-16.469-16.736c-8.439-7.074-17.174-13.832-25.208-21.34c-8.31-7.77-15.426-16.852-23.972-24.32
				c-13.813-12.072-25.96-25.668-37.852-39.479c-8.41-9.771-16.671-19.883-23.456-30.801
				c-23.109-37.189-43.313-75.939-59.177-116.818c-3.963-10.219-6.998-20.793-10.465-31.223
				C446.102,720.871,427.338,712.004,406.737,702.264z M474.779,733.266c1.277,5.49,1.687,9.314,3.049,12.758
				c6.282,15.885,12.108,32.008,19.466,47.391c9.004,18.828,19.282,37.053,29.174,55.445c8.832,16.42,18.468,32.373,31.006,46.27
				c11.439,12.678,23.175,25.104,35.116,37.309c14.079,14.391,28.493,28.459,42.843,42.58c1.892,1.861,3.657,4.535,7.345,3.971
				c-0.521-1.258-0.672-2.029-1.099-2.59c-21.743-28.639-37.5-60.793-52.997-92.908c-9.539-19.77-16.28-40.93-23.674-61.678
				c-7.138-20.029-13.524-40.328-20.187-60.523c-2-6.064-3.82-12.184-5.585-17.834C517.757,740.059,497.26,736.818,474.779,733.266z
				 M631.559,724.131c-3.435,0.492-5.309,0.602-7.103,1.043c-20.428,5.043-23.727,9.758-21.725,31.064
				c1.496,15.902,3.028,31.797,4.588,47.695c2.762,28.172,9.251,55.547,19.665,81.789c12.335,31.086,25.716,61.756,38.715,92.576
				c0.803,1.904,2.236,3.545,3.375,5.307c-0.025-5.314-1.657-9.906-3.144-14.543c-2.785-8.684-6.083-17.256-8.104-26.117
				c-4.905-21.484-9.306-43.088-13.645-64.695c-0.806-4.01-1.339-8.529-0.304-12.354c1.855-6.85,1.379-12.383-3.584-17.875
				c-4.521-5.004-5.239-11.758-1.11-16.875c4.874-6.043,4.358-11.574,2.118-18.02c-1.618-4.656-2.488-9.57-3.947-14.291
				c-4.655-15.07-6.298-30.449-5.647-46.195C632.078,743.578,631.642,734.482,631.559,724.131z M648.99,966.588
				c0.866-0.334,1.733-0.67,2.6-1.008c-5.448-12.865-11.14-25.637-16.289-38.623c-7.416-18.703-15.6-37.215-21.392-56.43
				c-12.465-41.357-16.354-84.129-18.097-127.115c-0.114-2.84-0.189-5.682-0.299-9.012c-11.476,2.668-22.031,5.121-33.114,7.699
				c0.252,3.064,0.179,5.691,0.725,8.18c2.194,10.016,4.332,20.053,6.961,29.957c3.213,12.109,7.337,23.986,10.256,36.158
				c3.191,13.305,6.434,26.49,11.43,39.316c11.879,30.479,24.452,60.578,42.138,88.252
				C638.79,951.598,643.955,959.053,648.99,966.588z M792.866,561.135c-0.163,1.573-0.354,2.041-0.208,2.207
				c1.52,1.689,3.092,3.328,4.649,4.982c16.857,17.889,30.366,37.842,38.854,61.121c6.941,19.037,11.723,38.467,13.266,58.697
				c1.265,16.576,4.306,33.113-0.666,50.816c12.622-3.766,21.122-11.16,29.664-17.521c0.185-3.955-0.074-7.061,0.54-9.982
				c2.274-10.811,0.485-21.107-3.042-31.352c-4.207-12.211-7.765-24.658-12.265-36.756c-7.236-19.453-17.975-36.83-32.901-51.406
				c-5.155-5.037-10.599-9.783-15.987-14.579C808.084,571.417,800.914,566.149,792.866,561.135z M399.788,390.06
				c1.237-13.042,0.433-25.927-1.438-38.667c-2.663-18.119-0.106-35.734,4.817-52.962c8.441-29.53,23.204-56.151,40.488-81.283
				c9.668-14.055,20.735-27.153,31.278-40.595c3.741-4.769,7.458-9.642,11.787-13.849c14.43-14.027,29.154-27.75,43.713-41.646
				c2.886-2.755,5.533-5.761,8.506-8.878c-1.229-0.477-1.688-0.821-1.89-0.708c-1.312,0.727-2.695,1.402-3.819,2.37
				c-20.187,17.34-39.907,35.161-58.412,54.334c-20.933,21.685-40.083,44.784-56.2,70.233
				c-6.686,10.555-12.778,21.682-17.577,33.199c-15.854,38.052-16.528,77.634-10.164,117.714c0.104,0.659,0.816,1.223,1.663,2.424
				C394.661,391.251,397.052,390.695,399.788,390.06z M366.251,681.717c1.082,4.652,1.98,8.93,3.074,13.15
				c5.515,21.277,10.859,42.602,16.706,63.785c3.734,13.533,8.949,26.682,12.236,40.307c5.645,23.381,15.074,45.385,23.037,67.932
				c4.971,14.074,12.06,27.035,19.72,39.742c6.072,10.074,12.126,20.164,18.302,30.176c1.213,1.967,2.939,3.615,4.43,5.41
				c-2.544-9.154-6.121-17.486-10.148-25.596c-11.662-23.475-22.751-47.205-31.62-71.889c-5.52-15.361-10.695-30.854-15.67-46.402
				c-4.279-13.367-8.353-26.814-11.98-40.371c-5.026-18.779-7.081-38.053-8.605-57.391
				C384.807,688.799,379.937,683.994,366.251,681.717z M705.547,520.247c0.577,9.634,1.144,10.793,7.42,10.912
				c15.099,0.285,29.188,4.592,42.793,10.594c8.914,3.933,17.5,8.612,26.521,13.101
				C766.576,537.941,722.588,518.188,705.547,520.247z M566.808,803.824c-5.622-34.078-11.17-54.537-16.895-60.193
				C551.535,764.811,559.484,784.34,566.808,803.824z M547.841,359.301c0.409,4.161,0.675,10.254,1.677,16.225
				c1.382,8.236,3.168,16.416,5.151,24.529c0.387,1.583,2.456,2.753,4.079,4.464c0.741-1.782,1.389-2.549,1.234-3.087
				C555.827,386.823,551.587,372.239,547.841,359.301z"/>
			<path fill="#62C0FD" d="M462.372,498.189c13.438-1.021,25.079-3.086,31.902-14.65c2.327-3.946,6.408-7.89,2.967-13.016
				c-4.409-1.447-6.273,1.307-7.687,3.874c-6.808,12.356-17.442,14.237-30.244,12.296c-11.72-1.777-20.901-6.569-26.46-17.379
				c-0.664-1.291-1.853-2.322-2.86-3.416c-0.207-0.225-0.695-0.192-1.054-0.277c-5.496,4.818-5.781,5.25-3.38,9.883
				c3.994,7.708,10.544,12.869,17.934,17.039c2.585,1.458,5.34,2.618,8.418,4.111c-2.502,14.061-6.047,26.875-17.075,36.59
				c-10.949,9.645-22.94,17.65-36.248,23.406c-18.501,8.002-37.301,14.984-57.588,17.652c-11.98,1.575-23.592,5.798-35.535,7.859
				c-12.713,2.19-25.621,3.256-38.45,4.77c-4.906,0.578-9.818,1.184-14.743,1.516c-14.335,0.969-28.074-1.161-40.516-8.801
				c-8.16-5.011-13.253-12.187-14.58-21.647c9.02-7.167,19.678-9.634,28.716-7.3c18.085,4.672,36.541,6.996,55.168,7.84
				c12.363,0.561,21.757-5.65,29.97-14.114c0.496-0.511,0.816-1.323,0.923-2.04c0.104-0.691-0.179-1.439-0.409-2.926
				c-4.691-2.231-8.482,0.729-11.924,3.296c-10.815,8.075-22.637,7.056-36.542,4.659c2.592-2.32,4.164-3.591,5.579-5.018
				c8.556-8.621,17.161-17.194,25.568-25.957c4.736-4.936,9.294-10.066,13.634-15.354c6.507-7.927,6.343-13.711-0.384-21.258
				c-2.525-2.834-5.553-5.23-8.004-8.12c-5.185-6.114-4.908-12.294,1.614-16.675c16.714-11.227,33.516-22.37,50.794-32.688
				c7.729-4.615,17.071-6.477,24.972-10.867c7.114-3.954,14.387-7.397,22.241-8.408c14.253-1.833,28.777-4.372,42.957-3.363
				c32.192,2.291,64.286,6.211,96.325,10.239c9.265,1.165,18.873,2.761,27.105,8.125c0.633,0.412,1.323,0.807,2.042,1.002
				c33.318,9.023,62.125,26.352,87.924,48.756c18.928,16.438,33.692,35.921,41.112,60.479c3.494,11.564,6.423,23.053,8.61,35.008
				c2.77,15.133,3.507,29.956,2.653,45.1c-0.214,3.787,0.06,7.596,0.014,11.396c-0.105,9.164-2.192,17.76-4.894,26.639
				c-3.839,12.623-11.876,21.312-19.956,30.957c-16.881,20.156-38.97,31.076-62.895,39.25c-12.916,4.414-26.015,8.994-39.409,11.121
				c-17.515,2.783-35.324,6.043-53.158,3.838c-16.955-2.1-33.805-5.271-50.558-8.678c-6.996-1.42-13.812-4.246-20.377-7.174
				c-11.095-4.949-22.363-9.754-32.785-15.924c-30.48-18.053-61.94-34.061-94.35-48.346c-9.676-4.266-18.562-10.334-27.774-15.635
				c-4.195-2.414-8.31-4.967-13.999-8.383c3.301-1.361,5.081-2.561,6.982-2.805c11.906-1.529,23.537-0.365,34.639,4.43
				c3.114,1.344,5.984,3.51,10.607,0.98c-0.769-2.082-0.955-5.057-2.532-6.398c-4.947-4.215-10.74-6.873-17.28-8.256
				c-15.304-3.236-30.332-1.189-45.266,1.891c-11.243,2.32-22.429,4.4-33.862,2.098c-4.426-0.893-8.967-2.014-12.976-4
				c-7.904-3.918-9.207-9.496-5.21-18.842c0.689-0.296,1.486-0.982,2.053-0.829c18.869,5.089,37.795,1.382,56.68,0.341
				c17.549-0.971,34.629-4.729,51.508-9.485c1.827-0.515,3.689-0.985,5.567-1.229c26.402-3.438,50.749-13.239,74.293-24.949
				c12.249-6.09,23.231-14.43,32.456-24.812c4.877-5.49,8.645-11.457,10.656-18.621
				C457.732,510.815,460.096,504.821,462.372,498.189z M577.754,602.994c3.26-3.578,6.384-6.769,9.236-10.188
				c3.878-4.645,8.642-8.956,11.118-14.295c10.393-22.426,8.895-44.445-5.26-64.855c-20.562-29.655-45.227-55.276-76.445-73.947
				c-9.11-5.448-18.504-10.495-28.089-15.051c-5.322-2.529-11.298-3.768-16.968-1.924c-1.459,4.48,1.101,5.76,3.727,6.348
				c15.988,3.592,29.107,12.801,42.567,21.389c28.367,18.102,50.833,42.154,69.513,69.805c14.569,21.567,11.904,45.457-6.312,64.357
				c-1.582,1.641-3.386,3.113-4.744,4.923c-3.608,4.802-8.048,7.959-12.912,7.581c-4,4.16-6.729,7.799-10.201,10.465
				c-13.546,10.412-27.326,20.516-41.014,30.744c-1.514,1.129-3.31,2.092-4.381,3.564c-2.11,2.912-3.023,6.107,0.86,10.014
				c7.56-1.953,12.797-8.365,19.287-12.457c6.539-4.123,12.438-9.268,18.981-14.24c1.647,2.648,2.927,4.127,3.577,5.844
				c6.192,16.363,16.947,29.287,29.212,41.547c15.558,15.555,37.487,15.795,53.574,7.131c6.569-3.541,11.45-8.621,16.179-14.127
				c10.881-12.67,17.875-27.357,22.053-43.332c4.687-17.912-5.646-29.261-23.911-26.375c-5.941,0.939-11.928,2.703-17.414,5.162
				c-9.197,4.121-18.923,5.873-28.677,7.062C593.581,609.08,585.427,609.354,577.754,602.994z M400.822,457.668
				c-2.356,2.325-4.518,4.158-6.323,6.293c-7.158,8.471-16.239,13.844-27.045,15.661c-8.197,1.379-16.583,1.657-24.895,2.323
				c-6.388,0.513-6.938,1.207-6.821,10.716c9.24-0.49,18.463-0.979,27.887-1.479c0.601,3.37,0.973,5.576,1.39,7.774
				c0.707,3.722,1.04,7.577,2.261,11.124c1.84,5.348,8.982,9.637,14.424,9.289c4.291-0.273,7.5-3.686,8.932-10.438
				c0.777-3.673,1.021-7.547,0.88-11.306c-0.199-5.246-0.984-10.469-1.5-15.539C402.905,469.068,404.286,466.208,400.822,457.668z"
				/>
			<path fill="#3FA8FD" d="M707.821,608.414c0.853-15.144,0.117-29.967-2.653-45.1c-2.188-11.955-5.116-23.444-8.61-35.009
				c-7.42-24.558-22.184-44.042-41.112-60.479c-25.799-22.403-54.607-39.731-87.924-48.756c-0.719-0.195-1.409-0.59-2.041-1.002
				c-8.235-5.363-17.842-6.96-27.106-8.125c-13.014-1.636-26.042-3.224-39.078-4.723c12.973,18.441,34.675,27.843,52.662,39.084
				c47.766,33.229,76.277,109.641,57.274,162.699c7.071-1.188,14.056-2.926,20.759-5.928c5.486-2.459,11.473-4.221,17.416-5.162
				c18.263-2.888,28.599,8.463,23.911,26.375c-4.18,15.973-11.172,30.662-22.053,43.332c-4.729,5.506-9.61,10.586-16.178,14.127
				c-16.088,8.664-38.018,8.424-53.578-7.131c-5.494-5.492-10.651-11.141-15.266-17.148c-34.175,20.057-73.308,37.354-101.34,62.979
				c4.591,1.869,9.28,3.518,14.063,4.49c16.751,3.404,33.603,6.576,50.556,8.674c17.836,2.207,35.644-1.053,53.158-3.836
				c13.395-2.129,26.493-6.709,39.41-11.121c23.924-8.172,46.013-19.092,62.895-39.25c8.078-9.646,16.117-18.334,19.955-30.957
				c2.701-8.879,4.788-17.475,4.895-26.641C707.88,616.01,707.609,612.201,707.821,608.414z"/>
			<path fill="#3ED2E1" d="M937.675,592.664c10.967,13.771,19.944,27.777,25.799,43.592c4.473,12.08,9.738,23.865,14.588,35.807
				c0.704,1.742,1.113,3.613,1.551,5.453c2.729,11.459,5.886,22.84,8.038,34.408c4.454,23.957,7.37,48.117,4.864,72.525
				c-2.754,26.826-5.705,53.625-10.859,80.15c-7.51,38.662-23.678,72.854-51.585,100.928c-13.703,13.787-29.996,24.426-45.717,35.77
				c-13.824,9.975-29.159,15.959-45.227,20.721c-3.988,1.182-7.794,2.973-11.753,4.273c-6.069,1.992-12.195,3.803-18.814,5.848
				c-2.005-3.689-3.576-6.576-5.245-9.648c1.438-2.918,2.811-5.588,4.078-8.307c3.891-8.34,6.768-16.846,6.134-26.332
				c-0.295-4.428,0.599-8.936,0.887-12.578c4.099-3.424,11.438-0.127,11.624-8.77c-3.909-0.334-7.438-0.639-11.11-0.953
				c-2.955-7.664,7.701-6.258,7.799-12.352c-0.623-4.648-5.2-2.309-8.222-3.615c-0.414-0.797-1.192-1.732-1.383-2.775
				c-0.551-2.984-0.977-6.002-1.246-9.027c-0.812-9.072-1.62-18.146-2.227-27.232c-0.198-3.006,0.029-6.072,0.399-9.068
				c0.81-6.58,4.278-11.107,10.592-13.568c19.408-7.568,36.361-19.742,51.327-33.404c19.201-17.529,38.479-35.777,48.893-60.828
				c2.894-6.961,7.496-13.195,10.612-20.082c8.802-19.445,15.34-39.773,19.474-60.631c4.317-21.783,3.882-43.844-1.463-65.59
				c-0.721-2.932-1.559-5.971-3.031-8.568c-5.231-9.217-6.98-19.146-7.215-29.582C939.113,603.697,938.221,598.184,937.675,592.664z
				 M897.175,880.686c2.435,6.492,19.133,23.367,31.669,33.146c1.872,1.459,4.219,2.311,6.73,3.648
				c0.475-7.115,0.106-8.652-5.062-13.436C920.511,894.783,908.884,887.764,897.175,880.686z M917.55,928.445
				c1.116-3.562,2.376-5.412,1.963-6.744c-0.748-2.422-2.019-5.107-3.906-6.676c-6.029-5.008-12.41-9.6-18.772-14.189
				c-0.447-0.324-1.847,0.67-4.316,1.652C901.115,910.729,907.109,920.135,917.55,928.445z M957.637,735.682
				c-3.401,10.553,0.857,17.699,2.442,25.041c0.104,0.465,3.967,1.031,4.619,0.281c1.331-1.537,2.644-4.162,2.234-5.939
				C965.531,748.963,963.549,742.957,957.637,735.682z M838.442,1002.184c7.562,1.699,12.565-0.805,17.021-4.238
				c1.375-1.062,2.449-3.996,1.992-5.596c-0.691-2.424-3.412-2.682-5.638-1.52c-3.955,2.062-7.891,4.203-11.62,6.639
				C839.296,998.057,839.234,999.924,838.442,1002.184z M935.154,890.238c-5.445-7.996-13.418-11.004-19.702-16.004
				c-0.531-0.424-1.915,0.221-4.124,0.555c6.038,6.84,11.756,12.479,18.881,16.504C931.073,891.783,932.776,890.791,935.154,890.238
				z"/>
			<path fill="#A5EAF1" d="M720.07,1128.893c18.524-9.57,23.952-28.406,34.163-43.621c1.89-2.816,3.115-6.08,4.658-9.133
				c8.376-16.568,21.253-26.914,39.688-31.158c13.611-3.135,26.789-8.166,40.146-12.391c9.051-2.865,18.108-5.715,27.107-8.738
				c2.854-0.959,5.738-2.125,8.26-3.74c27.901-17.861,55.086-36.463,76.227-62.732c9.203-11.436,16.206-23.887,22.28-36.988
				c8.68-18.721,14.767-38.213,17.294-58.84c1.292-10.537,4.227-20.863,5.946-31.363c1.148-7.025,1.468-14.186,3.795-21.371
				c0.364,2.334,0.899,4.654,1.071,7c0.992,13.652,1.727,27.324,2.911,40.957c0.562,6.449,0.342,12.162-6.302,15.553
				c-0.482,0.246-0.529,1.34-0.941,2.498c2.179-0.762,4.069-1.424,6.759-2.365c0.431,3.025,1.227,5.539,1.062,7.988
				c-0.841,12.494-1.656,24.998-3.012,37.443c-1.312,12.051-2.211,24.299-5.184,35.979c-4.482,17.598-10.074,34.812-19.426,50.844
				c-13.509,23.154-29.11,44.334-49.572,61.752c-4.038,3.438-8.062,7.025-12.567,9.758c-24.342,14.748-47.488,31.545-73.189,43.961
				c-17.494,8.451-35.65,15.029-55.394,16.465c-11.335,0.824-22.551,3.523-33.884,4.086
				C740.372,1141.312,729.659,1137.803,720.07,1128.893z M808.712,1093.209c0.719,0.207,1.468,0.336,2.147,0.629
				c2.503,1.078,5.209,2.205,7.18-0.496c2.384-3.264,0.081-6.061-2.236-7.805c-6.61-4.971-13.474-9.621-20.432-14.09
				c-1.111-0.715-3.234,0.15-6.312,0.4c7.368,7.977,13.676,14.805,19.981,21.629c-5.218-2.855-10.328-5.938-15.716-8.42
				c-1.473-0.68-3.775,0.443-5.697,0.738c-0.211,0.752-0.421,1.504-0.63,2.256c9.036,1.34,11.508,13.996,23.689,12.178
				C809.86,1097.279,809.287,1095.246,808.712,1093.209z M780.27,1101.68c4.74,5.506,8.75,8.234,14.949,5.812
				C792.572,1100.334,791.186,1099.746,780.27,1101.68z M760.015,1105.764c0.435-1.078,1.779-2.75,1.555-4.176
				c-0.514-3.266-3.384-4.008-6.057-3.213c-1.355,0.402-3.062,2.336-3.16,3.684C752.158,1104.775,756.077,1106.787,760.015,1105.764
				z"/>
			<path fill="#A5EAF1" d="M801.068,859.41c3.079-3.127,8.734-5.424,7.987-11.787c-4.032-3.568-6.073,1.58-9.422,1.828
				c-0.65-0.633-1.571-1.301-2.176-2.186c-0.632-0.928-1.027-2.037-1.409-3.109c-5.92-16.607-16.633-29.688-29.874-40.982
				c-8.447-7.203-9.66-8.959-14.045-18.061c0.893-0.9,1.747-2.516,2.956-2.855c9.095-2.539,18.265-4.811,27.4-7.203
				c6.231-1.631,12.47-3.238,18.655-5.025c3.275-0.947,6.401-2.41,9.676-3.365c14.899-4.346,29.226-10.023,42.692-17.805
				c13.156-7.6,25.956-15.561,37.965-25.066c15.213-12.039,27.433-26.184,36.51-43.135c3.033-5.666,5.3-11.748,7.794-17.693
				c1.118-2.666,1.938-5.457,3.813-10.818c3.167,12.863,4.844,23.061,4.58,33.559c-0.57,22.705-6.831,44.248-13.51,65.686
				c-12.336,39.576-35.164,72.311-66.589,98.867c-10.951,9.254-23.317,17.162-35.94,24.027c-13.589,7.391-10.046,5.82-21.952-2.523
				C802.133,868.926,799.779,865.318,801.068,859.41z M908.042,757.699c0.886,0.625,1.773,1.246,2.661,1.869
				c6.87-4.805,13.168-10.219,14.761-19.258c0.569-3.24-1.184-5.664-4.829-5.854C916.322,742.418,912.182,750.061,908.042,757.699z
				 M810.964,796.908c-6.038-7.229-12.765-10.479-19.645-13.365c-1.178-0.496-3.02,0.592-6.134,1.316
				c7.803,5.863,12.514,13.092,21.264,14.561C807.468,799.59,808.747,798.191,810.964,796.908z M803.418,811.131
				c-3.813-8.496-6.758-11.447-13.831-14.553c-2.331-1.021-4.883-2.654-7.296,1.268C786.686,805.193,793.221,809.34,803.418,811.131
				z"/>
			<path fill="#A5EAF1" d="M565.564,74.743c-12.267,10.386-22.678,19.16-33.043,27.989c-7.808,6.652-15.563,13.366-23.328,20.071
				c-21.612,18.667-41.96,38.699-60.203,60.608c-24.889,29.891-47.926,61.243-59.263,99.195
				c-7.855,26.302-13.437,53.027-9.331,80.92c1.537,10.45,1.312,21.158,1.942,32.689c-11.699,5.406-21.852,13.5-35.37,16.06
				c-1.109-2.985-2.386-5.322-2.84-7.809c-3.705-20.213-6.765-40.482-5.042-61.16c0.347-4.152,0.266-8.373-0.008-12.535
				c-1.721-26.134,5.021-50.531,15.369-74.107c11.68-26.617,26.869-51.071,45.998-73.041c3.486-4.006,6.43-8.482,9.73-12.651
				c16.993-21.45,38.467-37.624,61.237-52.365c19.566-12.666,40.887-21.802,61.96-31.408
				C543.004,82.81,553.13,79.508,565.564,74.743z M359.426,312.736c-3.563,11.26,0.399,19.826,1.384,28.467
				c0.106,0.932,1.979,1.664,3.134,2.571C368.34,335.145,367.209,325.652,359.426,312.736z M468.035,124.629
				c1.651,3.208,2.689,5.564,4.027,7.732c1.436,2.322,3.434,4.473,6.312,2.409c2.688-1.927,1.792-4.753,0.31-7.026
				C476.556,124.487,473.839,122.151,468.035,124.629z"/>
			<path fill="#3ED2E1" d="M473.066,391.355c-20.852-0.93-41.207-1.838-62.733-2.798c-0.509-3.398-1.234-7.013-1.562-10.664
				c-0.922-10.221-1.502-20.476-2.531-30.684c-2.345-23.261,1.492-45.479,11.032-66.729c13.151-29.299,29.476-56.616,50.563-81
				c7.694-8.898,14.136-18.965,22.363-27.3c17.341-17.566,35.478-34.347,53.331-51.404c0.409-0.39,1.341-0.233,3.544-0.55
				c-2.585,4.569-4.885,8.295-6.855,12.185c-4.449,8.772-8.703,17.643-13.099,26.441c-3.058,6.116-6.792,11.958-9.229,18.306
				c-10.329,26.919-24.449,52.454-31.139,80.675c-7.981,33.673-14.491,67.666-14.104,102.525c0.093,8.341,0.851,16.672,1.168,25.013
				C473.882,387.186,473.374,389.02,473.066,391.355z M441.918,267.527c3.612,7.826,6.042,11.455,8.921,13.927
				c2.093,1.796,4.28,3.366,7.064,1.381c2.236-1.594,1.781-4.349-1.573-7.655c-2.422-2.387-5.024-4.665-7.847-6.535
				C447.188,267.787,445.168,268.024,441.918,267.527z M441.599,288.418c2.577,9.639,2.992,10.333,8.081,14.082
				C453.817,293.92,451.997,290.398,441.599,288.418z"/>
			<path fill="#3ED2E1" d="M589.406,79.51c-3.917,14.468-6.089,27.173-10.781,38.864c-10.111,25.185-16.551,51.255-21.602,77.762
				c-4.761,24.981-9.205,50.024-14.009,74.998c-4.676,24.305-8.688,48.652-5.851,73.518c1.421,12.449,3.364,24.837,4.911,37.272
				c0.691,5.562,0.994,11.173,1.504,17.124c-2.467,0.226-3.955,0.593-5.394,0.456c-8.977-0.858-10.943-2.904-11.652-12.075
				c-0.205-2.647,0.116-5.361-0.32-7.96c-0.354-2.117-1.477-4.104-2.492-6.761c-9.365,5.355-0.168,14.788-6.117,20.837
				c-2.624-5.214-5.136-10.206-7.78-15.459c-4.125,0.958-7.956,1.85-12.622,2.935c0.051,3.838,0.103,7.83,0.171,13.049
				c-4.384-0.5-8.312-0.949-12.518-1.429c-4.009-27.45-6.455-54.04-0.863-80.865c2.941-14.114,4.067-28.644,7.588-42.588
				c3.892-15.412,8.784-30.687,14.676-45.45c9.282-23.255,18.883-46.47,30.025-68.866c8.428-16.937,19.215-32.736,29.466-48.712
				c4.888-7.618,10.878-14.542,16.575-21.613C583.604,82.953,585.748,82.058,589.406,79.51z M515.89,268.982
				c1.042,0.356,1.734,0.804,2.393,0.76c0.692-0.048,1.64-0.382,1.984-0.912c3.965-6.103,7.258-12.374,5.923-20.125
				c-0.63-3.654-0.541-7.425-0.942-11.126c-0.191-1.758-0.771-3.473-1.162-5.153c-1.5,0.232-2.521,0.076-2.901,0.496
				c-5.703,6.316-7.725,14.603-6.077,22.025C516.198,259.859,515.198,264.487,515.89,268.982z"/>
			<path fill="#3ED2E1" d="M889.519,711.383c-0.657-30.365-10.658-57.078-22.765-82.807c-8.234-17.504-20.224-32.924-34.52-46.381
				c-20.271-19.084-43.136-34.762-65.879-50.551c-6.722-4.668-15.021-7.062-22.586-10.52c-6.16-2.816-12.304-5.664-20.877-9.613
				c4.923-1.213,7.567-2.542,10.118-2.383c18.978,1.174,37.68,4.068,56.115,8.914c19.196,5.046,37.394,12.436,54.855,21.754
				c9.362,4.998,18.821,9.849,27.962,15.233c23.625,13.92,40.217,33.89,52.317,58.517c9.199,18.725,8.398,36.119,0.225,54.641
				c-6.441,14.598-16.406,26.354-26.681,38.061c-1.236,1.41-2.781,2.588-4.329,3.666
				C892.61,710.516,891.447,710.693,889.519,711.383z M892.248,607.773c1.421,9.59,14.461,24.385,22.117,26.25
				c1.259,0.307,2.952-1.168,5.741-2.383C911.155,622.066,901.462,615.318,892.248,607.773z M891.326,624.062
				c3.599,9.672,10.66,14.02,14.804,20.447c1.973,3.059,5.193,5.359,8.052,7.762c0.593,0.498,2.087-0.076,4.152-0.232
				c-0.767-2.355-0.91-4.652-2.09-6.117C909.723,637.805,902.786,630.08,891.326,624.062z M891.543,648.047
				c3.475,6.898,6.695,11.301,13.798,11.338C904.183,651.229,902.187,649.467,891.543,648.047z"/>
			<path fill="#A5EAF1" d="M406.737,702.264c20.602,9.74,39.362,18.607,58.066,27.449c3.467,10.43,6.5,21.006,10.465,31.221
				c15.861,40.881,36.065,79.631,59.177,116.822c6.783,10.918,15.044,21.027,23.456,30.799c11.89,13.812,24.038,27.406,37.85,39.48
				c8.546,7.469,15.662,16.551,23.974,24.32c8.032,7.508,16.77,14.264,25.206,21.336c5.979,5.014,12.621,9.354,16.472,16.738
				c-7.74-2.863-14.409-7.459-20.864-12.342c-16.646-12.594-32.737-25.988-49.938-37.76c-12.881-8.814-25.814-17.309-37.108-28.211
				c-15.538-15.008-31.574-29.352-45.965-45.678c-14.577-16.535-28.553-33.549-42.831-50.314c-2.931-3.441-5.341-7.373-7.669-11.27
				c-7.019-11.736-14.192-23.398-20.685-35.426c-3.939-7.301-6.507-15.33-10.087-22.842c-8.558-17.963-12.267-37.486-18.385-56.23
				C407.296,708.602,407.327,706.65,406.737,702.264z M450.476,789.477c10.916,0.018,12.757-2.467,8.711-9.92
				C456.606,782.496,454.294,785.129,450.476,789.477z"/>
			<path fill="#3ED2E1" d="M474.779,733.266c22.481,3.555,42.979,6.793,64.457,10.189c1.765,5.65,3.585,11.77,5.585,17.834
				c6.662,20.195,13.049,40.494,20.187,60.523c7.394,20.748,14.135,41.908,23.674,61.678c15.495,32.115,31.254,64.27,52.997,92.908
				c0.427,0.561,0.577,1.332,1.097,2.59c-3.686,0.564-5.451-2.109-7.343-3.971c-14.352-14.121-28.764-28.189-42.843-42.58
				c-11.941-12.205-23.677-24.631-35.116-37.309c-12.538-13.896-22.174-29.85-31.006-46.27
				c-9.892-18.393-20.17-36.617-29.174-55.445c-7.357-15.383-13.184-31.506-19.466-47.391
				C476.465,742.578,476.056,738.756,474.779,733.266z M526.714,769.92c-4.164,8.211,4.931,10.316,4.811,16.068
				c-0.836,0.078-1.834,0.074-2.785,0.281c-1.306,0.281-2.577,0.723-4.606,1.312c3.008,6.496,5.957,11.564,13.821,12.225
				c0.866-5.895,2.897-11.473,2.138-16.641C539.171,776.91,533.273,773.764,526.714,769.92z"/>
			<path fill="#A5EAF1" d="M631.559,724.131c0.083,10.352,0.52,19.447,0.146,28.512c-0.648,15.748,0.992,31.125,5.649,46.195
				c1.459,4.721,2.327,9.633,3.947,14.289c2.24,6.445,2.754,11.979-2.118,18.02c-4.129,5.119-3.412,11.873,1.11,16.875
				c4.963,5.492,5.437,11.025,3.583,17.877c-1.034,3.824-0.501,8.344,0.305,12.352c4.339,21.609,8.739,43.213,13.643,64.695
				c2.023,8.863,5.319,17.434,8.104,26.117c1.486,4.639,3.12,9.229,3.144,14.545c-1.14-1.762-2.57-3.402-3.373-5.305
				c-12.999-30.822-26.38-61.494-38.717-92.58c-10.412-26.24-16.901-53.615-19.665-81.789c-1.559-15.895-3.09-31.793-4.586-47.693
				c-2.005-21.307,1.297-26.023,21.724-31.062C626.25,724.732,628.124,724.623,631.559,724.131z"/>
			<path fill="#3ED2E1" d="M648.99,966.588c-5.034-7.535-10.199-14.99-15.08-22.625c-17.686-27.674-30.26-57.773-42.138-88.252
				c-4.998-12.822-8.238-26.01-11.43-39.316c-2.919-12.172-7.044-24.049-10.256-36.158c-2.628-9.904-4.767-19.941-6.961-29.957
				c-0.546-2.488-0.473-5.115-0.725-8.18c11.083-2.578,21.641-5.031,33.113-7.699c0.11,3.33,0.186,6.172,0.3,9.012
				c1.74,42.986,5.632,85.758,18.098,127.115c5.791,19.215,13.975,37.727,21.39,56.43c5.15,12.986,10.842,25.758,16.291,38.623
				C650.723,965.918,649.856,966.254,648.99,966.588z"/>
			<path fill="#A5EAF1" d="M590.313,112.465c-4.614,22.324-9.039,44.689-13.897,66.96c-5.308,24.326-6.06,48.894-5.662,73.679
				c0.353,22.01-0.606,44.04-0.907,66.063c-0.223,16.484,2.442,32.588,7.182,48.316c4.161,13.82,8.814,27.491,13.139,41.265
				c0.622,1.979,0.598,4.16,1.066,7.743c-6.152-2.364-11.377-3.628-15.717-6.32c-2.526-1.566-4.245-5.213-5.278-8.277
				c-6.317-18.74-11.298-37.797-15.073-57.272c-3.721-19.204-4.943-38.334-4.105-57.788c1.544-35.835,9.102-70.789,15.935-105.77
				c4.436-22.704,11.774-44.833,21.365-66.046c0.425-0.938,1.494-1.582,2.264-2.361L590.313,112.465z"/>
			<path fill="#3ED2E1" d="M792.866,561.135c8.048,5.015,15.218,10.282,21.904,16.229c5.389,4.794,10.832,9.542,15.987,14.577
				c14.928,14.578,25.665,31.953,32.901,51.406c4.5,12.1,8.056,24.545,12.265,36.756c3.527,10.244,5.316,20.543,3.042,31.352
				c-0.614,2.924-0.355,6.027-0.54,9.982c-8.544,6.361-17.042,13.756-29.664,17.521c4.972-17.703,1.931-34.24,0.666-50.816
				c-1.543-20.23-6.324-39.658-13.266-58.695c-8.488-23.279-21.997-43.232-38.854-61.123c-1.558-1.654-3.13-3.293-4.649-4.982
				C792.513,563.179,792.701,562.71,792.866,561.135z"/>
			<path fill="#A5EAF1" d="M399.788,390.06c-2.736,0.636-5.127,1.192-7.249,1.685c-0.846-1.202-1.557-1.765-1.663-2.424
				c-6.362-40.08-5.689-79.663,10.166-117.714c4.797-11.517,10.89-22.645,17.575-33.199c16.117-25.449,35.268-48.547,56.2-70.233
				c18.507-19.173,38.227-36.994,58.412-54.334c1.126-0.967,2.51-1.643,3.819-2.371c0.204-0.113,0.661,0.23,1.89,0.708
				c-2.973,3.117-5.618,6.124-8.504,8.878c-14.559,13.896-29.283,27.619-43.715,41.646c-4.327,4.207-8.044,9.081-11.785,13.849
				c-10.545,13.442-21.612,26.541-31.278,40.595c-17.286,25.13-32.047,51.753-40.488,81.283c-4.926,17.229-7.48,34.842-4.819,52.961
				C400.221,364.133,401.026,377.018,399.788,390.06z"/>
			<path fill="#3ED2E1" d="M366.251,681.717c13.686,2.277,18.556,7.082,19.48,18.85c1.524,19.34,3.581,38.615,8.605,57.395
				c3.628,13.555,7.703,27.002,11.98,40.369c4.977,15.549,10.152,31.041,15.672,46.402c8.869,24.684,19.958,48.414,31.618,71.887
				c4.027,8.111,7.604,16.443,10.148,25.598c-1.488-1.795-3.217-3.443-4.428-5.408c-6.178-10.014-12.231-20.102-18.304-30.178
				c-7.658-12.707-14.747-25.67-19.72-39.742c-7.963-22.547-17.393-44.551-23.035-67.934c-3.289-13.623-8.502-26.771-12.238-40.305
				c-5.847-21.184-11.191-42.508-16.706-63.783C368.232,690.643,367.333,686.369,366.251,681.717z"/>
			<path fill="#A5EAF1" d="M705.547,520.247c17.041-2.06,61.029,17.694,76.734,34.606c-9.021-4.488-17.607-9.168-26.521-13.102
				c-13.603-6.001-27.694-10.309-42.793-10.594C706.691,531.04,706.122,529.881,705.547,520.247z"/>
			<path fill="#A5EAF1" d="M566.808,803.824c-7.324-19.484-15.272-39.014-16.895-60.193
				C555.638,749.287,561.186,769.746,566.808,803.824z"/>
			<path fill="#A5EAF1" d="M547.841,359.301c3.746,12.938,7.986,27.522,12.142,42.13c0.154,0.54-0.493,1.305-1.234,3.087
				c-1.623-1.71-3.692-2.881-4.079-4.464c-1.981-8.113-3.77-16.292-5.151-24.529C548.514,369.555,548.25,363.461,547.841,359.301z"
				/>
			<path fill="#A5EAF1" d="M590.622,112.655c-0.581-12.961,2.209-21.806,11.052-33.196c-3.13,11.216-5.506,22.679-11.358,33.007
				L590.622,112.655z"/>
			<path fill="#22243A" d="M577.754,602.994c7.673,6.359,15.825,6.088,23.56,5.145c9.754-1.188,19.479-2.941,28.677-7.062
				c5.486-2.457,11.473-4.221,17.414-5.16c18.265-2.888,28.598,8.461,23.91,26.375c-4.179,15.973-11.172,30.662-22.052,43.332
				c-4.729,5.506-9.611,10.584-16.178,14.125c-16.086,8.668-38.018,8.424-53.576-7.129c-12.264-12.26-23.019-25.186-29.212-41.549
				c-0.649-1.717-1.929-3.195-3.576-5.844c-6.544,4.975-12.442,10.119-18.981,14.24c-6.491,4.092-11.728,10.504-19.286,12.457
				c-3.887-3.906-2.971-7.102-0.858-10.012c1.068-1.471,2.864-2.434,4.378-3.566c13.686-10.229,27.468-20.33,41.014-30.742
				c3.473-2.668,6.201-6.305,10.201-10.467c4.862,0.381,9.302-2.777,12.912-7.581c1.358-1.81,3.161-3.282,4.747-4.923
				c18.213-18.9,20.878-42.788,6.309-64.355c-18.682-27.651-41.147-51.705-69.514-69.805c-13.459-8.589-26.577-17.797-42.566-21.39
				c-2.626-0.589-5.186-1.868-3.727-6.348c5.669-1.843,11.646-0.605,16.967,1.925c9.585,4.555,18.979,9.602,28.091,15.051
				c31.218,18.67,55.881,44.291,76.444,73.946c14.154,20.411,15.652,42.431,5.26,64.854c-2.477,5.341-7.24,9.65-11.118,14.296
				C584.138,596.223,581.016,599.416,577.754,602.994z M564.562,611.355c1.774,6.598,5.668,8.898,9.474,11.256
				c8.262,5.119,17.455,7.207,26.976,8.189c22.111,2.283,42.993-0.428,60.949-14.758c-1.25-11.346-3.312-13.27-13.377-11.082
				c-6.258,1.361-12.353,3.611-18.398,5.801c-19.784,7.16-39.582,10.4-59.695,1.197
				C569.255,611.393,567.649,611.641,564.562,611.355z M656.681,634.096c-8.973,1.875-16.56,3.939-24.285,4.943
				c-7.882,1.025-15.906,0.893-23.852,1.479c-7.656,0.562-15.116-2.848-24.995-1.92c16.776,13.287,33.119,22.316,51.127,28.1
				C644.408,657.203,652.423,647.912,656.681,634.096z M564.011,636.301c-0.221,1.367-0.668,2.25-0.397,2.725
				c6.035,10.629,14.016,19.691,23.212,27.627c8.045,6.941,17.432,10.545,28.241,9.021c1.833-0.26,3.521-1.557,5.589-2.523
				c-10.357-6.012-20.037-11.123-29.167-17.078C582.132,649.971,573.309,643.041,564.011,636.301z"/>
			<path fill="#22243A" d="M400.822,457.668c3.465,8.541,2.083,11.401-10.812,24.418c0.518,5.07,1.301,10.293,1.5,15.539
				c0.142,3.76-0.103,7.633-0.88,11.306c-1.432,6.753-4.638,10.163-8.93,10.438c-5.443,0.348-12.583-3.941-14.424-9.289
				c-1.223-3.547-1.554-7.402-2.26-11.124c-0.42-2.197-0.792-4.403-1.393-7.773c-9.424,0.499-18.645,0.988-27.887,1.479
				c-0.116-9.507,0.434-10.202,6.823-10.716c8.312-0.668,16.697-0.945,24.895-2.323c10.804-1.817,19.885-7.19,27.045-15.661
				C396.304,461.826,398.465,459.992,400.822,457.668z"/>
			<path fill="#22243A" d="M897.175,880.686c11.709,7.078,23.336,14.098,33.338,23.359c5.168,4.783,5.536,6.32,5.062,13.436
				c-2.512-1.338-4.858-2.189-6.73-3.648C916.308,904.053,899.609,887.178,897.175,880.686z"/>
			<path fill="#22243A" d="M917.55,928.445c-10.441-8.312-16.438-17.717-25.032-25.957c2.47-0.984,3.868-1.977,4.316-1.652
				c6.362,4.59,12.743,9.18,18.772,14.189c1.888,1.568,3.158,4.252,3.906,6.676C919.926,923.033,918.666,924.883,917.55,928.445z"/>
			<path fill="#22243A" d="M957.637,735.682c5.912,7.275,7.894,13.281,9.296,19.383c0.409,1.777-0.903,4.402-2.234,5.938
				c-0.652,0.75-4.516,0.186-4.619-0.279C958.494,753.381,954.236,746.234,957.637,735.682z"/>
			<path fill="#22243A" d="M838.442,1002.184c0.792-2.26,0.854-4.129,1.755-4.715c3.729-2.436,7.663-4.576,11.62-6.639
				c2.226-1.164,4.946-0.904,5.638,1.52c0.455,1.6-0.617,4.535-1.992,5.596C851.007,1001.379,846.003,1003.883,838.442,1002.184z"/>
			<path fill="#22243A" d="M935.154,890.238c-2.378,0.553-4.081,1.545-4.945,1.055c-7.125-4.025-12.843-9.664-18.881-16.504
				c2.209-0.332,3.593-0.979,4.124-0.555C921.734,879.234,929.708,882.242,935.154,890.238z"/>
			<path fill="#22243A" d="M809.041,1093.479c-6.306-6.826-12.613-13.654-19.981-21.631c3.077-0.25,5.2-1.113,6.312-0.4
				c6.958,4.469,13.821,9.119,20.432,14.09c2.317,1.746,4.62,4.541,2.236,7.807c-1.971,2.699-4.677,1.572-7.18,0.494
				c-0.681-0.291-1.429-0.422-2.147-0.627L809.041,1093.479z"/>
			<path fill="#22243A" d="M808.712,1093.209c0.575,2.037,1.147,4.07,1.979,7.02c-12.185,1.82-14.654-10.836-23.692-12.178
				c0.21-0.752,0.422-1.504,0.63-2.254c1.923-0.297,4.225-1.416,5.697-0.74c5.388,2.482,10.5,5.566,15.717,8.422L808.712,1093.209z"
				/>
			<path fill="#22243A" d="M780.27,1101.68c10.916-1.934,12.302-1.348,14.949,5.812
				C789.02,1109.914,785.008,1107.186,780.27,1101.68z"/>
			<path fill="#22243A" d="M760.015,1105.764c-3.939,1.023-7.856-0.986-7.662-3.705c0.096-1.348,1.805-3.281,3.16-3.684
				c2.673-0.795,5.543-0.053,6.057,3.213C761.794,1103.014,760.451,1104.686,760.015,1105.764z"/>
			<path fill="#22243A" d="M908.042,757.699c4.14-7.639,8.279-15.281,12.593-23.24c3.646,0.188,5.398,2.611,4.829,5.852
				c-1.593,9.041-7.891,14.453-14.761,19.26C909.816,758.945,908.928,758.324,908.042,757.699z"/>
			<path fill="#22243A" d="M810.964,796.908c-2.217,1.281-3.496,2.68-4.515,2.512c-8.75-1.465-13.461-8.697-21.263-14.561
				c3.113-0.725,4.955-1.811,6.134-1.316C798.199,786.43,804.926,789.682,810.964,796.908z"/>
			<path fill="#22243A" d="M803.418,811.131c-10.197-1.791-16.735-5.938-21.127-13.285c2.413-3.922,4.965-2.289,7.296-1.268
				C796.66,799.684,799.605,802.635,803.418,811.131z"/>
			<path fill="#22243A" d="M359.426,312.736c7.783,12.916,8.914,22.409,4.52,31.038c-1.157-0.907-3.029-1.639-3.136-2.571
				C359.825,332.562,355.863,323.997,359.426,312.736z"/>
			<path fill="#22243A" d="M468.035,124.629c5.804-2.478,8.521-0.142,10.648,3.116c1.482,2.272,2.378,5.099-0.31,7.026
				c-2.878,2.064-4.878-0.088-6.312-2.409C470.725,130.194,469.687,127.838,468.035,124.629z"/>
			<path fill="#22243A" d="M441.918,267.527c3.248,0.498,5.27,0.26,6.565,1.118c2.822,1.87,5.425,4.148,7.847,6.535
				c3.353,3.307,3.81,6.062,1.573,7.655c-2.784,1.984-4.972,0.416-7.064-1.381C447.96,278.982,445.531,275.352,441.918,267.527z"/>
			<path fill="#22243A" d="M441.599,288.418c10.4,1.979,12.218,5.5,8.081,14.082C444.591,298.751,444.176,298.058,441.599,288.418z"
				/>
			<path fill="#22243A" d="M515.89,268.982c-0.692-4.495,0.308-9.124-0.783-14.034c-1.647-7.422,0.374-15.708,6.077-22.025
				c0.38-0.42,1.401-0.265,2.901-0.496c0.391,1.679,0.969,3.395,1.162,5.153c0.401,3.7,0.312,7.472,0.942,11.126
				c1.335,7.751-1.958,14.021-5.923,20.125c-0.345,0.53-1.292,0.864-1.984,0.912C517.624,269.787,516.932,269.339,515.89,268.982z"
				/>
			<path fill="#22243A" d="M892.248,607.773c9.214,7.545,18.906,14.293,27.858,23.867c-2.789,1.215-4.482,2.688-5.741,2.383
				C906.709,632.158,893.669,617.367,892.248,607.773z"/>
			<path fill="#22243A" d="M891.326,624.062c11.46,6.018,18.396,13.742,24.918,21.859c1.18,1.465,1.323,3.762,2.09,6.117
				c-2.067,0.156-3.56,0.73-4.152,0.232c-2.858-2.402-6.079-4.705-8.052-7.762C901.987,638.082,894.925,633.734,891.326,624.062z"/>
			<path fill="#22243A" d="M891.543,648.047c10.644,1.42,12.638,3.182,13.798,11.338
				C898.239,659.348,895.018,654.945,891.543,648.047z"/>
			<path fill="#22243A" d="M450.476,789.477c3.818-4.348,6.13-6.98,8.711-9.92C463.233,787.01,461.392,789.494,450.476,789.477z"/>
			<path fill="#22243A" d="M526.714,769.92c6.559,3.844,12.457,6.99,13.378,13.246c0.76,5.168-1.271,10.746-2.138,16.641
				c-7.864-0.66-10.813-5.729-13.821-12.225c2.029-0.59,3.301-1.031,4.606-1.312c0.952-0.207,1.951-0.203,2.785-0.281
				C531.645,780.236,522.55,778.133,526.714,769.92z"/>
			<path fill="#A5EAF1" d="M564.562,611.355c3.089,0.285,4.693,0.037,5.928,0.604c20.113,9.203,39.913,5.963,59.698-1.197
				c6.045-2.189,12.138-4.439,18.398-5.801c10.062-2.188,12.126-0.264,13.376,11.082c-17.955,14.33-38.839,17.041-60.951,14.758
				c-9.519-0.98-18.712-3.07-26.976-8.189C570.23,620.254,566.336,617.953,564.562,611.355z"/>
			<path fill="#3ED2E1" d="M656.681,634.096c-4.256,13.816-12.272,23.105-22.005,32.602c-18.008-5.783-34.351-14.812-51.127-28.1
				c9.879-0.928,17.339,2.482,24.995,1.92c7.947-0.586,15.97-0.455,23.852-1.479C640.118,638.035,647.705,635.971,656.681,634.096z"
				/>
			<path fill="#A5EAF1" d="M564.011,636.301c9.298,6.74,18.119,13.67,27.479,19.773c9.13,5.953,18.808,11.064,29.165,17.078
				c-2.067,0.965-3.755,2.264-5.589,2.521c-10.81,1.523-20.196-2.078-28.239-9.021c-9.195-7.934-17.179-16.998-23.212-27.627
				C563.343,638.551,563.79,637.668,564.011,636.301z"/>
		</g>
	</g>
</g>
</svg>
