<?xml version="1.0" encoding="utf-8"?>
<!--Designed by Vexels.com - 2017 All Rights Reserved - https://vexels.com/terms-and-conditions/-->
<svg version="1.1" id="Layer_1" xmlns="http://www.w3.org/2000/svg" xmlns:xlink="http://www.w3.org/1999/xlink" x="0px" y="0px"
	 viewBox="0 0 1200 1200" enable-background="new 0 0 1200 1200" xml:space="preserve">
<g>
	<g>
		<path fill="#FAF3E8" d="M324.949,804.452c0,0-27.929-29.791-27.929-128.475s1.862-219.71,7.448-251.363s22.343-85.65,22.343-85.65
			s46.549-130.337,230.882-132.198c53.997,1.862,106.131,3.724,106.131,3.724s184.333-5.586,221.572,165.714
			s13.034,292.326,9.31,329.565c-3.724,37.239-31.653,111.717-31.653,111.717s-134.06-61.444-271.845-59.582
			C453.424,759.766,324.949,804.452,324.949,804.452z"/>
		<path fill="#E9DED0" d="M440.768,523.721c-30.658-101.406-4.531-204.584,27.64-304.199
			c-110.775,33.162-141.597,119.443-141.597,119.443s-16.757,53.997-22.343,85.65c-5.586,31.653-7.448,152.68-7.448,251.363
			s27.929,128.475,27.929,128.475s125.154-43.527,260.886-46.45C519.117,693.909,466.697,610.147,440.768,523.721z"/>
		<path fill="#FAF3E8" d="M823.143,429.694c-11.259-61.927-22.476-122.732-28.354-183.758
			c-62.063-37.525-130.965-35.446-130.965-35.446s-52.135-1.862-106.131-3.724c-34.352,0.347-63.913,5.16-89.285,12.756
			c-32.171,99.614-58.297,202.793-27.64,304.199c25.928,86.427,78.348,170.189,145.067,234.281c1.79-0.038,3.58-0.074,5.373-0.099
			c59.108-0.799,117.519,10.055,164.967,22.708C803.268,670.067,845.447,552.364,823.143,429.694z"/>
		<path fill="#FFFEF3" d="M885.396,376.204c-14.471-66.569-51.158-106.416-90.607-130.268
			c19.853,65.1,43.005,149.394,47.782,223.365c8.035,124.422-22.343,247.639-86.396,311.31
			c63.156,16.842,106.878,36.875,106.878,36.875s27.929-74.478,31.653-111.717C898.43,668.53,922.635,547.503,885.396,376.204z"/>
		<path fill="#F0D9C0" d="M821.611,268.211c0,0,65.168-186.195,262.535-132.198c-13.034,83.788-93.098,193.643-219.71,206.676
			C858.85,312.898,821.611,268.211,821.611,268.211z"/>
		<polygon fill="#BFA78E" points="408.737,264.487 505.559,225.386 390.118,121.117 		"/>
		<path fill="#BFA78E" d="M684.306,227.248c5.586,1.862,98.683,39.101,98.683,39.101l35.377-130.337L684.306,227.248z"/>
		<path fill="#F0D9C0" d="M378.946,268.211c0,0-65.168-186.195-262.535-132.198c13.034,83.788,93.098,193.643,219.71,206.676
			C341.707,312.898,378.946,268.211,378.946,268.211z"/>
		<path fill="#F0D9C0" d="M120.489,155.178c21.218,80.499,98.474,175.45,215.632,187.51c2.334-12.45,10.199-27.496,18.562-40.8
			C314.37,205.019,219.839,159.19,120.489,155.178z"/>
		<path fill="#D2BEA8" d="M116.411,136.012c0.973,6.257,2.366,12.67,4.078,19.166c99.35,4.012,193.881,49.841,234.194,146.71
			c11.648-18.53,24.263-33.678,24.263-33.678S313.778,82.016,116.411,136.012z"/>
		<path fill="#D2BEA8" d="M1077.877,136.012c-0.973,6.257-2.366,12.67-4.078,19.166c-99.35,4.012-190.914,45.954-231.228,142.824
			c-11.648-18.53-27.229-29.791-27.229-29.791S880.51,82.016,1077.877,136.012z"/>
		<ellipse fill="#F2DFDC" cx="602.181" cy="935.871" rx="362.003" ry="170.815"/>
		<path fill="#E2C3BC" d="M353.01,921.767c-23.019-32.885-21.861-71.801-6.531-106.806
			c-65.668,30.921-106.301,73.676-106.301,120.91c0,94.339,162.074,170.815,362.003,170.815
			c153.916,0,285.377-45.33,337.744-109.238c-5.863,1.303-11.436,3.283-16.486,5.808
			C738.519,1097.283,484.648,1100.417,353.01,921.767z"/>
		<path fill="#FBF5F3" d="M605.315,755.653c-46.848,0-91.568,4.245-132.66,11.89c138.096,9.151,275.359,35.627,363.025,151.09
			c23.74,32.486,30.507,68.459,26.333,104.344c21.739-8.587,43.284-18.305,64.56-29.123c5.05-2.525,10.623-4.505,16.486-5.808
			c15.655-19.105,24.259-39.866,24.259-61.577C967.318,832.129,805.243,755.653,605.315,755.653z"/>
	</g>
	<g>
		<circle cx="470.447" cy="937.826" r="54.016"/>
		<circle cx="724.102" cy="937.826" r="54.016"/>
		<path d="M490.872,549H359.347C440.141,656,490.872,549,490.872,549z"/>
		<path d="M822.815,549H691.29C772.084,656,822.815,549,822.815,549z"/>
		<path d="M1121.017,122.461c-3.038-7.031-8.953-12.413-16.236-14.777c-117.868-38.234-197.471,4.512-243.494,47.104
			c-4.951,4.582-9.617,9.254-14.005,13.951c5.45-27.815,6.953-60.614-0.712-96.532c-1.001-4.684-3.244-9.012-6.496-12.529
			c-6.923-7.485-16.902-10.948-26.681-9.254C795,53.6,788.133,69.655,777.737,93.956c-12.919,30.205-34.515,80.694-67.727,84.277
			l-9.877,0.681l-98.097-2.686c-0.407-0.012-0.813-0.011-1.223-0.006l-88.346,1.633c-0.35,0.006-0.702,0.02-1.053,0.04l-9.156,0.533
			c-33.44-4.888-60.187-53.412-76.282-82.612c-13.841-25.107-22.194-40.261-40.485-42.49c-9.542-1.163-18.824,2.296-25.472,9.485
			c-3.252,3.517-5.494,7.843-6.495,12.528c-7.705,36.109-7.187,68.025-3.073,94.524c-5.049-5.624-10.526-11.225-16.452-16.684
			c-43.89-40.427-120.949-80.59-238.778-42.364c-7.283,2.364-13.198,7.747-16.236,14.776c-3.036,7.031-2.902,15.027,0.372,21.95
			c38.761,82.007,76.216,135.22,117.873,167.468c30.294,23.45,61.476,35.009,96.311,41.955C282.525,389.98,272,432.857,272,465.509
			v223.479c0,36.126,6.295,71.512,19.213,105.486c-57.643,38.364-89.179,86.965-89.179,138.656
			c0,121.61,173.603,216.87,395.3,216.87c221.699,0,395.332-95.26,395.332-216.87c0-36.521-15.37-88.196-85.434-135.068
			C922.261,761.436,930,723.764,930,685.857V462.378c0-33.748-11.649-76.87-22.455-108.706c34.521-6.965,65.162-18.522,95.24-41.79
			c41.7-32.257,79.138-85.473,117.896-167.473C1123.955,137.486,1124.053,129.49,1121.017,122.461z M852.634,826.799
			c0.546,0.267,1.074,0.541,1.616,0.81c1.41,1.263,2.965,2.405,4.682,3.374c53.364,30.145,80.423,64.512,80.423,102.147
			c0,88.673-156.653,163.589-342.08,163.589c-185.426,0-342.078-74.915-342.078-163.589c0-35.147,25.766-70.066,72.84-99.135
			c4.473-2.446,9.087-4.849,13.879-7.196c68.006-33.295,158.694-51.629,255.359-51.629
			C693.941,775.17,784.628,793.504,852.634,826.799z M513.982,231.118l87.203-1.613l98.771,2.704
			c0.854,0.029,1.709,0.006,2.559-0.052l11.6-0.799c0.259-0.018,0.517-0.04,0.776-0.064c31.051-3.053,54.25-21.086,71.804-43.272
			c-9.083,25.348-20.123,40.742-20.314,41.004c-4.238,5.687-6.034,12.831-4.989,19.846c1.045,7.015,4.845,13.325,10.557,17.529
			l27.769,20.441c6.685,4.92,15.281,6.438,23.259,4.12c7.972-2.328,14.401-8.238,17.39-15.986
			c0.17-0.438,17.396-44.326,57.112-81.083c44.676-41.345,98.651-55.903,160.799-43.451
			C991.234,280.494,938.45,296.958,867.725,306.135c-7.41,0.961-14.076,4.991-18.372,11.104c-4.294,6.115-5.825,13.752-4.216,21.049
			l0.168,0.764c0.349,1.581,1.128,3.128,1.757,4.619C861.637,378.227,877,432.077,877,462.378v223.479
			c0,34.89-8.273,69.743-24.025,103.607c-1.458,1.543-2.901,3.29-3.993,5.222c-0.531,0.939-1.051,1.901-1.456,2.873
			c-69.147-30.239-157.183-46.795-250.216-46.795c-91.676,0-178.454,16.096-247.132,45.499c-0.922-2.701-2.129-5.239-3.831-7.487
			C332.118,756.83,325,723.287,325,688.988V465.509c0-31.131,14.692-84.803,28.992-118.706c3.765-8.928,2.336-19.197-3.652-26.815
			l-0.626-0.765c-4.31-5.485-10.612-9.06-17.529-9.957c-72.808-9.447-123.549-25.319-190.503-155.739
			c153.398-31.309,206.104,108.276,208.372,114.523c2.824,7.94,9.234,14.075,17.29,16.545c8.051,2.467,16.803,0.986,23.593-4.008
			l27.794-20.441c11.694-8.601,14.454-24.83,6.078-36.685c-0.975-1.423-16.06-23.944-21.837-61.928
			c21.817,32.807,52.428,65.869,95.869,70.139c1.379,0.135,2.768,0.164,4.152,0.084L513.982,231.118z"/>
	</g>
</g>
</svg>
