<?xml version="1.0" encoding="utf-8"?>
<!-- Generator: Adobe Illustrator 16.0.0, SVG Export Plug-In . SVG Version: 6.00 Build 0)  -->
<!DOCTYPE svg PUBLIC "-//W3C//DTD SVG 1.1//EN" "http://www.w3.org/Graphics/SVG/1.1/DTD/svg11.dtd">
<svg version="1.1" id="Capa_1" xmlns="http://www.w3.org/2000/svg" xmlns:xlink="http://www.w3.org/1999/xlink" x="0px" y="0px"
	 width="1200px" height="1200px" viewBox="0 0 1200 1200" enable-background="new 0 0 1200 1200" xml:space="preserve">
<g>
	<g opacity="0.3">
		<path fill="#111D25" d="M765.027,953.703c-50.26,0-95.854,6.982-131.707,18.794c-35.575-11.812-80.477-18.794-129.635-18.794
			c-110.598,0-213.426,36.402-232.578,85.691c-21.344,55.01,67.302,105.708,202.187,107.158
			c60.046,0.596,115.896-9.024,158.89-25.185c42.957,17.086,99.545,27.896,161.314,28.602
			c141.869,1.448,238.252-49.4,215.842-107.009C989.426,991.515,880.279,953.703,765.027,953.703z"/>
	</g>
	<g>
		<path fill="#EADBD0" d="M593.128,908.164c0,0-16.457,72.096-32.971,103c-16.469,30.902-29.865,49.439-40.191,49.439
			c-10.303,0-49.416-7.244-49.416-7.244l19.574,17.532c0,0-60.785,1.04-69.013,23.659c38.093,1.04,104.059-8.208,104.059-8.208
			l-6.2,25.739l46.332-30.902c0,0,20.629,11.328,47.377,6.203c-24.685-13.408-45.279-27.819-39.125-45.316
			c6.177-17.531,56.635-130.82,56.635-130.82L593.128,908.164z"/>
		<path fill="#DBC5B9" d="M693.037,881.385c0,0,4.15,70.015-1.031,86.506c-5.145,16.492-31.951,36.068-62.836,36.068
			c20.594,10.288,45.314,4.085,45.314,4.085s-17.512,30.902-50.471,39.187c49.414,3.047,89.641-41.229,89.641-41.229l36.031,45.315
			l-12.365-82.386c0,0,23.699,13.373,49.449,8.21c-36.041-15.454-57.678-31.907-60.785-56.645
			c-3.082-24.737-3.082-57.646-3.082-57.646L693.037,881.385z"/>
		<path fill="#E6A565" d="M231.607,146.648c0,0,30.193-61.846,97.484-38.482c67.301,23.363,92.021,65.93,120.842,120.846
			c28.857,54.957,53.576,138.752,131.861,145.586c78.26,6.871,164.807,9.62,178.545-42.567
			c13.689-52.149,15.084-135.963,45.301-178.511c30.217-42.566,75.518-50.833,83.781-19.277c41.188-1.34,61.77,45.369,61.77,45.369
			s41.211,28.842,48.104,38.462c6.867,9.585-9.623,28.825-9.623,28.825s16.49,8.245,16.49,28.824
			c0,20.614-20.594,39.854-20.594,39.854s21.965,1.337,15.098,21.951c-6.869,20.617-13.762,41.193-13.762,41.193
			s28.916,35.695,19.258,65.892c-9.623,30.234-30.24,43.98-30.24,43.98s-5.473,61.769-13.736,78.261
			c-8.229,16.491-32.947,32.982-32.947,32.982s23.359,49.439,1.395,111.246c-21.988,61.805-39.863,119.454-97.482,146.939
			c-57.727,27.447-122.297,21.988-122.297,21.988s0.059,20.576-31.553,21.951c-30.24,30.199-41.199,28.824-75.518,24.74
			c-34.342-4.123-71.393-20.615-60.434-54.975c-48.056-34.318-67.301-59.021-87.93-72.764
			c-20.582-13.742-83.711-48.026-83.711-48.026s-28.857-12.368-57.703-30.234c-28.856-17.866-63.175-93.416-61.828-157.937
			c1.395-64.553,31.599-130.483,46.708-193.665c15.119-63.144,32.947-96.126,5.461-120.828
			C276.898,223.57,211.014,204.33,231.607,146.648z"/>
		<g>
			<path fill="#D5975E" d="M585.931,815.454c-60.409-10.994-52.182-107.12-52.182-107.12s-24.742,49.436-96.146,8.207
				c-71.393-41.193-49.439-321.329-49.439-321.329c-3.527-41.006-38.537-60.952-77.557-70.46
				c-3.528,12.963-7.701,27.559-11.721,44.349c-15.109,63.182-45.313,129.112-46.708,193.665
				c-1.348,64.521,32.971,140.07,61.828,157.937c28.846,17.866,57.703,30.234,57.703,30.234s63.129,34.284,83.711,48.026
				c20.629,13.742,39.874,38.445,87.93,72.764c-10.959,34.359,26.092,50.852,60.434,54.975c34.318,4.084,45.277,5.459,75.518-24.74
				c7.877-0.334,13.736-1.855,18.18-3.936C604.486,883.91,585.931,815.454,585.931,815.454z"/>
			<path fill="#D5975E" d="M1000.666,337.527c6.867-20.614-15.098-21.951-15.098-21.951s20.594-19.239,20.594-39.854
				c0-20.579-16.49-28.824-16.49-28.824s16.49-19.24,9.623-28.825c-6.893-9.62-48.104-38.462-48.104-38.462
				s-0.398-0.947-1.148-2.488c-44.609,39.207-107.141,101.236-114.15,146.699c-11.006,71.428-98.912,74.1-41.211,98.875
				c57.668,24.702,0,46.69-87.918,46.69c2.754,19.205-27.463,65.931-192.259,87.881c68.685,41.193,173.037,63.182,238.966,38.482
				c40.848-15.34,121.793-3.231,177.432,8.208c-0.996-2.638-1.664-4.123-1.664-4.123s24.719-16.491,32.947-32.982
				c8.264-16.492,13.736-78.261,13.736-78.261s20.617-13.746,30.24-43.98c9.658-30.196-19.258-65.892-19.258-65.892
				S993.797,358.145,1000.666,337.527z"/>
		</g>
		<path fill="#B77941" d="M581.091,397.292c0-7.167-25.729-16.975-44.903-38.146c-44.001-28.08-63.95-87.661-86.255-130.135
			c-28.821-54.916-53.541-97.482-120.842-120.846c-67.291-23.363-97.484,38.482-97.484,38.482
			c-20.594,57.682,45.291,76.922,72.74,101.624c27.486,24.702,9.658,57.685-5.461,120.828c-2.181,9.063-4.689,18.237-7.35,27.374
			c11.088-4.085,27.92-13.854,34.119-36.956c3.447,49.401,13.738,50.811,23.384,52.891c6.868,45.984,21.262,46.652,30.193,42.529
			c4.794,33.654,28.153,30.905,32.959,17.866c29.537,22.694,37.741-10.288,39.828-30.902c46.017,5.497,47.353-37.105,43.273-67.305
			C546.784,400.674,581.091,406.874,581.091,397.292z"/>
		<path fill="#DB2C27" d="M315.552,105.268c0,0,33.218-2.06,32.702-21.094c-0.504-19.056-2.579-27.841-8.743-23.7
			c-6.225,4.122-15.953,16.195-18.273,11.07c-2.309-5.163-1.043-19.835-4.407-19.577c-3.341,0.261-6.458,20.318-9.248,18.537
			c-2.86-1.803-7.759-16.492-10.807-15.973c-3.106,0.521,0.234,23.438-6.728,16.491c-6.939-6.944-15.202-22.917-18.813-20.837
			c-3.586,2.042,0.82,21.581-1.805,22.656c-2.578,1.041-19.527-14.17-20.852-10.065c-1.301,4.123,9.014,22.657,4.125,24.96
			c-4.864,2.324-16.198-12.107-18.273-7.707c-2.063,4.367,13.89,19.038,6.939,21.638c-6.939,2.563-13.374-4.867-15.155,2.821
			c-1.84,7.728,5.649,20.875-0.809,27.563c-6.435,6.704-16.996,7.724-11.053,17.514c5.907,9.767,25.235,10.045,25.235,10.045
			s-25.762,57.406,4.888,81.381c30.662,23.923,52.533,6.168,54.058-20.354c30.122,17.494,60.55-2.06,50.505-23.178
			c-10.068-21.098-39.956-24.978-39.956-24.978s15.494-13.669,6.211-28.063c-9.271-14.411-27.039-21.136-42.477-11.067
			C284.903,109.912,307.583,105.027,315.552,105.268z"/>
		<path fill="#DBC5B9" d="M271.763,186.131c0,0-21.414-4.642-37.776-3.604c-16.386,1.022-32.209,5.389-40.027,4.867
			c-7.794-0.519-9.178-9.509-1.078-16.491c8.041-6.945,28.013-23.885,51.115-18.498c-4.466,12.368-6.704,18.053,3.047,19.556
			C256.75,173.502,271.763,186.131,271.763,186.131z"/>
		<path fill="#B77941" d="M497.392,549.729c0,0,109.122,79.635,202.502,66.599c93.416-13.036,159.322-62.476,170.984-102.292
			c35.738-15.787,39.84-50.145,8.943-61.807c-30.885-11.662-87.215-20.614-132.551-46.022
			c45.336,32.279,123.607,50.146,127.734,66.637c4.125,16.453-13.691,37.7-43.273,45.277c0,17.198-35.691,64.591-129.764,81.716
			C607.873,616.995,497.392,549.729,497.392,549.729z"/>
		<path fill="#313942" d="M1006.162,275.723c0-20.579-16.49-28.824-16.49-28.824s16.49-19.24,9.623-28.825
			c-6.893-9.62-48.104-38.462-48.104-38.462s-20.582-46.709-61.77-45.369c-8.264-31.556-53.564-23.289-83.781,19.277
			c-21.379,30.123-28.342,80.898-35.42,126.549c17.475-17.719,66.023-63.703,88.293-53.078c27.475,13.074,13.76,36.398,13.76,36.398
			s41.867-10.994,31.553,24.031c32.984,2.749,46.029,12.371,28.846,39.151c0,0,24.744,12.33,18.555,40.487
			c0,0,16.738-1.858,35.783,11.4c0.434-1.262,7.021-21.021,13.656-40.932c6.867-20.614-15.098-21.951-15.098-21.951
			S1006.162,296.337,1006.162,275.723z"/>
		<path fill="#E6A565" d="M301.523,155.524c0,7.317-5.942,13.28-13.268,13.28c-7.326,0-13.245-5.963-13.245-13.28
			c0-7.354,5.919-13.259,13.245-13.259C295.581,142.266,301.523,148.17,301.523,155.524z"/>
		<path fill="#313942" d="M294.291,155.524c0,3.306-2.684,6.019-6.035,6.019c-3.329,0-6.002-2.713-6.002-6.019
			c0-3.343,2.673-6.054,6.002-6.054C291.607,149.471,294.291,152.182,294.291,155.524z"/>
	</g>
</g>
</svg>
