<?xml version="1.0" encoding="utf-8"?>
<!-- Designed by Vexels.com - 2016 All Rights Reserved - https://vexels.com/terms-and-conditions/  -->

<svg version="1.0" id="Capa_1" xmlns="http://www.w3.org/2000/svg" xmlns:xlink="http://www.w3.org/1999/xlink" x="0px" y="0px"
	 width="1200px" height="1200px" viewBox="0 0 1200 1200" enable-background="new 0 0 1200 1200" xml:space="preserve">
<g>
	<path fill="#86888A" d="M266.367,714.812c-7.532,0-146.883,28.242-145,33.894c1.883,5.652,67.791,24.482,111.103,33.897
		c43.312,9.415,209.886,47.044,265.519,56.494c64.98,11.039,96.951,27.039,140.263,15.743c43.312-11.297,44.28,3.091,72.527-11.976
		c28.247-15.067-3.765-30.127,20.715-39.545c24.48-9.419,261.75-175.127,267.4-177.012c5.65-1.885,24.647,18.692,56.577,0.872
		c31.929-17.82,29.838-25.857,29.838-25.857l41.861-24.968c0,0,9.839-6.741-57.335-18.882
		c-67.174-12.141-363.243,31.026-372.448,34.865c-9.205,3.839-348.164,92.345-368.878,97.994c-20.713,5.648-24.48,18.83,0,30.13
		C352.989,731.761,266.367,714.812,266.367,714.812z"/>
	<g>
		<g>
			<path d="M167.246,656.044c4.403,49.367,30.255,108.239,76.057,108.491c55.741,0.307,71.559-38.701,71.559-38.701l-28.233-57.107
				l-102.265-18.299L167.246,656.044z"/>
			<g>
				<path d="M766.63,715.346c0,0-103.633,10.073-143.725,18.134c-40.088,8.068,32.183-127.569,32.183-127.569
					s70.379-29.214,73.143-29.789c2.762-0.572,84.087-11.169,86.513-8.478c2.426,2.688,39.303,19.364,39.592,26.784
					c0.286,7.416-35.984,53.882-38.158,57.676c-2.175,3.801-15.318,35.896-16.687,36.413
					C798.115,689.034,766.63,715.346,766.63,715.346z"/>
				<path fill="#282829" d="M680.138,629.087c1.375-0.521,47.529-7.899,67.176,19.667c19.652,27.567,28.111,101.54,0.886,153.685
					c-27.229,52.145-75.424,66.564-122.594,47.971c-21.191-7.534-36.859-28.287-46.733-78.988
					c-9.87-50.697,35.877-116.107,35.877-116.107L680.138,629.087z"/>
				<path fill="#7D7E81" d="M673.11,722.7c0,0,13.135-44.167,42.366-44.839c29.234-0.679,30.511,55.932,26.703,77.44
					c-3.801,21.508-20.259,63.955-51.366,64.231C659.709,819.822,659.838,763.624,673.11,722.7z"/>
				<path fill="#1C1B1C" d="M703.747,686.677c0,0,3.994-4.797,14.783-1.971c10.79,2.83,20.636,28.921,15.818,60.223
					c-4.818,31.302-19.786,64.396-48.068,65.495c-0.127-3.243-7.73-7.595-10.954-7.002c16.423-7.606,34.8-24.579,38.837-52.131
					C718.193,723.734,721.105,703.185,703.747,686.677z"/>
				<path fill="#1C1B1C" d="M697.847,690.154c1.397,0.441,20.129,28.011,9.393,62.332c-10.737,34.324-25.197,44.635-33.506,45.89
					c-4.408-5.865-13.866-22.214-5.095-59.244C677.412,702.099,691.263,688.09,697.847,690.154z"/>
				<path fill="#7D7E81" d="M714.987,689.028c0,0,26.903,23.1,3.696,82.985c-9.78,23.138-22.847,33.394-35.703,37.147
					c22.916-7.857,34.052-19.898,40.34-37.329C729.609,754.399,741.283,708.433,714.987,689.028z"/>
				<path fill="#333334" d="M678.641,818.251c0,0,14.335,18.451,40.007,0.141c25.671-18.303,32.159-62.821,27.248-87.028
					c-1.03,31.823-8.754,54.878-21.856,72.636C710.031,822.989,688.251,824.688,678.641,818.251z"/>
				<path fill="#1C1B1C" d="M680.424,703.85c0,0,18.496-42.148,45.77-41.224c27.273,0.924,27.73,63.611,24.697,80.463
					c-0.269-21.546-5.802-54.24-22.347-63.814C714.11,670.924,694.172,678.061,680.424,703.85z"/>
				<path fill="#333334" d="M677.264,857.217c0,0-12.362,0.482-18.834-6.693c-6.474-7.179-29.203-50.253-14.374-114.615
					c9.587-40,19.445-57.107,20.584-59.627c1.139-2.516-9.439-3.967-19.047,3.843c-9.601,7.799-61.942,94.671-62.247,102.732
					c-0.307,8.061,9.307,64.034,57.94,72.667C659.433,860.395,677.264,857.217,677.264,857.217z"/>
				<path fill="#7B7C7F" d="M691.111,745.701c-0.951,7.981,1.925,14.888,6.413,15.419c4.491,0.534,8.895-5.514,9.836-13.496
					c0.949-7.985-1.928-14.884-6.41-15.415C696.456,731.674,692.054,737.716,691.111,745.701z"/>
				<path fill="#7B7C7F" d="M696.816,731.375l-7.08,0.899c0,0-5.648,6.103-5.145,11.039c2.435-1.03,4.897-1.434,4.897-1.434
					S692.574,733.708,696.816,731.375z"/>
				<path fill="#4A4B4C" d="M697.779,763.849c-0.262,1.247-10.776,25.495-24.887,28.835c-3.491-10.08,11.26-36.664,11.862-37.305
					c0.593-0.641-17.066,14.905-17.021,16.142c0.044,1.237-0.503,18.903,6.573,25.75c10.952-5.066,20.205-13.792,28.364-34.848
					C700.902,764.651,697.779,763.849,697.779,763.849z"/>
				<path fill="#1C1B1C" d="M736.371,745.318c0.046-1.117-5.792,42.02-29.87,59.679
					C714.723,801.578,734.952,780.356,736.371,745.318z"/>
				<path fill="#1C1B1C" d="M740.24,749.188c0.1-1.234-3.904,34.827-26.961,54.923C724.227,799.038,737.735,780.249,740.24,749.188z
					"/>
				<path fill="#1C1B1C" d="M742.017,643.854c0,0-74.111-42.626-110.915,109.28c-12.71,43.226-46.24,40.814-46.24,40.814
					s-8.681-20.098-6.569-37.364c2.114-17.262,70.948-110.042,70.948-110.042s21.625-17.1,30.897-17.455
					C689.412,628.715,724.066,624.118,742.017,643.854z"/>
				<g>
					<path fill="#3D3D3E" d="M695.815,746.08c-0.533,4.453,1.073,8.299,3.577,8.605c2.506,0.286,4.957-3.081,5.483-7.533
						c0.53-4.453-1.075-8.295-3.577-8.592C698.796,738.26,696.343,741.638,695.815,746.08z"/>
					<path fill="#7B7C7F" d="M697.983,749.02c0.055-0.335-1.397-2.73,0.479-6.1c1.87-3.367,4.294-0.813,4.366-0.682
						c0.067,0.124-1.286,1.923-1.074,2.298c0.205,0.383,0.484,0.82,1.363,0.272c0.886-0.555,1.244,2.147,0.743,4.111
						c-0.501,1.954-2.774,3.333-2.774,3.333s-0.738-0.617-0.026-2.258c0.713-1.644,1.527-3.939-0.15-2.261
						c-1.68,1.685-2.614,2.629-2.614,2.629L697.983,749.02z"/>
				</g>
			</g>
			<g>
				<path d="M1100.923,537.803c0,0-55.348,5.859-76.758,10.676c-21.489,4.849,15.603-75.924,15.603-75.924
					s36.042-16.611,37.462-16.935c1.42-0.317,43.206-6.179,44.548-4.646c1.344,1.534,21.069,11.135,21.496,15.398
					c0.431,4.277-16.935,31.33-17.955,33.57c-1.018,2.25-6.939,21.387-7.652,21.697
					C1116.952,521.944,1100.923,537.803,1100.923,537.803z"/>
				<path fill="#282829" d="M1053.184,486.075c0.71-0.303,24.734-4.494,35.705,11.717c11.119,16.432,17.786,61.55,4.453,94.258
					c-13.68,33.57-40.159,42.851-66.574,30.472c-11.769-4.98-20.522-18.444-26.107-50.639c-5.45-31.378,18.501-70.548,18.501-70.548
					L1053.184,486.075z"/>
				<path fill="#7D7E81" d="M1050.954,542.025c0,0,6.277-26.691,21.766-27.012c15.498-0.327,17.61,34.035,16.109,47.338
					c-1.521,13.443-9.482,40.369-26.57,40.438C1045.179,602.858,1044.431,567.272,1050.954,542.025z"/>
				<path fill="#1C1B1C" d="M1066.674,520.266c0,0,2.018-2.871,7.816-1.141c5.797,1.73,11.674,17.555,9.848,36.768
					c-1.851,19.509-9.257,40.435-24.737,41.041c-0.131-2.075-4.365-4.873-6.122-4.515c8.84-4.773,18.513-15.443,20.112-32.653
					C1075.159,542.786,1076.264,530.284,1066.674,520.266z"/>
				<path fill="#1C1B1C" d="M1063.599,522.344c0.755,0.269,11.321,17.042,6.274,38.146c-5.133,21.47-12.832,27.949-17.345,28.714
					c-2.506-3.735-7.902-14.081-3.712-37.102C1052.926,529.498,1060.063,521.082,1063.599,522.344z"/>
				<path fill="#7D7E81" d="M1072.693,521.706c0,0,14.893,14.064,3.797,51.008c-4.816,14.564-11.75,21.049-18.725,23.396
					c12.394-4.932,18.217-12.531,21.244-23.496C1082.008,561.755,1087.167,533.527,1072.693,521.706z"/>
				<path fill="#333334" d="M1055.548,601.914c0,0,8.233,11.955,21.984,0.238c13.625-11.61,15.971-39.607,12.689-54.592
					c0.264,19.716-3.341,34.18-10.068,45.404C1072.893,605.074,1060.947,606.094,1055.548,601.914z"/>
				<path fill="#1C1B1C" d="M1054.559,530.57c0,0,9.076-25.233,23.507-24.616c14.443,0.62,16.337,38.477,15.151,48.85
					c-0.714-13.265-4.51-33.122-13.532-38.911C1071.849,510.864,1061.422,515.068,1054.559,530.57z"/>
				<path fill="#333334" d="M1055.471,627.178c0,0-6.846,0.269-10.542-4.446c-3.682-4.701-16.69-32.477-9.377-72.685
					c4.618-24.358,9.623-34.61,10.191-36.116c0.565-1.503-5.056-2.399-10.044,2.247c-5.006,4.656-32.441,57.838-32.572,62.904
					c-0.128,5.083,5.404,41.024,32.381,46.845C1045.637,629.183,1055.471,627.178,1055.471,627.178z"/>
				<path fill="#7B7C7F" d="M1061.026,556.23c-0.36,4.945,1.325,9.256,3.76,9.605c2.447,0.341,4.708-3.408,5.049-8.364
					c0.348-4.932-1.341-9.191-3.769-9.536C1063.645,547.597,1061.39,551.302,1061.026,556.23z"/>
				<path fill="#7B7C7F" d="M1063.833,547.415l-3.786,0.528c0,0-2.931,3.742-2.574,6.789c1.294-0.624,2.612-0.868,2.612-0.868
					S1061.598,548.841,1063.833,547.415z"/>
				<path fill="#4A4B4C" d="M1064.981,567.537c-0.121,0.782-5.376,15.987-13.006,18.055c-2.066-6.386,5.49-22.983,5.8-23.376
					c0.308-0.396-8.998,9.243-8.952,10.021c0.047,0.776,0.024,11.903,3.998,16.266c5.885-3.174,10.768-8.653,14.781-21.842
					C1066.693,568.051,1064.981,567.537,1064.981,567.537z"/>
				<path fill="#1C1B1C" d="M1085.443,556.137c-0.004-0.689-2.115,26.267-14.87,37.399
					C1074.999,591.385,1085.537,578.014,1085.443,556.137z"/>
				<path fill="#1C1B1C" d="M1087.626,558.55c0.021-0.765-1.241,21.777-13.364,34.448
					C1080.135,589.807,1087.048,577.952,1087.626,558.55z"/>
				<path fill="#1C1B1C" d="M1085.98,494.891c0,0-39.602-25.01-57.209,65.757c-6.482,27.081-24.775,25.44-24.775,25.44
					s-4.784-12.692-3.703-23.465c1.077-10.676,36.923-66.381,36.923-66.381s11.114-9.977,15.968-10.167
					C1058.04,485.886,1076.1,483.277,1085.98,494.891z"/>
				<g>
					<path fill="#3D3D3E" d="M1063.571,556.482c-0.197,2.757,0.746,5.152,2.104,5.345c1.358,0.193,2.619-1.899,2.812-4.652
						c0.193-2.75-0.751-5.135-2.102-5.324C1065.032,551.664,1063.774,553.728,1063.571,556.482z"/>
					<path fill="#7B7C7F" d="M1064.805,558.309c0.023-0.204-0.812-1.699,0.138-3.774c0.941-2.075,2.297-0.489,2.336-0.41
						c0.041,0.083-0.651,1.186-0.531,1.42c0.119,0.237,0.277,0.51,0.743,0.172c0.462-0.338,0.708,1.334,0.486,2.547
						c-0.233,1.209-1.437,2.061-1.437,2.061s-0.408-0.39-0.055-1.403c0.348-1.013,0.744-2.436-0.129-1.396
						c-0.876,1.03-1.36,1.616-1.36,1.616L1064.805,558.309z"/>
				</g>
			</g>
			<g>
				<g>
					<path fill="#333334" d="M1061.105,410.672c0,0,9.701-5.338,0.255-9.305c-9.439-3.967-42.35-6.4-46.707-6.848
						c-4.348-0.452-174.071-1.882-187.153-3.846c-13.079-1.968-36.571-1.054-37.664,2.705c-1.089,3.753-49.855,23.617-49.855,23.617
						l-8.607,1.575c0,0-4.831-12.82-11.633-12.555c-2.834-9.177-8.309-22.587-29.927-21.122
						c-21.618,1.458-27.56,7.885-28.338,19.678c-11.55,5.407-24.889,12.737-29.944,25.933
						c-7.058,9.57,158.837,24.155,158.837,24.155l50.741,11.21l107.042-14.264l44.794-10.421L1061.105,410.672z"/>
					<path d="M830.432,437.894c-1.06,1.148-6.903,12.069-6.903,12.069s-3.357-1.316-17.824-3.732c0.124,0,0.229-0.007,0.35-0.01
						c-7.423-10.77-21.475-21.284-42.551-22.673c-22.089-1.458-33.365,10.452-35.548,13.051
						c-94.422-8.884-229.962-11.572-243.366-8.078c9.082-12.889,68.789-79.739,68.789-79.739l-12.546-0.251l-89.314,92.341
						l6.515,6.376l372.415,19.406C830.449,466.652,831.491,436.753,830.432,437.894z M737.461,437.525
						c4.18-3.002,12.77-7.899,24.079-7.637c19.127,0.452,30.658,10.863,34.355,14.812c-9.137-1.354-21.148-2.947-36.912-4.756
						C752.19,439.096,744.981,438.293,737.461,437.525z"/>
				</g>
				<path opacity="0.2" fill="#EFF9FE" d="M540.085,348.236l-82.779,89.826l371.473,25.003l12.143-105.424l-3.946-5.886
					C836.976,351.755,572.69,338.839,540.085,348.236z"/>
				<g>
					
						<linearGradient id="SVGID_1_" gradientUnits="userSpaceOnUse" x1="850.3857" y1="574.3931" x2="1279.9106" y2="574.3931" gradientTransform="matrix(0.996 -0.0891 0.0891 0.996 -447.8771 -69.2408)">
						<stop  offset="0" style="stop-color:#6B6C6F"/>
						<stop  offset="1" style="stop-color:#FFFFFF"/>
					</linearGradient>
					<path fill="url(#SVGID_1_)" d="M878.941,452.599c3.124-33.308-14.168-89.051-15.823-93.776
						c-0.481-2.929-2.368-3.959-8.242-3.363c-3.231-7.251-6.517-6.382-11.331-6.934c-27.093-4.473-178.012-7.44-221.51-7.216
						c-43.496,0.221-77.678,3.026-80.935,4.625c-14.016,9.405-89.581,94.937-89.581,94.937c15.522-0.61,33.97-0.558,54.177-0.038
						c-19.249-0.882-32.664-1.448-35.064-1.444c-9.586,0.004-13.652-0.207-13.325-1.327c13.063-14.888,83.964-87.703,83.964-87.703
						s7.321-1.396,12.109-1.578c105.82-9.287,277.862,5.755,284.176,6.986c2.08,15.405-9.898,105.469-9.898,105.469
						s-99.492-7.92-130.926-10.38c-13.714-1.078-56.63-3.395-101.474-5.665c103.483,6.779,211.476,18.472,219.247,19.137
						c11.838,1.013,26.605,1.544,26.605,1.544s42.17-6.069,42.814-8.302C884.576,455.328,883.767,453.512,878.941,452.599z
						 M877.697,451.761l-29.14,6.355c0,0,2.137-25.83,3.984-44.394c1.842-18.565,3.25-48.413,3.047-53.544
						c1.733-1.613,4.842-0.961,4.842-0.961c-0.243,0.265,12.274,38.05,15.284,62.59
						C877.845,443.552,877.697,451.761,877.697,451.761z"/>
					
						<linearGradient id="SVGID_2_" gradientUnits="userSpaceOnUse" x1="690.4127" y1="516.4802" x2="779.7414" y2="516.4802" gradientTransform="matrix(0.9992 -0.039 0.0389 0.9992 -204.1035 -44.3876)">
						<stop  offset="0" style="stop-color:#6B6C6F"/>
						<stop  offset="1" style="stop-color:#FFFFFF"/>
					</linearGradient>
					<path fill="url(#SVGID_2_)" d="M595.258,445.189c-31.228-2.051-62.034-3.643-89.562-4.356
						C529.786,441.946,563.02,443.552,595.258,445.189z"/>
				</g>
				<path opacity="0.2" fill="#EFF9FE" d="M878.941,452.599l-30.384,5.518c0,0-0.626,1.882-1.063,2.591
					c-1.623,0.069-0.961-0.889-0.138-3.474c0.83-2.585,2.983-12.886,3.784-22.208c0.796-9.319,5.76-60.595,3.96-77.016
					c2.143,1.313,2.143,1.313,2.143,1.313l4.84-0.885C862.084,358.437,878.794,394.009,878.941,452.599z"/>
				<path fill="#4F4F51" d="M849.92,445.717c0,0-0.549,10.152,1.161,9.453c1.713-0.699,5.669-0.693,6.763-1.058
					c1.094-0.355,2.595-2.474,4.046-1.892c1.442,0.579,1.859,1.213,2.405,0.855c1.541-1.014,10.351-2.457,10.351-2.457
					s-0.452-40.032-10.821-74.607l-4.713-15.329l-2.84,0.265l-1.173-2.936l4.845-0.769l1.746,3.071c0,0,11.633,36.23,14.455,66.888
					c1.001,10.893,1.94,24.982,1.94,24.982s-27.906,5.841-29.605,6.131C848.981,454.818,849.92,445.717,849.92,445.717z"/>
				<path fill="#4F4F51" d="M852.088,350.986c0,0,0.072,1.892-0.562,1.92c-0.627,0.028-0.92,0.83-0.92,0.83
					s0.143,48.271-4.001,71.851c-3.448,21.187-4.627,31.519-4.598,32.312c0.033,0.789-1.496,2.12-1.496,2.12
					s-3.071,2.495-4.966,2.568c2.984-0.593,4.03,1.902,4.197,2.212c0.171,0.307,3.491,0.176,3.491,0.176s-3.219-1.303-1.673-2.309
					c1.544-1.01,2.004-1.341,2.807-1.058c0.803,0.29-0.045-1.109,0.238-2.068c0.279-0.958,6.248-34.59,7.668-55.064
					c-2.916,22.59-8.841,53.527-8.841,53.527s2.163-17.651,4.291-32.139c2.121-14.485,3.148-32.887,3.849-43.36
					c0.703-10.476,1.039-26.153,1.039-26.153l2.042-0.4C854.654,355.949,853.93,353.602,852.088,350.986z"/>
				<path fill="#4F4F51" d="M843.209,407.522c0,0-3.702,34.962-3.951,40.669c-0.252,5.71,0.103,6.799,1.385,3.115
					c1.286-3.691,2.305-14.016,2.857-16.097c0.551-2.082-0.593-2.988-0.863-5.824c-0.267-2.837-0.19-4.901-0.19-4.901
					L843.209,407.522z"/>
				<path fill="#4F4F51" d="M830.626,462.307c-0.022-0.503,1.751-7.83,2.462-9.918c0.71-2.081,1.289,0.589,1.642-2.592
					c0.345-3.181,6.665-64.527,7.272-73.256c0.61-8.726,1.192-22.204,1.135-23.624c-0.055-1.417-0.737-2.66-2.166-2.76
					c-1.425-0.11-70.105-3.76-80.23-3.684c15.353,0.038,72.733,2.233,77.661,2.675c4.925,0.438,5.731,0.885,5.711,4.366
					c-0.02,3.481-4.551,61.905-6.234,79.697c-1.682,17.793-4.835,26.147-4.794,27.253c0.045,1.11,0.906,2.974,0.906,2.974
					S830.694,464.04,830.626,462.307z"/>
				<path fill="#4F4F51" d="M540.085,348.236c0,0,9.896-2.243,22.636-2.974c12.744-0.731,211.452-2.206,275.516,8.995
					c-4.122,1.554-88.994-7.437-169.572-7.551c-77.509,1.165-116.658,1.789-115.287,2.075
					C554.746,349.06,540.085,348.236,540.085,348.236z"/>
				<path fill="#9FA1A4" d="M860.845,360.46c0,0,12.706,33.69,16.19,90.533c0,0-9.094,2.095-11.443,2.826
					c-0.307,0.327-0.307,0.327-0.307,0.327l12.412-2.385C877.697,451.761,873.932,387.644,860.845,360.46z"/>
			</g>
			<path fill="#05B3E9" d="M42.405,567.055c0,0-8.573-4.828-5.604-11.397c2.969-6.565,23.296-31.226,37.91-36.958
				c14.617-5.731,127.518-38.518,261.714-54.719c38.47-6.01,82.222-9.005,89.9-10.601c7.68-1.586,14.538-7.661,18.301-10.391
				c1.883-1.358,10.158-4.263,10.158-4.263s7.883,2.602,18.187,2.202c10.308-0.403,77.468,2.454,171.939,9.736
				c94.466,7.289,169.587,14.678,194.112,15.012c8.324-1.613,48.402-16.073,134.589-22.662c8.962-1.641,26.42-17.152,47.303-27.646
				c12.884-0.503,87.122-15.649,126.547,2.805c5.628,12.041,19.316,32.15,19.316,32.15s-7.837,30.623-13.849,41.823
				c-6.016,11.2-26.89,38.463-51.683,47.82c-0.15-3.867-0.941-7.706-0.941-7.706s12.918-15.987,7.935-28.046
				c-4.985-12.065-34.216-0.606-46.79,24.403c-12.57,25.002-25.116,50.649-32.001,56.073
				c-15.927,5.142-256.374,125.474-256.374,125.474s21.78-36.978,27.37-59.131c5.586-22.149,6.406-56.373-40.49-51.321
				c-46.895,5.052-95.88,28.252-107.722,71.933c-5.993,11.848-26.293,86.831-31.788,94.785
				c-11.935,8.206-56.597,24.616-73.363,23.414c3.982-13.699-10.682-94.33-10.682-94.33s-1.073-10.917,3.829-17.562
				c-1.272-16.077-48.78-43.254-48.78-43.254l-12.412-4.032l-111.98,6.948l-205.969-37.774l-87.683-15.294L42.405,567.055z"/>
			
				<linearGradient id="SVGID_3_" gradientUnits="userSpaceOnUse" x1="217.3328" y1="656.0232" x2="672.6618" y2="656.0232" gradientTransform="matrix(0.9992 -0.039 0.0389 0.9992 -204.1035 -44.3876)">
				<stop  offset="0" style="stop-color:#0090B6"/>
				<stop  offset="0.1828" style="stop-color:#008DB2"/>
				<stop  offset="0.4104" style="stop-color:#0084A7"/>
				<stop  offset="0.6617" style="stop-color:#007594"/>
				<stop  offset="0.9284" style="stop-color:#00607B"/>
				<stop  offset="1" style="stop-color:#005973"/>
			</linearGradient>
			<path fill="url(#SVGID_3_)" d="M39.226,551.695c0,0-5.521,7.313,3.474,6.317c8.991-0.999,42.487-2.302,80.221,5.903
				c37.736,8.206,89.35,24.899,100.323,25.116c10.978,0.221,88.947,11.362,120.518,14.733
				c51.02,5.442,117.914,18.406,141.183,18.941c0.353,9.088,10.573,13.009,10.573,13.009l-97.644,3.567l-181.013-31.936
				l-109.785-19.592l-50.325-16.742l-19.828-12.131C36.923,558.881,36.132,555.038,39.226,551.695z"/>
			<path fill="#2E2E2F" d="M39.401,565.38l9.828,22.538c0,0,3.284,9.884,3.042,10.418c-0.241,0.534,39.718,25.582,39.718,25.582
				l122.474,40.527c0,0,188.714,30.303,189.505,30.272c0.786-0.031,80.897,14.491,80.897,14.491s15.672-10.097,16.471-9.859
				c0.8,0.227,48.871-9.812,48.871-9.812l-13.216-48.471c0,0-9.408-4.904-10.209-5.135c-0.796-0.231-26.552,1.295-28.371,1.899
				c-1.82,0.593-33.852-2.464-35.672-1.871c-1.82,0.6-82.604-3.65-82.604-3.65l-122.826-17.476l-72.989-14.274l-44.768-13.268
				l-7.897,0.044l-70.307-26.491l-18.379,1.509L39.401,565.38z"/>
			<path fill="#BCBEC0" d="M618.197,766.836c0,0,20.119-51.562,23.209-67.009c3.084-15.443,11.119-56.246,48.239-79.253
				c29.908-18.761,64.281-28.397,86.325-24.565c22.595,3.925,32.81,13.519,31.236,31.319c-2.984,33.742-24.575,70.965-33.675,84.943
				c-1.029,2.588-7.751,4.839-2.921-2.161c4.833-6.999,25.54-43.553,29.572-63.852c4.027-20.295,7.354-39.649-22.995-46.696
				c-28.302-3.98-64.67,10.397-89.344,25.257c-24.67,14.871-39.242,55.446-41.301,68.566c-2.953,18.841-19.218,67.067-25.273,72.019
				C621.885,766.692,618.197,766.836,618.197,766.836z"/>
			<path fill="#5F6062" d="M617.379,767.867c0,0,20.119-51.569,23.203-67.012c3.088-15.436,11.121-56.242,48.238-79.256
				c29.908-18.754,64.679-28.476,86.723-24.651c22.592,3.932,32.412,13.609,30.837,31.412
				c-2.988,33.735-24.572,70.965-33.675,84.936c-1.032,2.592-7.754,4.842-2.919-2.157c4.833-6.996,25.54-43.557,29.572-63.852
				c4.027-20.298,7.354-39.649-22.993-46.693c-28.307-3.98-64.672,10.394-89.342,25.254c-24.668,14.867-39.242,55.446-41.302,68.563
				c-2.957,18.844-19.221,67.074-25.276,72.023C621.061,767.722,617.379,767.867,617.379,767.867z"/>
			
				<linearGradient id="SVGID_4_" gradientUnits="userSpaceOnUse" x1="219.1518" y1="569.377" x2="540.9899" y2="569.377" gradientTransform="matrix(0.9992 -0.039 0.0389 0.9992 -204.1035 -44.3876)">
				<stop  offset="0" style="stop-color:#7BD3F7"/>
				<stop  offset="1" style="stop-color:#FFFFFF"/>
			</linearGradient>
			<path fill="url(#SVGID_4_)" d="M356.985,461.893c0,0-273.281,55.819-277.048,58.538c2.135,5.08-0.86,11.004-3.879,16.28
				c-3.021,5.28-9.234,11.324-4.651,13.089c4.583,1.754,15.064,5.862,15.064,5.862s-29.679-0.138-38.67,0.858
				c-9.688-0.265-12.314-1.451-5.556-10.101c6.76-8.653,22.335-22.81,39.499-29.279c17.166-6.482,107.231-29.341,139.264-35.103
				C253.038,476.267,356.985,461.893,356.985,461.893z"/>
			
				<linearGradient id="SVGID_5_" gradientUnits="userSpaceOnUse" x1="389.7965" y1="625.5999" x2="908.9196" y2="625.5999" gradientTransform="matrix(0.9992 -0.039 0.0389 0.9992 -204.1035 -44.3876)">
				<stop  offset="0" style="stop-color:#7BD3F7"/>
				<stop  offset="1" style="stop-color:#FFFFFF"/>
			</linearGradient>
			<path fill="url(#SVGID_5_)" d="M211.994,581.726c0,0,6.984-2.854,12.379-13.382c5.397-10.532,12.574-25.006,23.55-24.789
				c10.976,0.224,133.467,14.795,146.892,11.697c13.428-3.105,9.513-4.239,17.836-5.859c8.323-1.616,169.929-42.751,182.094-45.159
				c12.162-2.412,120.413-22.111,130.002-24.42c9.586-2.313-44.17,8.815-94.625,21.749c-50.458,12.937-162.303,39.873-202.33,55.626
				c13.652,2.695,46.031,5.952,53.763,5.645c7.73-0.3,66.606-29.041,99.174-37.412c32.577-8.36,124.523-32.594,124.523-32.594
				s-52.26,16.232-81.286,32.846c-29.031,16.614-24.573,15.15-34.109,18.751c-9.534,3.594-57.819,6.121-80.01,16.018
				c-22.194,9.894-19.643,9.153-15.082,10.263c4.558,1.113,24.132,6.806,21.604,8.191c-2.525,1.389-40.678-0.999-43.304-2.181
				c-2.628-1.189-2.161-5.728-12.465-5.321c-10.306,0.403-51.704-2.506-56.834-1.658c-5.128,0.844-21.928,0.21,2.083,3.798
				c24.006,3.57,44.87,9.212,51.905,7.647c7.036-1.565,0.696,1.265,8.448,1.606c7.754,0.338,40.037,1.02,36.994,5.655
				c-3.045,4.628-15.77,25.771-16.263,29.658c-0.493,3.894-10.851,3.009-15.458,0.607c-4.611-2.402-182.104-21.284-182.104-21.284
				s-75.145-8.036-77.797-9.873C208.925,585.72,211.994,581.726,211.994,581.726z"/>
			<path fill="#236D86" d="M91.014,555.107l-1.406-0.489c0.079-0.217,8.004-22.597,35.271-33.415l0.248-0.052
				c1.945-0.072,28.867,4.101,31.929,4.576l-0.229,1.468c-11.712-1.823-29.483-4.487-31.53-4.556
				C98.763,533.227,91.091,554.886,91.014,555.107z"/>
			<path fill="#236D86" d="M481.058,570.036c-2.467-0.351-60.49-8.653-66.398-11.007c-2.69-1.075-5.154-2.564-7.137-3.763
				c-2.013-1.21-4.089-2.474-4.818-2.199c-1.901,0.693-115.223-10.628-149.902-14.122c-0.195-0.014-22.613-1.265-40.231-3.867
				c-21.593-3.177-54.254-7.327-54.58-7.368l0.184-1.472c0.329,0.038,33.008,4.191,54.611,7.375
				c17.552,2.585,39.907,3.836,40.13,3.849c50.342,5.076,146.298,14.498,149.373,14.185c1.279-0.497,3.162,0.631,6.002,2.35
				c2.037,1.23,4.346,2.619,6.918,3.65c5.749,2.288,65.453,10.835,66.058,10.917L481.058,570.036z"/>
			<path fill="#236D86" d="M126.836,520.755l-0.498-1.399c46.886-16.735,68.956-22.58,89.359-26.598
				c55.274-10.877,159.915-32.529,160.965-32.75l0.3,1.454c-1.049,0.221-105.696,21.873-160.977,32.753
				C195.647,498.22,173.637,504.054,126.836,520.755z"/>
			
				<linearGradient id="SVGID_6_" gradientUnits="userSpaceOnUse" x1="916.6782" y1="480.847" x2="725.1238" y2="627.1749" gradientTransform="matrix(0.9992 -0.039 0.0389 0.9992 -204.1035 -44.3876)">
				<stop  offset="0" style="stop-color:#7BD3F7"/>
				<stop  offset="1" style="stop-color:#FFFFFF"/>
			</linearGradient>
			<path fill="url(#SVGID_6_)" d="M489.17,443.842l11.128,4.081c0,0,5.378,5.597,9.911,6.065c4.533,0.465,29.262,5.959,16.352,5.814
				c-12.904-0.145-29.009,0.482-29.009,0.482l17.669,6.41c0,0-11.168,11.407,14.078,13.647
				c25.247,2.237,96.753,16.221,59.694,25.409c27.676-1.726,106.456,0.365,66.529,18.692
				c86.25-21.425,132.075-37.399,110.622-41.727c-21.458-4.325,40.352-7.375,57.917-3.55c-10.482-4.108-15.191-9.081-3.62-10.18
				c-25.864-1.568-267.329-23.121-281.524-23.214C524.724,445.682,489.17,443.842,489.17,443.842z"/>
			
				<linearGradient id="SVGID_7_" gradientUnits="userSpaceOnUse" x1="740.6564" y1="638.5146" x2="701.0362" y2="617.3224" gradientTransform="matrix(0.9992 -0.039 0.0389 0.9992 -204.1035 -44.3876)">
				<stop  offset="0" style="stop-color:#7BD3F7"/>
				<stop  offset="1" style="stop-color:#FFFFFF"/>
			</linearGradient>
			<path fill="url(#SVGID_7_)" d="M492.736,631.989c1.27-4.37,24.156-56.339,49.593-65.716
				c24.074-11.266,134.997-45.259,134.997-45.259s-123.013,38.343-144.308,54.65c-6.935,4.146-5.395,10.532-3.264,15.615
				c2.133,5.076,3.757,30.175,1.951,33.463c-1.806,3.298-10.725,6.231-17.808,6.506C506.81,631.52,492.736,631.989,492.736,631.989z
				"/>
			
				<linearGradient id="SVGID_8_" gradientUnits="userSpaceOnUse" x1="819.0711" y1="620.6526" x2="1107.7162" y2="550.1156" gradientTransform="matrix(0.9992 -0.039 0.0389 0.9992 -204.1035 -44.3876)">
				<stop  offset="0" style="stop-color:#0090B6"/>
				<stop  offset="0.1828" style="stop-color:#008DB2"/>
				<stop  offset="0.4104" style="stop-color:#0084A7"/>
				<stop  offset="0.6617" style="stop-color:#007594"/>
				<stop  offset="0.9284" style="stop-color:#00607B"/>
				<stop  offset="1" style="stop-color:#005973"/>
			</linearGradient>
			<path fill="url(#SVGID_8_)" d="M527.784,579.096c0,0,104.281-38.901,208.495-62.963
				c104.212-24.058,203.295-47.268,203.295-47.268s-36.683,2.071-74.416,10.635c-37.724,8.568-145.358,27.597-207.78,48.096
				C594.96,548.094,533.927,571.121,527.784,579.096z"/>
			<path opacity="0.4" fill="#FFFFFF" d="M847.599,666.827l0.31-1.013c0.052-0.169,5.204-17.131,9.858-28.81
				c13.537-21.443,17.378-95.678,15.902-104.228c-1.706-9.815-21.365-47.572-26.424-52.245c-5.393-4.993-7.699-14.381-7.8-14.781
				l0.906-0.214c0.022,0.093,2.34,9.515,7.525,14.312c5.112,4.725,24.992,42.864,26.705,52.765
				c1.487,8.598-2.395,83.285-15.994,104.81c-3.95,9.932-8.299,23.81-9.484,27.642l137.007-66.168
				c1.118-1.148,18.615-19.333,22.249-36.713c3.758-17.982,5.149-65.303,4.454-67.684c-0.271-0.934-1.561-3.474-3.05-6.417
				c-2.502-4.935-5.616-11.072-6.136-13.912c-0.839-4.587-17.867-27.505-20.915-29.176c-3.139-1.723-8.155-1.554-8.206-1.551
				l-0.036-0.924c0.214-0.014,5.317-0.182,8.691,1.665c3.346,1.83,20.498,25.003,21.382,29.82c0.493,2.705,3.574,8.774,6.047,13.657
				c1.577,3.109,2.821,5.569,3.115,6.575c0.898,3.074-0.729,50.381-4.437,68.135c-3.793,18.134-22.368,37.047-22.55,37.233
				l-0.133,0.09L847.599,666.827z"/>
			<path fill="#236D86" d="M846.722,666.854l0.308-1.013c0.05-0.165,5.207-17.121,9.861-28.8
				c13.538-21.453,17.378-95.684,15.899-104.231c-1.702-9.815-21.363-47.568-26.419-52.245c-5.395-4.993-7.705-14.378-7.797-14.777
				l0.9-0.217c0.022,0.093,2.343,9.518,7.527,14.312c5.112,4.728,24.985,42.861,26.705,52.769
				c1.489,8.595-2.395,83.285-15.992,104.807c-3.951,9.929-8.302,23.803-9.484,27.635l137.007-66.161
				c1.117-1.151,18.613-19.337,22.244-36.709c3.762-17.989,5.152-65.306,4.459-67.687c-0.276-0.931-1.559-3.474-3.055-6.417
				c-2.502-4.935-5.616-11.073-6.131-13.913c-0.841-4.59-17.867-27.504-20.917-29.176c-3.145-1.72-8.159-1.551-8.211-1.551
				l-0.036-0.927c0.219-0.007,5.321-0.183,8.693,1.665c3.343,1.837,20.5,25.009,21.379,29.817c0.501,2.716,3.576,8.785,6.054,13.664
				c1.576,3.108,2.819,5.562,3.11,6.579c0.901,3.067-0.724,50.374-4.437,68.129c-3.791,18.141-22.362,37.047-22.552,37.233
				l-0.126,0.093L846.722,666.854z"/>
			
				<linearGradient id="SVGID_9_" gradientUnits="userSpaceOnUse" x1="998.2485" y1="560.0031" x2="1061.9974" y2="560.0031" gradientTransform="matrix(0.9992 -0.039 0.0389 0.9992 -204.1035 -44.3876)">
				<stop  offset="0" style="stop-color:#7BD3F7"/>
				<stop  offset="1" style="stop-color:#FFFFFF"/>
			</linearGradient>
			<path fill="url(#SVGID_9_)" d="M817.372,472.983c0,0,15.787,7.768,25.397,6.103c9.613-1.668,22.467-2.815,27.501-6.231
				c5.025-3.426,5.518-7.316,5.518-7.316s-3.639,5.948,2.154,5.721c5.802-0.224-21.571,9.229-33.728,11.638
				c-12.169,2.409-16.182-1.303-24.606-2.264C811.183,479.672,817.372,472.983,817.372,472.983z"/>
			
				<linearGradient id="SVGID_10_" gradientUnits="userSpaceOnUse" x1="1069.1548" y1="546.4435" x2="1165.8834" y2="546.4435" gradientTransform="matrix(0.9992 -0.039 0.0389 0.9992 -204.1035 -44.3876)">
				<stop  offset="0" style="stop-color:#7BD3F7"/>
				<stop  offset="1" style="stop-color:#FFFFFF"/>
			</linearGradient>
			<path fill="url(#SVGID_10_)" d="M885.985,470.657c-1.135-0.1,6.412-1.775,7.323-2.764c0.911-0.989,5.502-0.596,8.904-1.303
				c3.403-0.703,12.241-3.525,21.222-2.922c8.981,0.607,18.192,2.336,17.327-0.293c-0.868-2.636-0.931-4.342,1.852-6.172
				c2.79-1.82,23.746-6.638,23.746-6.638s-25.99,2.912-25.466,1.558c0.519-1.347,0.808-3.646,6.889-4.077
				c6.081-0.424,32.62-3.742,33.633-2.071c1.024,1.675-0.65,2.695-0.65,2.695s-6.618,1.21-10.394,2.309
				c-3.765,1.099-25.524,4.997-25.6,7.854c-0.079,2.86-0.003,4.763,0.243,6.279c0.253,1.513-5.262,1.733-9.438,2.271
				c-4.168,0.545-11.486-1.454-21.353-0.496C904.357,467.838,890.572,471.04,885.985,470.657z"/>
			
				<linearGradient id="SVGID_11_" gradientUnits="userSpaceOnUse" x1="1164.0382" y1="520.6927" x2="1213.757" y2="520.6927" gradientTransform="matrix(0.9992 -0.039 0.0389 0.9992 -204.1035 -44.3876)">
				<stop  offset="0" style="stop-color:#7BD3F7"/>
				<stop  offset="1" style="stop-color:#FFFFFF"/>
			</linearGradient>
			<path fill="url(#SVGID_11_)" d="M979.781,442.994c-1.5-0.324,42.771-26.815,42.771-26.815l5.924,0.534
				C1028.477,416.713,987.273,444.607,979.781,442.994z"/>
			
				<linearGradient id="SVGID_12_" gradientUnits="userSpaceOnUse" x1="1182.8397" y1="524.502" x2="1330.8258" y2="524.502" gradientTransform="matrix(0.9992 -0.039 0.0389 0.9992 -204.1035 -44.3876)">
				<stop  offset="0" style="stop-color:#7BD3F7"/>
				<stop  offset="1" style="stop-color:#FFFFFF"/>
			</linearGradient>
			<path fill="url(#SVGID_12_)" d="M999.85,449.645c0,0,20.021-24.031,45.172-33.77c3.649,0.81,1.968,1.641-3.453,4.325
				c-5.421,2.688-15.079,8.971-15.079,8.971s19.697-12.582,42.215-16.504c22.516-3.925,50.687-4.449,76.948,4.621
				c-13.073-3.108-49.473-8.36-77.607-1.926c-28.132,6.431-59.039,29.731-67.295,37.867
				C999.402,452.895,997.913,453.522,999.85,449.645z"/>
			
				<linearGradient id="SVGID_13_" gradientUnits="userSpaceOnUse" x1="1269.946" y1="595.1891" x2="1338.4899" y2="595.1891" gradientTransform="matrix(0.9992 -0.039 0.0389 0.9992 -204.1035 -44.3876)">
				<stop  offset="0" style="stop-color:#0090B6"/>
				<stop  offset="0.1828" style="stop-color:#008DB2"/>
				<stop  offset="0.4104" style="stop-color:#0084A7"/>
				<stop  offset="0.6617" style="stop-color:#007594"/>
				<stop  offset="0.9284" style="stop-color:#00607B"/>
				<stop  offset="1" style="stop-color:#005973"/>
			</linearGradient>
			<path opacity="0.4" fill="url(#SVGID_13_)" d="M1091.067,496.19c1.228-0.362,11.295-4.16,16.945-2.212
				c5.648,1.947,36.132-2.336,47.716-14.864c-3.238,12.203-12.72,31.15-22.323,38.949c-3.498-2.336-12.736-9.098-17.34-7.992
				c-4.599,1.117-6.072,3.026-6.072,3.026s1.444-10.583-5.154-13.113c-6.601-2.53-12.405-0.448-15.73,1.544
				C1085.784,503.51,1091.067,496.19,1091.067,496.19z"/>
			
				<linearGradient id="SVGID_14_" gradientUnits="userSpaceOnUse" x1="968.3234" y1="700.7581" x2="1226.342" y2="700.7581" gradientTransform="matrix(0.9992 -0.039 0.0389 0.9992 -204.1035 -44.3876)">
				<stop  offset="0" style="stop-color:#0090B6"/>
				<stop  offset="0.1828" style="stop-color:#008DB2"/>
				<stop  offset="0.4104" style="stop-color:#0084A7"/>
				<stop  offset="0.6617" style="stop-color:#007594"/>
				<stop  offset="0.9284" style="stop-color:#00607B"/>
				<stop  offset="1" style="stop-color:#005973"/>
			</linearGradient>
			<path opacity="0.4" fill="url(#SVGID_14_)" d="M797.529,662.126c2.766-0.579,248.921-107.233,248.921-107.233
				s-9.832,24.299-17,29.799c-20.969,8.836-38.803,16.029-37.411,15.977c1.396-0.055,29.028-17.848,35.731-24.613
				c6.701-6.762,2.919-8.474-8.083-4.797c-11.002,3.681-196.32,86.607-210.029,92.249c-13.709,5.638-16.886,7.626-16.886,7.626
				L797.529,662.126z"/>
			<path fill="#545456" d="M37.401,561.248l2.001,4.132c0,0,11.493-2.55,16.802-1.437c5.312,1.106,14.326,22.88,14.326,22.88
				s-18.675,0.724-22.952-0.955c-3.367,1.458,0.763,12.882,0.763,12.882l27,3.426c0,0,1.396-4.797-2.035-4.928
				c-3.429-0.131-18.796-2.429-18.796-2.429l17.622-0.682c0,0,7.382,0.234,5.023-6.255c-2.359-6.493-10.601-21.977-10.601-21.977
				s-2.595-5.693-12.589-5.304C43.973,560.993,39.574,563.006,37.401,561.248z"/>
			<path fill="#95979A" d="M73.235,561.696c0.265-0.913-3.093,1.699-1.301,7.165c1.796,5.459,16.623,41.227,16.623,41.227
				s1.182,3.381,3.827,3.543c2.636,0.158,50.377,8.571,54.605,8.929c4.227,0.359,6.603,0.531,7.503-3.453
				c0.898-3.987-10.838-28.022-10.838-28.022s-6.143-2.136-8.436-0.196c-1.391-8.643-4.565-22.48-13.306-23.717
				c-8.738-1.237-47.665-6.572-46.874-6.603c0.788-0.031,45.108,8.519,45.108,8.519s5.622,2.416,7.602,12.606
				c1.98,10.194,4.273,28.538,13.592,31.078c6.098,1.075,9.741-0.117,9.741-0.117c-0.577-1.293-9.687,1.433-14.462-12.868
				c8.121-1.11,8.121-1.11,8.121-1.11s9.315,15.966,8.104,18.648c-1.215,2.681-19.556-1.602-24.065-2.481
				c-4.513-0.882-28.386-5.214-28.386-5.214s4.845-0.379,2.254-6.065c-2.597-5.697,0.155-30.213,0.155-30.213
				S72.309,564.894,73.235,561.696z"/>
			<path fill="#434345" d="M79.56,571.039c-0.362-1.823,8.895,22.501,11.486,28.676c3.846,9.177,8.612,4.673,11.884,0.854
				c-0.028,6.062-0.956,9.257-0.956,9.257s-5.281-0.324-7.192-2.088C92.868,605.97,83.049,588.539,79.56,571.039z"/>
			<path fill="#67686B" d="M98.127,585.482l-1.821-1.906c0,0-4.644-4.16-12.705-1.472c-3.638-8.009,12.794-12.155,12.794-12.155
				l-17.233,1.106l-3.543-8.929l44.525,6.962c0,0,6.865,0.52,10.125,9.873c3.265,9.357,3.935,19.864,3.935,19.864
				s-0.806,12.513-5.447,15.064c-3.388,0.927-5.883-0.076-5.883-0.076l-19.659-3.884L98.127,585.482z"/>
			<path fill="#4D4D4F" d="M48.341,598.75c0,0-15.758,7.985-15.1,11.383c0.66,3.405,4.265,7.999,4.831,9.033
				c0.567,1.034,27.246,50.298,53.753,61.381c21.951,2.306,35.332,0.996,35.303,0.207c-0.031-0.789-2.766-3.319,1.938-4.29
				c4.702-0.975,50.847,0.383,59.866,8.722c13.863,24.482,30.146,43.602,37.399,47.268c7.256,3.67,136.548,23.121,167.614,29.548
				c31.068,6.427,36.211,3.325,43.188-0.103c6.979-3.429,16.861-6.714,30.153-3.55c13.292,3.17,43.824,9.353,43.824,9.353
				s6.946,9.212,11.145,15.632c4.199,6.424,10.811,13.802,24.847,9.039c14.04-4.763,20.662-23.986,18.388-48.647
				c-2.281-24.672-11.498-51.711-11.498-51.711s-34.535,12.679-61.067,14.509c2.778,10.421,0.719,18.406-2.943,19.075
				c-3.66,0.672-19.059-2.416-31.028-5.376c-11.965-2.953-96.167-21.012-147.04-28.773c-50.872-7.758-85.546-12.203-96.989-15.184
				c-11.445-2.971-66.754-23.196-75.555-26.015c-8.803-2.819-70.622-14.361-71.694-14.847c-1.075-0.489-7.416-1.03-8.054-3.897
				c-0.641-2.874,5.478-8.116,15.842-12.472c10.366-4.36,11.133-4.914,11.133-4.914s0.496-0.806-1.265-5.479
				c-1.763-4.677-3.755-8.547-6.357-7.658C76.376,601.876,48.341,598.75,48.341,598.75z"/>
			<path fill="#A7A9AC" d="M50.439,598.674c0,0-16.19,10.377-15.349,11.662c0.839,1.279,13.547,2.898,33.351-2.619
				C65.219,606.266,47.762,604.309,50.439,598.674z"/>
			<path fill="#939598" d="M58.051,566.731c-8.529,0.558-17.523,0.431-17.615,0.431l-0.004,0.438
				c0.281,0.445,0.505,0.916,0.668,1.42c1.725,0.017,6.617,0.035,12.128-0.179c1.707-0.069,3.474-0.158,5.214-0.272l-0.067-1.01
				C58.242,567.289,58.147,567.01,58.051,566.731z"/>
			<path fill="#939598" d="M59.076,569.457c-8.387,0.524-17.066,0.407-17.154,0.4l-0.02,1.182c0.067,0.224,0.141,0.445,0.188,0.679
				c1.05,0.014,6.469,0.055,12.622-0.183c1.561-0.065,3.169-0.148,4.766-0.252C59.336,570.674,59.201,570.067,59.076,569.457z"/>
			<path fill="#939598" d="M59.65,572.007c-8.304,0.507-16.792,0.39-16.878,0.386l-0.012,0.758c0.291,0.334,0.548,0.706,0.77,1.11
				c1.813,0.01,6.629,0.017,12.033-0.193c1.496-0.055,3.036-0.138,4.564-0.238C59.956,573.224,59.796,572.617,59.65,572.007z"/>
			<path fill="#939598" d="M60.389,574.73c-7.259,0.451-14.65,0.417-16.48,0.403c0.036,0.093,0.088,0.176,0.117,0.272
				c0.13,0.403,0.19,0.817,0.226,1.23c0.129,0.117,0.26,0.228,0.375,0.352c2.032,0.014,6.527,0.011,11.605-0.19
				c1.558-0.059,3.164-0.145,4.758-0.245C60.776,575.95,60.575,575.347,60.389,574.73z"/>
			<path fill="#939598" d="M61.376,577.597c-7.957,0.445-15.822,0.338-16.054,0.334c0.343,0.572,0.586,1.206,0.746,1.861
				c1.837,0.014,6.648,0.028,12.026-0.19c1.325-0.048,2.692-0.127,4.049-0.207C61.873,578.803,61.612,578.207,61.376,577.597z"/>
			<path fill="#939598" d="M62.593,580.357c-7.449,0.434-14.952,0.383-16.361,0.369c0.014,0.096,0.012,0.2,0.024,0.296
				c0.327,0.482,0.589,1.003,0.781,1.564c2.017,0.011,6.615,0.014,11.729-0.19c1.587-0.062,3.222-0.141,4.84-0.255
				C63.247,581.56,62.901,580.964,62.593,580.357z"/>
			<path fill="#939598" d="M64.183,583.107c-8.229,0.489-16.573,0.369-16.659,0.369l-0.001,0.072
				c0.319,0.558,0.551,1.158,0.705,1.792c1.783,0.014,6.649,0.024,12.086-0.186c1.708-0.069,3.474-0.158,5.214-0.269l-0.005-0.052
				C65.057,584.279,64.593,583.714,64.183,583.107z"/>
			<path fill="#1C1B1C" d="M59.429,636.927c0,0,2.135,4.111,7.587,4.397c5.452,0.286,72.557,15.718,72.557,15.718
				s-11.173-1.292-15.399-1.871c-4.229-0.579-19.07-7.168-14.426-2.161c4.647,5.014,19.32,23.452,19.32,23.452
				s-4.549,0.203-2.926,3.849c-1.708,0.562-7.859,1.292-7.859,1.292s2.893-1.844-2.579-9.043
				c-5.473-7.209-19.438-22.979-27.916-24.875c-8.479-1.895-20.19-4.16-21.68-4.346C64.614,643.151,60.136,642.338,59.429,636.927z"
				/>
			<path fill="#383839" d="M124.801,658.607c0.741-0.031,11.235,2.774,13.694,2.433c2.459-0.348,5.176-0.448,6.391-0.993
				c1.213-0.541,37.3,11.896,37.3,11.896s-43.536-6.954-47.792-8.274C130.139,662.354,124.801,658.607,124.801,658.607z"/>
			<path fill="#383839" d="M200.249,678.651c0.739-0.024,8.464,7.834,28.554,9.525c20.093,1.689,173.127,26.87,176.114,27.497
				c2.991,0.624,52.133,11.81,52.133,11.81l4.518,14.412c0,0-26.141-4.666-27.375-4.618c-1.235,0.052-9.174-0.638-15.818,0.121
				c-6.646,0.755-22.101,3.829-40.316-0.403c-18.215-4.239-134.312-20.725-134.312-20.725s-5.836-3.725-9.389-6.062
				c-3.553-2.336-10.73-2.547-13.711-2.926c-2.981-0.379-9.93-1.096-13.194-8.636C204.193,691.112,200.249,678.651,200.249,678.651z
				"/>
			<path fill="#A7A9AC" d="M455.06,733.497c0,0-2.61,2.819-5.136,1.434c-2.523-1.379-17.936-3.501-21.677-4.346
				c-3.743-0.841-14.29,1.303-22.407,2.357c-8.118,1.058-17.517,0.934-29.75-2.054c-12.227-2.984-118.637-18.117-118.637-18.117
				s-8.96-1.627-14.045-5.138c-5.083-3.519-14.529-4.876-17.502-5.007c-2.971-0.134-13.198-2.454-13.198-2.454
				s-1.056-1.689-1.094-2.678c-0.04-0.986,22.323,1.851,27.07,3.146c4.749,1.306,7.599,4.649,10.363,5.783
				c2.76,1.131,10.687,2.53,15.448,3.105c20.121,2.43,114.916,17.772,114.916,17.772s19.657,3.188,31.686,0.989
				c12.029-2.198,19.462-1.747,23.963-0.441C439.562,729.155,454.517,732.281,455.06,733.497z"/>
			<path fill="#A7A9AC" d="M453.485,723.535c0,0-1.402,3.398-3.923,2.019c-2.526-1.385-17.941-3.501-21.68-4.349
				c-3.743-0.837-14.29,1.299-22.407,2.357c-8.118,1.061-17.517,0.934-29.748-2.054c-12.231-2.984-118.638-18.12-118.638-18.12
				s-8.964-1.627-14.047-5.135c-5.081-3.515-14.527-4.873-17.5-5.007c-2.974-0.131-12.212-2.492-12.212-2.492
				s-2.044-1.651-2.083-2.636c-0.038-0.989,21.851,2.361,26.598,3.657c4.749,1.299,8.076,4.136,10.835,5.262
				c2.764,1.13,10.688,2.54,15.451,3.105c20.123,2.436,114.916,17.776,114.916,17.776s19.655,3.191,31.685,0.989
				c12.031-2.199,19.464-1.744,23.965-0.438C439.197,719.774,452.942,722.318,453.485,723.535z"/>
			<path fill="#4F2B00" d="M496.237,732.384c0.646-0.906,7.499,17.665,7.499,17.665l-49.278-9.225l-3.67-14.712l34.664,7.627
				C485.452,733.739,493.301,736.523,496.237,732.384z"/>
			<path fill="#383839" d="M503.721,748.961c0,0,5.873,16.338,11.081,22.948c-4.196-4.48-19.49-7.599-18.551-7.327
				c0.941,0.276,7.93-5.18,4.382-14.722c-5.497-14.76-13.818-15.563-13.818-15.563s4.275,0.083,5.64-3.626
				c1.482-4.032-3.713-4.99-3.713-4.99l5.512-5.256C494.254,720.426,498.739,737.219,503.721,748.961z"/>
			<path fill="#222223" d="M495.107,647.907l6.52,24.203c0,0,32.875,1.503,39.306-0.289c6.434-1.803-3.943-30.754-3.943-30.754
				s-14.529-6.293-20.984-5.121c-6.457,1.182-17.538,2.85-19.308,5.087C494.929,643.268,495.107,647.907,495.107,647.907z"/>
			<polygon fill="#514C54" points="378.111,624.914 224.622,607.817 137.791,583.507 133.787,583.972 223.545,610.198 
				374.487,627.219 			"/>
			<polygon fill="#9D9FA2" points="378.111,624.914 378.697,632.013 225.379,614.461 135.001,591.354 133.787,583.972 
				222.713,609.609 374.487,627.219 			"/>
			<path fill="#757679" d="M147.739,600.456l80.213,24.427l138.121,16.911c0,0,9.979,1.775,19.466-1.075
				c-1.63-2.099-1.63-2.099-1.63-2.099s-13.983-1.313-31.39-3.109c-17.41-1.802-115.389-13.464-115.389-13.464
				s-6.837-0.655-16.89-4.294c-10.046-3.629-74.797-20.609-74.797-20.609L147.739,600.456z"/>
			<path fill="#757679" d="M150.849,608.696l74.646,24.644c0,0,3.498,2.343,10.001,2.399c6.503,0.052,128.849,17.269,128.849,17.269
				s16.443,0.903,25.375-0.372c-0.763-3.688-0.763-3.688-0.763-3.688s-15.125,1.21-33.187-1.489
				c-18.062-2.705-122.927-16.26-122.927-16.26s-7.54-2.805-10.372-3.932c-2.829-1.134-69.223-20.523-69.223-20.523L150.849,608.696
				z"/>
			<path fill="#757679" d="M155.87,618.404l74.647,24.647c0,0,3.498,2.344,10.003,2.402c6.501,0.052,128.846,17.262,128.846,17.262
				s16.447,0.906,25.375-0.369c-0.764-3.681-0.764-3.681-0.764-3.681s-15.124,1.199-33.184-1.499
				c-18.061-2.698-122.929-16.256-122.929-16.256s-7.542-2.805-10.372-3.935c-2.831-1.124-69.221-20.523-69.221-20.523
				L155.87,618.404z"/>
			<path fill="#757679" d="M153.404,626.554l77.461,25.302c0,0,3.627,2.374,10.376,2.485c6.756,0.117,133.748,18.42,133.748,18.42
				s17.073,1.051,26.345-0.141c-0.787-3.698-0.787-3.698-0.787-3.698s-15.703,1.079-34.45-1.782
				c-18.751-2.871-127.604-17.362-127.604-17.362s-7.823-2.867-10.758-4.022c-2.94-1.154-71.837-21.136-71.837-21.136
				L153.404,626.554z"/>
			<path fill="#514C54" d="M284.763,596.979c0,0,1.354,3.039-7.601,3.698c-8.95,0.658-18.486,2.268-18.486,2.268
				s-2.197,7.203-6.549,6.755c-4.351-0.445-27.686-2.209-27.686-2.209l-25.655-7.503c0,0-8.39-2.971-9.772-6.63
				c-1.38-3.663-11.912-10.139-11.912-10.139s-4.509-4.47-3.607-5.125c0.901-0.655,21.394,8.764,43.238,13.175
				C238.578,595.679,284.763,596.979,284.763,596.979z"/>
			<path fill="#05161C" d="M217.833,603.609c-0.788-0.583,32.641,3.374,34.795,2.981c2.149-0.4,3.624-2.309,3.624-2.309
				s-1.985,4.718-4.482,4.194C249.273,607.951,219.427,604.784,217.833,603.609z"/>
			<path fill="#A2BECC" d="M185.616,587.219c0,0-11.336-4.824-11.743-7.282c-0.402-2.464,22.252,6.868,26.012,7.961
				C203.64,588.987,185.84,585.041,185.616,587.219z"/>
			<path fill="#A2BECC" d="M209.469,595.572c-0.776-0.589,6.165,7.192,6.165,7.192s9.488-2.85,11.638-3.243
				C229.425,599.129,214.896,599.701,209.469,595.572z"/>
			<path fill="#2E2E2F" d="M419.471,654.403c-0.643-1.227,7.687,12.975,16.7,13.099c9.022,0.128,13.928-4.042,13.928-4.042
				s-11.743,4.156-15.322,2.302C431.193,663.908,423.215,661.523,419.471,654.403z"/>
			<path fill="#383839" d="M239.848,660.024c0,0-78.45-26.97-87.54-29.71c-9.084-2.747-58.042-11.673-60.514-11.572
				c-2.473,0.093-5.197-4.622-5.197-4.622s-16.07,6.231-22.382,10.432c-1.063,0.706-10.678,9.505,1.175,11.831
				c11.859,2.326,16.135,2.971,16.135,2.971l49.5,9.587c0,0,20.045,5.255,24.461,7.251c2.414,1.092,38.799,17.496,63.25,18.286
				C223.08,674.615,239.848,660.024,239.848,660.024z"/>
			<path fill="#236D86" d="M210.872,587.788c-0.065-0.207-1.554-4.997,4.384-9.997c5.479-4.622,13.301-17.004,15.622-23.521
				c2.962-8.333,15.842-16.721,34.46-22.431c20.345-6.241,156.221-44.029,195.434-52.142c37.94-7.854,87.679-20.715,88.177-20.846
				l0.371,1.433c-0.498,0.128-50.274,13.006-88.246,20.863c-39.178,8.109-174.968,45.87-195.301,52.107
				c-26.924,8.264-32.445,18.554-33.496,21.511c-2.376,6.686-10.418,19.402-16.065,24.158c-5.128,4.325-3.98,8.236-3.931,8.398
				L210.872,587.788z"/>
			<path fill="#A2CEEE" d="M1011.023,491.882c0,0,0.081,2.157-7.894,4.022c-7.98,1.857-22.649,6.761-22.649,6.761L879.196,533.24
				l-5.007-1.354c0,0,40.383-12.407,46.817-14.212c6.432-1.792,70.97-21.959,74.645-23.031
				C999.325,493.571,1010.084,491.607,1011.023,491.882z"/>
			<path fill="#A2CEEE" d="M1163.362,452.499c0.806,0.451-84.695,19.402-114.346,29.227c-16.213,4.969-29.026,9.798-34.91,9.718
				c4.229-2.64,40.297-14.571,58.069-19.285C1089.945,467.438,1157.662,449.318,1163.362,452.499z"/>
			
				<linearGradient id="SVGID_15_" gradientUnits="userSpaceOnUse" x1="1160.468" y1="560.0765" x2="1185.5837" y2="560.0765" gradientTransform="matrix(0.9992 -0.039 0.0389 0.9992 -204.1035 -44.3876)">
				<stop  offset="0" style="stop-color:#0090B6"/>
				<stop  offset="0.1828" style="stop-color:#008DB2"/>
				<stop  offset="0.4104" style="stop-color:#0084A7"/>
				<stop  offset="0.6617" style="stop-color:#007594"/>
				<stop  offset="0.9284" style="stop-color:#00607B"/>
				<stop  offset="1" style="stop-color:#005973"/>
			</linearGradient>
			<path fill="url(#SVGID_15_)" d="M977.665,467.631l14.307-1.837l10.334,2.878c0,0-0.143,0.986-1.327,1.792
				c-1.189,0.806-20.093,3.677-21.193,2.809C978.685,472.401,976.268,473.073,977.665,467.631z"/>
			<g>
				<path fill="#B8BABC" d="M977.665,467.631c0,0-0.329,2.591,0.708,3.691c1.048,1.106,3.181,0.738,4.17,0.555
					c0.998-0.183,8.395-1.186,10.104-1.403c1.709-0.2,7.706-0.441,9.658-1.802c1.947-1.361,4.906-2.478,1.32-2.771
					c-3.588-0.286-10.918-1.289-12.082-1.816c-1.168-0.527-0.879,3.184-0.879,3.184L977.665,467.631z"/>
				<path fill="#8F9194" d="M977.741,469.633c0,0,1.751,0.934,7.439,0.138c5.693-0.796,12.823-1.358,14.664-1.72
					c1.851-0.355,4.795-1.899,4.795-1.899s-0.765,2.461-3.317,3.133c-2.545,0.672-20.62,2.947-20.62,2.947
					S977.817,471.632,977.741,469.633z"/>
			</g>
			<path fill="#4F4F51" d="M779.684,703.095c0,0-1.239,4.59,2.703,3.867c3.944-0.717,7.058-0.844,8.182-1.168
				c1.125-0.324,239.582-120.27,239.582-120.27s6.611-5.083,3.198-5.231c-3.408-0.148-127.583,60.295-127.583,60.295
				L779.684,703.095z"/>
			<path fill="#A9ABAE" d="M780.939,704.684c0.648-0.252,6.756-1.585,9.775-3.243c3.014-1.658,213.706-105.81,213.706-105.81
				l28.281-14.078l-245.32,119.129L780.939,704.684z"/>
			<path opacity="0.7" fill="#236D86" d="M448.112,615.881l-1.458-0.286c0.069-0.366,7.499-36.323,44.849-52.59
				c36.015-15.684,179.076-64.889,258.869-81.734c17.252-4.639,27.377-10.859,31.845-19.571l1.322,0.672
				c-4.668,9.119-15.096,15.581-32.822,20.34c-79.748,16.838-222.645,65.992-258.622,81.658
				C455.482,580.316,448.179,615.523,448.112,615.881z"/>
			<g>
				<path fill="#696A6D" d="M872.753,463.382c0,0-2.249,4.47,2.755,4.108c5.007-0.359,15.789-2.075,16.568-2.916
					c0.777-0.837-2.652-1.513,0.162-4.215c2.809-2.698,7.985-6.954,7.985-6.954s8.648,9.87,22.671,3.98
					c14.018-5.893,9.205-21.415,3.157-27.012c-6.052-5.597-24.3-8.447-28.607,9.86c-1.077,5.552,1.534,10.142,1.534,10.142
					S878.078,462.855,872.753,463.382z"/>
				<path fill="#97999C" d="M873.43,464.013c0,0-0.557,2.285,4.199-0.327c4.756-2.616,18.436-8.981,21.106-11.031
					c2.678-2.044,3.753-3.543,3.253-3.846c-0.494-0.31-1.921,0.558-2.395,0.899C899.126,450.052,889.829,456.889,873.43,464.013z"/>
				<path fill="#FFFFFF" d="M903.246,431.101c0.469-0.341,6.63-4.47,13.304-3.433c6.684,1.038,11.043,4.911,12.942,7.916
					c-2.835-6.207-7.491-9.422-15.427-9.436C906.125,426.128,903.246,431.101,903.246,431.101z"/>
				<path fill="#5A5B5D" d="M910.396,448.315c0.341,0.472,8.642,9.87,8.642,9.87s-4.842,0.51-7.629-0.359
					c-1.882-6.727-3.108-9.105-3.108-9.105L910.396,448.315z"/>
				<path fill="#515254" d="M908.001,449.38l2.283,8.657c0,0-10.542-0.4-12.17-13.134c-0.339-4.518,3.734,0.179,6.674,0.879
					C907.726,446.475,908.001,449.38,908.001,449.38z"/>
				<path fill="#97999C" d="M911.229,440.668c-0.741,0.541,6.339-11.907,6.339-11.907s2.771,0.541,3.773,1.306
					c1.005,0.775-8.809,10.877-9.436,11.387C911.28,441.96,911.698,440.327,911.229,440.668z"/>
				<path fill="#504846" d="M902.789,448.611c0,0,1.958,0.245,0.553,1.596c-1.409,1.354-9.241,8.133-11.895,10.666
					c-0.765,1.168-4.139,1.944-8.009,2.261C892.137,457.771,902.584,451.534,902.789,448.611z"/>
				<g>
					<path fill="#504846" d="M904.578,448.705l3.724,0.017c0,0,2.13,0.565,3.319-2.237c0.438-1.523,0.35-1.675,0.35-1.675
						l-3.35-0.476l-3.832,1.447l-1.76,0.552L904.578,448.705z"/>
					<path fill="#97999C" d="M903.163,445.682c-0.522,0.638-0.75,1.489,0.386,1.602c1.141,0.114,0.429-1.64,1.239-1.503
						c0.815,0.131,4.035-0.32,4.035-0.32s2.797,1.024,3.07-0.124c0.278-1.144-0.272-2.902-0.756-2.881
						c-0.489,0.017-2.831-1.992-2.831-1.992s1.186,1.409,0.248,2.25c-0.938,0.851-0.739,1.813-0.739,1.813
						S904.407,444.179,903.163,445.682z"/>
				</g>
			</g>
			<path fill="#B6B8BA" d="M1033.313,579.268c0,0,12.701-19.275,20.936-36.809c8.231-17.531,15.274-28.373,25.368-35.41
				c10.092-7.03,23.226-10.645,27.182-4.794c3.967,5.862,3.865,13.754-6.534,28.976c0.46,1.327,0.941,7.709,0.941,7.709
				s1.41-0.434,1.797-1.079c0.391-0.634-0.686-7.023-0.686-7.023s13.559-19.189,7.559-29.531
				c-6.003-10.339-23.255-3.053-31.85,3.615c-8.597,6.675-14.6,12.296-25.866,37.209c-5.535,12.238-15.708,33.16-20.291,37.905
				C1033.329,580.392,1033.313,579.268,1033.313,579.268z"/>
			<path fill="#4F4F51" d="M1033.349,580.292c0,0,12.705-19.275,20.941-36.806c8.229-17.535,15.272-28.376,25.368-35.403
				c10.091-7.03,23.224-10.652,27.182-4.794c3.962,5.852,3.865,13.744-6.534,28.973c0.46,1.33,0.941,7.706,0.941,7.706
				s1.409-0.438,1.8-1.075c0.386-0.638-0.694-7.02-0.694-7.02s13.563-19.199,7.565-29.538c-6.002-10.339-23.255-3.057-31.852,3.619
				c-8.6,6.669-14.604,12.296-25.866,37.202c-5.531,12.241-15.713,33.167-20.295,37.909
				C1033.372,581.426,1033.349,580.292,1033.349,580.292z"/>
			<path fill="#00779B" d="M461.651,440.847c-1.832,0.689-2.521-1.137-10.364,4.122c-7.847,5.259-18.115,11.852-40.967,13.361
				c-22.856,1.513-123.837,15.973-123.837,15.973l124.311-19.709c0,0,24.039-2.795,33.69-9.363
				C454.134,438.662,461.651,440.847,461.651,440.847z"/>
			<path fill="#A2BECC" d="M283.512,596.71c0,0-42.902-4.518-64.555-3.98c-1.833,0.686-4.585,1.413-3.648,1.689
				c0.939,0.272,34.791,2.981,46.886,3.436C274.288,598.312,281.061,597.423,283.512,596.71z"/>
			<g>
				<path fill="#434345" d="M106.133,567.782c0,0-7.637,13.475,0.339,28.966c7.98,15.495,17.79,10.373,17.79,10.373
					s-5.054,5.462-9.62,3.267c-4.561-2.195-12.505-10.049-14.019-21.842C99.107,576.756,106.133,567.782,106.133,567.782z"/>
				<path fill="#CBCCCE" d="M103.305,576.322c-0.164,1.309,16.458-3.532,16.458-3.532s-5.373-2.688-9.593-2.785
					C105.951,569.901,103.708,573.148,103.305,576.322z"/>
				<path fill="#CBCCCE" d="M105.116,588.901c-0.307-1.048,7.675,1.02,16.693-4.077c6.977,10.005,6.171,16.352,2.299,18.348
					C120.233,605.167,109.977,605.563,105.116,588.901z"/>
			</g>
			<path fill="#A7A9AC" d="M75.464,619.035c1.246-0.9-5.945,2.864-9.525,5.635c-3.579,2.778-8.959,6.675-1.754,9.029
				c7.203,2.351,70.86,13.826,73.282,15.053c2.418,1.22,70.588,27.001,76.677,27.821c6.093,0.817,191.061,29.679,232.843,40.696
				c32.424,7.427,39.668,10.828,42.995,8.329c3.324-2.498,4.305-4.38,4.272-5.173c-0.031-0.789-2.699-1.737-5.299-0.848
				c-2.598,0.892,4.499-6.234,4.499-6.234s-3.651,0.937-7.882,0.572c-4.227-0.359-95.464-16.552-108.556-21.312
				c-13.091-4.756-37.631-5.907-57.288-10.146c-19.654-4.235-53.815-8.964-67.877-11.579c-14.062-2.612-20.8-6.565-27.82-4.184
				c-7.02,2.385-18.165,0.186-32.949-7.406c-14.782-7.589-56.99-22.793-72.357-25.099c-15.365-2.295-49.222-5.979-49.222-5.979
				S64.188,627.123,75.464,619.035z"/>
			<path fill="#757679" d="M487.397,704.249c0,0-64.973-14.805-70.277-15.839c-5.302-1.03-7.479-1.255-10.227-0.221
				c-2.745,1.034-19.466,1.065-26.014-0.224c-6.555-1.296-135.203-21.356-135.203-21.356l-15.303-3.429
				c0,0-75.848-23.665-75.895-24.902c-0.062-1.547,4.897-1.43,4.897-1.43s73.053,23.465,75.885,24.596
				c2.831,1.124,10.037,3.326,10.962,3.284c0.929-0.035,133.609,20.185,135.783,20.409c2.176,0.228,16.113,0.296,21.366,0.09
				c5.254-0.203,7.099-0.586,13.959,0.696c6.861,1.282,73.12,17.276,73.12,17.276L487.397,704.249z"/>
			<path fill="#757679" d="M238.352,661.326c0,0,2.735-1.63,7.721-1.172c4.99,0.466,125.097,20.202,130.411,20.963
				c5.312,0.765,23.638,0.497,25.514,0.745c1.871,0.252,1.871,0.252,1.871,0.252s-13.547,3.212-21.058,1.899
				c-7.509-1.31-137.226-20.436-137.226-20.436L238.352,661.326z"/>
			<g>
				<path fill="#939598" d="M511.321,648.479c-8.719,0.338-15.839,0.041-15.956,0.035l0.083-1.851
					c0.193,0.003,19.724,0.827,33.59-1.837l0.35,1.82C523.736,647.738,517.168,648.248,511.321,648.479z"/>
				<path fill="#939598" d="M509.274,651.374c-7.382,0.286-13.033,0.21-13.144,0.21l0.031-1.858c0.209,0,21.386,0.29,35.265-2.378
					l0.348,1.82C524.911,650.492,516.31,651.102,509.274,651.374z"/>
				<path fill="#939598" d="M512.395,654.482c-8.516,0.331-15.41,0.169-15.535,0.172l0.046-1.861
					c0.219,0.007,21.887,0.51,35.762-2.154l0.35,1.82C526.819,653.655,519.103,654.217,512.395,654.482z"/>
				<path fill="#939598" d="M516.079,658.004c-9.818,0.376-18.342,0.045-18.48,0.038l0.076-1.851
					c0.222,0.01,22.256,0.865,36.122-1.799l0.35,1.82C528.756,657.25,522.166,657.76,516.079,658.004z"/>
				<path fill="#939598" d="M516.956,661.289c-9.874,0.379-18.475,0.024-18.611,0.017l0.077-1.851
					c0.221,0.003,22.028,0.916,35.898-1.751l0.35,1.827C529.362,660.551,522.93,661.058,516.956,661.289z"/>
				<path fill="#939598" d="M516.647,665.014c-9.41,0.365-17.4,0.079-17.531,0.076l0.067-1.861
					c0.219,0.017,21.865,0.786,35.734-1.882l0.35,1.823C529.674,664.246,522.852,664.769,516.647,665.014z"/>
				<path fill="#939598" d="M518.358,668.116c-9.83,0.386-18.37,0.045-18.506,0.041l0.076-1.851
					c0.221,0.007,22.232,0.872,36.096-1.796l0.35,1.823C530.996,667.371,524.431,667.881,518.358,668.116z"/>
			</g>
			<path fill="#656668" d="M553.992,692.015l-7.284-7.113c0,0-2.678-5.152-1.204-7.072c1.475-1.916,4.787-4.215,3.382-8.495
				c-1.402-4.274-9.243-30.596-9.243-30.596s-1.549-7.988-17.564-5.817c-16.016,2.175-37.112,3.171-37.112,3.171l6.066,12.075
				l4.445,1.272c0,0,1.379-4.384,1.303-6.245c-0.069-1.851,6.944-4.604,8.809-4.363c1.87,0.234,15.792,0,15.792,0
				s10.761-1.964,13.902,7.203c3.148,9.164,7.406,23.238,7.406,23.238s-26.488,3.505-39.247,1.84
				c-4.577,1.726-4.577,1.726-4.577,1.726l1.909,9.208l41.97-3.488c0,0,4.568,6.01,2.798,8.25
				c-1.772,2.233-52.619,19.713-52.619,19.713S520.752,704.911,553.992,692.015z"/>
			<path fill="#58595B" d="M495.107,647.907l6.105,25.351l-0.134,7.978l-2.482,4.535c0,0-7.154,4.046-13.609,3.415
				c-6.455-0.641-82.909-17.166-82.909-17.166s-22.962-37.454-24.612-45.59c-1.649-8.14,0.419-11.986,1.51-12.472
				c1.089-0.489,8.853-0.348,10.632-0.193c1.778,0.152,73.984,9.966,74.657,10.167c0.671,0.2,13.349,1.254,14.822,4.962
				c1.475,3.715,5.821,5.711,5.821,5.711s5.991,13.792,6.87,13.537C492.655,647.883,495.107,647.907,495.107,647.907z"/>
			<g>
				<path fill="#95979A" d="M400.077,672.048c0,0-18.269-23.751-24.139-47.358c-1.792-14.178,6.303-12.941,12.51-12.565
					c6.208,0.379,81.214,10.456,84.379,12.196c3.164,1.73,9.184,5.214,11.895,11.3c2.716,6.086,7.037,13.654,7.976,13.929
					c0.939,0.269,2.781-0.11,2.781-0.11s-3.503,5.4-11.61-11.931c-3.655-6.362-8.483-11.124-16.892-12.351
					c-8.406-1.213-79.324-9.591-79.324-9.591s-12.756-1.671-8.283,9.915c2.919,11.345,20.579,43.471,23.732,44.898
					c3.151,1.427,77.725,16.163,84.548,16.521c6.825,0.352,12.196-4.811,13.125-4.852c0.927-0.031,0.512,5.249-4.942,8.244
					c-5.455,3.001-23.807,0.93-29.751-0.696c-5.945-1.627-60.907-13.727-60.907-13.727s-1.854,0.076-3.841-3.25"/>
				<path fill="#2E2E2F" d="M418.154,619.638c-0.916,0.344-12.287,10.387-3.286,34.803c5.771,13.092,18.639,17.541,28.495,16.228
					c5.852-0.851,10.034-4.728,10.034-4.728s-8.39,7.14-17.095,6.244c-8.702-0.9-10.735,2.578-10.735,2.578l-3.117-0.497
					l5.112-3.911c0,0-7.837-2.478-13.454-11.552c-5.617-9.07-9.176-21.005-0.282-38.994
					C415.657,619.114,418.154,619.638,418.154,619.638z"/>
				<path fill="#2E2E2F" d="M405.715,618.266c0,0,3.607,28.966,0.345,40.548c-2.009,4.094-5.742,3.626-6.396,2.723
					c-0.653-0.903-10.251-17.617-10.251-17.617s7.123,16.811,9.598,16.714c2.473-0.1,4.139,2.933,5.061-5.152
					c0.925-8.085-0.372-33.422-5.204-38.188C403.837,617.718,405.715,618.266,405.715,618.266z"/>
				<path fill="#2E2E2F" d="M464.792,624.628c0,0-8.664,16.135-3.742,31.109c4.918,14.977,18.978,26.191,27.609,25.237
					c8.631-0.951,10.971-4.452,10.971-4.452s-7.285,3.694-15.406,1.844c-6.112-1.393-17.795-11.693-20.538-26.45
					c-3.078-16.556,5.788-26.226,5.788-26.226L464.792,624.628z"/>
				<path fill="#CBCCCE" d="M419.202,646.532c0,0,4.554-2.34,9.179-2.833c4.625-0.493,8.831-3.753,12.555-3.588
					c3.722,0.169,6.326,3.464,6.326,3.464s-0.117,4.959,1.728,4.58c1.84-0.379,3.994-0.772,4.03,0.155
					c0.035,0.93,0.827,13.278-5.283,15.377c-6.11,2.099-1.587-8.915-0.114-10.831c1.475-1.92-0.813-4.921-3.209-2.974
					c-2.404,1.954-6.648,4.283-10.357,4.428c-3.71,0.145-8.087-0.92-9.334-1.182C423.475,652.866,420.894,650.185,419.202,646.532z"
					/>
				<path fill="#CBCCCE" d="M418.812,628.594c0,0-0.475,3.729,4.725,1.982c5.192-1.754,2.978-2.905,9.2-2.223
					c6.217,0.686,8.74,1.833,10.284,1.771c1.549-0.062,2.662-3.201,2.626-4.128c-0.036-0.927-17.11-2.116-19.273-2.037
					C424.209,624.045,418.812,628.594,418.812,628.594z"/>
				<path fill="#CBCCCE" d="M471.402,651.305c0.098,2.478,5.545,7.216,6.498,7.795c0.951,0.586,6.539,0.986,7.418-0.286
					c0.877-1.268,2.747-1.034,3.982-1.082c1.237-0.045,4.723,1.985,4.969,0.427c0.25-1.561,0.465-4.046-0.205-5.256
					c-0.663-1.213-1.578-0.872-4.424-2.302c-2.843-1.444-2.877-2.371-6.255-1.616C480.01,649.734,471.402,651.305,471.402,651.305z"
					/>
				<path fill="#2E2E2F" d="M379.975,626.651c0,0-4.106-2.006,2.957-3.519c7.063-1.52,9.56-0.992,9.56-0.992
					s-4.492,3.887,0.026,8.664c4.525,4.783,5.53-1.141,5.273,8.157c-0.257,9.298-0.422,13.02-3.57,11.596
					c-3.152-1.427-3.152-1.427-3.152-1.427L379.975,626.651z"/>
				<path fill="#383839" d="M489.088,684.055c0,0-61.294-7.823-63.521-9.291c-2.225-1.458-21.189-3.508-22.833-5.921
					c-1.641-2.405-2.902-2.981-1.082-3.98c1.818-0.999,6.169-0.548,6.169-0.548s8.364,8.033,39.172,12.093
					C465.652,678.465,489.088,684.055,489.088,684.055z"/>
				<g>
					<path fill="#CBCCCE" d="M461.852,668.405c0.105-1.117-12.434,6.669-8.056,7.74c4.373,1.065,20.236,2.926,23.352,3.422
						C480.262,680.064,461.192,675.239,461.852,668.405z"/>
					<path fill="#CBCCCE" d="M465.473,681.88c1.547-0.059,15.113-1.52,16.052-1.244c0.939,0.272-7.609,3.391-8.548,3.122
						C472.036,683.483,465.473,681.88,465.473,681.88z"/>
					<path fill="#CBCCCE" d="M409.95,663.301c0.035,0.927,6.467-0.872,6.124-1.782c-0.347-0.917-5.131-4.449-6.806-7.785
						C407.59,650.388,409.886,661.757,409.95,663.301z"/>
					<path fill="#CBCCCE" d="M412.578,667.223l5.171-2.368l9.813,5.5l-3.635,2.002C423.927,672.358,413.612,669.966,412.578,667.223
						z"/>
					<path fill="#CBCCCE" d="M436.088,674.663l13.294-0.517l3.329-1.985c0,0-19.489,0.451-21.32,1.144
						C429.561,673.991,436.088,674.663,436.088,674.663z"/>
				</g>
				<path fill="#2E2E2F" d="M379.37,625.482c0,0,0.582-8.995,9.842-9.67C385.098,613.493,375.028,617.291,379.37,625.482z"/>
			</g>
			<path fill="#757679" d="M500.479,749.595c0,0-37.328-8.181-51.337-10.108c-14.007-1.934-21.486-3.191-34.709-0.817
				c-13.222,2.371-26.77,0.734-36.375-1.675c-9.603-2.412-132.258-19.619-133.174-19.271c-0.917,0.348-2.461,0.41-5.672-2.564
				c-3.21-2.974-8.266-5.559-11.669-5.431c0,0,4.713,1.678,6.982,4.373c2.274,2.695,7.351,5.907,15.437,6.831
				c8.088,0.924,123.394,20.264,132.716,21.146c9.32,0.872,22.71,2.826,36.54,0.12c13.825-2.705,18.771-2.895,25.94-1.634
				C452.329,741.834,498.519,749.209,500.479,749.595z"/>
			
				<linearGradient id="SVGID_16_" gradientUnits="userSpaceOnUse" x1="722.0715" y1="684.2807" x2="1189.2931" y2="684.2807" gradientTransform="matrix(0.9992 -0.039 0.0389 0.9992 -204.1035 -44.3876)">
				<stop  offset="0" style="stop-color:#7BD3F7"/>
				<stop  offset="1" style="stop-color:#FFFFFF"/>
			</linearGradient>
			<path opacity="0.4" fill="url(#SVGID_16_)" d="M545.299,644.33c20.2,6.6,75.283-1.454,96.979-13.378
				c40.491-22.263,49.681-32.96,55.109-38.615c4.151-4.339,10.13-11.941,10.13-11.941l33.299-10.36c0,0,9.434-48.788,49.188-59.613
				c58.119-15.66,55.033-15.539,58.119-15.66c3.091-0.124,8.235-0.32,8.235-0.32l2.297,6.09c0,0,19.18-10.022,60.132-16.766
				c40.95-6.748,59.518,4.856,83.8-6.396c5.308,3.915,3.722,5.042,3.722,5.042s-52.853,18.548-61.949,23.021
				c-9.102,4.473-17.131,9.939-17.131,9.939l-17.204,7.888c0,0-15.258,31.502-38.238,49.912c0.429-15.474,0.429-15.474,0.429-15.474
				s-48.072,9.091-74.484,45.146c-14.724-7.664-46.658-18.337-99.544,10.066c-41.377,22.218-48.483,51.342-54.926,71.172
				c-6.438,19.823-73.574,42.016-73.574,42.016s-6.506-34.779-10.743-37.702C554.713,685.468,545.299,644.33,545.299,644.33z"/>
			<path fill="#A2CEEE" d="M872.038,532.279c0.453-1.189,4.153,3.246-1.377,4.39c-5.528,1.144-119.531,31.282-171.788,48.802
				c-42.788,14.361-148.958,46.676-153.227,48.392c-4.266,1.713-3.174-2.04,4.422-5.748c7.595-3.701,113.174-35.372,114.087-35.72
				c0.917-0.344,170.204-49.671,181.261-51.959c11.057-2.285,12.639-1.413,16.299-2.798
				C865.377,536.253,871.194,534.485,872.038,532.279z"/>
			
				<linearGradient id="SVGID_17_" gradientUnits="userSpaceOnUse" x1="720.5039" y1="628.2701" x2="1347.1525" y2="628.2701" gradientTransform="matrix(0.9992 -0.039 0.0389 0.9992 -204.1035 -44.3876)">
				<stop  offset="0" style="stop-color:#0090B6"/>
				<stop  offset="0.1828" style="stop-color:#008DB2"/>
				<stop  offset="0.4104" style="stop-color:#0084A7"/>
				<stop  offset="0.6617" style="stop-color:#007594"/>
				<stop  offset="0.9284" style="stop-color:#00607B"/>
				<stop  offset="1" style="stop-color:#005973"/>
			</linearGradient>
			<path fill="url(#SVGID_17_)" d="M543.347,634.48c0,0,9.274-0.358,24.415-5.131c15.139-4.769,305.236-92.238,305.236-92.238
				l139.352-43.567c0,0,140.174-37.147,150.978-41.903c-9.865,1.158-155.108,39.794-155.108,39.794l-144.978,45.59l-259.925,75.148
				l-57.812,18.045L543.347,634.48z"/>
			
				<linearGradient id="SVGID_18_" gradientUnits="userSpaceOnUse" x1="1186.4899" y1="547.6436" x2="1330.2845" y2="547.6436" gradientTransform="matrix(0.9992 -0.039 0.0389 0.9992 -204.1035 -44.3876)">
				<stop  offset="0" style="stop-color:#7BD3F7"/>
				<stop  offset="1" style="stop-color:#FFFFFF"/>
			</linearGradient>
			<path opacity="0.3" fill="url(#SVGID_18_)" d="M1003.35,472.204c0,0,41.668-10.621,105.33-50.039
				c11.052-4.928,25.876-3.574,36.527-2.385c-10.756,20.653-53.132,46.069-54.092,46.111c-0.96,0.031-78.105,23.279-78.105,23.279
				S1005.24,479.514,1003.35,472.204z"/>
		</g>
	</g>
</g>
</svg>
