<?xml version="1.0" encoding="utf-8"?>
<!-- Designed by Vexels.com - 2016 All Rights Reserved - https://vexels.com/terms-and-conditions/  -->

<svg version="1.0" id="Capa_1" xmlns="http://www.w3.org/2000/svg" xmlns:xlink="http://www.w3.org/1999/xlink" x="0px" y="0px"
	 width="1200px" height="1200px" viewBox="0 0 1200 1200" enable-background="new 0 0 1200 1200" xml:space="preserve">
<g>
	<path fill="#86888A" d="M1161.996,783.569c0,0-90.245,19.819-149.872,2.924c-20.366-1.089-20.366-1.089-20.366-1.089
		l-262.848,19.544c0,0-134.914,7.712-190.884,15.419c-55.963,7.715-214.017,5.472-214.017,5.472l-17.058-2.403l-51.812-18.47
		l23.319-26.16l550.809-33.752l55.129,17.156c0,0-33.86-0.322-81.082,2.381c-47.229,2.703,3.15,15.611,3.15,15.611l36.362,4.693
		c0,0,169.753-30.017,183.757-21.792C1040.583,771.327,1161.996,783.569,1161.996,783.569z"/>
	<path d="M1171.397,652.174c-4.675-70.539-12.551-90.395-25.809-115.849c-13.246-25.447-78.721-28.602-106.076-25.725
		c-27.352,2.873-47.414,6.579-55.876,19.443c-20.415,24.422-20.364,75.656-20.364,75.656s-54.023,2.862-71.075,3.358
		c-1.221-21.285-8.602-50.495-15.81-68.589c-10.51-25.982-15.324-35.673-38.176-36.744c-52.699-0.308-131.31,8.764-139.421,10.349
		c-6.313,1.35-11.694,3.043-11.694,3.043l-1.994,13.541c0,0-0.95,1.951-4.918,1.418c-10.702-33.122-43.385-36.223-43.385-36.223
		s2.108-9.412,1.368-16.668c-0.313-3.043-2.945-15.046-2.945-15.046s21.495-2.808,27.247-4.404c3.296-0.919,2.242-6.984,2.242-6.984
		c-0.418-7.187-9.557-6.655-9.557-6.655l-26.19,0.188c0,0-1.42-47.76-2.861-61.431c-1.437-13.679-11.115-11.157-15.683-10.892
		c-4.578,0.257-15.783-1.068-15.783-1.068s-18.291,1.046-35.345,0.717c-20.38-12.6-43.873,0.539-43.873,0.539L193.832,387.3
		c0,0,5.095,146.467,6.065,163.453c-2.493,2.099-11.083,12.419-11.083,12.419s-3.092-8.334-6.658-13.382
		c-3.572-5.034-7.782-10.031-15.808-12.846c-8.027-2.815-30.795-4.248-50.588-2.352c-50.66,4.864-72.895,13.429-78.028,26.825
		c-19.932,65.448-8.519,154.54-3.577,193.213c4.258,33.339,31.012,38.192,31.012,38.192s88.088-3.539,104.379-5.131
		c5.001,41.644,41.185,44.163,41.185,44.163s86.856-4.961,101.218-5.783c14.372-0.829,29.912-38.405,29.912-38.405
		s14.365-0.825,27.46-0.919c12.398,10.433,50.383,10.23,50.383,10.23c5.915,0.319,6.925-27.918,6.925-27.918l26.807-0.876
		l430.619-20.033c0,0,63.427-2.316,98.029-4.292c4.815,15.452,8.982,29.423,30.039,42.635c21.07,13.205,149.872-2.924,149.872-2.924
		S1179.662,776.914,1171.397,652.174z M436.915,524.774c-3.68,2.106-8.538,0.018-8.302,4.274
		c0.244,4.255-7.291,21.773-12.177,27.748c-4.878,5.974-13.176,10.252-20.748,10.686c-7.57,0.427-7.683-1.466-7.683-1.466
		l-0.68-3.756l-8.406,2.377c0,0-1.701,3.419-4.069,3.561c-2.365,0.13-37.509-0.232-44.857,3.977
		c-4.554-13.02-11.102-24.806-35.725-26.905c-20.026-1.701-43.369-3.213-69.28,0.17l-0.225-70.239l236.297-9.716
		C461.06,465.485,440.596,522.668,436.915,524.774z M895.124,689.53l-0.968-20.982c0,0,1.659,0.858,11.884,5.497
		C904.079,686.349,895.124,689.53,895.124,689.53z M902.754,652.869c-0.36,1.918-2.167,3.926-2.167,3.926l-5.376-3.018
		l-2.595-28.808l71.462-3.601c0,0,1.294,22.704,2.68,30.224C952.593,652.865,903.127,650.951,902.754,652.869z"/>
	<path d="M424.024,784.589l259.719-14.859c0,0,8.395-1.317,14.341-0.818c5.947,0.514,173.023-7.346,173.023-7.346
		s21.73-4.628,23.534-17.424c1.809-12.796,1.809-12.796,1.809-12.796l-497.585,27.611L424.024,784.589z"/>
	
		<linearGradient id="SVGID_1_" gradientUnits="userSpaceOnUse" x1="-94.0254" y1="2247.4788" x2="-94.0254" y2="2274.8523" gradientTransform="matrix(2.0332 -0.1163 0.1163 2.0332 713.4456 -4064.092)">
		<stop  offset="0" style="stop-color:#000000"/>
		<stop  offset="0.6215" style="stop-color:#9FA1A4"/>
		<stop  offset="1" style="stop-color:#5C5D60"/>
	</linearGradient>
	<path fill="url(#SVGID_1_)" d="M888.262,614.652c0,0-1.542-53.694-23.507-90.97c-5.406-7.704-5.489-16.081-31.465-16.505
		c-25.966-0.434-117.606,5.099-143.689,12.173c-2.374,8.381-4.225,16.114-4.225,16.114l3.004,12.412
		c0,0,13.179,10.313,15.229,12.872c2.047,2.548,46.734,56.832,56.47,160.417c31.87-2.971,66.242,4.219,111.327-14.381
		c21.846-11.551,21.846-11.551,21.846-11.551S889.036,621.477,888.262,614.652z"/>
	
		<linearGradient id="SVGID_2_" gradientUnits="userSpaceOnUse" x1="-161.2218" y1="2208.6938" x2="-188.541" y2="2169.3149" gradientTransform="matrix(2.0332 -0.1163 0.1163 2.0332 713.4456 -4064.092)">
		<stop  offset="0" style="stop-color:#9D9FA2"/>
		<stop  offset="1" style="stop-color:#DCDDDE"/>
	</linearGradient>
	<path fill="url(#SVGID_2_)" d="M597.09,376.48c0,0,16.302-0.933,18.949,0.206c2.651,1.144,6.228,3.524,6.646,10.82
		c0.412,7.288,2.374,56.687,2.374,56.687l-18.985-8.384L597.09,376.48z"/>
	
		<linearGradient id="SVGID_3_" gradientUnits="userSpaceOnUse" x1="-273.204" y1="2179.2966" x2="-273.204" y2="2185.8389" gradientTransform="matrix(2.0332 -0.1163 0.1163 2.0332 713.4456 -4064.092)">
		<stop  offset="0" style="stop-color:#FFFFFF"/>
		<stop  offset="1" style="stop-color:#DCDDDE"/>
	</linearGradient>
	<path fill="url(#SVGID_3_)" d="M597.537,376.889c0,0,0.337,21.072,6.228,33.65c-2.025,2.269-2.025,2.269-2.025,2.269
		L223.783,428.39l-4.574-39.317C219.208,389.073,572.002,374.465,597.537,376.889z"/>
	
		<linearGradient id="SVGID_4_" gradientUnits="userSpaceOnUse" x1="-273.5737" y1="2198.0608" x2="-273.1524" y2="2203.5481" gradientTransform="matrix(2.0332 -0.1163 0.1163 2.0332 713.4456 -4064.092)">
		<stop  offset="0" style="stop-color:#FFFFFF"/>
		<stop  offset="1" style="stop-color:#DCDDDE"/>
	</linearGradient>
	<path fill="url(#SVGID_4_)" d="M598.401,406.971c0,0,0.309,5.153,2.564,7.172c2.26,2.026,3.631,3.231,3.776,5.811
		c0.148,2.576-0.065,6.46-0.065,6.46s-31.957-1.617-54.901,3.568c-22.952,5.189-87.265,32.543-87.265,32.543l-239.241,8.486
		l-2.253-45.903L598.401,406.971z"/>
	
		<linearGradient id="SVGID_5_" gradientUnits="userSpaceOnUse" x1="-304.9792" y1="2232.4573" x2="-236.5469" y2="2232.8718" gradientTransform="matrix(2.0332 -0.1163 0.1163 2.0332 713.4456 -4064.092)">
		<stop  offset="0" style="stop-color:#FFFFFF"/>
		<stop  offset="1" style="stop-color:#DCDDDE"/>
	</linearGradient>
	<path fill="url(#SVGID_5_)" d="M332.07,574.614c0,0,12.334-3.22,26.954-3.22c14.625,0,19.521-1.947,19.521-1.947l3.946-3.981
		l2.086-0.13c0,0-1.862,3.872,4.008,4.371c5.875,0.5,14.476,4.61,30.232-11.75c6.405-4.961,13.411-28.338,13.411-28.338l6.177-1.607
		c0,0,1.927-3.025,2.685-4.324c0.753-1.299,27.176-72.559,50.769-112.751c13.427-20.815,18.503-34.472,39.545-39.02
		c14.116-1.219,27.636,1.346,34.008,10.588c4.547,6.43,14.493,45.726,14.493,45.726s-39.042-7.563-58.89,32.413
		c-7.467,15.463-5.186,40.812-5.186,40.812s-26.67,15.723-33.498,57.045c-1.12,2.153,18.073,1.9,28.016,0.492
		c1.958,16.234,5.196,25.179,5.196,25.179l8.459,25.49l-34.91,23.21l-18.781,0.246c0,0-3.195-34.063,1.254-43.927
		c1.893-3.441,1.032-3.817-5.117-1.791c-6.159,2.02-20.359,1.994-31.206,2.204c-10.84,0.199-30.806,1.751-29.923,17.16
		c0.879,15.398,1.715,29.974,1.715,29.974l-58.377,1.665C348.658,638.401,342.962,589.853,332.07,574.614z"/>
	
		<linearGradient id="SVGID_6_" gradientUnits="userSpaceOnUse" x1="-202.9126" y1="2224.5676" x2="-165.8244" y2="2245.4043" gradientTransform="matrix(2.0332 -0.1163 0.1163 2.0332 713.4456 -4064.092)">
		<stop  offset="0" style="stop-color:#000000"/>
		<stop  offset="0.6215" style="stop-color:#9FA1A4"/>
		<stop  offset="1" style="stop-color:#5C5D60"/>
	</linearGradient>
	<path fill="url(#SVGID_6_)" d="M635.007,487.665l-0.735,10.324l0.532,3.615l-1.844,3.177c0,0-38.892-1.111-64.874,12.061
		c-2.074-6.984-5.29-19.327-25.696-11.059c-4.134-6.448-2.593-16.139,2.151-28.102c4.741-11.974,8.477-14.189,8.477-14.189
		S582.703,483.687,635.007,487.665z"/>
	<path fill="#F1F2F4" d="M626.129,448.687c0,0,24.938-1.31,32.007,0.38c3.03,0.825,4.844,3.384,4.822,5.037
		c-0.016,1.665,0.53,3.514-3.418,4.071c-3.945,0.554-27.352,3.554-27.352,3.554S631.198,452.274,626.129,448.687z"/>
	
		<linearGradient id="SVGID_7_" gradientUnits="userSpaceOnUse" x1="-297.9412" y1="2308.7212" x2="-281.9733" y2="2308.7212" gradientTransform="matrix(2.0332 -0.1163 0.1163 2.0332 713.4456 -4064.092)">
		<stop  offset="0" style="stop-color:#FFFFFF"/>
		<stop  offset="1" style="stop-color:#DCDDDE"/>
	</linearGradient>
	<path fill="url(#SVGID_7_)" d="M407.607,645.508c0,0-0.043,28.765,0.923,30.824c0.953,2.063-7.378,4.234-7.378,4.234
		s-16.977-23.145-25.986-32.778C398.381,646.88,407.607,645.508,407.607,645.508z"/>
	<path fill="none" stroke="#FFFFFF" stroke-width="1.0249" d="M369.265,648.125c0,0,3.052,45.929,2.541,51.881
		c-14.144,4.194-18.332,4.853-18.332,4.853s0.867-29.232,0.224-33.003c-0.635-3.771-3.921-9.506-3.921-9.506l-0.845-14.757
		L369.265,648.125z"/>
	
		<linearGradient id="SVGID_8_" gradientUnits="userSpaceOnUse" x1="-315.3596" y1="2352.6836" x2="-303.3322" y2="2352.6836" gradientTransform="matrix(2.0332 -0.1163 0.1163 2.0332 713.4456 -4064.092)">
		<stop  offset="0" style="stop-color:#77787B"/>
		<stop  offset="0.8644" style="stop-color:#CDCFD1"/>
		<stop  offset="1" style="stop-color:#F3F4F4"/>
	</linearGradient>
	<polygon fill="url(#SVGID_8_)" points="347.296,752.173 370.063,750.867 370.499,758.462 345.997,759.02 	"/>
	
		<linearGradient id="SVGID_9_" gradientUnits="userSpaceOnUse" x1="-313.2843" y1="2333.3979" x2="-302.501" y2="2333.3979" gradientTransform="matrix(2.0332 -0.1163 0.1163 2.0332 713.4456 -4064.092)">
		<stop  offset="0" style="stop-color:#77787B"/>
		<stop  offset="0.8644" style="stop-color:#CDCFD1"/>
		<stop  offset="1" style="stop-color:#F3F4F4"/>
	</linearGradient>
	<polygon fill="url(#SVGID_9_)" points="369.733,708.162 348.316,718.273 348.208,723.781 369.601,713.246 	"/>
	
		<linearGradient id="SVGID_10_" gradientUnits="userSpaceOnUse" x1="-183.9568" y1="2254.0879" x2="-215.477" y2="2303.8564" gradientTransform="matrix(2.0332 -0.1163 0.1163 2.0332 713.4456 -4064.092)">
		<stop  offset="0" style="stop-color:#ED1C24"/>
		<stop  offset="1" style="stop-color:#890204"/>
	</linearGradient>
	<path fill="url(#SVGID_10_)" d="M527.603,620.88l2.647,9.155l61.133-3.499c0,0-8.299-19.4-9.517-33.299
		c-1.219-13.881,3.279-46.29,28.525-63.388c7.775-4.675,20.647-8.79,27.068-7.466c6.427,1.321,28.805,8.077,43.86,19.91
		c-2.466-6.202-5.403-12.94-10.963-16.577c-5.556-3.626-18.859-18.607-60.566-13.736c-31.336,4.332-40.851,10.516-61.455,30.028
		c-5.81,6.81-14.831,13.274-37.987,16.986c1.152,9.651,9.66,40.185,14.223,50.64c10.042-6.781,36.362-24.922,36.362-24.922
		s4.549-4.353,9.613-4.498c5.068-0.152,6.915-2.377,7.178,7.198c-0.293,2.28-2.853,4.4-7.76,7.219
		C565.045,597.448,527.603,620.88,527.603,620.88z"/>
	
		<linearGradient id="SVGID_11_" gradientUnits="userSpaceOnUse" x1="-219.7829" y1="2324.0713" x2="-184.8058" y2="2324.0713" gradientTransform="matrix(2.0332 -0.1163 0.1163 2.0332 713.4456 -4064.092)">
		<stop  offset="0" style="stop-color:#ED1C24"/>
		<stop  offset="1" style="stop-color:#890204"/>
	</linearGradient>
	<path fill="url(#SVGID_11_)" d="M534.219,640.384l26.227,83.664c0,0,29.693,6.481,50.195,5.034
		c-2.287-25.251-10.4-80.769-14.828-91.654C584.532,637.504,534.219,640.384,534.219,640.384z"/>
	
		<linearGradient id="SVGID_12_" gradientUnits="userSpaceOnUse" x1="-83.1204" y1="2334.511" x2="-120.1118" y2="2205.1658" gradientTransform="matrix(2.0332 -0.1163 0.1163 2.0332 713.4456 -4064.092)">
		<stop  offset="0" style="stop-color:#FFFFFF"/>
		<stop  offset="1" style="stop-color:#BABCBE"/>
	</linearGradient>
	<path fill="url(#SVGID_12_)" d="M766.744,608.471l0.619,10.689l4.42,101.83c0,0,37.904,2.345,86.644-13.411
		c-0.51-13.791-3.563-82.144-3.563-82.144l-0.966-11.793c0,0-2.522-24.39-4.156-33.317c-1.636-8.931-5.647-24.777-25.637-24.202
		c-19.997,0.583-107.797,3.626-107.797,3.626s-2.437-17.627-0.233-18.875c2.18-1.256,19.644-1.694,18.649-9.249
		c-1.008-7.56-0.056-15.506-7.407-15.93c-7.357-0.431-13.131-2.92-37.73,1.024c-3.147,4.129-3.488,17.967-0.778,20.92
		c2.709,2.946,19.61,2.544,19.61,2.544s2.433,8.041,1.909,13.704c-0.528,5.667-2.14,7.176-4.923,7.614
		c-2.79,0.438-2.79,0.438-2.79,0.438s11.287,10.071,16.76,17.091c8.996-0.51,40.22-2.015,44.584,5.349
		C768.334,591.745,766.744,608.471,766.744,608.471z"/>
	
		<linearGradient id="SVGID_13_" gradientUnits="userSpaceOnUse" x1="-298.5501" y1="2319.6423" x2="-298.5501" y2="2274.8521" gradientTransform="matrix(2.0332 -0.1163 0.1163 2.0332 713.4456 -4064.092)">
		<stop  offset="0" style="stop-color:#77787B"/>
		<stop  offset="0.8644" style="stop-color:#CDCFD1"/>
		<stop  offset="1" style="stop-color:#F3F4F4"/>
	</linearGradient>
	<path fill="url(#SVGID_13_)" d="M371.04,701.326l30.319-22.045c0,0,3.746-3.597,2.953-7.501c-0.78-3.897-7.132-65.581-4.639-71.357
		c2.484-5.786-3.635-4.306-7.567-4.086c-3.932,0.221-47.886,1.049-49.974,3.992c5.325,23.937,7.645,62.021,7.645,62.021
		s5.251,5.489,4.299,18.513c-0.948,13.016-0.603,23.996-0.603,23.996L371.04,701.326z"/>
	
		<linearGradient id="SVGID_14_" gradientUnits="userSpaceOnUse" x1="-259.3908" y1="2253.8416" x2="-222.3425" y2="2178.0825" gradientTransform="matrix(2.0332 -0.1163 0.1163 2.0332 713.4456 -4064.092)">
		<stop  offset="0" style="stop-color:#EFEFF0"/>
		<stop  offset="1" style="stop-color:#888A8C"/>
	</linearGradient>
	<path fill="url(#SVGID_14_)" d="M519.855,376.936c0,0-9.787,8.934-11.618,23.511c-1.829,14.583,1.48,25.816-12.658,65.097
		c-14.131,39.281-22.559,51.57-32.349,66.985c-9.646,11.214-15.329,11.54-15.329,11.54l-2.081-2.928c0,0,23.447-42.86,36.304-77.874
		c8.135-17.601,16.8-45.907,10.741-52.033C493.004,407.036,508.642,380.624,519.855,376.936z"/>
	
		<linearGradient id="SVGID_15_" gradientUnits="userSpaceOnUse" x1="-280.6862" y1="2225.6655" x2="-232.6978" y2="2225.6655" gradientTransform="matrix(2.0332 -0.1163 0.1163 2.0332 713.4456 -4064.092)">
		<stop  offset="0" style="stop-color:#77787B"/>
		<stop  offset="0.8644" style="stop-color:#CDCFD1"/>
		<stop  offset="1" style="stop-color:#F3F4F4"/>
	</linearGradient>
	<path fill="url(#SVGID_15_)" d="M406.224,574.629c0,0,15.296,7.904,43.459-59.227c15.725-44.701,36.232-92.345,44.839-108.452
		c-8.783,13.074-45.06,91.328-52.547,113.464c-5.24,8.297-9.754,9.318-9.754,9.318s-0.014,26.279-24.023,39.462
		C406.224,574.629,406.224,574.629,406.224,574.629z"/>
	<path fill="#A7A9AC" d="M693.494,522.856c0,0,1.889,6.362,8.767,6.731c6.879,0.369,23.635,0.177,27.212,3.014
		c3.593,2.841,3.242,3.239-0.901,4.245c-4.125,0.995-14.533-1.075-20.961-0.326c-6.432,0.749-10.648,0.224-10.648,0.224
		S693.889,529.688,693.494,522.856z"/>
	<path fill="#8F9194" d="M696.963,536.745c0,0-7.596,0.438-8.508-2.175c1.393-8.844,2.316-12.709,2.316-12.709l2.806,2.515
		C693.578,524.376,694.591,535.366,696.963,536.745z"/>
	<path fill="#8F9194" d="M705.55,540.389c0,0,14.891,0.67,17.862-0.644c-9.718,3.228-8.423,5.819-8.423,5.819L705.55,540.389z"/>
	
		<linearGradient id="SVGID_16_" gradientUnits="userSpaceOnUse" x1="-229.3971" y1="2337.0713" x2="-238.5213" y2="2245" gradientTransform="matrix(2.0332 -0.1163 0.1163 2.0332 713.4456 -4064.092)">
		<stop  offset="0" style="stop-color:#77787B"/>
		<stop  offset="0.8644" style="stop-color:#CDCFD1"/>
		<stop  offset="1" style="stop-color:#F3F4F4"/>
	</linearGradient>
	<path fill="url(#SVGID_16_)" d="M481.873,560.889c0,0-1.12,17.41-9.606,24.238c-1.652,8.131-3.566,13.053-1.956,47.991
		c0.774,34.989,1.697,43.815,1.697,43.815s-1.746,21.249,53.442,46.866c35.194,1.368,36.172,1.31,36.172,1.31
		s-48.277-139.913-51.277-166.116C500.051,560.693,488.327,562.64,481.873,560.889z"/>
	
		<linearGradient id="SVGID_17_" gradientUnits="userSpaceOnUse" x1="-213.9382" y1="2336.7004" x2="-207.3022" y2="2195.686" gradientTransform="matrix(2.0332 -0.1163 0.1163 2.0332 713.4456 -4064.092)">
		<stop  offset="0" style="stop-color:#FAD1E3"/>
		<stop  offset="0.4633" style="stop-color:#D5776B"/>
		<stop  offset="1" style="stop-color:#D16B62"/>
	</linearGradient>
	<path fill="url(#SVGID_17_)" d="M519.918,590.012c0,0,11.041,8.254,8.927,27.683c-1.753,16.002,17.523,57.729,17.523,57.729
		l2.008,8.663c0,0-0.897-41.076-1.427-50.354c-0.525-9.278-0.55-9.705-2.627-16.349c-2.066-6.647,7.085-24.089,9.495-26.348
		c2.414-2.254,22.686-10.176,23.977-9.821c1.287,0.347,3.369-0.203,3.369-0.203s-1.368-9.224-8.01-14.345
		c-6.642-5.124-12-2.699-16.172-1.617c5.088,0.134,10.829,4.462,12.673,6.897c1.82,2.432,1.055,3.746-2.741,3.962
		c-3.796,0.217-5.133-0.973-10.216-1.111c-5.08-0.126-7.992,0.879-7.992,0.879s-5.473,0.315-6.597,2.917
		c5.081,0.134,15.133-1.712,15.674,0.369c0.541,2.088-1.916,3.499-5.285,3.684c-3.378,0.199-12.186,1.549-15.394,4.697
		c-3.199,3.145-8.285,3.003-12.649,0.716c-4.359-2.283-7.775-2.935-7.775-2.935l0.688,4.607L519.918,590.012z"/>
	<path fill="#E2E3E4" d="M514.988,585.221c0,0-11.965-2.28-37.224,0.011c-3.626,3.173-3.626,3.173-3.626,3.173
		s29.872-2.985,43.231,1.328C516.404,587.674,514.988,585.221,514.988,585.221z"/>
	
		<linearGradient id="SVGID_18_" gradientUnits="userSpaceOnUse" x1="-242.9014" y1="2246.3438" x2="-221.8352" y2="2246.3438" gradientTransform="matrix(2.0332 -0.1163 0.1163 2.0332 713.4456 -4064.092)">
		<stop  offset="0" style="stop-color:#EFEFF0"/>
		<stop  offset="1" style="stop-color:#888A8C"/>
	</linearGradient>
	<path fill="url(#SVGID_18_)" d="M523.785,531.838c0,0-5.723-18.701-7.194-29.623c-4.96,1.98-29.237,22.758-34.26,56.285
		c11.097-10.118,23.623-12.944,27.75-14.876c4.114-1.929,6.195-2.472,6.195-2.472S525.835,538.069,523.785,531.838z"/>
	
		<linearGradient id="SVGID_19_" gradientUnits="userSpaceOnUse" x1="-196.5166" y1="2341.322" x2="-196.5166" y2="2266.116" gradientTransform="matrix(2.3513 -0.1344 0.1163 2.0332 1272.8386 -4095.0293)">
		<stop  offset="0" style="stop-color:#000000"/>
		<stop  offset="0.6215" style="stop-color:#9FA1A4"/>
		<stop  offset="1" style="stop-color:#5C5D60"/>
	</linearGradient>
	<path fill="url(#SVGID_19_)" d="M986.125,529.095c0,0,19.156-7.299,31.137,19.649c4.896,17.207,24.792,57.248,30.856,174.776
		c111.291-4.107,119.104-4.552,119.104-4.552s11.784-79.072-19.235-165.284c-9.125-22.602-18.269-34.497-50.546-39.979
		C1072.413,509.496,999.721,515.905,986.125,529.095z"/>
	
		<linearGradient id="SVGID_20_" gradientUnits="userSpaceOnUse" x1="6.2597" y1="2331.1235" x2="35.5645" y2="2331.1235" gradientTransform="matrix(2.0332 -0.1163 0.1163 2.0332 713.4456 -4064.092)">
		<stop  offset="0" style="stop-color:#77787B"/>
		<stop  offset="0.8644" style="stop-color:#CDCFD1"/>
		<stop  offset="1" style="stop-color:#F3F4F4"/>
	</linearGradient>
	<path fill="url(#SVGID_20_)" d="M996.077,653.744l4.755-35.246c0,0,11.124,7.263,21.488,20.768
		c10.368,13.505,29.505,32.713,32.539,46.08c3.009,13.364,4.53,30.198,4.53,30.198l-1.104,10.212l-11.14,2.33l-23.619-18.387
		L996.077,653.744z"/>
	
		<linearGradient id="SVGID_21_" gradientUnits="userSpaceOnUse" x1="25.2956" y1="2328.738" x2="28.0307" y2="2325.9995" gradientTransform="matrix(2.0332 -0.1163 0.1163 2.0332 713.4456 -4064.092)">
		<stop  offset="0" style="stop-color:#77787B"/>
		<stop  offset="1" style="stop-color:#000000"/>
	</linearGradient>
	<path fill="url(#SVGID_21_)" d="M1000.597,624.292c0,0,19.899,22.545,24.652,26.789c4.762,4.241,21.124,24.173,23.133,29.702
		c2.008,5.515,7.136,45.838,7.136,45.838l2.904,1.52c0,0,2.893-8.624,0.537-20.33c-2.37-11.71-5.321-23.948-5.321-23.948
		s-6.999-13.701-10.557-16.885c-3.568-3.177-36.232-41.923-36.232-41.923l-5.884-4.176L1000.597,624.292z"/>
	
		<linearGradient id="SVGID_22_" gradientUnits="userSpaceOnUse" x1="-4.429" y1="2271.0156" x2="24.3271" y2="2287.0527" gradientTransform="matrix(2.0332 -0.1163 0.1163 2.0332 713.4456 -4064.092)">
		<stop  offset="0" style="stop-color:#000000"/>
		<stop  offset="0.6215" style="stop-color:#9FA1A4"/>
		<stop  offset="1" style="stop-color:#5C5D60"/>
	</linearGradient>
	<path fill="url(#SVGID_22_)" d="M970.856,567.761c0,0,7.192-31.996,19.879-27.086c12.691,4.914,16.952,49.79,16.744,56.014
		C998.549,578.58,991.119,547.42,970.856,567.761z"/>
	
		<linearGradient id="SVGID_23_" gradientUnits="userSpaceOnUse" x1="-12.3042" y1="2285.1414" x2="16.4459" y2="2301.1753" gradientTransform="matrix(2.0332 -0.1163 0.1163 2.0332 713.4456 -4064.092)">
		<stop  offset="0" style="stop-color:#000000"/>
		<stop  offset="0.6215" style="stop-color:#9FA1A4"/>
		<stop  offset="1" style="stop-color:#5C5D60"/>
	</linearGradient>
	<path fill="url(#SVGID_23_)" d="M972.762,611.076c0,0,0.939-23.174,6.805-29.148c4.164-5.884,17.978-1.032,21.265,36.57
		c-1.693,0.094-1.693,0.094-1.693,0.094s-6.593-26.695-12.416-29.746c-5.819-3.051-11.11,2.895-11.707,22.099
		C972.762,611.076,972.762,611.076,972.762,611.076z"/>
	<path fill="none" stroke="#FFFFFF" stroke-width="1.0249" d="M975.079,651.551l1.543-12.492l4.438-1.386
		c0,0,2.162,8.345,3.42,10.523c1.247,2.178,1.31,3.311,1.31,3.311L975.079,651.551z"/>
	
		<linearGradient id="SVGID_24_" gradientUnits="userSpaceOnUse" x1="27.4672" y1="2327.2783" x2="6.745" y2="2342.137" gradientTransform="matrix(2.0332 -0.1163 0.1163 2.0332 713.4456 -4064.092)">
		<stop  offset="0" style="stop-color:#808285"/>
		<stop  offset="1" style="stop-color:#282829"/>
	</linearGradient>
	<path fill="url(#SVGID_24_)" d="M1026.961,651.407c0,0-16.715-6.373-21.231,3.47c10.062,18.043,26.69,42.473,31.497,47.832
		c4.827,5.363,21.994,19.613,21.994,19.613l-3.709,4.161c0,0-7.19,2.66-18.285-4.028c-11.091-6.706-39.57-60.91-39.57-60.91
		l-1.58-7.802l4.391-31.837L1026.961,651.407z"/>
	
		<linearGradient id="SVGID_25_" gradientUnits="userSpaceOnUse" x1="-450.3058" y1="2330.4277" x2="-450.3058" y2="2270.7034" gradientTransform="matrix(2.0332 -0.1163 0.1163 2.0332 706.3284 -4063.6855)">
		<stop  offset="0" style="stop-color:#000000"/>
		<stop  offset="0.6215" style="stop-color:#9FA1A4"/>
		<stop  offset="1" style="stop-color:#5C5D60"/>
	</linearGradient>
	<path fill="url(#SVGID_25_)" d="M60.592,598.024c0,0,7.648,102.369,1.435,143.38c-0.642,4.473-4.344,14.587-5.598,0.662
		c-1.247-13.936-3.316-69.837-2.22-125.572C53.823,609.683,57.393,581.468,60.592,598.024z"/>
	
		<linearGradient id="SVGID_26_" gradientUnits="userSpaceOnUse" x1="-748.6844" y1="2305.3293" x2="-748.6844" y2="2235.0977" gradientTransform="matrix(2.6153 -0.1495 0.1163 2.0332 1809.8198 -4125.79)">
		<stop  offset="0" style="stop-color:#000000"/>
		<stop  offset="0.6215" style="stop-color:#9FA1A4"/>
		<stop  offset="1" style="stop-color:#5C5D60"/>
	</linearGradient>
	<path fill="url(#SVGID_26_)" d="M187.633,572.816c0,0-6.767-19.183-16.476-25.881c-9.693-6.687-43.723-9.702-69.622-7.842
		c-25.902,1.871-57.103,13.95-61.275,26.771c9.432-6.64,17.181-8.605,20.219-6.872c3.036,1.733,13.026,4.589,17.493,100.079
		c0.102,27.463-0.023,33.951-0.023,33.951l112.238-2.214L187.633,572.816z"/>
	
		<linearGradient id="SVGID_27_" gradientUnits="userSpaceOnUse" x1="-170.5354" y1="2213.5522" x2="-187.0435" y2="2189.7568" gradientTransform="matrix(2.0332 -0.1163 0.1163 2.0332 713.4456 -4064.092)">
		<stop  offset="0" style="stop-color:#C4161C"/>
		<stop  offset="1" style="stop-color:#6D0000"/>
	</linearGradient>
	<path fill="url(#SVGID_27_)" d="M589.341,428.151c0,0,24.439,0.087,35.528,12.778c-7.966-9.915-12.571-12.608-16.346-13.874
		C600.405,427.518,589.341,428.151,589.341,428.151z"/>
	
		<linearGradient id="SVGID_28_" gradientUnits="userSpaceOnUse" x1="-178.0265" y1="2195.1934" x2="-190.3656" y2="2177.4072" gradientTransform="matrix(2.0332 -0.1163 0.1163 2.0332 713.4456 -4064.092)">
		<stop  offset="0" style="stop-color:#9D9FA2"/>
		<stop  offset="1" style="stop-color:#DCDDDE"/>
	</linearGradient>
	<path fill="url(#SVGID_28_)" d="M597.324,373.647c0,0-0.445,0.68-1.187,1.845c-3.429,5.392-11.021,25.114-10.641,31.79
		c8.061,9.481,8.417,9.083,2.725,2.418c0,0-6.034,9.98-2.654,17.185c22.957,0.17,22.957,0.17,22.957,0.17L597.324,373.647z"/>
	
		<linearGradient id="SVGID_29_" gradientUnits="userSpaceOnUse" x1="-338.8091" y1="2200.3142" x2="-335.9059" y2="2217.7363" gradientTransform="matrix(2.0782 -0.1188 0.1163 2.0332 798.71 -4068.1038)">
		<stop  offset="0" style="stop-color:#ED1C24"/>
		<stop  offset="1" style="stop-color:#890204"/>
	</linearGradient>
	<polygon fill="url(#SVGID_29_)" points="220.073,444.682 480.558,433.17 465.786,463.723 223.308,471.011 	"/>
	<path fill="#888A8C" d="M624.652,437.238l-26.465-61.42l8.083,50.625C606.269,426.443,621.368,431.506,624.652,437.238z"/>
	
		<linearGradient id="SVGID_30_" gradientUnits="userSpaceOnUse" x1="-176.137" y1="2206.0862" x2="-185.2124" y2="2197.7383" gradientTransform="matrix(2.0332 -0.1163 0.1163 2.0332 713.4456 -4064.092)">
		<stop  offset="0" style="stop-color:#ED1C24"/>
		<stop  offset="1" style="stop-color:#890204"/>
	</linearGradient>
	<path fill="url(#SVGID_30_)" d="M576.386,428.242l32.138-1.187c0,0,13.366,0.717,18.115,18.951
		C604.596,436.167,585.815,431.499,576.386,428.242z"/>
	
		<linearGradient id="SVGID_31_" gradientUnits="userSpaceOnUse" x1="-532.5458" y1="2208.4326" x2="-519.8268" y2="2208.4326" gradientTransform="matrix(2.2658 -0.1296 0.1163 2.0332 1151.4352 -4088.7507)">
		<stop  offset="0" style="stop-color:#ED1C24"/>
		<stop  offset="1" style="stop-color:#890204"/>
	</linearGradient>
	<polygon fill="url(#SVGID_31_)" points="203.91,550.297 223.692,546.599 224.707,395.402 219.274,390.365 196.897,390.749 	"/>
	<g>
		
			<linearGradient id="SVGID_32_" gradientUnits="userSpaceOnUse" x1="-267.7801" y1="2255.1135" x2="-244.4157" y2="2255.1135" gradientTransform="matrix(2.0332 -0.1163 0.1163 2.0332 713.4456 -4064.092)">
			<stop  offset="0" style="stop-color:#FFFFFF"/>
			<stop  offset="1" style="stop-color:#BABCBE"/>
		</linearGradient>
		<path fill="url(#SVGID_32_)" d="M474.717,526.92c0,0,3.675,10.838,3.532,15.032c-0.146,4.201-2.741,5.489-5.752,6.047
			c-3.014,0.55-13.183,2.656-13.183,2.656s-4.634,5.602-1.25,24.832c-5.624,1.466-6.783,1.147-6.783,1.147
			s-1.21-21.267-2.884-23.833c-1.679-2.573-3.946-2.439-5.472-2.352c-1.52,0.09-11.873,5.631-11.985-3.119
			c-0.12-8.754,0.143-17.533,0.143-17.533S462.555,520.761,474.717,526.92z"/>
		<path fill="#A7A9AC" d="M434.904,529.956c0,0,0.498,8.735,7.438,10.241c6.935,1.509,31.287,0.88,32.774,0.413
			c1.502-0.471,1.39-2.359,1.39-2.359s2.76,8.218-2.137,9.256c-4.887,1.042-17.039,1.741-17.176,5.935
			c-0.143,4.194-4.637,5.598-2.922,22.258c-3.014,0.554-3.014,0.554-3.014,0.554l-2.861-23.453c0,0-2.855-3.264-6.97-1.885
			c-4.107,1.375-12.939,6.832-10.107-16.946C431.083,529.797,434.904,529.956,434.904,529.956z"/>
		<path fill="#8F9194" d="M434.609,530.448c0,0-1.739,16.089,28.808,10.921c-8.18,3.51-29.834,11.221-31.047,3.296
			C431.159,536.738,434.609,530.448,434.609,530.448z"/>
	</g>
	<path d="M527.487,448.716c0,0-13.427,1.9-15.108,1.991c-1.686,0.101-3.264-7.712-1.533-16.831
		c1.739-9.123,1.051-50.825,32.536-52.623c13.523-0.206,22.304,5.489,25.984,20.511c3.682,15.025,6.566,26.134,6.566,26.134
		S543.136,426.389,527.487,448.716z"/>
	
		<linearGradient id="SVGID_33_" gradientUnits="userSpaceOnUse" x1="-47.8148" y1="2345.7827" x2="-10.486" y2="2375.6458" gradientTransform="matrix(2.0332 -0.1163 0.1163 2.0332 713.4456 -4064.092)">
		<stop  offset="0" style="stop-color:#FFFFFF"/>
		<stop  offset="1" style="stop-color:#DCDDDE"/>
	</linearGradient>
	<path fill="url(#SVGID_33_)" d="M761.408,722.463c0,0,47.646,0.326,81.922-10.49c34.273-10.827,50.729-13.701,59.844-23.637
		c9.128-9.94,7.022-17.569-0.087-30.455c2.385-2.073,1.489-3.13,5.632-3.372c4.142-0.235,90.037,0.669,90.037,0.669l27.139,53.271
		c0,0,2.944,3.159,5.721,3.275c2.783,0.119,4.348,8.345,4.348,8.345s17.174,4.831,19.999,5.783c2.826,0.937,2.797,5.367,2.797,5.367
		l-4.252,3.018l-297.274,16.722C757.234,750.957,763.274,750.331,761.408,722.463z"/>
	
		<linearGradient id="SVGID_34_" gradientUnits="userSpaceOnUse" x1="-43.3757" y1="2351.5332" x2="-43.3757" y2="2353.29" gradientTransform="matrix(2.0332 -0.1163 0.1163 2.0332 713.4456 -4064.092)">
		<stop  offset="0" style="stop-color:#FFFFFF"/>
		<stop  offset="0.1186" style="stop-color:#EFF0F0"/>
		<stop  offset="1" style="stop-color:#939598"/>
	</linearGradient>
	<polygon fill="url(#SVGID_34_)" points="762.056,733.783 1036.306,721.15 1035.28,717.607 761.564,729.936 	"/>
	
		<linearGradient id="SVGID_35_" gradientUnits="userSpaceOnUse" x1="-39.0565" y1="2358.8506" x2="-39.0565" y2="2360.314" gradientTransform="matrix(2.0332 -0.1163 0.1163 2.0332 713.4456 -4064.092)">
		<stop  offset="0" style="stop-color:#FFFFFF"/>
		<stop  offset="0.1186" style="stop-color:#EFF0F0"/>
		<stop  offset="1" style="stop-color:#939598"/>
	</linearGradient>
	<polygon fill="url(#SVGID_35_)" points="1054.508,734.235 1057.643,731.861 761.419,744.57 759.593,749.748 	"/>
	<path fill="#B3B5B8" d="M526.188,634.439c0,0-5.748,19.367-1.925,32.865c3.809,13.494,10.104,50.086,10.104,50.086l15.441,3.677
		c0,0-3.671-10.827-2.229-32.246c0.038-6.094,0.038-6.094,0.038-6.094l-20.055-58.522L526.188,634.439z"/>
	
		<linearGradient id="SVGID_36_" gradientUnits="userSpaceOnUse" x1="-224.4596" y1="2337.7554" x2="-206.6254" y2="2337.7554" gradientTransform="matrix(2.0332 -0.1163 0.1163 2.0332 713.4456 -4064.092)">
		<stop  offset="0" style="stop-color:#77787B"/>
		<stop  offset="1" style="stop-color:#000000"/>
	</linearGradient>
	<path fill="url(#SVGID_36_)" d="M528.902,715.136l32.854-7.516c0,0,3.8,2.316,3.47,6.568c-1.556,2.348-22.221,5.786-22.221,5.786
		S524.472,716.518,528.902,715.136z"/>
	<path d="M171.014,783.826c0,0-5.549-27.882-3.465-129.524c-0.123-34.834,7.867-61.333,20.084-81.486
		c2.627-4.306,5.437-8.334,8.415-12.079c10.632-11.33,18.528-11.214,39.856-13.002c21.339-1.777,60.949,0.471,69.609,3.919
		c8.654,3.452,18.939,5.689,29.894,39.462c4.963,17.768,12.217,46.117,11.695,105.937c0.241,33.82-0.418,71.654-10.34,95.342
		c-5.147,8.75-13.013,28.95-29.813,31.041c-16.802,2.084-93.95,4.241-93.95,4.241S177.485,828.017,171.014,783.826z"/>
	
		<linearGradient id="SVGID_37_" gradientUnits="userSpaceOnUse" x1="-348.9012" y1="2338.7219" x2="-348.9012" y2="2241.949" gradientTransform="matrix(2.0332 -0.1163 0.1163 2.0332 713.4456 -4064.092)">
		<stop  offset="0" style="stop-color:#000000"/>
		<stop  offset="0.6215" style="stop-color:#9FA1A4"/>
		<stop  offset="1" style="stop-color:#5C5D60"/>
	</linearGradient>
	<path fill="url(#SVGID_37_)" d="M192.316,571.669c0,0,14.127-12.202,19.373-7.979c8.395,6.77,20.001,29.376,21.748,133.414
		c-0.563,43.515-3.034,60.447-7.995,87.048c102.224-0.127,112.133-0.311,112.133-0.311l1.878-0.488c0,0,12.401-43.432,6.51-133.117
		c-4.431-70.698-22.407-84.931-26.518-90.037c-4.096-5.099-16.237-10.512-31.173-11.565c-14.938-1.053-60.573,1.556-75.665,4.328
		C206.252,555.222,195.906,561.164,192.316,571.669z"/>
	
		<linearGradient id="SVGID_38_" gradientUnits="userSpaceOnUse" x1="-382.5767" y1="2283.3721" x2="-382.5767" y2="2358.0261" gradientTransform="matrix(2.0332 -0.1163 0.1163 2.0332 712.3713 -4065.05)">
		<stop  offset="0" style="stop-color:#000000"/>
		<stop  offset="0.6215" style="stop-color:#9FA1A4"/>
		<stop  offset="1" style="stop-color:#5C5D60"/>
	</linearGradient>
	<path fill="url(#SVGID_38_)" d="M206.786,618.954c0,0,8.544,114.332,1.605,160.12c-0.719,5.001-4.853,16.298-6.25,0.738
		c-1.391-15.557-3.706-77.986-2.482-140.239C199.221,631.974,203.212,600.477,206.786,618.954z"/>
	<path d="M730.991,580.907l172.195,78.996c0,0,2.104,2.414,5.459,12.083c0.372,1.679,0.372,1.679,0.372,1.679l-183.546-86.241
		l-5.055-5.066L730.991,580.907z"/>
	<path d="M745.162,620.706l237.491-9.351c0,0,1.61,3.571,0.06,5.927c-1.561,2.337-2.441,1.824-2.441,1.824l-232.329,10.751
		C747.943,629.857,747.017,623.416,745.162,620.706z"/>
	<polygon fill="#FFFFFF" points="979.06,612.437 747.677,623.177 747.764,624.665 979.948,614.88 	"/>
	<polygon fill="#FFFFFF" points="906.543,663.479 726.933,581.696 726.524,582.605 906.464,665.237 	"/>
	<path fill="#9B9DA0" d="M989.4,655.384c0,0,14.158,47.846,15.49,49.033c1.346,1.198,6.571,3.854,6.571,3.854
		s2.133,0.304,2.62,1.538c0.505,1.245,2.171,8.345,2.171,8.345l19.027-0.547c0,0-1.793-4.35-3.664-5.884
		c-1.855-1.542-5.308-2.605-8.145-7.943c-2.844-5.338-24.714-48.603-24.714-48.603L989.4,655.384z"/>
	<polygon points="839.319,712.838 758.104,697.473 758.437,703.364 829.315,715.704 	"/>
	
		<linearGradient id="SVGID_39_" gradientUnits="userSpaceOnUse" x1="-206.4772" y1="2229.9751" x2="-173.6126" y2="2201.8782" gradientTransform="matrix(2.0332 -0.1163 0.1163 2.0332 713.4456 -4064.092)">
		<stop  offset="0" style="stop-color:#EFEFF0"/>
		<stop  offset="1" style="stop-color:#888A8C"/>
	</linearGradient>
	<path fill="url(#SVGID_39_)" d="M529.492,514.041c-1.352,5.504-10.028,12.401-10.028,12.401s-10.894-33.73,0.221-65.69
		c8.091-19.251,25.926-34.591,56.473-33.415c12.98,0.507,42.833,8.497,53.897,26.655c2.347,4.466,8.091,24.86,5.539,32.311
		c-24.312-1.596-56.454-8.432-81.909-22.852c-7.835,9.22,3.105,25.58,1.426,41.029"/>
	
		<linearGradient id="SVGID_40_" gradientUnits="userSpaceOnUse" x1="-205.5723" y1="1437.999" x2="-222.4602" y2="1467.2435" gradientTransform="matrix(1.8691 0.0418 -0.035 1.5638 1046.8906 -1816.4678)">
		<stop  offset="0" style="stop-color:#FFFFFF"/>
		<stop  offset="1" style="stop-color:#DCDDDE"/>
	</linearGradient>
	<path fill="url(#SVGID_40_)" d="M631.832,476.493c0,0,8.571-27.288-33.321-41.564c-12.562-4.606-32.658-8.193-54.016,2.711
		C572.264,433.554,619.982,439.326,631.832,476.493z"/>
	
		<linearGradient id="SVGID_41_" gradientUnits="userSpaceOnUse" x1="-233.8246" y1="2241.7227" x2="-198.198" y2="2211.2646" gradientTransform="matrix(2.0332 -0.1163 0.1163 2.0332 713.4456 -4064.092)">
		<stop  offset="0" style="stop-color:#8A8C8E"/>
		<stop  offset="1" style="stop-color:#434345"/>
	</linearGradient>
	<path fill="url(#SVGID_41_)" d="M521.071,526.898c0,0-8.823-29.177-3.653-55.066c2.501-9.868,8.428-22.486,17.237-29.641
		c-7.038,11.149-18.875,54.812,14.522,74.914C532.841,526.735,521.071,526.898,521.071,526.898z"/>
	
		<linearGradient id="SVGID_42_" gradientUnits="userSpaceOnUse" x1="-223.2413" y1="2242.2102" x2="-199.6945" y2="2242.2102" gradientTransform="matrix(2.0332 -0.1163 0.1163 2.0332 713.4456 -4064.092)">
		<stop  offset="0" style="stop-color:#ED1C24"/>
		<stop  offset="1" style="stop-color:#890204"/>
	</linearGradient>
	<path fill="url(#SVGID_42_)" d="M520.971,532.898c0,0-2.397-5.29,2.723-10.596c5.137-5.301,4.771-11.551,10.554-12.712
		c5.786-1.162,8.142-3.807,8.142-3.807s15.338-9.231,22.711,2.881c2.795,4.849,2.479,6.546,2.986,8.178
		c0.507,1.643-36.493,19.215-44.798,20.109C522.891,537.389,520.971,532.898,520.971,532.898z"/>
	<path fill="#760000" d="M568.087,516.842c0,0-3.501,3.036-6.264,1.288c-2.767-1.744-6.953-8.359-8.111-8.678
		c-1.162-0.311-3.065-0.206-3.065-0.206s2.03,2.175,3.367,5.526c1.337,3.351,3.803,6.633,0.096,8.374
		c-3.706,1.74-3.351,1.335-4.576-0.119c-1.227-1.455-3.492-7.795-6.912-7.607c-3.416,0.196-3.416,0.196-3.416,0.196
		s5.891,3.097,6.867,6.85c0.968,3.753-2.028,4.683-4.258,5.569c-2.234,0.897-4.614-0.872-4.614-0.872l-2.186-4.835
		c0,0,2.281,6.731,0.834,7.961c-1.449,1.219,0.829,1.096-3.237,3.232C528.542,535.652,561.045,522.795,568.087,516.842z"/>
	
		<linearGradient id="SVGID_43_" gradientUnits="userSpaceOnUse" x1="-156.4005" y1="2245.5227" x2="-205.5779" y2="2246.7734" gradientTransform="matrix(2.0332 -0.1163 0.1163 2.0332 713.4456 -4064.092)">
		<stop  offset="0" style="stop-color:#D5D7D8"/>
		<stop  offset="0.6215" style="stop-color:#FFFFFF"/>
		<stop  offset="1" style="stop-color:#E4E5E6"/>
	</linearGradient>
	<path fill="url(#SVGID_43_)" d="M674.845,528.697c0,0-0.136-0.528-0.496-1.462c-2.359-6.282-14.265-30.643-56.477-30.777
		c-17.14-0.271-50.211,5.794-79.334,29.597c-7.116,7.093-49.491,11.178-56.207,32.445c5.857,0.083,24.879,4.006,51.04-5.833
		c11.423-4.831,22.318-18.828,29.552-23.84c8.253-5.718,28.577-18.749,67.928-17.24C653.439,512.38,669.51,525.324,674.845,528.697z
		"/>
	
		<linearGradient id="SVGID_44_" gradientUnits="userSpaceOnUse" x1="-206.2337" y1="2219.6643" x2="-167.0948" y2="2219.6643" gradientTransform="matrix(2.0332 -0.1163 0.1163 2.0332 713.4456 -4064.092)">
		<stop  offset="0" style="stop-color:#FFFFFF"/>
		<stop  offset="1" style="stop-color:#DCDDDE"/>
	</linearGradient>
	<path fill="url(#SVGID_44_)" d="M551.374,457.101c0,0,29.084,25.461,81.386,27.075
		C619.317,481.875,574.244,472.166,551.374,457.101z"/>
	<polygon fill="#54413C" points="464.908,463.81 224.9,471.521 224.079,464.961 468.54,457.836 	"/>
	
		<linearGradient id="SVGID_45_" gradientUnits="userSpaceOnUse" x1="-316.9099" y1="2264.4097" x2="-279.5661" y2="2264.4097" gradientTransform="matrix(2.0332 -0.1163 0.1163 2.0332 713.4456 -4064.092)">
		<stop  offset="0" style="stop-color:#ED1C24"/>
		<stop  offset="1" style="stop-color:#890204"/>
	</linearGradient>
	<path fill="url(#SVGID_45_)" d="M334.509,579.503c0,0,57.977-5.226,69.879-3.619c3.27-2.855,3.81-6.691,3.81-6.691
		s-9.303,3.952-17.702,3.677c-8.388-0.282-58.073,3.326-58.073,3.326L334.509,579.503z"/>
	
		<linearGradient id="SVGID_46_" gradientUnits="userSpaceOnUse" x1="-196.1775" y1="2352.0854" x2="-191.3991" y2="2250.5449" gradientTransform="matrix(2.0332 -0.1163 0.1163 2.0332 713.4456 -4064.092)">
		<stop  offset="0" style="stop-color:#9E0B0F"/>
		<stop  offset="1" style="stop-color:#600000"/>
	</linearGradient>
	<path fill="url(#SVGID_46_)" d="M578.069,578.653c0,0,1.469,10.918,3.59,18.405c2.126,7.502,25.159,114.477,26.172,132.18
		c-5.91,0.344-26.666-1.723-26.666-1.723s-27.504-117.01-5.551-147.454"/>
	<g>
		<path d="M575.613,580.061c0,0-10.521,1.024-13.326,3.727c-2.806,2.696-70.781,49.305-70.781,49.305l-75.645,45.784l15.204-0.442
			l2.951-0.174L577.43,589.69C577.43,589.69,578.613,580.744,575.613,580.061z"/>
		<polygon fill="#B8BABC" points="573.518,581.627 422.433,678.565 423.134,679.611 575.382,582.898 		"/>
	</g>
	
		<linearGradient id="SVGID_47_" gradientUnits="userSpaceOnUse" x1="-127.2923" y1="2300.1758" x2="-176.6451" y2="2313.8618" gradientTransform="matrix(2.0332 -0.1163 0.1163 2.0332 713.4456 -4064.092)">
		<stop  offset="0" style="stop-color:#FFFFFF"/>
		<stop  offset="1" style="stop-color:#DCDDDE"/>
	</linearGradient>
	<path fill="url(#SVGID_47_)" d="M615.548,528.856c0,0,15.72-11.055,34.854-2.005c19.13,9.061,62.267,28.599,92.334,90.891
		c0,0,7.227,6,12.014,46.149c3.208,36.654,6.733,64.42,6.917,67.456c0.165,3.036-0.534,19.961-7.397,20.913
		c0,0-14.654,0.289-17.433,0.166c-2.783-0.116-5.993-2.974-7.205-4.853c-1.212-1.864-7.442-9.256-17.16-9.542
		c-9.705-0.271-98.819,5.381-98.819,5.381s-10.259-77.505-16.447-103.459c-1.478-6.557-8.578-19.168-13.219-37.453
		C579.346,584.215,583.048,550.525,615.548,528.856z"/>
	
		<linearGradient id="SVGID_48_" gradientUnits="userSpaceOnUse" x1="-205.6924" y1="2355.9639" x2="-240.5314" y2="2329.0051" gradientTransform="matrix(2.0332 -0.1163 0.1163 2.0332 713.4456 -4064.092)">
		<stop  offset="0" style="stop-color:#FFFFFF"/>
		<stop  offset="1" style="stop-color:#DCDDDE"/>
	</linearGradient>
	<path fill="url(#SVGID_48_)" d="M732.129,752.665c0,0-2.528-5.388-6.613-9.032c-4.082-3.647,0.268-9.984-41.056-6.239
		c-4.149,0.239-4.149,0.239-4.149,0.239s-6.275-8.229-7.152-9.003c-0.876-0.789-3.38-0.923-3.38-0.923s-45.404,4.813-88.614-0.192
		c-27.929-3.937-97.866-16.559-108.568-48.624c-14.627,0.836-68.889,1.172-70.499,2.095c8.659,15.839,23.189,44.539,22.832,85.455
		C455.341,764.614,732.129,752.665,732.129,752.665z"/>
	
		<linearGradient id="SVGID_49_" gradientUnits="userSpaceOnUse" x1="-213.7428" y1="2349.6594" x2="-213.7428" y2="2351.7954" gradientTransform="matrix(2.0332 -0.1163 0.1163 2.0332 713.4456 -4064.092)">
		<stop  offset="0" style="stop-color:#FFFFFF"/>
		<stop  offset="0.1186" style="stop-color:#EFF0F0"/>
		<stop  offset="1" style="stop-color:#939598"/>
	</linearGradient>
	<polygon fill="url(#SVGID_49_)" points="424.674,746.426 677.082,734.496 680.311,737.633 424.667,751.142 	"/>
	
		<linearGradient id="SVGID_50_" gradientUnits="userSpaceOnUse" x1="-201.6265" y1="2356.7751" x2="-201.6265" y2="2359.7654" gradientTransform="matrix(2.0332 -0.1163 0.1163 2.0332 713.4456 -4064.092)">
		<stop  offset="0" style="stop-color:#FFFFFF"/>
		<stop  offset="0.1186" style="stop-color:#EFF0F0"/>
		<stop  offset="1" style="stop-color:#939598"/>
	</linearGradient>
	<path fill="url(#SVGID_50_)" d="M730.975,752.234c0,0-2.023-5.808-4.156-6.108c-2.135-0.308-263.244,12.51-263.244,12.51
		l-32.049,1.835c0,0-2.088,0.546-4.411-3.134c-2.323-3.677-2.323-3.677-2.323-3.677s-0.688,10.201,1.493,11.334
		c2.178,1.151,3.845,0.637,3.845,0.637L730.975,752.234z"/>
	
		<linearGradient id="SVGID_51_" gradientUnits="userSpaceOnUse" x1="-298.0549" y1="2335.9333" x2="-255.3382" y2="2341.3247" gradientTransform="matrix(2.0332 -0.1163 0.1163 2.0332 713.4456 -4064.092)">
		<stop  offset="0" style="stop-color:#77787B"/>
		<stop  offset="0.8644" style="stop-color:#CDCFD1"/>
		<stop  offset="1" style="stop-color:#F3F4F4"/>
	</linearGradient>
	<path fill="url(#SVGID_51_)" d="M369.265,648.125l1.996,136.562c0,0,18.466,11.146,47.229,8.88
		c1.773-0.734,7.438-20.087,6.302-39.907c-1.131-19.816-11.743-57.28-22.307-71.9c-10.561-14.627-27.319-33.972-27.319-33.972
		L369.265,648.125z"/>
	
		<linearGradient id="SVGID_52_" gradientUnits="userSpaceOnUse" x1="-297.2146" y1="2274.4343" x2="-297.2146" y2="2351.1667" gradientTransform="matrix(2.0332 -0.1163 0.1163 2.0332 713.4456 -4064.092)">
		<stop  offset="0" style="stop-color:#FFFFFF"/>
		<stop  offset="1" style="stop-color:#BABCBE"/>
	</linearGradient>
	<path fill="url(#SVGID_52_)" d="M377.598,673.803l0.5,110.457c0,0,5.081,1.646,6.188,1.589c1.096-0.069,1.108-4.773,1.108-4.773
		S392.5,677.66,377.598,673.803z"/>
	
		<linearGradient id="SVGID_53_" gradientUnits="userSpaceOnUse" x1="-180.8861" y1="2326.7666" x2="-158.9063" y2="2313.0811" gradientTransform="matrix(2.0332 -0.1163 0.1163 2.0332 713.4456 -4064.092)">
		<stop  offset="0" style="stop-color:#77787B"/>
		<stop  offset="0.4463" style="stop-color:#6B6C6F"/>
		<stop  offset="0.8644" style="stop-color:#CDCFD1"/>
		<stop  offset="1" style="stop-color:#F3F4F4"/>
	</linearGradient>
	<path fill="url(#SVGID_53_)" d="M586.527,563.787c0,0-3.228,32.336,7.706,46.088c10.936,13.758,143.217,137.333,143.217,137.333
		l-33.542-24.311c0,0-25.396,4.632-34.13,4.809c-8.724,0.177-59.126,6.441-59.01-6.253c0.12-12.694-27.469-95.715-29.11-124.396
		C580.021,568.383,584.382,570.677,586.527,563.787z"/>
	
		<linearGradient id="SVGID_54_" gradientUnits="userSpaceOnUse" x1="-188.0582" y1="2328.8643" x2="-185.155" y2="2247.9895" gradientTransform="matrix(2.0332 -0.1163 0.1163 2.0332 713.4456 -4064.092)">
		<stop  offset="0" style="stop-color:#000000"/>
		<stop  offset="0.6215" style="stop-color:#9FA1A4"/>
		<stop  offset="1" style="stop-color:#5C5D60"/>
	</linearGradient>
	<path fill="url(#SVGID_54_)" d="M607.424,626.047c-13.597-8.529-26.628-44.17-26.34-39.107c0.293,5.063,2.099,21.872,7.563,43.565
		c5.47,21.687,22.554,98.537,22.554,98.537l10.072-1.422l-12.381-98.277"/>
	<g>
		
			<linearGradient id="SVGID_55_" gradientUnits="userSpaceOnUse" x1="-247.1579" y1="2299.3242" x2="-247.1579" y2="2295.5894" gradientTransform="matrix(2.0332 -0.1163 0.1163 2.0332 713.4456 -4064.092)">
			<stop  offset="0" style="stop-color:#77787B"/>
			<stop  offset="1" style="stop-color:#000000"/>
		</linearGradient>
		<polygon fill="url(#SVGID_55_)" points="348.515,640.428 607.424,626.047 607.585,636.194 348.931,647.593 		"/>
		<polygon fill="#B8BABC" points="605.741,629.872 347.753,642.523 347.824,643.786 606.702,631.92 		"/>
	</g>
	<path fill="#FFFFFF" d="M587.467,565.372c0,0-2.522,29.503,13.619,47.032c16.139,17.525,137.91,132.176,137.91,132.176
		S623.203,629.535,603.027,602.225C589.355,583.719,596.282,543.067,587.467,565.372z"/>
	<path fill="#939598" d="M758.881,744.852c0,0-1.862,4.831-5.62,5.515c-3.771,0.688-13.588-0.405-15.722-0.282
		c-2.131,0.123-5.054-1.133-8.128-4.961c-3.072-3.832-5.855-6.749-5.855-6.749l-96.869-96.623l-32.264-31.656
		c0,0-16.234-9.701-8.159-47.199c1.6-5.29,7.353-12.698,7.353-12.698s-13.042,13.027-1.44,49.638
		c0.868,2.783,2.329,7.415,12.696,18.148c10.355,10.737,126.613,126.079,126.613,126.079s4.464,3.043,13.72,2.75
		C754.464,746.52,757.724,745.395,758.881,744.852z"/>
	
		<linearGradient id="SVGID_56_" gradientUnits="userSpaceOnUse" x1="212.0599" y1="2300.7168" x2="229.0159" y2="2300.7168" gradientTransform="matrix(2.0332 -0.1163 0.5043 2.0111 -917.7606 -3970.5742)">
		<stop  offset="0" style="stop-color:#ED1C24"/>
		<stop  offset="1" style="stop-color:#890204"/>
	</linearGradient>
	<path fill="url(#SVGID_56_)" d="M681.696,622.718l-6.651,0.38l-6.991-13.208l22.671-1.299l22.764,43.034l-16.009,0.915
		L681.696,622.718z"/>
	<path fill="#FFFFFF" d="M468.205,684.145c0,0,7.55,58.478,234.971,43.37c-56.379,7.437-210.277,20.435-264.385-42.74
		C456.727,685.85,468.205,684.145,468.205,684.145z"/>
</g>
</svg>
