<?xml version="1.0" encoding="utf-8"?>
<!-- Designed by Vexels.com - 2016 All Rights Reserved - https://vexels.com/terms-and-conditions/  -->

<svg version="1.0" id="Capa_1" xmlns="http://www.w3.org/2000/svg" xmlns:xlink="http://www.w3.org/1999/xlink" x="0px" y="0px"
	 width="1200px" height="1200px" viewBox="0 0 1200 1200" enable-background="new 0 0 1200 1200" xml:space="preserve">
<g>
	<path fill="#86888A" d="M99.569,721.907c0,0,32.878,13.148,75.611,23.01c42.74,9.862,59.17,23.01,75.612,39.446
		c16.436,16.439,246.766,126.069,256.621,142.505c9.862,16.436,7.831,45.485,34.129,58.633
		c26.303,13.149,70.871,19.125,97.168,2.686c26.298-16.439-23.016-52.601,52.595-52.601s289.291-52.598,289.291-52.598
		s52.601-13.152,9.867-29.588c-42.74-16.436-647.63-193.956-660.779-200.53c-13.149-6.575-205.485,27.64-205.485,27.64
		L99.569,721.907z"/>
	<g>
		<path fill="#261D1E" d="M108.942,399.47l39.22,35.171l354.6,77.097l391.324-83.252c0.096-4.282-46.282-102.475-46.282-102.475
			l-26.173-43.448L790.6,264.725l-45.443-12.449c0,0-106.912-10.966-112.616-11.094c-5.711-0.131-416.979-9.338-416.979-9.338
			l-66.482,34.23l-34.027,52.098L108.942,399.47z M810.276,422.227L792.911,281.03c22.653,11.484,60.2,103.97,65.559,120.319
			c5.372,16.35,9.522,22.647,9.522,22.647L810.276,422.227z M651.377,270.698c146.173-5.318,136.251,11.642,136.251,11.642
			l17.43,138.339c0,0-63.612-15.748-96.871-22.695c-33.259-6.95-39.232-17.109-42.793-28.644
			C661.924,353.988,651.377,270.698,651.377,270.698z M506.348,288.45c43.698-11.431,122.638-19.684,122.638-19.684
			c-0.036,1.429,7.551,88.951,6.925,95.617c-0.625,6.67,3.001,15.343-9.873,14.578c-9.599-0.572-76.367-11.723-111.628-17.591
			c-3.15-9.403-13.589-31.919-41.769-35.638C470.331,311.186,472.249,294.992,506.348,288.45z M149.812,308.632
			c5.603-15.626,13.684-35.492,30.246-50.398c56.692-16.391,127.825-16.707,127.825-16.707s80.816,14.697,82.709,15.215
			c1.9,0.521,15.871,16.108,16.305,18.032c0.435,1.918-2.87,21.412-2.87,21.412s-4.645,15.65-41.411,16.26
			c-36.767,0.604-104.083,1.006-134.715,4.618c-30.627,3.612-41.174,5.761-53.131,6.923
			C162.806,325.151,144.22,324.258,149.812,308.632z"/>
		<path fill="#150B03" d="M878.622,418.032c0,0-43.388-1.929-84.979,0.962c-41.596,2.882-140.045,8.316-179.372,16.507
			c6.217-21.819,1.328-59.164-48.766-60.28c-36.754-0.348-74.658,29.829-81.447,34.926c-6.801,5.098-8.754,6.964-8.754,6.964
			l5.074,7.75c0,0,39.041-38.267,85.896-41.513c29.174-2.689,53.042,18.851,40.834,52.467
			c-22.999,3.781-66.137,11.883-75.689,12.145c-9.558,0.262-31.609,4.544-31.609,4.544s-5.967,10.841,46.068,10.579
			c52.029-0.268,333.364-29.766,334.793-29.734C882.1,433.381,878.622,418.032,878.622,418.032z"/>
		<path fill="#522824" d="M41.4,495.037c0,0,0.565-17.223,0.494-21.936c-0.131-8.158,6.283-14.909,11.136-7.59
			C48.689,477.645,41.4,495.037,41.4,495.037z"/>
		<path fill="#3E0000" d="M51.476,465.166c0,0-3.055-3.835-4.389,0.211c-1.352,4.049-0.876,10.954-1.262,14.081
			c-0.381,3.129,0.208,4.71,0.208,4.71l4.573-8.361L51.476,465.166z"/>
		<path fill="#222223" d="M39.203,523.204c0,0-18.288,4.612-20.193,19.616c0.75,8.477,11.589,14.679,11.589,14.679
			s1.727-7.173,12.106-8.823C42.496,529.862,39.203,523.204,39.203,523.204z"/>
		<path fill="#828487" d="M235.07,304.207c0.024-1.078,2.186-17.237,0.983-27.709c-1.209-10.472-15.644-9.356-22.837-9.517
			c-7.206-0.161-48.219,0.876-73.867,36.678c-11.112,13.798-17.204,25.395-17.949,42.305c-0.738,16.909-3.364,37.74,7.39,40.143
			c10.749,2.406,68.424,16.302,85.182,23.88c-2.287,5.711-4.55,9.984-12.083,8.733c-7.533-1.248-84.806-24.949-84.806-24.949
			s-4.055-11.618-4.359-14.149c-0.304-2.525,1.393-46.068,1.393-46.068s7.444-26.845,19.646-40.98
			c12.201-14.131,48.063-39.262,63.534-38.556c15.471,0.706,33.128,0.384,37.344,4.797c4.228,4.422,7.736,8.459,7.319,10.972
			C241.55,272.297,235.07,304.207,235.07,304.207z"/>
		<path fill="#150B03" d="M233.993,271.767c0,0,0.685-7.575-20.903-8.778c-21.575-1.206-48.253,9.031-65.201,25.94
			c-16.948,16.91-28.162,36.023-29.085,60.578c-0.911,24.133-2.251,35.969,9.213,38.744c11.464,2.778,69.115,17.755,90.546,25.8
			c0.048-2.159,0.071-3.24,0.071-3.24s-42.18-14.271-62.599-19.053c-20.426-4.776-32.878-4.228-33.283-18.285
			c-0.405-14.057-2.489-36.102,9.099-58.103c10.576-20.078,35.557-45.812,81.364-48.388
			C221.142,266.797,229.788,266.634,233.993,271.767z"/>
		<path fill="#150B03" d="M451.102,355.694l34.658,112.292l147.459,3.874l259.248-34.227l-3.025-17.797
			c-1.06-4.026-64.356-139.834-64.356-139.834s-40.03-25.485-41.733-26.095c-0.649-0.235-147.84,0.038-208.296,6.199
			c-98.187,10.004-128.373,28.087-128.76,29.141C445.695,290.951,451.102,355.694,451.102,355.694z M470.117,307.688
			c6.455-11.312,20.414-16.248,36.231-19.238c15.823-2.986,117.35-18.374,198.982-18.452c42.93,1.439,84.116-4.8,115.725,33.14
			c11.576,16.01,41.322,73,46.193,89.817c4.877,16.817,7.104,24.023-16.769,24.443c-23.874,0.423-110.812,3.248-177.794,10.341
			c-66.988,7.092-97.198,13.095-121.638,17.323c0,0-29.275,6.979-46.241-2.465c-16.977-9.454-20.777-31.493-24.767-44.952
			c-3.996-13.449-14.227-68.096-14.227-68.096S463.656,318.999,470.117,307.688z"/>
		<path fill="#150B03" d="M397.668,296.683c0,0-21.748-9.849-84.58-18.821c-21.182-2.995-24.386-4.508-26.905-4.564
			c-2.519-0.057-18.014-3.222-21.468,13.327c-2.507,15.653-10.993,84.991-10.993,84.991l-3.09,25.506c0,0-4.907,26.181,9.76,30.475
			c14.673,4.288-6.134,0.578-6.134,0.578s-12.071-7.834-12.601-16.49c-0.518-8.656,16.519-126.405,16.519-126.405
			s3.537-12.89,14.048-15.894c10.505-3.011,118.756,20.303,118.756,20.303L397.668,296.683z"/>
		<path fill="#828487" d="M234.785,426.691c1.209,0.953,27.893,19.717,27.893,19.717l155.421,31.815c0,0,24.142-5.618,24.487-7.456
			c0.351-1.843,7.712-55.57,7.129-56.814c-0.59-1.245-31.979-111.89-31.979-111.89c-0.268-1.852-22.373-18.672-24.201-19.637
			c-1.823-0.965-50.404-18.374-51.625-18.707c-1.22-0.334-76.35-1.096-77.91-0.209c-1.56,0.89-13.244,13.869-14.525,15.998
			C248.196,281.637,233.576,425.741,234.785,426.691z M378.933,457.981l23.005-159.039c0,0,13.536,6.783,18.705,33.194
			c5.175,26.405,17.538,85.392,16.757,104.103c0.834,11.181-2.864,15.424-5.883,21.477c-3.014,6.056-10.332,10.936-25.738,7.349
			C390.379,461.48,378.933,457.981,378.933,457.981z M243.283,403.439c1.858-18.33,13.994-110.258,13.994-110.258
			s0.87-11.77,6.747-17.043c5.878-5.27,10.379-7.426,20.414-5.402c10.04,2.025,56.323,9.907,75.326,13.932
			c18.996,4.029,34.402,7.613,37.904,12.014l-23.743,159.745l-115.296-30.314C258.629,426.113,241.437,421.766,243.283,403.439z"/>
		<g>
			<path fill="#1F0000" d="M431.272,807.01l67.328,0.685l112.514-36.898c0,0,9.576-24.424,9.653-27.706
				c0.072-3.287-42.18-60.075-42.18-60.075s-53.845-15.986-59.55-17.755c-5.711-1.771-50.743-7.709-51.654-3.623
				c-0.917,4.085-24.898,11.761-24.177,15.885c0.732,4.127-20.545,74.272-20.604,76.737
				C422.548,756.72,431.272,807.01,431.272,807.01z"/>
			<path fill="#1F0000" d="M46.254,591.297c0,0,20.122-9.343,47.348-0.247c27.232,9.105,39.762-11.19,39.792-12.494
				c0.03-1.307-16.43-53.592-17.394-54.274c-0.965-0.667-41.227-10.717-43.18-11.086c-1.953-0.373-17.329,0.917-19.342,3.487
				c-2.018,2.564-10.082,27.199-10.099,28.182C43.354,545.845,46.254,591.297,46.254,591.297z"/>
		</g>
		<path fill="#222223" d="M79.709,538.217c-0.423-0.366-0.851-0.747-1.268-1.078c25.994-24.056,87.932-29.975,106.119,37.779
			c15.906,59.217,6.765,142.865-22.885,155.475c-33.378,7.458-49.355-1.718-49.355-1.718c-20.164-6.735-43.168-46.125-48.85-97.713
			C58.533,586.229,62.636,548.647,79.709,538.217z"/>
		<path fill="#221614" d="M523.736,710.654c-0.054-0.035-0.113-0.077-0.173-0.113c41.674-11.05,118.923-8.787,141.052,54.888
			c27.143,84.812,27.304,210.844-39.738,233.98c-28.984,10.847-59.402,2.391-59.402,2.391
			c-39.197-8.275-82.359-65.378-90.523-142.088C467.455,789.407,483.789,723.494,523.736,710.654z"/>
		<path fill="#0E0000" d="M1120.856,799.867c0,0-13.083,98.732-104.755,99.801c-69.763-0.524-75.909-51.693-75.909-51.693
			L1120.856,799.867z"/>
		<path fill="#FAA81A" d="M39.5,515.734c-0.202,9.028,0.024,72.268,0.757,76.386c0.726,4.13,6.586-0.667,6.675-4.773
			c0.089-4.103-0.417-18.074,5.044-41.769c5.514-26.157,16.032-19.348,41.263-8.929c25.226,10.421,32.545,49.999,37.523,84.6
			c4.972,34.602,26.798,49.883,26.798,49.883S413.341,800.859,431.272,807.01c17.937,6.155,15.591-72.741,26.738-93.845
			c11.154-21.099,19.908-45.535,68.846-30.484c58.693,19.381,82.049,76.574,90.434,105.503c8.385,28.927,15.549,75.903,43.127,91.3
			c27.572,15.4,56.501,7.015,56.501,7.015c-0.22,9.846,24.463,7.938,69.067-3.383c143.368-21.426,314.558-75.075,314.558-75.075
			s38.386-64.02,43.424-68.832c5.038-4.815,1.453-27.891,1.453-27.891l0.929-41.861c0,0,10.743-76.136,0.631-100.998
			c-10.939-24.88-112.866-57.547-131.636-62.898c-10.54-5.982-63.303-33.443-81.179-42.057
			c-17.883-8.614-29.853-23.665-34.521-35.266c-10.743-33.911-59.569-126.98-78.613-156.97
			c-53.006-52.926-219.141-78.818-386.734-76.001c-231.526-2.725-267.192,49.855-267.192,49.855s-7.408,0.656-17.549,13.569
			c-36.945,36.129-51.565,102.32-51.565,102.32s-25.035,54.459-29.162,92.146C43.27,457.514,39.709,506.709,39.5,515.734z
			 M516.685,274.363c90.612-17.538,207.015-14.933,241.293-10.823c34.277,4.109,51.202,15.465,68.865,36.865
			c17.663,21.397,50.767,98.991,50.767,98.991c13.934,38.499-31.699,29.835-57.466,29.737
			c-95.484,0.727-228.657,22.09-270.83,29.257c-42.162,7.17-64.666-10.996-71.002-26.411c-6.336-15.418-20.7-77.315-20.7-77.315
			C450.4,313.928,447.112,290.469,516.685,274.363z M240.347,400.872c3.424-24.746,15.424-113.259,15.424-113.259
			s3.883-24.255,30.043-19.851c26.155,4.404,79.435,12.28,94.602,16.916c15.174,4.636,32.408,10.906,38.392,33.009
			c0,0,15.322,62.23,19.693,101.465c2.037,15.799,1.572,57.797-27.876,51.407c-31.806-7.873-155.177-40.706-155.177-40.706
			S236.928,425.619,240.347,400.872z M131.822,302.021c19.145-23.913,39.684-45.89,79.274-44.049
			c17.157,0.867,27.048,6.816,26.744,20.649c-0.048,1.968-3.222,37.16-9.826,76.153c-6.604,38.991-9.123,45.139-12.125,51.279
			c-3.007,6.14-5.044,12.297-22.588,6.655c-17.537-5.645-66.828-21.069-68.263-21.099c-1.429-0.033-9.51-1.647-9.099-19.774
			C116.345,353.705,112.671,325.94,131.822,302.021z"/>
		<path fill="#D5761B" d="M1145.492,687.061c0,0-52.506,43.749-171.905,71.16c-119.393,27.406-207.278,25.434-238.786,20.104
			c-31.508-5.333-27.721-2.165-54.054,2.647c-26.334,4.806-56.24-37.511-79.584-62.719c-23.344-25.208-62.743-56.936-104.565-49.388
			c38.375,8.566,79.834,17.21,102.606,67.852c22.778,50.653,38.648,99.601,40.774,108.129c2.126,8.531,26.31,30.675,35.48,34.736
			c9.159,4.058,41.608,1.7,41.608,1.7l151.092-18.91l23.528-10.558l214.442-53.602c0,0,2.061-23.094,2.114-25.404
			c0.054-2.314,35.557-37.773,35.557-37.773L1145.492,687.061z"/>
		<path fill="#2E2E2F" d="M142.368,653.128c0,0,0.113,31.622-7.837,56.493c-4.353,10.987-9.385,15.394-15.155,16.493
			c-5.77,1.105-5.395,2.754,2.775,4.577c8.176,1.828,26.369-3.925,31.02-65.003C149.794,651.658,142.368,653.128,142.368,653.128z"
			/>
		<path fill="#545456" d="M32.188,528.379c0.893-0.31-2.906,18.118-1.018,31.327c-9.331-3.031-13-7.188-12.827-15.024
			C18.515,536.85,26.185,530.436,32.188,528.379z"/>
		<polygon fill="#150B03" points="406.6,300.125 383.203,460.238 378.933,457.981 400.907,296.754 		"/>
		<path fill="#9D9FA2" d="M1155.479,724.86c-2.59-0.187-140.552,55.802-347.216,79.92c-91.38,10.264-137.502,15.808-137.502,15.808
			s-14.114,7.071-18.461,17.651c-4.335,10.585,1.263,17.276,5.288,20.649c4.032,3.379,48.189,11.759,191.58-10.49
			c75.814-11.442,202.913-39.797,247.641-56.865c37.231-12.309,62.915-22.412,67.935-26.399c5.02-3.998,11.892-17.802,11.97-21.09
			C1176.786,740.766,1167.931,725.766,1155.479,724.86z"/>
		<path fill="#636466" d="M649.603,848.853c0,0,58.8,14.462,201.465-11.91l2.055,0.048c0,0,1.453,8.242-3.954,11.407
			c-8.647,1.039-75.808,11.854-130.487,14.73c-28.787,1.823-57.872-1.295-61.093-4.24
			C654.372,855.946,649.603,848.853,649.603,848.853z"/>
		<path fill="#8C8E90" d="M833.792,801.654c0,0,9.975-23.591,17.079-29.183c7.11-5.589,21.95-8.539,30.782,0.688
			c-11.345-6.821-17.74,3.71-17.657,18.494c0.077,14.783,1.482,43.564,1.28,52.589c-0.202,9.031-5.663,14.652,2.883,18.13
			c-12.232-3.558-19.896-9.891-19.896-9.891s8.778-6.78,2.311-29.915C846.703,811.798,844.386,805.584,833.792,801.654z"/>
		<path fill="#636466" d="M895.177,829.303c0,0,154.546-29.686,203.014-48.722c0.268,6.575-1.471,10.648-1.471,10.648
			s-39.631,13.786-85.032,24.264c-45.396,10.478-116.356,25.315-116.356,25.315S894.796,828.062,895.177,829.303z"/>
		<path fill="#8C8E90" d="M1073.46,752.408c0,0,7.83-19.532,12.47-24.767c4.633-5.235,9.695-11.282,19.509-9.418
			c9.808,1.864,12.613,5.208,12.613,5.208l4.496,74.426c0,0-2.198,6.107-12.047,5.887c-5.258-3.406-13.691-12.211-13.691-12.211
			s3.245-16.352,0.083-21.766C1093.731,764.36,1081.69,751.771,1073.46,752.408z"/>
		<path fill="#B3B5B8" d="M1138.465,664.637c-10.963,3.1-18.425,0.119-18.425,0.119c-16.34-6.833-26.547-25.22-26.047-47.206
			c0.613-27.605,22.641-51.419,47.206-50.061c25.672,1.409,43.907,22.769,39.917,51.172c0,0-1.608,22.311-18.425,37.296
			C1152.71,665.232,1138.465,664.637,1138.465,664.637z"/>
		<path fill="#5C5D60" d="M1177.411,621.933c0,0,4.317-18.068-6.473-35.066c-6.193-10.471-19.866-11.056-29.507-4.847
			c-5.664,3.504-34.707,27.998-19.914,66.312c6.074,15.498,21.986,18.011,36.129,8.073
			C1168.431,648.823,1175.214,632.495,1177.411,621.933z"/>
		<path fill="#4D4D4F" d="M1094.987,625.322c7.116,44.291,37.356,38.333,37.356,38.333s-18.008-4.919-19.651-31.496
			c0,0-4.532-32.256,25.821-52.801c7.379-5.422,19.837-5.086,24.255-1.891c-4.383-3.731-17.615-11.57-37.291-6.146
			c-7.319,2.353-12.023,7.054-12.023,7.054S1091.777,593.968,1094.987,625.322z"/>
		<path fill="#2E221C" d="M1174.981,618.524c0.822-0.125-4.186,24.764-20.068,35.308c3.436-3.555,9.802-13.47,10.177-17.657
			c2.263-1.34,2.263-1.34,2.263-1.34s2.71-8.602,2.769-11.392C1170.182,620.65,1173.296,618.768,1174.981,618.524z"/>
		<path fill="#3D3D3E" d="M1160.671,633.846c-1.161,1.927-3.633,12.488-7.021,14.09c-3.388,1.599,3.4-2.159-2.454-2.573
			c-5.86-0.408-13.113-0.851-13.113-0.851l-2.596,3.573c0,0-4.323-6.238-4.8-10.159c-0.464-3.925,12.411-5.312,13.804-4.997
			C1145.885,633.236,1160.671,633.846,1160.671,633.846z"/>
		<path fill="#C7C8CA" d="M1123.446,591.533l-6.675,11.586C1116.771,603.118,1116.127,594.165,1123.446,591.533z"/>
		<path fill="#67686B" d="M1108.16,583.788c0.262,0.842,0.703,6.44-0.292,13.119c-0.989,6.688-6.014,18.863-5.169,31.169
			c0.84,12.309,4.55,21.334,6.985,24.741c2.442,3.406-15.674-10.964-15.156-34.143
			C1095.053,595.507,1108.16,583.788,1108.16,583.788z"/>
		<path fill="#3D3D3E" d="M1174.719,605.107c0,0-18.598-4.88-51.368-1.143c-4.401,9.674-4.496,13.581-4.496,13.581
			s2.567-2.173,5.264,2.072c2.692,4.252,13.518,7.569,13.518,7.569l0.923-3.889c0,0,22.838,3.307,25.905,3.373
			c3.073,0.065,5.633-2.114,5.633-2.114s-1.548-5.616,1.798-5.824C1175.255,618.53,1175.375,613.504,1174.719,605.107z"/>
		<path fill="#A7520F" d="M804.982,650.464c9.153-1.34,93.405-14.792,168.302-27.223c57.907-9.618,112.599-18.696,114.141-18.863
			l-0.941-0.962c-0.506-0.012-18.901,1.673-113.605,17.395c-74.891,12.431-161.554,27.98-170.684,29.311L804.982,650.464z"/>
		<path fill="#3D3D3E" d="M794.471,684.393c0,0,6.021-35.263-22.903-48.742c-8.241-3.275-50.475-16.573-70.484,17.901
			c-16.972,25.755-7.938,57.323,3.198,69.213c7.902,7.777,25.732,17.919,41.697,15.9
			C757.639,737.973,791.368,727.564,794.471,684.393z"/>
		<path fill="#A3A5A8" d="M785.818,710.565c0,0-6.932,15.796-22.141,22.828c-1.399,0.17-1.774-0.637-0.363-1.304
			C764.726,731.426,773.301,726.635,785.818,710.565z"/>
		<path fill="#A3A5A8" d="M722.623,732.644c0.887,0.215-6.855-5.491-7.42-7.76c-0.566-2.275,0.488-3.484,0.298-4.302
			c-0.185-0.831-14.048-14.28-19.759-25.08C694.611,709.229,704.859,728.341,722.623,732.644z"/>
		<path fill="#B3B5B8" d="M714.358,689.341c-0.649,0,0.185,28.34,12.5,37.856c9.873,8.227,21.599,7.257,34.26,0.971
			c12.666-6.285,19.085-17.847,19.085-17.847s-12.636,14.298-13.613,12.011c-0.976-2.275,2.263-9.388,2.293-10.621
			c0.024-1.23,0.846-1.42-2.013-1.888c-2.87-0.476-5.949-0.137-5.949-0.137s-1.482,11.055-4.198,13.25
			c-2.716,2.198-3.145,2.808-3.544,1.977c-0.387-0.831,2.811-15.337,1.995-15.563c-0.816-0.226-6.027-5.884-10.678-8.862
			c-4.663-2.977-5.783-7.724-5.783-7.724s-6.723-2.412-8.366-2.239c-1.649,0.163,2.066,8.456,0.78,10.689
			c-1.274,2.23,4.871,11.815,11.124,16.68c6.259,4.856,12.952,8.498,10.058,9.662c-2.9,1.17-12.154,1.572-16.001-0.976
			c-3.841-2.546-11.279-9.689-10.57-13.986c0.715-4.3,4.842-5.023,4.657-5.854C730.204,705.92,725.44,689.386,714.358,689.341z"/>
		<path fill="#DEDFE0" d="M733.283,660.203c-0.041,1.643,0.423,8.424,0.423,8.424s1.662-0.575,2.281-0.971
			c0.625-0.393,7.235-1.897,10.296-1.212c3.061,0.688,3.77-3.4,3.77-3.4l7.587,0.375l17.638,1.01l-1.554-3.936
			c0,0-17.46,0.435-17.448-0.39c0.018-0.822,0.679-2.65-2.412-2.304c-3.079,0.334-8.284,3.296-12.595,3.201
			C736.957,660.903,733.283,660.203,733.283,660.203z"/>
		<path fill="#6B6C6F" d="M694.194,691.158c0,0,1.006-26.468,11.689-35.879c7.724-5.777,10.546,8.775,10.546,8.775
			c5.139-9.332,24.976-32.012,49.666-28.153c0.833-0.798-10.04-2.492-13.929-3.192c-3.883-0.703-24.94-4.868-42.108,10.145
			C696.873,654.052,691.734,672.622,694.194,691.158z"/>
		<path fill="#67686B" d="M786.444,688.296c0,0-6.569,18.118-14.149,26.572c4.186-12.634,0.863-19.899-0.959-21.367
			c-1.81-1.477-6.336-1.176-6.336-1.176s-6.134-1.159-6.104-2.596c0.036-1.432-0.345-2.883-2.388-3.133
			c-2.048-0.25-8.807-1.021-8.82-0.402c-0.018,0.613-1.917,3.034-2.531,3.022c-0.613-0.012-7.777-1.206-8.379-1.837
			c-0.602-0.625,0.262-2.248-1.59-2.289c-1.846-0.042-5.961,0.482-6.586,0.679c-0.619,0.182-10.808-0.337-10.808-0.337
			s0.72-8.682,5.061-14.122c16.585,1.811,23.297,0.676,31.503,1.069c8.206,0.393,12.851,3.778,11.803,4.577
			c-1.036,0.798,2.376,4.365,6.843,6.521c4.466,2.153,5.306,10.585,5.306,10.585S781.078,698.643,786.444,688.296z"/>
		<path fill="#4A4B4C" d="M713.548,688.913c0,0-0.066-24.838,32.836-45.246c16.276-11.753,31.277-3.204,40.435,9.531
			c5.949,9.159,1.852-0.17-0.929-4.544c-2.775-4.374-9.588-11.919-22.081-13.018c-12.5-1.099-27.364,11.704-33.241,17.323
			C724.695,658.581,714.554,671.488,713.548,688.913z"/>
		<path fill="#A7520F" d="M1126.507,671.286c2.626-0.926-17.466-1.319-24.273-12.526c-6.813-11.195-10.856-22.644-11.797-35.566
			c-0.941-12.92-0.994-15.713-3.013-18.815c0.81-6.098-7.765-34.539-12.142-44.457c-4.383-9.924-23.189-34.295-56.853-52.854
			c-8.474-5.407-11.815-6.711-11.815-6.711s26.279,19.009,36.212,28.135c9.921,9.126,29.876,23.079,36.415,60.066
			c3.186,8.668,6.11,14.873,6.11,14.873s3.055,0.992,1.965,8.334c-1.083,7.345-4.794,22.31,12.428,48.173
			c7.909,17.064,20.807,16.737,22.594,33.044C1122.375,677.634,1124.036,672.149,1126.507,671.286z"/>
		<path fill="#2E221C" d="M1149.19,673.022l-0.482-5.842c0,0-12.53-2.739-20.223,12.134c-7.706,14.87-4.103,29.585,2.644,32.291
			c4.871,1.953,5.246-0.795,7.086-0.759c1.834,0.045,3.413-1.766,3.413-1.766S1149.511,672.42,1149.19,673.022z"/>
		<path fill="#D5761B" d="M1121.326,696.964c0,0-1.388,7.033-21.159,12.419c-19.77,5.392-55.977,18.398-60.158,26.59
			c-4.169,8.203-15.668,28.203-15.668,28.203l6.169-1.393l11.904-24.294c0,0,1.334-4.883,10.32-8.677
			c8.992-3.787,44.907-17.108,50.475-19.134C1108.779,708.66,1120.231,704.616,1121.326,696.964z"/>
		<path fill="#A7520F" d="M894.569,773.558c0.917,0.867-8.593-13.7-28.334-9.847c-19.735,3.859-84.353,10.698-118.16,12.089
			c26.381,1.203,78.672-3.454,92.208-4.683C853.819,769.88,881.337,760.981,894.569,773.558z"/>
		<path fill="#2E221C" d="M731.437,778.191c0,0,3.281-22.956-15.316-28.896c-11.94-1.492-12.934,1.557-16.317,2.093
			c-3.389,0.539-20.753,8.129-21.385,22.549c-0.625,14.408,7.111,25.333,23.975,26.321c3.71-1.143,4.657-2.35,4.657-2.35
			l2.441,0.667C709.76,800.427,725.738,799.861,731.437,778.191z"/>
		<path fill="#514844" d="M1095.184,662.567c0,0,1.602,1.876-0.899,3.666c-2.513,1.795-85.598,26.622-85.598,26.622
			s-1.126,13.732-2.281,19.455c-1.162,5.723-10.54,12.089-23.314,14.054c-12.773,1.974-22.986-0.31-22.986-0.31
			c-1.024-0.024-6.574-8.971-6.557-9.587c0.012-0.617-1.977-12.366-1.977-12.366s-118.78,13.974-127.218,14.81
			c-6.586,0.879-10.082,1.004-11.035-2.301c11.541-2.001,144.809-21.394,144.809-21.394l-1.37-21.176c0,0,5.741-8.902,6.36-9.096
			c0.62-0.193,41.638-7.485,41.638-7.485l6.074,3.835l0.703,5.553l-0.607,17.641l11.112-1.185L1095.184,662.567z"/>
		<path fill="#282829" d="M1004.982,693.388c0,0-1.263,19.681-19.36,20.917c-11.1,0.577-17.151-4.08-20.742-9.088
			c-4.907-0.518-4.907-0.518-4.907-0.518s1.817,10.305,10.79,12.967c8.974,2.665,16.085-2.918,19.384-3.668
			C993.448,713.254,1006.555,714.775,1004.982,693.388z"/>
		<path fill="#282829" d="M1004.113,713.9c0,0-0.929,4.907-9.207,7.596c-8.277,2.686-13.25,5.047-27.185,3.906
			c-4.496-0.923-6.473-4.252-6.473-4.252s12.244,3.153,29.99-0.557C999.908,718.325,1004.113,713.9,1004.113,713.9z"/>
		<path d="M980.918,692.861c1.578-5.431,5.794-9.001,9.415-7.95c3.621,1.06,5.277,6.318,3.698,11.761
			c-1.578,5.44-5.8,8.998-9.427,7.944C980.989,703.565,979.34,698.301,980.918,692.861z"/>
		<path fill="#A7520F" d="M729.639,812.665c5.085-26.405,3.323-72.837,3.304-73.301l-2.465,0.102
			c0.042,0.911,1.709,46.94-3.257,72.738L729.639,812.665z"/>
		<path fill="#833E00" d="M718.079,886.91c1.322-3.698,5.307-21.837,5.473-22.614l-2.406-0.521
			c-0.042,0.188-4.115,18.762-5.383,22.305L718.079,886.91z"/>
		<path fill="#833E00" d="M722.045,887.824c0.286-0.051,28.721-4.725,56.341-7.349c27.697-2.636,110.246-15.847,111.068-15.983
			l-8.201-0.593c-0.821,0.134-75.486,11.497-103.106,14.122c-27.703,2.633-56.222,7.322-56.508,7.369L722.045,887.824z"/>
		<path fill="#833E00" d="M966.84,845.138c3.025-1.32,1.435,0.184,19.039-4.198c18.038-4.488,110.543-39.688,114.504-41.206
			l-0.887-2.299c-0.965,0.369-97.049,37.267-114.944,41.724c-18.121,4.505-22.456,6.917-22.635,7.012L966.84,845.138z"/>
		<path fill="#FFE065" d="M748.361,454.414c0,0,1.286-2.43,6.58-0.259c5.288,2.168,105.494,38.086,183.154,90.329
			c40.512,24.722,36.534,73.906,36.921,74.739c-1.393-10.711-3.835-48.54-38.987-73.965
			C909.731,527.834,818.482,476.927,748.361,454.414z"/>
		<path fill="#A7520F" d="M748.361,454.414c0,0-1.673,1.197,1.584,2.501c3.258,1.304,111.175,41.09,175.067,85.22
			c9.29,6.78,31.198,18.767,41.56,51.029c3.466,10.341,6.307,27.646,6.307,27.646l2.507,0.471c0,0-0.786-18.868-7.581-37.535
			c-4.866-13.372-12.75-25.779-25.91-35.07c-49.564-32.937-94.846-53.72-105.44-58.824
			C823.055,483.395,756.573,454.602,748.361,454.414z"/>
		<path fill="#636466" d="M633.714,672.063c1.018-2.242-185.834-65.678-185.834-65.678s-8.605-0.81-1.995,6.732
			c20.748,8.471,185.56,64.589,185.56,64.589S631.767,676.332,633.714,672.063z"/>
		<path fill="#636466" d="M436.757,607.986c0,0-1.876,1.188-12.262-2.736c-10.379-3.93-197.237-75.867-197.237-75.867
			s-10.874-9.481,2.573-4.869c13.446,4.612,199.714,75.302,199.714,75.302S441.729,606.248,436.757,607.986z"/>
		<path fill="#A7520F" d="M97.943,384.314c10.261-43.308,22.725-76.255,39.226-103.693c19.419-30.781,44.651-36.326,81.679-35.498
			c43.037,0.962,136.74,18.538,147.274,20.539c28.965,5.497,44.139,19.217,44.288,19.354l0.656-0.712
			c-0.155-0.137-16.377-15.319-45.616-20.866c-10.553-2.004-103.028-19.36-146.149-20.328c-37.368-0.837-63.29,5.827-82.954,37.004
			c-16.567,27.531-29.061,60.566-39.345,103.973L97.943,384.314z"/>
		<path opacity="0.3" fill="#F79E86" d="M201.252,641.582l2.632,6.33c-1.638-4.698-3.294-13.795-3.77-20.7l-0.054-0.759
			c-0.429-6.3-0.774-11.284,1.423-14.429l0.25-0.363l-0.024-0.432c-3.383-46.101,1.191-129.508,3.323-148.755
			c2.346-21.114,6.127-24.728,8.885-27.369c3.353-3.21,8.51-10.657,9.885-15.096c1.709-6.932,9.838-57.958,16.365-98.961
			c4.061-25.499,7.569-47.524,8.641-53.369c2.65-14.477,11.41-19.131,11.499-19.176l-1.107-2.197
			c-0.417,0.202-9.933,5.175-12.816,20.929c-1.078,5.875-4.585,27.912-8.647,53.432c-6.521,40.953-14.643,91.925-16.305,98.687
			c-1.215,3.915-6.092,10.984-9.218,13.971c-3.787,3.621-7.372,8.554-9.618,28.879c-2.143,19.247-6.711,102.451-3.376,148.781
			c-2.423,3.847-1.131,7.099-0.696,13.414l0.048,0.751C199.061,632.244,199.953,637.369,201.252,641.582z"/>
		<path fill="#A7520F" d="M202.181,641.609l2.638,6.324c-1.65-4.692-3.305-13.798-3.775-20.7l-0.054-0.754
			c-0.435-6.309-0.781-11.287,1.417-14.438l0.256-0.363l-0.03-0.432c-3.389-46.098,1.197-129.502,3.329-148.752
			c2.34-21.117,6.122-24.731,8.885-27.369c3.353-3.207,8.51-10.657,9.885-15.093c1.703-6.935,9.838-57.961,16.365-98.961
			c4.061-25.502,7.569-47.524,8.641-53.369c2.644-14.48,11.404-19.134,11.494-19.178l-1.114-2.198
			c-0.405,0.202-9.921,5.172-12.803,20.929c-1.078,5.872-4.586,27.915-8.653,53.429c-6.515,40.956-14.638,91.925-16.299,98.687
			c-1.215,3.918-6.098,10.984-9.224,13.974c-3.782,3.621-7.372,8.551-9.624,28.879c-2.138,19.246-6.699,102.454-3.37,148.784
			c-2.424,3.847-1.131,7.099-0.697,13.411l0.054,0.751C199.983,632.265,200.87,637.386,202.181,641.609z"/>
		<path fill="#A7520F" d="M452.537,728.445c0.208-1.834-16.555-2.206-17.621-9.942c-23.225-8.835-234.808-104.116-234.808-104.116
			s2.489-1.179-4.234-3.791c-6.718-2.611-21.355-9.102-21.355-9.102s-8.546-3.27-10.678-18.101
			c-2.126-14.828-5.598-52.476-10.094-71.669c-4.502-19.196-21.903-39.911-46.891-51.556c-20.128-9.073-32.455-8.739-38.029-7.012
			c11.69,0.262,68.561,18.779,77.541,57.785c3.174,23.475,9.76,59.345,11.332,71.696c1.567,12.356,6.241,23.549,17.246,27.492
			c10.993,3.942,22.677,4.814,25.005,11.026c4.264,1.944,232.956,103.767,232.956,103.767s2.912,7.455,7.205,8.167
			C444.409,733.802,451.769,735.204,452.537,728.445z"/>
		<path fill="#636466" d="M156.017,657.747c0,0,238.155,119.28,267.34,135.945c2.328,6.211,2.257,9.287-5.02,4.198
			c-7.277-5.089-258.229-130.202-258.229-130.202S152.814,663.216,156.017,657.747z"/>
		<path fill="#D1D3D4" d="M630.01,673.036l-187.198-65.244c0,0-2.853-4.472,8.099-0.554c10.951,3.924,174.782,61.287,174.782,61.287
			S634.75,674.978,630.01,673.036z"/>
		<path fill="#D1D3D4" d="M433.255,607.956c0,0,1.9-2.903-2.84-4.484c-4.746-1.572-207.468-79.664-207.468-79.664
			s-1.799-1.882,8.801,0.932c10.6,2.811,199.828,75.817,199.828,75.817s7.658,3.111,6.86,6.041
			C437.632,609.52,435.077,608.728,433.255,607.956z"/>
		<path fill="#D5761B" d="M750.909,451.449c-1.435,0.003,83.573-1.947,99.777-0.628c16.204,1.316,28.126,1.584,19.426,6.64
			c-8.706,5.056-36.654,16.361-36.654,16.361S863.091,451.097,750.909,451.449z"/>
		<path fill="#D5761B" d="M844.946,472.649c0,0,38.523-15.364,44.752-16.18c6.223-0.819,19.128-1.486,33.336,3.606
			c14.203,5.098,67.554,31.112,86.866,43.001c11.755,7.896,48.796,37.362,57.08,51.389
			C1029.583,519.262,959.694,463.767,844.946,472.649z"/>
		
			<linearGradient id="SVGID_1_" gradientUnits="userSpaceOnUse" x1="6193.9888" y1="606.5706" x2="6110.127" y2="575.7395" gradientTransform="matrix(-0.9997 -0.0224 -0.0224 0.9997 7266.0483 77.7131)">
			<stop  offset="0" style="stop-color:#FAA41A"/>
			<stop  offset="0.2181" style="stop-color:#FAA51D"/>
			<stop  offset="0.3538" style="stop-color:#FAA725"/>
			<stop  offset="0.467" style="stop-color:#FBAC34"/>
			<stop  offset="0.5679" style="stop-color:#FCB348"/>
			<stop  offset="0.6605" style="stop-color:#FDBC60"/>
			<stop  offset="0.7472" style="stop-color:#FEC77C"/>
			<stop  offset="0.8292" style="stop-color:#FFD49A"/>
			<stop  offset="0.9075" style="stop-color:#FFE4C1"/>
			<stop  offset="0.9803" style="stop-color:#FFF7ED"/>
			<stop  offset="1" style="stop-color:#FFFFFF"/>
		</linearGradient>
		<path opacity="0.7" fill="url(#SVGID_1_)" d="M1141.198,567.489c0,0-9.695-16.829-53.697-34.042
			c-44.008-17.216-65.321-24.85-65.321-24.85s103.16,40.018,92.553,66.509C1122.065,567.159,1132.236,564.8,1141.198,567.489z"/>
		<path fill="#D5761B" d="M1097.762,586.659c0,0-8.033,17.954-8.665,24.624c0.125-26.723-16.871-77.704-68.799-103.686
			C1073.471,541.724,1090.58,566.45,1097.762,586.659z"/>
		
			<linearGradient id="SVGID_2_" gradientUnits="userSpaceOnUse" x1="6318.4419" y1="631.6724" x2="6305.2192" y2="715.0002" gradientTransform="matrix(-0.9997 -0.0224 -0.0224 0.9997 7266.0483 77.7131)">
			<stop  offset="0" style="stop-color:#FAA41A"/>
			<stop  offset="0.2181" style="stop-color:#FAA51D"/>
			<stop  offset="0.3538" style="stop-color:#FAA725"/>
			<stop  offset="0.467" style="stop-color:#FBAC34"/>
			<stop  offset="0.5679" style="stop-color:#FCB348"/>
			<stop  offset="0.6605" style="stop-color:#FDBC60"/>
			<stop  offset="0.7472" style="stop-color:#FEC77C"/>
			<stop  offset="0.8292" style="stop-color:#FFD49A"/>
			<stop  offset="0.9075" style="stop-color:#FFE4C1"/>
			<stop  offset="0.9803" style="stop-color:#FFF7ED"/>
			<stop  offset="1" style="stop-color:#FFFFFF"/>
		</linearGradient>
		<path opacity="0.7" fill="url(#SVGID_2_)" d="M1065.396,553.891c0,0,24.308,43.978-60.009,57.836
			c-80.983,13.947-202.204,34.137-202.204,34.137s181.969-25.991,210.273-32.041c28.293-6.053,66.036-7.593,68.031-11.365
			C1083.482,598.681,1079.831,569.961,1065.396,553.891z"/>
		<path fill="#5A2B00" d="M1085.929,727.641c-1.31-1.903-8.832-6.851-12.363,1.664c-3.537,8.516-10.112,25.08-10.112,25.08
			l10.005-1.977L1085.929,727.641z"/>
		<path fill="#5A2B00" d="M848.769,774.275c0,0-14.298-4.496-18.33,4.955c-4.025,9.46-7.199,23.231-7.199,23.231l10.552-0.807
			C833.792,801.654,842.421,782.753,848.769,774.275z"/>
		<path fill="#636466" d="M1178.727,743.598c-0.131,0.084-0.435,0.313-0.9,0.664c-4.687,3.594-25.744,20.036-49.367,27.324
			c-3.079,9.477-3.079,9.477-3.079,9.477s36.344-15.161,39.363-15.93"/>
		
			<linearGradient id="SVGID_3_" gradientUnits="userSpaceOnUse" x1="6651.7505" y1="550.7701" x2="6686.2354" y2="737.1534" gradientTransform="matrix(-0.9997 -0.0224 -0.0224 0.9997 7266.0498 77.713)">
			<stop  offset="0" style="stop-color:#FAA41A"/>
			<stop  offset="0.2181" style="stop-color:#FAA51D"/>
			<stop  offset="0.3538" style="stop-color:#FAA725"/>
			<stop  offset="0.467" style="stop-color:#FBAC34"/>
			<stop  offset="0.5679" style="stop-color:#FCB348"/>
			<stop  offset="0.6605" style="stop-color:#FDBC60"/>
			<stop  offset="0.7472" style="stop-color:#FEC77C"/>
			<stop  offset="0.8292" style="stop-color:#FFD49A"/>
			<stop  offset="0.9075" style="stop-color:#FFE4C1"/>
			<stop  offset="0.9803" style="stop-color:#FFF7ED"/>
			<stop  offset="1" style="stop-color:#FFFFFF"/>
		</linearGradient>
		<path opacity="0.7" fill="url(#SVGID_3_)" d="M402.872,535.37c0,0,87.057-0.515,212.834,30.222
			c47.402,10.099,125.05,26.619,147.977,66.548c-16.305-5.288-44.847-14.144-67.912,25.583c-4.27,7.292-19.961,11.049-32.145,5.026
			c-12.184-6.018-75.356-82.165-239.655-116.228C410.072,543.743,394.66,535.186,402.872,535.37z"/>
		<path opacity="0.7" fill="#FFDB7E" d="M40.257,592.119c0,0-2.108-52.598,9.772-69.579c11.875-16.978,51.297-26.101,74.474,25.038
			c16.519,32.392,11.987,74.623,11.815,82.013c-0.161,7.384-3.269-37.035-14.143-65.196c-10.868-28.165-19.783-33.292-37.707-39.444
			c-17.931-6.149-33.664-0.753-37.309,15.591C43.508,556.886,46.801,593.09,40.257,592.119z"/>
		<path opacity="0.7" fill="#FFDB7E" d="M447.5,742.496c0,0-8.242,1.459-10.6-3.522c-2.346-4.981-2.346-4.981-2.346-4.981
			s-213.012-95.924-217.878-98.499c-4.871-2.576-13.934-1.129-13.934-1.129s0.125-5.753-13.697-11.809
			c-13.834-6.057-36.123-0.813-40.834-46.899c-4.722-46.095-13.733-84.074-45.437-97.925c-31.722-13.852-49.897-9.329-59.473,15.096
			c9.04-36.755,27.262-43.737,52.446-31.678c25.19,12.062,51.969,26.622,56.353,87.492c5.627,42.01,8.557,57.678,28.156,63.043
			c19.586,5.368,19.193,12.734,19.193,12.734l236.184,98.104l16.906,5.922L447.5,742.496z"/>
		
			<linearGradient id="SVGID_4_" gradientUnits="userSpaceOnUse" x1="6303.4268" y1="756.9067" x2="6316.9951" y2="670.5641" gradientTransform="matrix(-0.9997 -0.0224 -0.0224 0.9997 7266.0498 77.713)">
			<stop  offset="0" style="stop-color:#FAA41A"/>
			<stop  offset="0.2181" style="stop-color:#FAA51D"/>
			<stop  offset="0.3538" style="stop-color:#FAA725"/>
			<stop  offset="0.467" style="stop-color:#FBAC34"/>
			<stop  offset="0.5679" style="stop-color:#FCB348"/>
			<stop  offset="0.6605" style="stop-color:#FDBC60"/>
			<stop  offset="0.7472" style="stop-color:#FEC77C"/>
			<stop  offset="0.8292" style="stop-color:#FFD49A"/>
			<stop  offset="0.9075" style="stop-color:#FFE4C1"/>
			<stop  offset="0.9803" style="stop-color:#FFF7ED"/>
			<stop  offset="1" style="stop-color:#FFFFFF"/>
		</linearGradient>
		<path opacity="0.7" fill="url(#SVGID_4_)" d="M1086.959,608.177c0,0-3.668,17.159-31.711,22.284
			c-28.036,5.121-192.128,35.12-211.863,36.32c-19.736,1.197-34.527,1.685-52.22-15.135
			C829.802,650.044,1086.959,608.177,1086.959,608.177z"/>
		
			<linearGradient id="SVGID_5_" gradientUnits="userSpaceOnUse" x1="6697.061" y1="484.2806" x2="6746.3223" y2="664.0849" gradientTransform="matrix(-0.9997 -0.0224 -0.0224 0.9997 7266.0498 77.713)">
			<stop  offset="0" style="stop-color:#FAA41A"/>
			<stop  offset="0.2181" style="stop-color:#FAA51D"/>
			<stop  offset="0.3538" style="stop-color:#FAA725"/>
			<stop  offset="0.467" style="stop-color:#FBAC34"/>
			<stop  offset="0.5679" style="stop-color:#FCB348"/>
			<stop  offset="0.6605" style="stop-color:#FDBC60"/>
			<stop  offset="0.7472" style="stop-color:#FEC77C"/>
			<stop  offset="0.8292" style="stop-color:#FFD49A"/>
			<stop  offset="0.9075" style="stop-color:#FFE4C1"/>
			<stop  offset="0.9803" style="stop-color:#FFF7ED"/>
			<stop  offset="1" style="stop-color:#FFFFFF"/>
		</linearGradient>
		<path opacity="0.7" fill="url(#SVGID_5_)" d="M810.234,643.863c0,0,27.798-31.41-4.169-70.719
			c-31.973-39.315-138.175-63.862-211.965-69.623c-42.496-3.317-72.801-9.856-107.888-15.042
			c-14.161-2.093-15.882,2.042-17.198,1.393c-4.395-2.174-6.402-5.178-16.126-6.878c-18.877-3.294-30.037-2.087-47.057-6.685
			c-53.06-14.328-164.89-47.244-164.89-47.244s-90.481,44.925,193.218,83.999c10.504,1.453,9.707-3.147,31.037,1.879
			c9.719,2.293,20.277,15.772,26.041,13.61c2.984-1.119,48.927,10.362,69.894,16.933c36.701,11.497,124.235,26.598,168.26,40.724
			c44.038,14.125,67.322,37.636,68.454,60.658C804.392,647.835,810.234,643.863,810.234,643.863z"/>
		<path fill="#515254" d="M74.409,626.063c-3.591-31.856,3.531-58.223,17.293-59.825c14.602-1.694,28.763,21.998,33.188,53.754
			c7.521,53.908-2.043,72.145-15.811,73.693C95.318,695.237,77.988,657.929,74.409,626.063z"/>
		<path fill="#383839" d="M93.221,570.854c1.048-0.253-16.257,6.369-11.695,60.596c4.156,29.439,20.896,55.069,31.234,55.301
			c3.859-0.396,10.159-2.659,11.44-6.241c-8.897,10.624-13.834,16.287-25.607,4.961c-10.362-9.856-18.598-28.802-21.659-53.161
			C73.873,607.942,76.779,574.814,93.221,570.854z"/>
		<path fill="#8A8C8E" d="M98.485,593.816c-0.846-0.179,13.905,23.41,14.173,43.618c-0.166-13.958,5.372-14.313,5.36-13.595
			C118,624.562,112.128,596.773,98.485,593.816z"/>
		<path fill="#8A8C8E" d="M97.354,601.248c0,0,16.936,28.046,9.581,55.54c2.793-6.672,5.27-20.565,1.727-34.113
			C105.113,609.121,98.581,600.316,97.354,601.248z"/>
		<path fill="#8A8C8E" d="M113.421,657.417c0,0-0.667,8.164-7.253,12.1C108.567,670.053,113.927,666.804,113.421,657.417z"/>
		<path fill="#383839" d="M84.092,602.636c0,0,2.62-9.558,10.29-8.185c7.665,1.373,14.227,19.803,16.418,29.233
			c2.198,9.427,4.818,31.854-6.199,40.756c-4.639,3.022-8.379-1.873-8.379-1.873s5.205,3.725,9.171-1.242
			c3.955-4.964,7.414-19.559,3.001-37.461c-4.412-17.898-10.243-25.964-14.31-27.018C90.017,595.799,86.349,598.602,84.092,602.636z
			"/>
		<path fill="#383839" d="M82.496,609.335c0.096-0.712-1.167,30.764,10.66,50.514C87.278,653.944,79.316,633.558,82.496,609.335z"/>
		<path fill="#8A8C8E" d="M91.572,591.017c0,0-2.358-2.218-0.095-6.256c2.245-4.041,17.24-7.551,17.24-7.551
			s16.651,19.134,18.306,52.363c1.59,25.776,0.488,43.073-16.591,42.93c2.698-2.105,12.553-12.705,10.445-36.567
			c-0.941-11.812-2.859-12.098-2.859-12.098s-1.322-16.382-11.148-28.626C100.254,590.011,93.799,588.186,91.572,591.017z"/>
		<path fill="#5C5D54" d="M496.891,851.787c-5.187-47.098,10.385-86.402,37.41-89.287c28.518-3.037,54.62,31.115,61.497,77.496
			c11.672,78.922-7.813,106.601-34.706,109.969C534.039,953.35,502.078,898.992,496.891,851.787z"/>
		<path fill="#2D2F29" d="M537.01,769.228c2.048-0.411-32.205,10.049-26.411,90.138c6.455,43.511,37.868,80.453,58.05,80.012
			c7.533-0.884,19.907-4.713,22.581-10.099c-17.853,16.412-27.804,25.208-50.201,9.269c-19.789-13.905-34.921-41.563-39.524-77.633
			C496.909,824.902,504.573,775.728,537.01,769.228z"/>
		<path fill="#EAE6E1" d="M543.358,813.826c0,0,31.401,40.45,15.59,81.537c5.818-10.052,11.398-30.743,5.241-50.529
			C558.043,825.048,545.794,812.385,543.358,813.826z"/>
		<path fill="#474942" d="M571.531,895.86c0,0-1.733,12.131-14.78,18.434C561.39,914.919,572.014,909.729,571.531,895.86z"/>
		<path fill="#474942" d="M517.328,816.532c0,0,5.681-14.265,20.605-12.595c14.869,1.665,26.613,28.477,30.359,42.266
			c3.752,13.783,7.634,46.741-14.334,60.652c-9.237,4.812-16.276-2.2-16.276-2.2s9.987,5.175,17.996-2.459
			c8.004-7.622,15.525-29.427,7.92-55.582c-7.593-26.157-18.496-37.764-26.375-39.128
			C529.334,806.126,521.979,810.447,517.328,816.532z"/>
		<path fill="#EAE6E1" d="M513.809,826.531c0.226-1.066-4.091,45.708,18.008,74.301C520.61,892.445,506.121,862.643,513.809,826.531
			z"/>
		<path fill="#8F8F8E" d="M532.633,799.007c0,0-4.484-3.159,0.167-9.221c17.353-23.198,36.742-10.174,36.742-10.174
			s20.903,16.457,27.81,76.853c1.709,24.043,0.697,60.953-32.455,61.953c5.366-3.314,25.083-19.675,22.272-54.732
			c-1.185-17.335-2.978-22.627-2.978-22.627s-3.579-19.056-21.974-36.588C549.641,797.125,537.153,794.725,532.633,799.007z"/>
		<path fill="none" stroke="#CF8B2D" stroke-width="1.1888" stroke-miterlimit="10" d="M762.796,434.236
			c-0.155,0.825-0.608,2.599-1.561,2.162c-0.953-0.432-1.501-0.441-1.626-1.134c-0.125-0.688-0.661-0.974-0.113-1.239
			C760.056,433.762,762.796,434.236,762.796,434.236z"/>
		<path opacity="0.3" fill="#F79E86" d="M413.449,774.174c3.865,0.087,6.634-1.525,10.529-4.091
			c7.146-4.713,7.908-20.959,8.409-31.71c0.107-2.337,0.208-4.398,0.357-5.979c0.768-8.212,3.215-12.964,3.239-13.012l0.137-0.488
			c0.041-0.539,3.668-54.06,4.073-99.14c1.209-54.009,9.618-71.127,13.179-75.975c0.875-1.185,1.762-2.298,2.638-3.388
			c3.65-4.556,7.098-8.862,7.265-16.192c0.196-8.688,3.758-26.593,5.639-33.45c2.078-7.58-0.715-18.085-0.827-18.526
			c-0.137-0.673-15.037-75.909-24.416-119.36c-9.451-43.763-28.834-65.065-29.031-65.276l4.121,7.417
			c0.19,0.209,13.208,15.328,22.498,58.378c9.385,43.433,24.273,118.645,24.422,119.399c0.048,0.185,2.758,10.389,0.852,17.32
			c-2.144,7.858-5.533,25.44-5.723,34.045c-0.143,6.494-3.198,10.299-6.723,14.706c-0.9,1.117-1.811,2.257-2.698,3.469
			c-4.597,6.258-12.476,24.639-13.661,77.389c-0.381,43.463-3.775,94.769-4.043,98.768c-0.542,1.12-2.668,5.916-3.401,13.691
			c-0.149,1.61-0.25,3.707-0.357,6.095c-0.453,9.626-1.209,25.741-7.307,29.766c-7.581,4.997-9.612,6.339-30.651-5.083
			c-21.081-11.445-158.285-77.46-159.673-78.13c-0.077-0.054-14.811-8.435-22.046-19.678l-4.281-7.096
			c5.258,16.365,24.332,28.426,25.142,28.93c1.501,0.729,138.652,66.723,159.685,78.139
			C402.533,771.485,408.785,774.067,413.449,774.174z"/>
		<path fill="#A7520F" d="M414.681,774.204c3.865,0.087,6.634-1.53,10.523-4.091c7.146-4.713,7.902-20.959,8.409-31.711
			c0.113-2.337,0.209-4.398,0.357-5.975c0.768-8.218,3.222-12.967,3.24-13.015l0.143-0.495c0.041-0.533,3.669-54.054,4.067-99.14
			c1.215-54.006,9.623-71.124,13.178-75.972c0.876-1.188,1.769-2.298,2.644-3.386c3.651-4.558,7.099-8.864,7.26-16.191
			c0.196-8.691,3.763-26.599,5.645-33.456c2.073-7.577-0.714-18.082-0.833-18.526c-0.137-0.67-15.03-75.906-24.41-119.354
			c-9.451-43.767-28.84-65.068-29.037-65.279l4.126,7.417c0.191,0.209,13.208,15.332,22.499,58.381
			c9.379,43.43,24.273,118.645,24.422,119.399c0.048,0.185,2.757,10.386,0.851,17.317c-2.15,7.855-5.532,25.44-5.723,34.048
			c-0.143,6.494-3.192,10.299-6.729,14.706c-0.893,1.114-1.798,2.257-2.692,3.469c-4.597,6.256-12.476,24.636-13.661,77.383
			c-0.381,43.463-3.781,94.775-4.044,98.771c-0.542,1.122-2.668,5.919-3.4,13.694c-0.155,1.604-0.25,3.701-0.357,6.089
			c-0.452,9.632-1.209,25.741-7.313,29.766c-7.581,5-9.612,6.342-30.645-5.083c-21.081-11.439-158.291-77.457-159.673-78.124
			c-0.078-0.054-14.81-8.441-22.045-19.684l-4.282-7.096c5.258,16.368,24.333,28.429,25.143,28.936
			c1.495,0.73,138.658,66.718,159.679,78.136C403.766,771.512,410.018,774.097,414.681,774.204z"/>
		<path fill="#DEDFE0" d="M1175.076,608.183c1.31,1.04-0.982-6.169-0.982-6.169s-3.847-2.873-4.085-4.558
			c-0.245-1.685-0.197-3.919-1.87-4.234c-1.661-0.312-3.061-0.345-3.061-0.345s0.78,15.379,0.792,14.542
			C1165.894,606.581,1172.879,606.456,1175.076,608.183z"/>
		<path fill="#95979A" d="M1141.859,594.588c0.72-0.509-0.215,9.772-0.215,9.772l-15.691,2.159c0,0,4.663-8.549,5.526-9.93
			C1132.343,595.213,1137.315,597.836,1141.859,594.588z"/>
		<path fill="#2E221C" d="M1149.946,656.966c0,0-11.564,8.198-22.075-2.12c-10.51-10.323-9.016-37.303-9.016-37.303
			S1118.075,656.255,1149.946,656.966z"/>
		<path fill="#0B0A0B" d="M774.265,642.603c0,0,22.939,15.48,14.108,49.022c-7.003,26.212-25.678,43.377-47.783,43.829
			c-12.333-1.229-17.99-3.016-23.975-11.704c8.32,10.638,24.952,20.995,49.766,5.628c13.631-10.293,21.129-25.179,24.023-37.02
			c2.9-11.863,6.253-31.437-13.053-49.686C775.962,640.983,771.913,641.362,774.265,642.603z"/>
		<path fill="#DEDFE0" d="M758.193,635.305c0,0-31.205,5.3-43.949,38.985C714.024,665.458,723.445,640.301,758.193,635.305z"/>
		<path fill="#281009" d="M959.801,703.053l-8.23,1.048l0.512,13.566c0,0-0.858,10.853,14.137,10.371
			c8.641-1.039,18.526-2.456,18.526-2.456s-10.695,1.197-18.687,0.405c-6.545-0.965-5.813-8.352-5.896-11.633
			C960.057,710.038,959.801,703.053,959.801,703.053z"/>
		<path fill="#BCBEC0" d="M1095.184,662.567l-83.77,18.651l0.423-18.878c0,0-0.685-6.175-12.577-6.851
			c-11.892-0.685-37.076,5.741-41.644,7.688c-4.562,1.947-7.128,6.816-6.414,11.353c0.721,4.532,0.042,16.424,0.042,16.424
			s-2.924,2.394-4.978,2.352c-2.054-0.048-128.123,18.89-129.779,19.265c-1.643,0.378-6.271,5.195-0.107,4.928
			c6.169-0.274,155.659-19.92,155.659-19.92s6.194-19.979,18.532-20.53c8.23-1.048,13.452,4.412,14.066,13.461
			c11.958-2.197,87.599-24.731,87.599-24.731S1097.238,662.612,1095.184,662.567z"/>
		<path fill="#282829" d="M973.272,702.225c0.286,0.929,0.649,12.336,10.814,12.253c4.615-0.202,16.347-1.48,16.031-28.281
			c0.411-4.919-1.667-8.352-7.199-8.784c-2.781,0.244-6.491,1.393-6.491,1.393s10.451,0.542,11.815,8.277
			c1.066,7.718-2.978,23.025-14.393,23.999C975.54,710.899,973.272,702.225,973.272,702.225z"/>
		<path fill="#FFFFFF" d="M983.341,678.741c0,0-7.253,7.53-9.837,13.021C971.151,686.784,980.995,673.454,983.341,678.741z"/>
		<path fill="#565759" d="M1009.657,682.157l0.548-17.168c0,0,0.762-5.437-6.789-5.288c-7.551,0.149-29.775,3.344-37.57,7.188
			c-5.353,2.605-6.711,5.946-6.807,10.433c-0.101,4.499-0.167,14.135-0.167,14.135l6.764-0.974c0,0,3.74-16.299,18.723-18.845
			c10.314-1.379,18.193,5.059,21.343,14.927C1007.834,684.682,1009.657,682.157,1009.657,682.157z"/>
		<path fill="#282829" d="M999.974,660.426c0,0,4.073,1.325,3.984,5.432c-0.089,4.103-0.286,12.72-0.286,12.72l-0.107,4.925
			l2.137,3.061c0,0,4.413-2.495,4.597-10.711c0.185-8.206-0.137-12.321-0.137-12.321S1011.062,660.269,999.974,660.426z"/>
		<path fill="#282829" d="M989.869,671.702c0,0-4.866-2.986-16.466,1.679c-11.601,4.672-14.53,18.074-14.53,18.074l6.764-0.974
			C965.637,690.482,968.537,670.398,989.869,671.702z"/>
		<path fill="#FFFFFF" d="M1001.272,703.16c0,0-2.626,7.334-10.38,9.627c0.351-1.843,0.077-3.386,0.077-3.386
			s5.634-3.88,6.039-8.179C998.819,702.8,1001.272,703.16,1001.272,703.16z"/>
		<path fill="#FFFFFF" d="M994.031,696.672c0,0,2.679,3.924-0.762,6.309c-3.442,2.388-3.442,2.388-3.442,2.388
			S992.667,702.323,994.031,696.672z"/>
		<path fill="#3D3D3E" d="M993.435,690.083c-0.024,1.084-0.465,8.638-0.465,8.638c-1.334-0.574-0.756-3.147-1.548-3.01
			c-1.357,0.244-1.31-1.918-1.31-1.918c-2.209,2.108-1.441,4.02-1.441,4.02s1.304,2.192,0.488,2.173
			c-0.804-0.018-3.377-6.021-3.126-5.202c0.255,0.813,0.798,1.936-0.06,2.969c-1.113,1.325-3.561,2.346-3.561,2.346
			c-1.066-0.828,0.441-7.822,0.441-7.822l1.137-2.403c1.03,1.912,3.99,2.519,3.99,2.519c0.006-0.268-1.828-2.742-0.745-2.986
			c1.09-0.248,2.638,3.025,2.638,3.025l0.578-1.873c1.584,1.656,1.917-1.307,1.917-1.307c1.864,1.12-0.334,2.962-0.334,2.962"/>
		<polyline fill="#FFFFFF" points="1093.802,662.928 1005.703,686.564 1009.657,682.157 1095.184,662.567 		"/>
		<path fill="#FFFFFF" d="M973.307,681.421c0,0-3.865,5.728-1.548,13.676c-12.476,0.554-157.047,17.674-157.047,17.674
			l151.699-20.286C966.411,692.485,968.287,682.969,973.307,681.421z"/>
		<path fill="#808285" d="M1146.165,671.11c0,0-19.056,0.497-18.371,25.074c0.84,17.519,16.007,12.023,16.007,12.023
			s11.547-2.209,13.286-17.815c1.537-13.78-6.717-15.194-6.717-15.194S1148.589,672.39,1146.165,671.11z"/>
		<path fill="#5C5D60" d="M1148.464,705.548c0,0-10.803,2.522-10.463-12.818c0.381-3.064-0.81-4.624-0.81-4.624l-0.292-0.926
			c0,0-1.959,5.169-0.292,12.881c1.114,5.25-1.083,7.346-3.174,4.845c-2.096-2.501-5.693-6.268-4.294-14.218
			c-1.685,7.024,0.292,15.849,7.289,17.663C1141.615,709.693,1148.464,705.548,1148.464,705.548z"/>
		<path fill="#DEDFE0" d="M1154.395,687.26c2.12,0.367-10.898,7.125-10.457,14.81c-1.09-6.473-0.405-9.528-0.405-9.528l-2.204,2.409
			c0,0,2.287-6.089,4.163-7.89c1.887-1.804,1.179,2.483,2.108,2.2C1148.523,688.972,1148.273,686.2,1154.395,687.26z"/>
		<path fill="#5C5D60" d="M1151.095,675.368c0,0-9.998,1.257-13.732,10.957c-0.411-6.104,6.729-11.666,8.95-11.797
			c2.215-0.143-0.125-2.597-0.125-2.597L1151.095,675.368z"/>
		<path fill="#808285" d="M685.75,775.633c0.625-12.699,12.767-24.58,24.803-24.311c12.035,0.271,21.277,10.782,20.658,23.486
			c-0.631,12.705-10.886,22.784-22.915,22.513C696.26,797.054,685.124,788.332,685.75,775.633z"/>
		<path fill="#DEDFE0" d="M715.37,755.422c0,0-17.567,2.983-20.086,19.503c6.139,0.134,6.139,0.134,6.139,0.134l1.156,3.1
			l-7.372,0.449c0,0,1.798,1.882,3.638,1.926c1.84,0.039,2.114,1.274,2.114,1.274l-5.526,0.185c0,0-0.917,13.488,14.75,13.22
			c0,0-12.333,2.487-18.169-11.463C688.209,775.69,691.103,755.797,715.37,755.422z"/>
		<path fill="#2E2E2F" d="M1114.365,722.943c1.477-0.09,12.601,5.622,13.28,12.202c0.673,6.586,3.323,53.048,2.882,54.262
			c-0.429,1.23-0.161,7.39-9.671,10.46c-7.474,3.531-11.154,3.034-11.845-2.725c-0.696-5.764-2.185-67.39-2.185-67.39
			S1109.428,723.241,1114.365,722.943z"/>
		<path fill="#0E0000" d="M1113.222,730.169c0,0,3.465,41.412,1.531,69.299c0.399,1.504,9.635,1.337,15.018-3.758
			c1.489-7.417-1.685-62.23-3.388-64.503c-1.703-2.275-4.323-3.075-5.634-3.475C1119.445,727.332,1116.33,728.752,1113.222,730.169z
			"/>
		<path fill="#656668" d="M1074.02,752.539c0,0,17.299,4.133,22.564,19.97c1.471,7.423,1.381,16.463,0.512,18.91
			c0,0,1.263,4.659,4.467,8.015c3.209,3.362,6.068,4.243,8.938,4.309c2.87,0.068-4.913-0.521-6.33-10.407
			c-1.429-9.888,5.205-28.176-29.382-42.087C1073.096,751.584,1074.02,752.539,1074.02,752.539z"/>
		<path fill="#656668" d="M833.792,801.654c0,0,10.618,2.704,14.042,14.685c3.084,9.102,9.796,20.753,1.334,32.059
			c-1.298,2.843-0.929,4.907,0.286,5.753c1.209,0.848,7.259,5.907,14.638,6.485c-6.843-5.899-5.288-20.647-5.544-27.632
			c-0.25-6.991-0.792-19.729-22.653-33.765C832.47,805.319,833.792,801.654,833.792,801.654z"/>
		<path fill="#DEDFE0" d="M1168.353,734.505l-37.249,20.375l0.25-11.222c0,0,2.68-4.413,12.613-4.448
			c9.939-0.042,11.285-4.374,14.417-4.931C1161.511,733.73,1168.353,734.505,1168.353,734.505z"/>
		<path fill="#DEDFE0" d="M1090.89,768.32c-4.877-5.1-6.705-7.015-12.327-6.515c-5.628,0.501-24.511,8.182-31.425,10.523
			c-6.908,2.343,0.155-6.857-30.002,3.067c-30.156,9.931-23.915,9.445-35.796,11.05c-11.886,1.607-3.103-0.691-18.74,1.456
			c-15.638,2.144-11.309,3.484-20.712,5.771c-9.409,2.287-0.667,1.852-11.91,2.85c-11.255,0.995-29.424,4.955-31.294,4.916
			c-1.876-0.041-6.872,0.468-6.872,0.468l3.418,14.421c0,0,107.221-25.663,126.629-28.971c19.408-3.302,36.379-9.156,38.32-12.235
			c1.935-3.081,7.599-5.44,10.719-5.374c3.121,0.065,11.226,0.25,11.226,0.25L1090.89,768.32z"/>
		<path fill="#3D3D3E" d="M890.574,851.79c0,0-5.193,11.791-22.415,10.582c-2.442-0.872-4.823-4.624-4.192-14.462
			c0.631-9.843-1.447-63.68-1.447-63.68s4.996-21.65,21.557-9.379c8.046,7.575,9.516,15,9.79,21.164
			C894.141,802.184,896.97,840.85,890.574,851.79z"/>
		<path fill="#0E0000" d="M885.566,773.251c0,0,5.08,2.986,6.943,14.527c1.87,11.538,3.698,24.303,2.87,34.14
			c-0.827,9.835-0.309,27.51-3.692,29.895c-3.389,2.385-6.461,4.374-9.802,4.71c-3.335,0.331-6.063,0.268-6.211-6.711
			c-0.268-13.224-0.071-64.467-0.071-64.467S874.447,769.714,885.566,773.251z"/>
		<path fill="#DEDFE0" d="M845.232,820.82c0,0-72.217,22.084-190.609,17.561c9.492-6.026,1.453-9.323,14.513-7.783
			c13.066,1.536,12.988,5.276,23.052,1.134c10.07-4.136,28.84-6.833,31.961-6.768c3.114,0.072,33.033,0.742,36.778,0.828
			c3.74,0.081,60.67-7.994,78.881-13.205C844.821,811.456,848.513,813.409,845.232,820.82z"/>
		<g>
			<path fill="#636466" d="M631.445,677.705c0.161-7.417,5.116-13.316,11.059-13.188c5.943,0.137,10.618,6.253,10.457,13.67
				c-0.16,7.408-5.121,13.316-11.058,13.181C635.959,691.235,631.273,685.114,631.445,677.705z"/>
			<path fill="#D1D3D4" d="M632.72,677.729c0.143-6.235,3.597-11.211,7.711-11.121c4.121,0.089,7.343,5.22,7.2,11.458
				c-0.131,6.241-3.585,11.219-7.706,11.127C635.81,689.097,632.582,683.973,632.72,677.729z"/>
			<path fill="#D1D3D4" d="M645.106,667.349c0,0,5.014,4.588,3.77,12.237c2.334,0.694,2.787-0.577,2.787-0.577
				S651.436,670.056,645.106,667.349z"/>
			<path fill="#2E2E2F" d="M637.793,670.172c-0.226,0.631-1.31,10.844,7.694,8.697c1.018,2.156-1.465,8.287-3.406,9.308
				c0.75-5.1-1.453-11.121-9.362-10.448C632.821,673.263,637.793,670.172,637.793,670.172z"/>
		</g>
		<path opacity="0.3" fill="#F79E86" d="M799.479,650.699c1.596,0.039,2.709-0.554,2.769-0.59l-1.602-0.363
			c-0.054,0.029-1.316,0.393-3.139-0.212c-1.834-0.613-2.793-3.15-4.12-5.967l-0.56-1.206c-4.419-9.617-17.841-38.869-76.731-55.992
			c-61.111-17.77-202.305-44.258-216.318-45.928c-6.896-0.825-10.237-1.831-11.16-3.359c-0.554-0.914-0.387-2.251,0.572-4.764
			c2.114-5.538,7.271-12.857,13.214-21.346l3.633-5.866c-7.855,7.507-16.311,20.977-18.461,26.596
			c-1.012,2.641-1.435,4.612-0.434,6.271c1.28,2.117,4.645,3.248,12.428,4.18c13.995,1.67,155.005,28.123,216.05,45.872
			c58.128,16.901,71.306,45.621,75.641,55.048l0.56,1.23c1.548,3.278,3.508,5.324,5.83,6.083
			C798.3,650.598,798.919,650.69,799.479,650.699z"/>
		<path fill="#A7520F" d="M799.831,651.47c1.602,0.035,2.709-0.554,2.775-0.59l-1.596-0.363c-0.06,0.027-1.322,0.387-3.145-0.211
			c-1.834-0.617-2.793-3.153-4.121-5.967l-0.559-1.212c-4.413-9.617-17.841-38.865-76.725-55.992
			c-61.122-17.77-202.311-44.252-216.323-45.926c-6.896-0.824-10.237-1.831-11.16-3.361c-0.554-0.912-0.393-2.248,0.572-4.767
			c2.12-5.532,7.277-12.851,13.214-21.343l3.633-5.866c-7.855,7.507-16.311,20.979-18.461,26.595
			c-1.012,2.641-1.435,4.616-0.429,6.271c1.281,2.12,4.645,3.251,12.422,4.18c13.995,1.673,155.005,28.126,216.05,45.875
			c58.127,16.903,71.306,45.621,75.641,55.051l0.56,1.229c1.554,3.278,3.508,5.321,5.83,6.08
			C798.663,651.369,799.277,651.458,799.831,651.47z"/>
		
			<linearGradient id="SVGID_6_" gradientUnits="userSpaceOnUse" x1="6864.187" y1="203.4219" x2="6853.606" y2="413.5181" gradientTransform="matrix(-0.9997 -0.0224 -0.0224 0.9997 7266.0498 77.713)">
			<stop  offset="0" style="stop-color:#FAA41A"/>
			<stop  offset="0.2181" style="stop-color:#FAA51D"/>
			<stop  offset="0.3538" style="stop-color:#FAA725"/>
			<stop  offset="0.467" style="stop-color:#FBAC34"/>
			<stop  offset="0.5679" style="stop-color:#FCB348"/>
			<stop  offset="0.6605" style="stop-color:#FDBC60"/>
			<stop  offset="0.7472" style="stop-color:#FEC77C"/>
			<stop  offset="0.8292" style="stop-color:#FFD49A"/>
			<stop  offset="0.9075" style="stop-color:#FFE4C1"/>
			<stop  offset="0.9803" style="stop-color:#FFF7ED"/>
			<stop  offset="1" style="stop-color:#FFFFFF"/>
		</linearGradient>
		<path opacity="0.7" fill="url(#SVGID_6_)" d="M612.639,254.607c0,0-62.79,2.37-102.355,13.581
			c-39.559,11.207-68.555,23.409-61.998,68.158c5.532,22.799,25.16,125.283,25.16,125.283l-30.365-129.183
			c0,0-10.886-53.912-37.851-65.098c-26.959-11.187-81.107-23.74-137.681-28.787c-56.591-5.047-72.515-2.379-74.784-2.43
			c-2.275-0.051,43.389-13.39,124.848-5.52C399.073,238.484,526.416,256.454,612.639,254.607z"/>
		<path fill="#EA991A" d="M767.881,242.209c2.948,0.655-192.533-77.636-530.804-27.006
			C382.476,203.34,658.059,217.829,767.881,242.209z"/>
		<path fill="#D5761B" d="M830.237,297.868c1.263,1.775-13.953-25.86-41.506-34.405c-54.268-16.826-166.563-7.59-166.563-7.59
			s134.65-3.254,168.648,12.923C810.442,277.162,823.71,288.664,830.237,297.868z"/>
		
			<linearGradient id="SVGID_7_" gradientUnits="userSpaceOnUse" x1="7089.5898" y1="427.4954" x2="7122.9727" y2="544.7024" gradientTransform="matrix(-0.9997 -0.0224 -0.0224 0.9997 7266.0498 77.713)">
			<stop  offset="0" style="stop-color:#FAA41A"/>
			<stop  offset="0.2181" style="stop-color:#FAA51D"/>
			<stop  offset="0.3538" style="stop-color:#FAA725"/>
			<stop  offset="0.467" style="stop-color:#FBAC34"/>
			<stop  offset="0.5679" style="stop-color:#FCB348"/>
			<stop  offset="0.6605" style="stop-color:#FDBC60"/>
			<stop  offset="0.7472" style="stop-color:#FEC77C"/>
			<stop  offset="0.8292" style="stop-color:#FFD49A"/>
			<stop  offset="0.9075" style="stop-color:#FFE4C1"/>
			<stop  offset="0.9803" style="stop-color:#FFF7ED"/>
			<stop  offset="1" style="stop-color:#FFFFFF"/>
		</linearGradient>
		<path opacity="0.7" fill="url(#SVGID_7_)" d="M206.498,423.29c-2.984,0.673-9.51,27.238-9.79,39.845
			c-15.941-17.424-101.605-35.665-108.197-39.521c-6.593-3.859-2.865-37.91,19.276-32.22
			C129.91,397.085,206.498,423.29,206.498,423.29z"/>
		<path fill="#474942" d="M532.633,799.007c0,0,21.426-5.089,35.528,14.263c14.078,19.324,24.005,45.035,16.025,74.572
			c-8.015,29.641-18.675,28.42-18.675,28.42s16.305,0.399,23.231-27.077c6.902-27.384-0.601-54.531-17.693-77.354
			C553.922,788.961,534.384,794.031,532.633,799.007z"/>
		<path d="M481.908,763.423c0,0,18.699-48.418,71.99-32.816c53.292,15.608,76.642,80.986,75.677,160.221
			c-5.33,59.128-21.79,114.802-71.318,109.689c13.607,0.307,28.078-2.57,43.936-31.037c16.502-29.642,24.136-77.121,12.643-135.826
			c-11.493-58.705-40.369-92.173-73.051-98.515C509.104,728.802,490.358,743.598,481.908,763.423z"/>
		<path fill="#383839" d="M91.572,591.017c0,0,10.898-3.12,18.532,10.278c7.634,13.399,13.256,31.092,9.683,50.969
			c-3.573,19.884-9.082,18.798-9.082,18.798s8.402,0.673,11.464-17.782c3.061-18.446-1.334-37.071-10.606-52.911
			C102.303,584.524,92.364,587.671,91.572,591.017z"/>
		<path fill="#6F0705" d="M517.102,493.872c0.459-0.16,46.628-16.18,140.182-31.559c100.325-16.495,180.224-15.489,209.922-14.295
			c35.844,1.444,45.913,5.493,46.015,5.535l-10.123-2.772c-10.207-2.924-18.592-3.835-55.084-5.306
			c-29.764-1.197-90.577-2.126-191.128,14.408c-93.798,15.424-123.984,27.721-124.437,27.882L517.102,493.872z"/>
		<path fill="#D5761B" d="M901.531,443.311c2.478,1.191-82.692-5.535-174.34,5.294c-91.654,10.832-166.777,23.257-207.587,37.681
			c-8.016,1.664-24.523-1.158-33.098-1.352c-8.582-0.193-13.328-7.661-10.219-9.436c3.108-1.766,170.904-24.383,221.564-31.845
			c57.859-8.519,169.564-10.922,171.422-11.496c1.852-0.575,14.155-2.141,19.229-9.385
			C893.563,415.525,888.18,436.874,901.531,443.311z"/>
		<g>
			<path fill="#4D4D4F" d="M766.393,427.965l36.004-22.022l-20.759,1.65c0,0-4.115-4.746-1.149-5.1
				c2.972-0.354,36.04-4.687,38.613-6.321c2.572-1.632,4.675-1.164,8.45,0.191c3.77,1.352,10.546,0.661,16.888,0.798
				c6.343,0.146,21.939,2.186,21.939,2.186s5.008,2.647-3.865,2.448c-8.867-0.197-50.797,3.091-50.797,3.091l-37.791,26.208
				l-5.449-1.813c0,0-0.471,11.395-8.409,10.118c-7.944-1.277-3.382-8.456-2.805-9.543
				C757.836,428.769,766.393,427.965,766.393,427.965z"/>
			<path fill="#C9CACC" d="M855.623,399.949c0,0-31.127,0.843-33.593,1.096c-2.465,0.253,2.465-0.253,2.465-0.253l-2.066-3.746
				l3.377,0.387l2.442,0.977L855.623,399.949z"/>
		</g>
		<g>
			<path d="M743.871,411.919c-0.327,0.917-52.416,3.138-52.416,3.138s-23.153,2.254-24.999,2.209
				c-1.846-0.039-0.613-0.012-0.274-1.545c0.345-1.53,25.684-5.276,26.601-5.252c0.923,0.018,52.327,1.17,52.327,1.17"/>
			<path fill="#4D4D4F" d="M745.11,411.639l-4.586-1.334c0,0-39.381-1.807-41.227-1.849c-1.846-0.039-5.818-1.67-5.818-1.67
				s-6.455-0.45-7.998-0.179c-1.542,0.277-0.048,2.156-0.048,2.156s-48.772,5.065-50.005,5.041c-1.232-0.03-1.351,5.511-1.351,5.511
				l28.096-3.374c0,0-54.84,28.641-55.781,29.546c-0.953,0.902-4.925-0.42-5.586,1.721c-0.661,2.141-1.09,7.366-0.19,8.313
				c0.905,0.941,5.496,2.278,7.366,1.087c1.876-1.188,0.798-7.989,0.798-7.989s3.71-0.533,5.866-0.485
				c2.15,0.048,13.947-3.996,17.115-7.932c3.162-3.93,34.42-24.481,34.42-24.481s24.404-3.15,26.863-3.094
				C695.51,412.684,745.11,411.639,745.11,411.639z"/>
		</g>
		<polygon fill="#DEDFE0" points="1155.681,619.486 1150.655,619.372 1150.143,617.41 1137.774,616.82 1138.56,623.297 
			1150.309,622.442 1151.375,624.699 1155.86,624.24 		"/>
	</g>
</g>
</svg>
