<?xml version="1.0" encoding="utf-8"?>
<!--Designed by Vexels.com - 2017 All Rights Reserved - https://vexels.com/terms-and-conditions/-->
<svg version="1.1" id="Layer_1" xmlns="http://www.w3.org/2000/svg" xmlns:xlink="http://www.w3.org/1999/xlink" x="0px" y="0px"
	 viewBox="0 0 1200 1200" width="1200px" height="1200px" enable-background="new 0 0 1200 1200" xml:space="preserve">
<g>
	<path fill="#FFFFFF" d="M359.208,494.696c22.086-10.521,48.881-18.198,76.668-23.856c0.494-0.101,0.985-0.197,1.479-0.296
		c50-10.038,103.015-13.566,137.583-15.188c9.503-0.446,17.242-0.534,23.65-0.329l0,0c0.014,0,0.023,0,0.036,0
		c30.061,0.961,30.13,8.463,38.492,16.827c10.156,10.15,66.836,69.794,66.836,69.794s-25.902,0.623-64.07,1.465l0,0
		c-2.631,0.058-5.321,0.121-8.064,0.178l0,0c-44.095,0.964-102.086,2.164-155.512,3.046l0,0c-0.822,0.015-1.63,0.027-2.45,0.041
		c-42.67,0.698-82.228,1.192-109.146,1.192C271.227,547.57,297.029,524.303,359.208,494.696z"/>
	<path fill="#FFFFFF" d="M400.451,457.577c0,0-122.775,39.022-176.706,69.16c2.536,9.518,14.273,8.883,14.273,8.883l165.285-66.305
		L400.451,457.577z"/>
	<path fill="#2C2327" d="M1076.187,703.232c0,0-24.957,30.458-94.753,30.458c-69.793,0-82.482,0-98.979,0
		c-16.496,0-54.489-0.427-65.948-8.038c-16.113,0-511.867,0-572.355,0c-60.489,0-140.432-4.232-159.043-33.419
		C66.496,690.544,50,673.876,50,664.655c0-9.222,8.034-36.719,23.686-36.719c15.652,0,255.916-54.585,255.916-54.585l654.355-0.005
		L1076.187,703.232z"/>
	<g>
		<path fill="#30303B" d="M827.764,681.028c0-48.011,38.918-86.931,86.928-86.931c48.007,0,86.925,38.92,86.925,86.931
			c0,48.005-38.918,86.922-86.925,86.922C866.682,767.95,827.764,729.033,827.764,681.028z"/>
		<path fill="#8592A5" d="M858.536,681.028c0-31.016,25.144-56.154,56.156-56.154c31.012,0,56.152,25.138,56.152,56.154
			c0,31.012-25.14,56.15-56.152,56.15C883.68,737.178,858.536,712.04,858.536,681.028z"/>
		<path fill="#444A55" d="M869.324,681.028c0-25.056,20.313-45.368,45.368-45.368c25.056,0,45.365,20.312,45.365,45.368
			c0,25.053-20.309,45.361-45.365,45.361C889.637,726.389,869.324,706.081,869.324,681.028z"/>
		<path fill="#748091" d="M903.769,685.256c-0.512-1.317-0.818-2.734-0.818-4.229c0-1.326,0.27-2.584,0.672-3.772l-0.1,0.154
			L876.6,666.326l11.582-14.752l19.013,20.416l-0.107,0.156c1.786-1.529,4.02-2.513,6.495-2.746l-0.178-0.041l2.057-28.252
			l18.083,6.183l-12.743,23.727l-0.093-0.019c2.315,1.394,4.092,3.547,5.007,6.131l25.916-6.836l0.793,19.825l-26.221-6.901
			c-0.573,3.041-2.318,5.651-4.747,7.373l15.74,22.214l-19.512,7.931l-4.007-28.075c-2.137-0.181-4.109-0.901-5.764-2.075
			l-18.467,20.793l-11.736-14.914l26.001-11.265L903.769,685.256z"/>
	</g>
	<g>
		<path fill="#30303B" d="M223.725,681.028c0-48.011,38.917-86.931,86.926-86.931c48.008,0,86.925,38.92,86.925,86.931
			c0,48.005-38.917,86.922-86.925,86.922C262.642,767.95,223.725,729.033,223.725,681.028z"/>
		<path fill="#8592A5" d="M254.498,681.028c0-31.016,25.143-56.154,56.153-56.154c31.009,0,56.152,25.138,56.152,56.154
			c0,31.012-25.143,56.15-56.152,56.15C279.641,737.178,254.498,712.04,254.498,681.028z"/>
		<path fill="#444A55" d="M265.282,681.028c0-25.056,20.313-45.368,45.369-45.368c25.056,0,45.366,20.312,45.366,45.368
			c0,25.053-20.31,45.361-45.366,45.361C285.595,726.389,265.282,706.081,265.282,681.028z"/>
		<path fill="#748091" d="M299.729,685.256c-0.51-1.317-0.816-2.734-0.816-4.229c0-1.326,0.268-2.584,0.672-3.772l-0.104,0.154
			l-26.919-11.083l11.579-14.752l19.013,20.416l-0.104,0.156c1.785-1.529,4.019-2.513,6.493-2.746l-0.176-0.041l2.056-28.252
			l18.083,6.183l-12.744,23.727l-0.092-0.019c2.315,1.394,4.092,3.547,5.002,6.131l25.915-6.836l0.796,19.825l-26.217-6.901
			c-0.576,3.041-2.321,5.651-4.749,7.373l15.736,22.214l-19.508,7.931l-4.008-28.075c-2.133-0.181-4.109-0.901-5.764-2.075
			l-18.467,20.793l-11.737-14.914l26.005-11.265L299.729,685.256z"/>
	</g>
	<path fill="#EDAF22" d="M65.438,672.987c0,0,19.351,12.69,26.967,16.815c7.614,4.123,12.37,8.563,39.655,8.563
		c27.284,0,45.051,1.272,59.641,1.272c14.597,0,17.452-11.739,22.527-27.601c5.075-15.863,17.129-40.609,34.58-52.348
		c17.449-11.737,39.335-17.132,78.041-17.132c38.704,0,52.983,14.279,63.132,31.725c10.154,17.449,16.816,40.609,19.039,51.714
		c2.218,11.102,3.485,21.89,17.445,21.89H797.01c14.276,0,17.448-7.298,20.622-22.845c3.174-15.542,10.15-50.125,28.872-68.841
		c18.714-18.718,37.114-24.745,76.454-24.745c39.341,0,66.303,26.967,73.602,39.018c7.296,12.057,12.37,36.803,15.542,52.982
		c3.171,16.182,7.616,27.922,29.507,27.922c21.888,0,80.263,0,80.263,0l-6.137-9.836c0,0,12.692-8.884,16.288-22.844
		c7.825,0,15.649-17.127,1.48-24.956c-1.907-16.711-5.923-23.482-42.512-40.185c-1.056-24.532-9.304-50.97-32.57-54.777
		c-23.265-3.808-90.098-12.477-204.309-13.323c-32.569-5.5-72.329-13.114-72.329-13.114l-5.983-4.159
		c-0.023,0.008-0.04,0.011-0.058,0.018l0.982,0.625c-7.894,2.837-25.845,8.878-36.977,9.449c-14.596,0.75-18.084-2.816-25.539-9.953
		c-7.455-7.137-61.069-61.865-68.048-69c-6.981-7.137-4.444-10.15-1.272-12.689c1.668-1.332,4.377-3.359,6.58-4.991
		c0.032,0.115,0.032,0.178,0.032,0.178s0.21-7.4-44.84-9.304c-45.05-1.905-118.968,1.584-215.411,19.034
		c0.635,4.44,0,15.23-23.475,22.524c-23.476,7.296-103.105,40.925-117.698,47.587c-14.593,6.661-20.622,5.707-25.697,2.538
		c-17.449,7.931-125.949,67.257-139.59,78.676c-13.64,11.422-13.324,21.731-13.324,21.731v28.078
		C56.336,654.904,60.363,669.729,65.438,672.987z M359.208,494.696c22.086-10.521,48.881-18.198,76.668-23.856
		c0.494-0.101,0.985-0.197,1.479-0.296c50-10.038,103.015-13.566,137.583-15.188c9.503-0.446,17.242-0.534,23.65-0.329
		c0.014,0,0.023,0,0.036,0c30.061,0.961,30.13,8.463,38.492,16.827c10.156,10.15,66.836,69.794,66.836,69.794
		s-25.902,0.623-64.07,1.465c-2.631,0.058-5.321,0.121-8.064,0.178c-44.095,0.964-102.086,2.164-155.512,3.046
		c-0.822,0.015-1.63,0.027-2.45,0.041c-42.67,0.698-82.228,1.192-109.146,1.192C271.227,547.57,297.029,524.303,359.208,494.696z"/>
	<path fill="#F9C04F" d="M1074.062,584.375c0-5.385-4.448-13.986-12.102-24.797c-1.141-0.322-2.315-0.598-3.539-0.8
		c-23.265-3.808-90.098-12.477-204.309-13.323c-32.569-5.5-72.329-13.114-72.329-13.114l-5.983-4.159
		c-0.023,0.008-0.04,0.011-0.058,0.018l0.982,0.625c-7.894,2.837-25.845,8.878-36.977,9.449c-14.596,0.75-18.084-2.816-25.539-9.953
		c-7.455-7.137-61.069-61.865-68.048-69c-6.981-7.137-4.444-10.15-1.272-12.689c1.668-1.332,4.377-3.359,6.58-4.991
		c0.032,0.115,0.032,0.178,0.032,0.178s0.21-7.4-44.84-9.304c-45.05-1.905-118.968,1.584-215.411,19.034
		c0.635,4.44,0,15.23-23.475,22.524c-23.476,7.296-103.105,40.925-117.698,47.587c-14.593,6.661-20.622,5.707-25.697,2.538
		c-17.449,7.931-125.949,67.257-139.59,78.676c-7.141,5.98-10.44,11.639-11.977,15.689c38.474-7.581,124.766-23.388,125.521-12.828
		c0.971,13.592-6.794,42.718,10.681,43.689c13.59-23.3,43.081-55.327,101.637-55.327l0.241-0.003
		c31.375-2.926,65.234,3.87,76.884,19.405c11.65,15.534,19.356,35.603,34.892,36.571c15.531,0.974,21.298-45.94,53.337-45.94
		c32.038,0,339.316,0,339.316,0s-2.425,19.73,0.488,40.118c14.563-32.039,24.273-42.057,41.748-50.794
		c17.476-8.737,95.144-15.704,120.387,6.627c25.244,22.333,30.097,30.492,29.127,37.287
		C1015.81,609.212,1044.936,584.375,1074.062,584.375z M639.88,543.113c-2.631,0.058-5.321,0.121-8.064,0.178
		c-44.095,0.964-102.086,2.164-155.512,3.046c-0.822,0.015-1.63,0.027-2.45,0.041c-42.67,0.698-82.228,1.192-109.146,1.192
		c-93.482,0-67.679-23.267-5.5-52.875c22.086-10.521,48.881-18.198,76.668-23.856c0.494-0.101,0.985-0.197,1.479-0.296
		c50-10.038,103.015-16.974,137.583-18.596c9.503-0.447,17.242-3.725,23.65-3.725c0.014,0,0.023,0,0.036,0
		c30.061,1.405,30.13,11.857,38.492,20.224c10.156,10.15,66.836,71.514,66.836,71.514S678.048,542.27,639.88,543.113z"/>
	<path fill="#FFFFFF" d="M652.922,442.81l121.773,84.608l-0.104,0.048l2.133,1.359c-7.894,2.837-25.845,8.878-36.977,9.449
		c-14.596,0.75-18.084-2.816-25.539-9.953c-7.455-7.137-61.069-61.865-68.048-69c-6.981-7.137-4.444-10.15-1.272-12.689
		c1.668-1.332,4.377-3.359,6.58-4.991c0.032,0.115,0.032,0.178,0.032,0.178L652.922,442.81L652.922,442.81z"/>
	<path fill="#8592A5" d="M724.995,550.448c0,0-3.49-15.596-10.787-19.244c-7.296-3.653-11.263-3.332-11.263,0.953
		c0,4.28,0,9.246,0,12.394c0,3.149,0.796,6.164,5.552,3.942c4.758-2.221,8.566-3.173,8.566-3.173s1.904,2.645,1.743,5.127
		c-0.155,2.485-3.329,4.07-1.428,6.766c1.904,2.697,6.823,3.018,14.278,3.018s11.422-1.746,11.264-4.286
		C742.762,553.411,733.879,551.614,724.995,550.448z"/>
	<path fill="#444A55" d="M1015.699,664.655c0,2.801,2.273,5.074,5.075,5.074h124.151c2.805,0,5.075-2.273,5.075-5.074l0,0
		c0-2.805-2.27-5.078-5.075-5.078h-124.151C1017.972,659.578,1015.699,661.851,1015.699,664.655L1015.699,664.655z"/>
	<path fill="#444A55" d="M56.336,664.655c0,2.801,2.271,5.074,5.074,5.074H199.95c2.805,0,5.077-2.273,5.077-5.074l0,0
		c0-2.805-2.271-5.078-5.077-5.078H61.409C58.607,659.578,56.336,661.851,56.336,664.655L56.336,664.655z"/>
	<polygon fill="#CC2129" points="71.465,652.684 136.077,652.684 123.388,623.707 71.465,623.707 	"/>
	<path fill="#B38220" d="M816.506,690.118c-2.938,12.054-6.882,17.768-19.497,17.768c-14.276,0-356.587,0-370.546,0
		c-12.212,0-14.708-8.263-16.634-17.768H816.506z"/>
	<path fill="#444A55" d="M776.724,528.825c-7.894,2.837-25.845,8.878-36.977,9.449c-14.596,0.75-18.084-2.816-25.539-9.953
		c-7.455-7.137-61.069-61.865-68.048-69c-6.981-7.137-4.444-10.15-1.272-12.689c1.668-1.332,4.377-3.359,6.58-4.991
		c0.032,0.115,0.032,0.178,0.032,0.178l3.042,2.116c-2.292,1.686-5.513,4.082-7.359,5.564c-0.76,0.606-1.776,1.479-1.811,2.062
		c-0.016,0.273,0.073,1.78,3.409,5.197c7.721,7.893,60.589,61.85,67.967,68.912l0.325,0.317c6.438,6.166,9.1,8.717,19.081,8.717
		c1.06,0,2.191-0.032,3.404-0.096c9.519-0.487,24.639-5.297,33.242-8.289L776.724,528.825z"/>
	<path fill="#748091" d="M477.286,570.114c2.78,0,5.156,1.705,6.156,4.125h40.102v5.076h-40.102c-1,2.421-3.376,4.125-6.156,4.125
		c-3.68,0-6.661-2.983-6.661-6.665C470.626,573.099,473.606,570.114,477.286,570.114z"/>
	<path fill="#444A55" d="M364.709,547.57c26.918,0,66.476-0.494,109.146-1.192c0.82-0.014,1.628-0.026,2.45-0.041l0,0
		c53.426-0.882,111.417-2.082,155.512-3.046l0,0c2.743-0.058,5.433-0.121,8.064-0.178l0,0c38.168-0.842,64.07-1.465,64.07-1.465
		s-56.68-59.644-66.836-69.794c-8.362-8.364-8.43-15.866-38.492-16.827c-0.012,0-0.022,0-0.036,0l0,0
		c-6.408-0.205-14.147-0.117-23.65,0.329c-34.569,1.623-87.583,5.151-137.583,15.188c-0.494,0.099-0.985,0.195-1.479,0.296
		c-27.787,5.658-54.581,13.335-76.668,23.856C297.029,524.303,271.227,547.57,364.709,547.57z M638.27,538.829l-29.677-78.828
		c14.002,1.571,17.254,5.425,21.359,10.311c1.174,1.402,2.506,2.986,4.112,4.594c7.91,7.909,44.723,46.554,60.046,62.657
		C683.019,537.822,663.168,538.28,638.27,538.829z M474.669,542.044l-26.396-69.166c35.772-6.51,78.146-10.927,126.864-13.211
		c6.137-0.287,11.73-0.432,16.631-0.432c3.107,0,5.904,0.056,8.465,0.159l29.969,79.614
		C585.853,539.973,527.861,541.17,474.669,542.044z M361.065,498.592c17.954-8.551,40.345-15.778,67.021-21.663l24.977,65.454
		c-34.636,0.524-65.965,0.868-88.354,0.868c-53.46,0-56.812-8-57.017-8.909C307.34,532.785,308.261,523.737,361.065,498.592z"/>
	<path fill="#BBCEE2" d="M1126.521,651.204c0,0-2.96-21.15-18.608-21.15c-15.652,0-38.283,0-45.262,0s-12.054,0.843-14.803,6.766
		c-2.752,5.924-6.345,14.383-6.345,14.383H1126.521z"/>
	<path fill="#CC2129" d="M1062.651,630.054c6.137,0,24.381,0,39.341,0v21.15h-60.489c0,0,3.594-8.459,6.345-14.383
		C1050.597,630.897,1055.672,630.054,1062.651,630.054z"/>
	<path fill="#A8C1CD" d="M1061.034,563.024v-3.638c21.231,5.315,28.931,30.569,29.957,54.13c-0.119,0.069-0.215,0.117-0.215,0.117
		l-5.917-2.596L1061.034,563.024z"/>
	<path fill="#444A55" d="M1058.421,558.778c2.143,0.351,4.116,0.953,6.009,1.668c12.456,27.306,23.274,47.546,26.345,53.186
		l-8.031,1.152c-4.58-8.54-15.562-29.561-27.662-56.537C1056.269,558.435,1057.405,558.614,1058.421,558.778z"/>
</g>
</svg>
